<!--Created with Inkscape (http://www.inkscape.org/)--><svg xmlns:dc="http://purl.org/dc/elements/1.1/" xmlns:cc="http://creativecommons.org/ns#" xmlns:rdf="http://www.w3.org/1999/02/22-rdf-syntax-ns#" xmlns="http://www.w3.org/2000/svg" xmlns:sodipodi="http://sodipodi.sourceforge.net/DTD/sodipodi-0.dtd" xmlns:inkscape="http://www.inkscape.org/namespaces/inkscape" width="120" height="120" viewBox="0 0 31.75 31.750001" version="1.1" id="svg8" inkscape:version="0.92.1 r15371" sodipodi:docname="even276.svg"><sodipodi:namedview id="base" pagecolor="#ffffff" bordercolor="#666666" borderopacity="1.0" inkscape:pageopacity="0.0" inkscape:pageshadow="2" inkscape:zoom="1.4142136" inkscape:cx="64.982602" inkscape:cy="86.080689" inkscape:document-units="mm" inkscape:current-layer="text1005" showgrid="false" units="px" inkscape:window-width="938" inkscape:window-height="1047" inkscape:window-x="938" inkscape:window-y="0" inkscape:window-maximized="0"/><metadata id="metadata5"><rdf:RDF><cc:Work><dc:format>image/svg+xml</dc:format><dc:type rdf:resource="http://purl.org/dc/dcmitype/StillImage"/><dc:title/></cc:Work></rdf:RDF></metadata><g inkscape:label="Calque 1" inkscape:groupmode="layer" id="layer1" transform="translate(0 -265.25)"><g aria-label="a" style="font-style:normal;font-variant:normal;font-weight:400;font-stretch:normal;font-size:25.39999962px;line-height:1.25;font-family:Kabel;-inkscape-font-specification:Kabel;letter-spacing:0;word-spacing:0;fill:#e77936;fill-opacity:1;stroke:#b95c1f;stroke-width:.5291667;stroke-miterlimit:4;stroke-dasharray:none;stroke-opacity:1" id="text817" transform="translate(1.705 -3.679)"><g aria-label="bcdefghijklmnopqrstuvwxyz ABCDEFGHIJKLMNOPQRSTUVWXYZ" style="font-style:normal;font-variant:normal;font-weight:400;font-stretch:normal;font-size:25.39999962px;line-height:1.25;font-family:Kabel;-inkscape-font-specification:Kabel;letter-spacing:0;word-spacing:0;fill:#e77936;fill-opacity:1;stroke:#b95c1f;stroke-width:.5291667;stroke-miterlimit:4;stroke-dasharray:none;stroke-opacity:1" id="text1005"><g transform="matrix(.68946 0 0 .68946 -6.628 90.157)" id="layer1-35" inkscape:label="Calque 1" style="fill:#e77936;fill-opacity:1;stroke:#b95c1f;stroke-opacity:1"><g transform="translate(1.705 -3.679)" id="text817-6" style="font-style:normal;font-variant:normal;font-weight:400;font-stretch:normal;font-size:25.39999962px;line-height:1.25;font-family:Kabel;-inkscape-font-specification:Kabel;letter-spacing:0;word-spacing:0;fill:#e77936;fill-opacity:1;stroke:#b95c1f;stroke-width:.5291667;stroke-miterlimit:4;stroke-dasharray:none;stroke-opacity:1" aria-label="a"><g id="text1005-29" style="font-style:normal;font-variant:normal;font-weight:400;font-stretch:normal;font-size:25.39999962px;line-height:1.25;font-family:Kabel;-inkscape-font-specification:Kabel;letter-spacing:0;word-spacing:0;fill:#e77936;fill-opacity:1;stroke:#b95c1f;stroke-width:.5291667;stroke-miterlimit:4;stroke-dasharray:none;stroke-opacity:1" aria-label="bcdefghijklmnopqrstuvwxyz ABCDEFGHIJKLMNOPQRSTUVWXYZ"><path inkscape:connector-curvature="0" id="path4836" style="font-style:normal;font-variant:normal;font-weight:400;font-stretch:normal;font-size:25.39999962px;line-height:1.25;font-family:Kabel;-inkscape-font-specification:Kabel;letter-spacing:0;word-spacing:0;fill:#e77936;fill-opacity:1;stroke:#b95c1f;stroke-width:.52916676;stroke-miterlimit:4;stroke-dasharray:none;stroke-opacity:1" d="m6.192 296.402 7.695-9.22q2.512-3.25 2.512-4.62v-.156q-.149-1.345-.862-2.003-.657-.614-1.6-.614h-.149q-1.017.025-1.68.738-.658.713-.707 1.73v.1q0 1.395 1.773 2.288l-2.97 3.907q-.025-.025-.608-.404-.583-.384-1.116-.812-2.084-1.96-2.084-5.004v-.41q.075-1.928 1.092-3.503.992-1.55 2.765-2.388 1.706-.812 3.758-.812h.106q1.978 0 3.677.763 1.705.763 2.772 2.207 1.042 1.451 1.147 3.48v.303q0 1.575-.918 3.535-1.017 2.183-2.461 3.758l-2.134 2.362h6.17l-1.246 4.775z"/></g></g></g><g transform="matrix(.68946 0 0 .68946 13.357 90.3)" id="layer1-9" inkscape:label="Calque 1" style="fill:#e77936;fill-opacity:1;stroke:#b95c1f;stroke-opacity:1"><g transform="translate(1.705 -3.679)" id="text817-3" style="font-style:normal;font-variant:normal;font-weight:400;font-stretch:normal;font-size:25.39999962px;line-height:1.25;font-family:Kabel;-inkscape-font-specification:Kabel;letter-spacing:0;word-spacing:0;fill:#e77936;fill-opacity:1;stroke:#b95c1f;stroke-width:.5291667;stroke-miterlimit:4;stroke-dasharray:none;stroke-opacity:1" aria-label="a"><g id="text1005-60" style="font-style:normal;font-variant:normal;font-weight:400;font-stretch:normal;font-size:25.39999962px;line-height:1.25;font-family:Kabel;-inkscape-font-specification:Kabel;letter-spacing:0;word-spacing:0;fill:#e77936;fill-opacity:1;stroke:#b95c1f;stroke-width:.5291667;stroke-miterlimit:4;stroke-dasharray:none;stroke-opacity:1" aria-label="bcdefghijklmnopqrstuvwxyz ABCDEFGHIJKLMNOPQRSTUVWXYZ"><path inkscape:connector-curvature="0" id="path4844" style="font-style:normal;font-variant:normal;font-weight:400;font-stretch:normal;font-size:25.39999962px;line-height:1.25;font-family:Kabel;-inkscape-font-specification:Kabel;letter-spacing:0;word-spacing:0;fill:#e77936;fill-opacity:1;stroke:#b95c1f;stroke-width:.52916676;stroke-miterlimit:4;stroke-dasharray:none;stroke-opacity:1" d="m14.6 274.76 5.464 2.01q-.18.05-1.55 1.271-1.396 1.215-1.979 1.798-1.147 1.148-2.443 2.772l.385-.05.558-.08q.18-.025.409-.025 2.79 0 4.645 1.985 1.829 2.003 1.953 4.824v.304q0 2.183-1.067 3.814-1.14 1.749-3.02 2.641-1.903.912-3.807.912-3.535 0-5.767-2.288-2.084-2.109-2.084-5.408 0-.254.025-.533.074-1.32.434-2.462.329-1.122.837-2.133.509-1.017 1.216-2.108.688-1.098 1.122-1.78.862-1.451 4.67-5.463zm-.508 11.764q-1.166.025-1.953.887-.713.812-.713 1.854v.205q.08 1.091.893 1.879.812.787 1.928.787 1.141 0 1.978-.886.788-.819.788-1.886v-.148q-.025-1.172-.887-1.985-.812-.707-1.83-.707h-.204z"/></g></g></g><g transform="matrix(.68946 0 0 .68946 4.428 89.801)" id="layer1-8" inkscape:label="Calque 1" style="fill:#e77936;fill-opacity:1;stroke:#b95c1f;stroke-opacity:1"><g transform="translate(1.705 -3.679)" id="text817-7" style="font-style:normal;font-variant:normal;font-weight:400;font-stretch:normal;font-size:25.39999962px;line-height:1.25;font-family:Kabel;-inkscape-font-specification:Kabel;letter-spacing:0;word-spacing:0;fill:#e77936;fill-opacity:1;stroke:#b95c1f;stroke-width:.5291667;stroke-miterlimit:4;stroke-dasharray:none;stroke-opacity:1" aria-label="a"><g id="text1005-9" style="font-style:normal;font-variant:normal;font-weight:400;font-stretch:normal;font-size:25.39999962px;line-height:1.25;font-family:Kabel;-inkscape-font-specification:Kabel;letter-spacing:0;word-spacing:0;fill:#e77936;fill-opacity:1;stroke:#b95c1f;stroke-width:.5291667;stroke-miterlimit:4;stroke-dasharray:none;stroke-opacity:1" aria-label="bcdefghijklmnopqrstuvwxyz ABCDEFGHIJKLMNOPQRSTUVWXYZ"><path inkscape:connector-curvature="0" id="path4846" style="font-style:normal;font-variant:normal;font-weight:400;font-stretch:normal;font-size:25.39999962px;line-height:1.25;font-family:Kabel;-inkscape-font-specification:Kabel;letter-spacing:0;word-spacing:0;fill:#e77936;fill-opacity:1;stroke:#b95c1f;stroke-width:.52916676;stroke-miterlimit:4;stroke-dasharray:none;stroke-opacity:1" d="m6.721 280.682 1.346-4.954h13.537l-6.499 20.674-5.872.837L15 280.682z"/></g></g></g></g></g></g></svg>