<?xml version="1.0" encoding="UTF-8" standalone="no"?>
<!-- Created with Inkscape (http://www.inkscape.org/) -->

<svg
   xmlns:dc="http://purl.org/dc/elements/1.1/"
   xmlns:cc="http://creativecommons.org/ns#"
   xmlns:rdf="http://www.w3.org/1999/02/22-rdf-syntax-ns#"
   xmlns:svg="http://www.w3.org/2000/svg"
   xmlns="http://www.w3.org/2000/svg"
   xmlns:sodipodi="http://sodipodi.sourceforge.net/DTD/sodipodi-0.dtd"
   xmlns:inkscape="http://www.inkscape.org/namespaces/inkscape"
   width="120"
   height="120"
   viewBox="0 0 31.75 31.750001"
   version="1.1"
   id="svg8"
   inkscape:version="0.92.1 r15371"
   sodipodi:docname="even92.svg">
  <defs
     id="defs2" />
  <sodipodi:namedview
     id="base"
     pagecolor="#ffffff"
     bordercolor="#666666"
     borderopacity="1.0"
     inkscape:pageopacity="0.0"
     inkscape:pageshadow="2"
     inkscape:zoom="1.4142136"
     inkscape:cx="67.103922"
     inkscape:cy="76.181195"
     inkscape:document-units="mm"
     inkscape:current-layer="text1005"
     showgrid="false"
     units="px"
     inkscape:window-width="938"
     inkscape:window-height="1047"
     inkscape:window-x="938"
     inkscape:window-y="0"
     inkscape:window-maximized="0" />
  <metadata
     id="metadata5">
    <rdf:RDF>
      <cc:Work
         rdf:about="">
        <dc:format>image/svg+xml</dc:format>
        <dc:type
           rdf:resource="http://purl.org/dc/dcmitype/StillImage" />
        <dc:title></dc:title>
      </cc:Work>
    </rdf:RDF>
  </metadata>
  <g
     inkscape:label="Calque 1"
     inkscape:groupmode="layer"
     id="layer1"
     transform="translate(0,-265.24998)">
    <g
       aria-label="a"
       style="font-style:normal;font-variant:normal;font-weight:normal;font-stretch:normal;font-size:25.39999962px;line-height:1.25;font-family:Kabel;-inkscape-font-specification:Kabel;letter-spacing:0px;word-spacing:0px;fill:#e77936;fill-opacity:1;stroke:#b95c1f;stroke-width:0.5291667;stroke-miterlimit:4;stroke-dasharray:none;stroke-opacity:1"
       id="text817"
       transform="translate(1.7053228,-3.6786133)">
      <g
         aria-label="bcdefghijklmnopqrstuvwxyz  ABCDEFGHIJKLMNOPQRSTUVWXYZ"
         style="font-style:normal;font-variant:normal;font-weight:normal;font-stretch:normal;font-size:25.39999962px;line-height:1.25;font-family:Kabel;-inkscape-font-specification:Kabel;letter-spacing:0px;word-spacing:0px;fill:#e77936;fill-opacity:1;stroke:#b95c1f;stroke-width:0.5291667;stroke-miterlimit:4;stroke-dasharray:none;stroke-opacity:1"
         id="text1005">
        <g
           style="font-style:normal;font-variant:normal;font-weight:normal;font-stretch:normal;font-size:25.39999962px;line-height:1.25;font-family:Kabel;-inkscape-font-specification:Kabel;letter-spacing:0px;word-spacing:0px;fill:#cc77d6;fill-opacity:1;stroke:#a91fb9;stroke-width:0.5291667;stroke-miterlimit:4;stroke-dasharray:none;stroke-opacity:1"
           transform="matrix(0.89757092,0,0,0.89757092,7.4659706,31.570072)"
           id="layer1-3-2"
           inkscape:label="Calque 1">
          <g
             transform="translate(1.7053228,-3.6786133)"
             id="text817-5-9"
             style="font-style:normal;font-variant:normal;font-weight:normal;font-stretch:normal;font-size:25.39999962px;line-height:1.25;font-family:Kabel;-inkscape-font-specification:Kabel;letter-spacing:0px;word-spacing:0px;fill:#cc77d6;fill-opacity:1;stroke:#a91fb9;stroke-width:0.5291667;stroke-miterlimit:4;stroke-dasharray:none;stroke-opacity:1"
             aria-label="a">
            <g
               id="text1005-6-1"
               style="font-style:normal;font-variant:normal;font-weight:normal;font-stretch:normal;font-size:25.39999962px;line-height:1.25;font-family:Kabel;-inkscape-font-specification:Kabel;letter-spacing:0px;word-spacing:0px;fill:#cc77d6;fill-opacity:1;stroke:#a91fb9;stroke-width:0.5291667;stroke-miterlimit:4;stroke-dasharray:none;stroke-opacity:1"
               aria-label="bcdefghijklmnopqrstuvwxyz  ABCDEFGHIJKLMNOPQRSTUVWXYZ">
              <path
                 inkscape:connector-curvature="0"
                 id="path4836-2"
                 style="font-style:normal;font-variant:normal;font-weight:normal;font-stretch:normal;font-size:25.39999962px;line-height:1.25;font-family:Kabel;-inkscape-font-specification:Kabel;letter-spacing:0px;word-spacing:0px;fill:#cc77d6;fill-opacity:1;stroke:#a91fb9;stroke-width:0.52916676;stroke-miterlimit:4;stroke-dasharray:none;stroke-opacity:1"
                 d="m 6.1917069,296.40227 7.6956541,-9.22114 q 2.511475,-3.24941 2.511475,-4.61987 0,-0.0806 0,-0.15503 -0.148828,-1.34566 -0.861963,-2.00298 -0.657324,-0.61392 -1.599902,-0.61392 -0.07441,0 -0.148828,0 -1.016992,0.0248 -1.680518,0.73794 -0.657324,0.71314 -0.706933,1.73013 0,0.0496 0,0.0992 0,1.39526 1.773535,2.28823 l -2.970362,3.90674 q -0.0248,-0.0248 -0.6077138,-0.40308 -0.582911,-0.38447 -1.1162109,-0.81235 -2.0835944,-1.95957 -2.0835944,-5.00435 0,-0.20463 0,-0.40927 0.07441,-1.92857 1.091406,-3.50366 0.9921884,-1.5503 2.7657231,-2.38746 1.705322,-0.81235 3.75791,-0.81235 0.05581,0 0.10542,0 1.978174,0 3.677295,0.76274 1.705322,0.76275 2.771923,2.20762 1.041797,1.45108 1.147217,3.47886 0,0.15503 0,0.30386 0,1.57509 -0.917773,3.53466 -1.016992,2.18282 -2.461865,3.75791 l -2.133203,2.36265 h 6.170165 l -1.246435,4.7749 z" />
            </g>
          </g>
        </g>
        <g
           aria-label="a"
           style="font-style:normal;font-variant:normal;font-weight:normal;font-stretch:normal;font-size:25.39999962px;line-height:1.25;font-family:Kabel;-inkscape-font-specification:Kabel;letter-spacing:0px;word-spacing:0px;fill:#cc77d6;fill-opacity:1;stroke:#a91fb9;stroke-width:0.5291667;stroke-miterlimit:4;stroke-dasharray:none;stroke-opacity:1"
           id="text817-5"
           transform="matrix(0.86022778,0,0,0.86022778,-11.428644,38.317186)">
          <g
             aria-label="bcdefghijklmnopqrstuvwxyz  ABCDEFGHIJKLMNOPQRSTUVWXYZ"
             style="font-style:normal;font-variant:normal;font-weight:normal;font-stretch:normal;font-size:25.39999962px;line-height:1.25;font-family:Kabel;-inkscape-font-specification:Kabel;letter-spacing:0px;word-spacing:0px;fill:#cc77d6;fill-opacity:1;stroke:#a91fb9;stroke-width:0.5291667;stroke-miterlimit:4;stroke-dasharray:none;stroke-opacity:1"
             id="text1005-6">
            <path
               d="m 20.436426,297.5991 -5.46323,-1.88516 q 0.25425,-0.17363 1.37046,-1.14101 1.11621,-0.96739 2.08359,-1.97818 1.24644,-1.22163 2.48667,-2.84633 -0.60771,0.20463 -1.6247,0.20463 -2.79053,-0.10542 -4.49585,-2.08359 -1.72393,-1.95957 -1.80454,-4.7501 0,-0.20464 0,-0.38447 0,-2.1332 1.04179,-3.7331 1.14722,-1.74874 2.97656,-2.6355 1.82935,-0.89297 3.85713,-0.89297 3.53467,0 5.791901,2.23242 2.083589,2.08359 2.083589,5.41362 0,0.25425 -0.02479,0.5333 -0.0744,1.21543 -0.43408,2.41226 -0.35347,1.22163 -0.86197,2.21382 -0.50849,0.98598 -1.221629,2.127 -0.706931,1.14722 -1.116211,1.73013 -0.71313,1.14101 -2.23242,2.82153 -1.52549,1.69912 -2.41226,2.6417 z m 0.42788,-11.71401 q 1.14722,-0.0248 1.95957,-0.91158 0.78755,-0.86196 0.78755,-2.00918 0,-0.0248 0,-0.0496 -0.0558,-0.73793 -0.43408,-1.32084 -0.37827,-0.58292 -1.01699,-0.94258 -0.63252,-0.32867 -1.34566,-0.32867 -1.19062,0.0496 -1.97817,0.89297 -0.78755,0.81236 -0.78755,1.92857 0,0.0248 0,0.0496 0.0248,1.11621 0.86196,1.90376 0.78755,0.78755 1.90376,0.78755 0.0248,0 0.0496,0 z"
               style="font-style:normal;font-variant:normal;font-weight:normal;font-stretch:normal;font-size:25.39999962px;line-height:1.25;font-family:Kabel;-inkscape-font-specification:Kabel;letter-spacing:0px;word-spacing:0px;fill:#cc77d6;fill-opacity:1;stroke:#a91fb9;stroke-width:0.52916676;stroke-miterlimit:4;stroke-dasharray:none;stroke-opacity:1"
               id="path4890"
               inkscape:connector-curvature="0" />
          </g>
        </g>
      </g>
    </g>
  </g>
</svg>
