<?xml version="1.0" encoding="UTF-8" standalone="no"?>
<!-- Created with Inkscape (http://www.inkscape.org/) -->

<svg
   xmlns:dc="http://purl.org/dc/elements/1.1/"
   xmlns:cc="http://creativecommons.org/ns#"
   xmlns:rdf="http://www.w3.org/1999/02/22-rdf-syntax-ns#"
   xmlns:svg="http://www.w3.org/2000/svg"
   xmlns="http://www.w3.org/2000/svg"
   xmlns:sodipodi="http://sodipodi.sourceforge.net/DTD/sodipodi-0.dtd"
   xmlns:inkscape="http://www.inkscape.org/namespaces/inkscape"
   width="120"
   height="120"
   viewBox="0 0 31.75 31.750001"
   version="1.1"
   id="svg8"
   inkscape:version="0.92.1 r15371"
   sodipodi:docname="odd23.svg">
  <defs
     id="defs2" />
  <sodipodi:namedview
     id="base"
     pagecolor="#ffffff"
     bordercolor="#666666"
     borderopacity="1.0"
     inkscape:pageopacity="0.0"
     inkscape:pageshadow="2"
     inkscape:zoom="1.4142136"
     inkscape:cx="57.381204"
     inkscape:cy="13.955798"
     inkscape:document-units="mm"
     inkscape:current-layer="text1005"
     showgrid="false"
     units="px"
     inkscape:window-width="1884"
     inkscape:window-height="1051"
     inkscape:window-x="0"
     inkscape:window-y="0"
     inkscape:window-maximized="1" />
  <metadata
     id="metadata5">
    <rdf:RDF>
      <cc:Work
         rdf:about="">
        <dc:format>image/svg+xml</dc:format>
        <dc:type
           rdf:resource="http://purl.org/dc/dcmitype/StillImage" />
        <dc:title></dc:title>
      </cc:Work>
    </rdf:RDF>
  </metadata>
  <g
     inkscape:label="Calque 1"
     inkscape:groupmode="layer"
     id="layer1"
     transform="translate(0,-265.24998)">
    <g
       aria-label="a"
       style="font-style:normal;font-variant:normal;font-weight:normal;font-stretch:normal;font-size:25.39999962px;line-height:1.25;font-family:Kabel;-inkscape-font-specification:Kabel;letter-spacing:0px;word-spacing:0px;fill:#e77936;fill-opacity:1;stroke:#b95c1f;stroke-width:0.5291667;stroke-miterlimit:4;stroke-dasharray:none;stroke-opacity:1"
       id="text817"
       transform="translate(1.7053228,-3.6786133)">
      <g
         aria-label="bcdefghijklmnopqrstuvwxyz  ABCDEFGHIJKLMNOPQRSTUVWXYZ"
         style="font-style:normal;font-variant:normal;font-weight:normal;font-stretch:normal;font-size:25.39999962px;line-height:1.25;font-family:Kabel;-inkscape-font-specification:Kabel;letter-spacing:0px;word-spacing:0px;fill:#e77936;fill-opacity:1;stroke:#b95c1f;stroke-width:0.5291667;stroke-miterlimit:4;stroke-dasharray:none;stroke-opacity:1"
         id="text1005">
        <path
           d="m -0.03165197,293.71198 6.70899237,-8.0389 q 2.189478,-2.83281 2.189478,-4.02756 0,-0.0703 0,-0.13516 -0.129747,-1.17313 -0.75145,-1.74617 -0.573049,-0.53521 -1.394779,-0.53521 -0.06487,0 -0.129746,0 -0.8866027,0.0216 -1.4650587,0.64333 -0.573048,0.62171 -0.616297,1.50831 0,0.0432 0,0.0865 0,1.21637 1.54615,1.99486 l -2.589532,3.40585 q -0.02162,-0.0216 -0.529798,-0.3514 -0.5081759,-0.33518 -0.9731009,-0.70819 -1.81645677,-1.70834 -1.81645677,-4.36274 0,-0.1784 0,-0.3568 0.06487,-1.68132 0.95147707,-3.05446 0.8649797,-1.35153 2.4111286,-2.08137 1.486683,-0.70819 3.2761067,-0.70819 0.04866,0 0.09191,0 1.724551,0 3.2058276,0.66494 1.486683,0.66497 2.416534,1.92459 0.908229,1.26504 1.000132,3.03283 0,0.13516 0,0.26491 0,1.37315 -0.800105,3.08147 -0.886604,1.90296 -2.146229,3.27611 l -1.8597036,2.05973 h 5.3790866 l -1.08663,4.16272 z"
           style="font-style:normal;font-variant:normal;font-weight:normal;font-stretch:normal;font-size:25.39999962px;line-height:1.25;font-family:Kabel;-inkscape-font-specification:Kabel;letter-spacing:0px;word-spacing:0px;fill:#1bd0d2;fill-opacity:1;stroke:#1fb7b9;stroke-width:0.46132216;stroke-miterlimit:4;stroke-dasharray:none;stroke-opacity:1"
           id="path4836"
           inkscape:connector-curvature="0" />
        <g
           transform="matrix(0.87178979,0,0,0.87178979,8.0291632,38.704084)"
           id="layer1-3"
           inkscape:label="Calque 1">
          <g
             transform="translate(1.7053228,-3.6786133)"
             id="text817-5"
             style="font-style:normal;font-variant:normal;font-weight:normal;font-stretch:normal;font-size:25.39999962px;line-height:1.25;font-family:Kabel;-inkscape-font-specification:Kabel;letter-spacing:0px;word-spacing:0px;fill:#e77936;fill-opacity:1;stroke:#b95c1f;stroke-width:0.5291667;stroke-miterlimit:4;stroke-dasharray:none;stroke-opacity:1"
             aria-label="a">
            <g
               id="text1005-6"
               style="font-style:normal;font-variant:normal;font-weight:normal;font-stretch:normal;font-size:25.39999962px;line-height:1.25;font-family:Kabel;-inkscape-font-specification:Kabel;letter-spacing:0px;word-spacing:0px;fill:#e77936;fill-opacity:1;stroke:#b95c1f;stroke-width:0.5291667;stroke-miterlimit:4;stroke-dasharray:none;stroke-opacity:1"
               aria-label="bcdefghijklmnopqrstuvwxyz  ABCDEFGHIJKLMNOPQRSTUVWXYZ">
              <path
                 inkscape:connector-curvature="0"
                 id="path4838"
                 style="font-style:normal;font-variant:normal;font-weight:normal;font-stretch:normal;font-size:25.39999962px;line-height:1.25;font-family:Kabel;-inkscape-font-specification:Kabel;letter-spacing:0px;word-spacing:0px;fill:#1bd0d2;fill-opacity:1;stroke:#1fb7b9;stroke-width:0.52916676;stroke-miterlimit:4;stroke-dasharray:none;stroke-opacity:1"
                 d="m 10.574596,281.7241 -3.7083008,-2.49287 q 0.130224,-0.35347 0.7627441,-1.14102 0.632519,-0.78755 1.3456539,-1.27124 2.1083988,-1.50068 4.9795388,-1.50068 1.85415,0 3.602879,0.81235 1.730131,0.84336 2.771931,2.33784 0.81235,1.22164 0.81235,2.69131 0,0.38448 -0.0496,0.76275 -0.155031,1.12241 -0.582911,1.90376 -0.458879,0.81855 -0.91777,1.24643 -0.48369,0.43408 -0.533299,0.45889 1.24643,0.60771 2.05879,2.08359 0.81235,1.46968 0.81235,2.94556 0,1.0418 -0.328661,1.92856 -0.359669,0.89297 -0.892969,1.60611 -0.5333,0.70693 -1.066601,1.16582 -1.92857,1.67431 -5.53765,1.67431 -2.232421,0 -4.1609846,-0.83715 -1.9595701,-0.83716 -3.4292482,-2.51768 l 3.5284668,-3.32383 q 0.204638,0.27905 0.713135,0.76275 0.508496,0.47749 1.215429,0.81235 0.992189,0.45269 1.829342,0.5085 1.017,-0.0806 1.82935,-0.66353 0.78755,-0.58291 0.78755,-1.5751 0,-0.73794 -0.303859,-1.29604 -0.328661,-0.55811 -0.861961,-0.73174 -0.94258,-0.25425 -2.542482,-0.25425 -0.558106,0 -0.762744,0 -0.204639,0.0248 -0.328663,0.0496 v -3.86333 q 0.124024,0 0.409278,0 0.279053,0.0248 0.632519,0.0496 1.370462,0 2.362643,-0.40308 0.96739,-0.38447 0.96739,-1.57509 0,-0.96739 -0.688331,-1.5503 -0.68833,-0.58291 -1.70532,-0.58291 -0.936382,0 -1.823148,0.48369 -0.917775,0.5085 -1.196827,1.29605 z" />
            </g>
          </g>
        </g>
      </g>
    </g>
  </g>
</svg>
