<?xml version="1.0" encoding="UTF-8" standalone="no"?>
<!-- Created with Inkscape (http://www.inkscape.org/) -->

<svg
   xmlns:dc="http://purl.org/dc/elements/1.1/"
   xmlns:cc="http://creativecommons.org/ns#"
   xmlns:rdf="http://www.w3.org/1999/02/22-rdf-syntax-ns#"
   xmlns:svg="http://www.w3.org/2000/svg"
   xmlns="http://www.w3.org/2000/svg"
   xmlns:sodipodi="http://sodipodi.sourceforge.net/DTD/sodipodi-0.dtd"
   xmlns:inkscape="http://www.inkscape.org/namespaces/inkscape"
   width="120"
   height="120"
   viewBox="0 0 31.75 31.750001"
   version="1.1"
   id="svg8"
   inkscape:version="0.92.1 r15371"
   sodipodi:docname="odd39.svg">
  <defs
     id="defs2" />
  <sodipodi:namedview
     id="base"
     pagecolor="#ffffff"
     bordercolor="#666666"
     borderopacity="1.0"
     inkscape:pageopacity="0.0"
     inkscape:pageshadow="2"
     inkscape:zoom="1.4142136"
     inkscape:cx="53.138563"
     inkscape:cy="139.8208"
     inkscape:document-units="mm"
     inkscape:current-layer="text1005"
     showgrid="false"
     units="px"
     inkscape:window-width="938"
     inkscape:window-height="1047"
     inkscape:window-x="938"
     inkscape:window-y="0"
     inkscape:window-maximized="0" />
  <metadata
     id="metadata5">
    <rdf:RDF>
      <cc:Work
         rdf:about="">
        <dc:format>image/svg+xml</dc:format>
        <dc:type
           rdf:resource="http://purl.org/dc/dcmitype/StillImage" />
        <dc:title></dc:title>
      </cc:Work>
    </rdf:RDF>
  </metadata>
  <g
     inkscape:label="Calque 1"
     inkscape:groupmode="layer"
     id="layer1"
     transform="translate(0,-265.24998)">
    <g
       aria-label="a"
       style="font-style:normal;font-variant:normal;font-weight:normal;font-stretch:normal;font-size:25.39999962px;line-height:1.25;font-family:Kabel;-inkscape-font-specification:Kabel;letter-spacing:0px;word-spacing:0px;fill:#e77936;fill-opacity:1;stroke:#b95c1f;stroke-width:0.5291667;stroke-miterlimit:4;stroke-dasharray:none;stroke-opacity:1"
       id="text817"
       transform="translate(1.7053228,-3.6786133)">
      <g
         aria-label="bcdefghijklmnopqrstuvwxyz  ABCDEFGHIJKLMNOPQRSTUVWXYZ"
         style="font-style:normal;font-variant:normal;font-weight:normal;font-stretch:normal;font-size:25.39999962px;line-height:1.25;font-family:Kabel;-inkscape-font-specification:Kabel;letter-spacing:0px;word-spacing:0px;fill:#e77936;fill-opacity:1;stroke:#b95c1f;stroke-width:0.5291667;stroke-miterlimit:4;stroke-dasharray:none;stroke-opacity:1"
         id="text1005">
        <path
           d="m 4.0503326,280.91115 -3.27842388,-2.20389 q 0.11512805,-0.31249 0.67432458,-1.00875 0.5591956,-0.69625 1.1896618,-1.12387 1.8639871,-1.32672 4.4022963,-1.32672 1.6392116,0 3.1852226,0.71818 1.529569,0.7456 2.450601,2.06683 0.71818,1.08003 0.71818,2.37933 0,0.33991 -0.04385,0.67433 -0.13706,0.9923 -0.515338,1.68307 -0.405685,0.72366 -0.81138,1.10194 -0.427619,0.38376 -0.471477,0.40569 1.10194,0.53727 1.820129,1.84206 0.71818,1.29931 0.71818,2.6041 0,0.92103 -0.290562,1.705 -0.317975,0.78945 -0.789453,1.41992 -0.471479,0.62498 -0.942958,1.03068 -1.705004,1.48021 -4.8957094,1.48021 -1.9736324,0 -3.6786313,-0.7401 -1.7324111,-0.74011 -3.03171983,-2.22582 l 3.11943673,-2.93853 q 0.1809158,0.24671 0.6304663,0.67433 0.4495497,0.42214 1.074533,0.71818 0.8771716,0.40022 1.6172794,0.44956 0.8991064,-0.0713 1.6172864,-0.58661 0.696255,-0.51534 0.696255,-1.39251 0,-0.6524 -0.2686348,-1.1458 -0.2905617,-0.49342 -0.76204,-0.64692 -0.8333134,-0.22477 -2.2477501,-0.22477 -0.4934088,0 -0.6743246,0 -0.1809166,0.0219 -0.2905634,0.0438 v -3.41549 q 0.1096468,0 0.3618333,0 0.2467044,0.0219 0.5591956,0.0439 1.2115941,0 2.0887586,-0.35635 0.8552473,-0.3399 0.8552473,-1.3925 0,-0.85525 -0.6085376,-1.37059 -0.6085368,-0.51533 -1.5076344,-0.51533 -0.8278339,0 -1.6118034,0.42762 -0.8113839,0.44955 -1.0580874,1.1458 z"
           style="font-style:normal;font-variant:normal;font-weight:normal;font-stretch:normal;font-size:25.39999962px;line-height:1.25;font-family:Kabel;-inkscape-font-specification:Kabel;letter-spacing:0px;word-spacing:0px;fill:#75d21b;fill-opacity:1;stroke:#6bb91f;stroke-width:0.46782422;stroke-miterlimit:4;stroke-dasharray:none;stroke-opacity:1"
           id="path4838"
           inkscape:connector-curvature="0" />
        <g
           transform="matrix(0.86423362,0,0,0.86423362,7.8583016,40.348549)"
           id="layer1-6"
           inkscape:label="Calque 1">
          <g
             transform="translate(1.7053228,-3.6786133)"
             id="text817-1"
             style="font-style:normal;font-variant:normal;font-weight:normal;font-stretch:normal;font-size:25.39999962px;line-height:1.25;font-family:Kabel;-inkscape-font-specification:Kabel;letter-spacing:0px;word-spacing:0px;fill:#e77936;fill-opacity:1;stroke:#b95c1f;stroke-width:0.5291667;stroke-miterlimit:4;stroke-dasharray:none;stroke-opacity:1"
             aria-label="a">
            <g
               id="text1005-8"
               style="font-style:normal;font-variant:normal;font-weight:normal;font-stretch:normal;font-size:25.39999962px;line-height:1.25;font-family:Kabel;-inkscape-font-specification:Kabel;letter-spacing:0px;word-spacing:0px;fill:#e77936;fill-opacity:1;stroke:#b95c1f;stroke-width:0.5291667;stroke-miterlimit:4;stroke-dasharray:none;stroke-opacity:1"
               aria-label="bcdefghijklmnopqrstuvwxyz  ABCDEFGHIJKLMNOPQRSTUVWXYZ">
              <path
                 inkscape:connector-curvature="0"
                 id="path4850"
                 style="font-style:normal;font-variant:normal;font-weight:normal;font-stretch:normal;font-size:25.39999962px;line-height:1.25;font-family:Kabel;-inkscape-font-specification:Kabel;letter-spacing:0px;word-spacing:0px;fill:#75d21b;fill-opacity:1;stroke:#6bb91f;stroke-width:0.52916676;stroke-miterlimit:4;stroke-dasharray:none;stroke-opacity:1"
                 d="m 13.741797,297.5991 -5.4632399,-1.88516 q 0.25425,-0.17363 1.3704601,-1.14101 1.1162098,-0.96739 2.0835998,-1.97818 1.24643,-1.22163 2.48667,-2.84633 -0.60772,0.20463 -1.62471,0.20463 -2.7905299,-0.10542 -4.4958499,-2.08359 -1.72393,-1.95957 -1.80454,-4.7501 0,-0.20464 0,-0.38447 0,-2.1332 1.0418,-3.7331 1.14721,-1.74874 2.9765599,-2.6355 1.82934,-0.89297 3.85713,-0.89297 3.53467,0 5.791891,2.23242 2.0836,2.08359 2.0836,5.41362 0,0.25425 -0.0248,0.5333 -0.0744,1.21543 -0.43408,2.41226 -0.35347,1.22163 -0.86196,2.21382 -0.508499,0.98598 -1.22163,2.127 -0.70694,1.14722 -1.116219,1.73013 -0.713131,1.14101 -2.232421,2.82153 -1.52549,1.69912 -2.41225,2.6417 z m 0.42788,-11.71401 q 1.14721,-0.0248 1.95957,-0.91158 0.78755,-0.86196 0.78755,-2.00918 0,-0.0248 0,-0.0496 -0.0558,-0.73793 -0.43409,-1.32084 -0.37827,-0.58292 -1.01699,-0.94258 -0.63252,-0.32867 -1.34565,-0.32867 -1.19063,0.0496 -1.97818,0.89297 -0.78754,0.81236 -0.78754,1.92857 0,0.0248 0,0.0496 0.0248,1.11621 0.86196,1.90376 0.78755,0.78755 1.90376,0.78755 0.0248,0 0.0496,0 z" />
            </g>
          </g>
        </g>
      </g>
    </g>
  </g>
</svg>
