<!--Created with Inkscape (http://www.inkscape.org/)--><svg xmlns:dc="http://purl.org/dc/elements/1.1/" xmlns:cc="http://creativecommons.org/ns#" xmlns:rdf="http://www.w3.org/1999/02/22-rdf-syntax-ns#" xmlns="http://www.w3.org/2000/svg" xmlns:sodipodi="http://sodipodi.sourceforge.net/DTD/sodipodi-0.dtd" xmlns:inkscape="http://www.inkscape.org/namespaces/inkscape" width="120" height="120" viewBox="0 0 31.75 31.750001" version="1.1" id="svg8" inkscape:version="0.92.1 r15371" sodipodi:docname="odd353.svg"><sodipodi:namedview id="base" pagecolor="#ffffff" bordercolor="#666666" borderopacity="1.0" inkscape:pageopacity="0.0" inkscape:pageshadow="2" inkscape:zoom="1.4142136" inkscape:cx="59.639409" inkscape:cy="14.48613" inkscape:document-units="mm" inkscape:current-layer="text1005" showgrid="false" units="px" inkscape:window-width="938" inkscape:window-height="1047" inkscape:window-x="938" inkscape:window-y="0" inkscape:window-maximized="0"/><metadata id="metadata5"><rdf:RDF><cc:Work><dc:format>image/svg+xml</dc:format><dc:type rdf:resource="http://purl.org/dc/dcmitype/StillImage"/><dc:title/></cc:Work></rdf:RDF></metadata><g inkscape:label="Calque 1" inkscape:groupmode="layer" id="layer1" transform="translate(0 -265.25)"><g aria-label="a" style="font-style:normal;font-variant:normal;font-weight:400;font-stretch:normal;font-size:25.39999962px;line-height:1.25;font-family:Kabel;-inkscape-font-specification:Kabel;letter-spacing:0;word-spacing:0;fill:#e77936;fill-opacity:1;stroke:#b95c1f;stroke-width:.5291667;stroke-miterlimit:4;stroke-dasharray:none;stroke-opacity:1" id="text817" transform="translate(1.705 -3.679)"><g aria-label="bcdefghijklmnopqrstuvwxyz ABCDEFGHIJKLMNOPQRSTUVWXYZ" style="font-style:normal;font-variant:normal;font-weight:400;font-stretch:normal;font-size:25.39999962px;line-height:1.25;font-family:Kabel;-inkscape-font-specification:Kabel;letter-spacing:0;word-spacing:0;fill:#e77936;fill-opacity:1;stroke:#b95c1f;stroke-width:.5291667;stroke-miterlimit:4;stroke-dasharray:none;stroke-opacity:1" id="text1005"><g transform="matrix(.65319 0 0 .65319 -6.569 100.312)" id="layer1-4" inkscape:label="Calque 1"><g transform="translate(1.705 -3.679)" id="text817-9" style="font-style:normal;font-variant:normal;font-weight:400;font-stretch:normal;font-size:25.39999962px;line-height:1.25;font-family:Kabel;-inkscape-font-specification:Kabel;letter-spacing:0;word-spacing:0;fill:#e77936;fill-opacity:1;stroke:#b95c1f;stroke-width:.5291667;stroke-miterlimit:4;stroke-dasharray:none;stroke-opacity:1" aria-label="a"><g id="text1005-2" style="font-style:normal;font-variant:normal;font-weight:400;font-stretch:normal;font-size:25.39999962px;line-height:1.25;font-family:Kabel;-inkscape-font-specification:Kabel;letter-spacing:0;word-spacing:0;fill:#e77936;fill-opacity:1;stroke:#b95c1f;stroke-width:.5291667;stroke-miterlimit:4;stroke-dasharray:none;stroke-opacity:1" aria-label="bcdefghijklmnopqrstuvwxyz ABCDEFGHIJKLMNOPQRSTUVWXYZ"><path inkscape:connector-curvature="0" id="path4838" style="font-style:normal;font-variant:normal;font-weight:400;font-stretch:normal;font-size:25.39999962px;line-height:1.25;font-family:Kabel;-inkscape-font-specification:Kabel;letter-spacing:0;word-spacing:0;fill:#1bd0d2;fill-opacity:1;stroke:#1fb7b9;stroke-width:.52916676;stroke-miterlimit:4;stroke-dasharray:none;stroke-opacity:1" d="m10.575 281.724-3.709-2.493q.13-.353.763-1.14.633-.788 1.346-1.272 2.108-1.5 4.98-1.5 1.853 0 3.602.812 1.73.843 2.772 2.337.812 1.222.812 2.692 0 .384-.05.763-.154 1.122-.582 1.903-.459.819-.918 1.247-.484.434-.533.459 1.246.607 2.059 2.083.812 1.47.812 2.946 0 1.042-.329 1.928-.36.893-.893 1.606-.533.707-1.066 1.166-1.929 1.675-5.538 1.675-2.232 0-4.16-.838-1.96-.837-3.43-2.517l3.528-3.324q.205.279.713.763.509.477 1.216.812.992.453 1.83.509 1.016-.081 1.829-.664.787-.583.787-1.575 0-.738-.304-1.296-.328-.558-.862-.732-.942-.254-2.542-.254h-.763q-.205.025-.329.05v-3.864h.41q.279.025.632.05 1.37 0 2.363-.403.967-.385.967-1.575 0-.968-.688-1.55-.688-.584-1.705-.584-.937 0-1.824.484-.917.509-1.196 1.296z"/></g></g></g><g transform="matrix(.65319 0 0 .65319 3.8 100.087)" id="layer1-7" inkscape:label="Calque 1" style="fill:#1bd0d2;fill-opacity:1;stroke:#1fb7b9;stroke-opacity:1"><g transform="translate(1.705 -3.679)" id="text817-1" style="font-style:normal;font-variant:normal;font-weight:400;font-stretch:normal;font-size:25.39999962px;line-height:1.25;font-family:Kabel;-inkscape-font-specification:Kabel;letter-spacing:0;word-spacing:0;fill:#1bd0d2;fill-opacity:1;stroke:#1fb7b9;stroke-width:.5291667;stroke-miterlimit:4;stroke-dasharray:none;stroke-opacity:1" aria-label="a"><g id="text1005-72" style="font-style:normal;font-variant:normal;font-weight:400;font-stretch:normal;font-size:25.39999962px;line-height:1.25;font-family:Kabel;-inkscape-font-specification:Kabel;letter-spacing:0;word-spacing:0;fill:#1bd0d2;fill-opacity:1;stroke:#1fb7b9;stroke-width:.5291667;stroke-miterlimit:4;stroke-dasharray:none;stroke-opacity:1" aria-label="bcdefghijklmnopqrstuvwxyz ABCDEFGHIJKLMNOPQRSTUVWXYZ"><path inkscape:connector-curvature="0" id="path4842-7" style="font-style:normal;font-variant:normal;font-weight:400;font-stretch:normal;font-size:25.39999962px;line-height:1.25;font-family:Kabel;-inkscape-font-specification:Kabel;letter-spacing:0;word-spacing:0;fill:#1bd0d2;fill-opacity:1;stroke:#1fb7b9;stroke-width:.52916676;stroke-miterlimit:4;stroke-dasharray:none;stroke-opacity:1" d="m6.731 294.064 3.553-3.708q.081.075.335.329.224.279.633.564.41.28.967.478.558.229 1.395.254 1.247 0 2.183-.912.788-.762.788-1.705 0-.174-.025-.354-.155-.992-.688-1.575-.558-.558-1.321-.812-.757-.254-1.52-.254-1.32 0-2.542.384-1.222.403-1.525.633v-11.479h11.714l-1.247 4.67h-5.513v1.879q.1-.025.23-.05.099-.025.248-.05.155-.024.26-.049h.304q2.01 0 3.553 1.091 1.526 1.092 2.363 2.847.788 1.724.788 3.553v.1q-.075 2.033-1.141 3.633-1.092 1.625-2.847 2.543-1.748.911-3.708.96h-.205q-2.282 0-4.44-1.19-2.238-1.246-2.592-1.78z"/></g></g></g><g style="font-style:normal;font-variant:normal;font-weight:400;font-stretch:normal;font-size:25.39999962px;line-height:1.25;font-family:Kabel;-inkscape-font-specification:Kabel;letter-spacing:0;word-spacing:0;fill:#e77936;fill-opacity:1;stroke:#b95c1f;stroke-width:.5291667;stroke-miterlimit:4;stroke-dasharray:none;stroke-opacity:1" transform="matrix(.65319 0 0 .65319 14.17 100.312)" id="layer1-4-2" inkscape:label="Calque 1"><g transform="translate(1.705 -3.679)" id="text817-9-2" style="font-style:normal;font-variant:normal;font-weight:400;font-stretch:normal;font-size:25.39999962px;line-height:1.25;font-family:Kabel;-inkscape-font-specification:Kabel;letter-spacing:0;word-spacing:0;fill:#e77936;fill-opacity:1;stroke:#b95c1f;stroke-width:.5291667;stroke-miterlimit:4;stroke-dasharray:none;stroke-opacity:1" aria-label="a"><g id="text1005-2-6" style="font-style:normal;font-variant:normal;font-weight:400;font-stretch:normal;font-size:25.39999962px;line-height:1.25;font-family:Kabel;-inkscape-font-specification:Kabel;letter-spacing:0;word-spacing:0;fill:#e77936;fill-opacity:1;stroke:#b95c1f;stroke-width:.5291667;stroke-miterlimit:4;stroke-dasharray:none;stroke-opacity:1" aria-label="bcdefghijklmnopqrstuvwxyz ABCDEFGHIJKLMNOPQRSTUVWXYZ"><path inkscape:connector-curvature="0" id="path4838-1" style="font-style:normal;font-variant:normal;font-weight:400;font-stretch:normal;font-size:25.39999962px;line-height:1.25;font-family:Kabel;-inkscape-font-specification:Kabel;letter-spacing:0;word-spacing:0;fill:#1bd0d2;fill-opacity:1;stroke:#1fb7b9;stroke-width:.52916676;stroke-miterlimit:4;stroke-dasharray:none;stroke-opacity:1" d="m10.575 281.724-3.709-2.493q.13-.353.763-1.14.633-.788 1.346-1.272 2.108-1.5 4.98-1.5 1.853 0 3.602.812 1.73.843 2.772 2.337.812 1.222.812 2.692 0 .384-.05.763-.154 1.122-.582 1.903-.459.819-.918 1.247-.484.434-.533.459 1.246.607 2.059 2.083.812 1.47.812 2.946 0 1.042-.329 1.928-.36.893-.893 1.606-.533.707-1.066 1.166-1.929 1.675-5.538 1.675-2.232 0-4.16-.838-1.96-.837-3.43-2.517l3.528-3.324q.205.279.713.763.509.477 1.216.812.992.453 1.83.509 1.016-.081 1.829-.664.787-.583.787-1.575 0-.738-.304-1.296-.328-.558-.862-.732-.942-.254-2.542-.254h-.763q-.205.025-.329.05v-3.864h.41q.279.025.632.05 1.37 0 2.363-.403.967-.385.967-1.575 0-.968-.688-1.55-.688-.584-1.705-.584-.937 0-1.824.484-.917.509-1.196 1.296z"/></g></g></g></g></g></g></svg>