<?xml version="1.0" encoding="UTF-8" standalone="no"?>
<!-- Created with Inkscape (http://www.inkscape.org/) -->

<svg
   xmlns:dc="http://purl.org/dc/elements/1.1/"
   xmlns:cc="http://creativecommons.org/ns#"
   xmlns:rdf="http://www.w3.org/1999/02/22-rdf-syntax-ns#"
   xmlns:svg="http://www.w3.org/2000/svg"
   xmlns="http://www.w3.org/2000/svg"
   xmlns:sodipodi="http://sodipodi.sourceforge.net/DTD/sodipodi-0.dtd"
   xmlns:inkscape="http://www.inkscape.org/namespaces/inkscape"
   width="120"
   height="120"
   viewBox="0 0 31.75 31.750001"
   version="1.1"
   id="svg8"
   inkscape:version="0.92.1 r15371"
   sodipodi:docname="odd353.svg">
  <defs
     id="defs2" />
  <sodipodi:namedview
     id="base"
     pagecolor="#ffffff"
     bordercolor="#666666"
     borderopacity="1.0"
     inkscape:pageopacity="0.0"
     inkscape:pageshadow="2"
     inkscape:zoom="1.4142136"
     inkscape:cx="59.639409"
     inkscape:cy="14.48613"
     inkscape:document-units="mm"
     inkscape:current-layer="text1005"
     showgrid="false"
     units="px"
     inkscape:window-width="938"
     inkscape:window-height="1047"
     inkscape:window-x="938"
     inkscape:window-y="0"
     inkscape:window-maximized="0" />
  <metadata
     id="metadata5">
    <rdf:RDF>
      <cc:Work
         rdf:about="">
        <dc:format>image/svg+xml</dc:format>
        <dc:type
           rdf:resource="http://purl.org/dc/dcmitype/StillImage" />
        <dc:title></dc:title>
      </cc:Work>
    </rdf:RDF>
  </metadata>
  <g
     inkscape:label="Calque 1"
     inkscape:groupmode="layer"
     id="layer1"
     transform="translate(0,-265.24998)">
    <g
       aria-label="a"
       style="font-style:normal;font-variant:normal;font-weight:normal;font-stretch:normal;font-size:25.39999962px;line-height:1.25;font-family:Kabel;-inkscape-font-specification:Kabel;letter-spacing:0px;word-spacing:0px;fill:#e77936;fill-opacity:1;stroke:#b95c1f;stroke-width:0.5291667;stroke-miterlimit:4;stroke-dasharray:none;stroke-opacity:1"
       id="text817"
       transform="translate(1.7053228,-3.6786133)">
      <g
         aria-label="bcdefghijklmnopqrstuvwxyz  ABCDEFGHIJKLMNOPQRSTUVWXYZ"
         style="font-style:normal;font-variant:normal;font-weight:normal;font-stretch:normal;font-size:25.39999962px;line-height:1.25;font-family:Kabel;-inkscape-font-specification:Kabel;letter-spacing:0px;word-spacing:0px;fill:#e77936;fill-opacity:1;stroke:#b95c1f;stroke-width:0.5291667;stroke-miterlimit:4;stroke-dasharray:none;stroke-opacity:1"
         id="text1005">
        <g
           transform="matrix(0.65318672,0,0,0.65318672,-6.5690016,100.3121)"
           id="layer1-4"
           inkscape:label="Calque 1">
          <g
             transform="translate(1.7053228,-3.6786133)"
             id="text817-9"
             style="font-style:normal;font-variant:normal;font-weight:normal;font-stretch:normal;font-size:25.39999962px;line-height:1.25;font-family:Kabel;-inkscape-font-specification:Kabel;letter-spacing:0px;word-spacing:0px;fill:#e77936;fill-opacity:1;stroke:#b95c1f;stroke-width:0.5291667;stroke-miterlimit:4;stroke-dasharray:none;stroke-opacity:1"
             aria-label="a">
            <g
               id="text1005-2"
               style="font-style:normal;font-variant:normal;font-weight:normal;font-stretch:normal;font-size:25.39999962px;line-height:1.25;font-family:Kabel;-inkscape-font-specification:Kabel;letter-spacing:0px;word-spacing:0px;fill:#e77936;fill-opacity:1;stroke:#b95c1f;stroke-width:0.5291667;stroke-miterlimit:4;stroke-dasharray:none;stroke-opacity:1"
               aria-label="bcdefghijklmnopqrstuvwxyz  ABCDEFGHIJKLMNOPQRSTUVWXYZ">
              <path
                 inkscape:connector-curvature="0"
                 id="path4838"
                 style="font-style:normal;font-variant:normal;font-weight:normal;font-stretch:normal;font-size:25.39999962px;line-height:1.25;font-family:Kabel;-inkscape-font-specification:Kabel;letter-spacing:0px;word-spacing:0px;fill:#1bd0d2;fill-opacity:1;stroke:#1fb7b9;stroke-width:0.52916676;stroke-miterlimit:4;stroke-dasharray:none;stroke-opacity:1"
                 d="m 10.574596,281.7241 -3.7083008,-2.49287 q 0.130224,-0.35347 0.7627441,-1.14102 0.632519,-0.78755 1.3456539,-1.27124 2.1083988,-1.50068 4.9795388,-1.50068 1.85415,0 3.602879,0.81235 1.730131,0.84336 2.771931,2.33784 0.81235,1.22164 0.81235,2.69131 0,0.38448 -0.0496,0.76275 -0.155031,1.12241 -0.582911,1.90376 -0.458879,0.81855 -0.91777,1.24643 -0.48369,0.43408 -0.533299,0.45889 1.24643,0.60771 2.05879,2.08359 0.81235,1.46968 0.81235,2.94556 0,1.0418 -0.328661,1.92856 -0.359669,0.89297 -0.892969,1.60611 -0.5333,0.70693 -1.066601,1.16582 -1.92857,1.67431 -5.53765,1.67431 -2.232421,0 -4.1609846,-0.83715 -1.9595701,-0.83716 -3.4292482,-2.51768 l 3.5284668,-3.32383 q 0.204638,0.27905 0.713135,0.76275 0.508496,0.47749 1.215429,0.81235 0.992189,0.45269 1.829342,0.5085 1.017,-0.0806 1.82935,-0.66353 0.78755,-0.58291 0.78755,-1.5751 0,-0.73794 -0.303859,-1.29604 -0.328661,-0.55811 -0.861961,-0.73174 -0.94258,-0.25425 -2.542482,-0.25425 -0.558106,0 -0.762744,0 -0.204639,0.0248 -0.328663,0.0496 v -3.86333 q 0.124024,0 0.409278,0 0.279053,0.0248 0.632519,0.0496 1.370462,0 2.362643,-0.40308 0.96739,-0.38447 0.96739,-1.57509 0,-0.96739 -0.688331,-1.5503 -0.68833,-0.58291 -1.70532,-0.58291 -0.936382,0 -1.823148,0.48369 -0.917775,0.5085 -1.196827,1.29605 z" />
            </g>
          </g>
        </g>
        <g
           transform="matrix(0.65318672,0,0,0.65318672,3.800338,100.08729)"
           id="layer1-7"
           inkscape:label="Calque 1"
           style="fill:#1bd0d2;fill-opacity:1;stroke:#1fb7b9;stroke-opacity:1">
          <g
             transform="translate(1.7053228,-3.6786133)"
             id="text817-1"
             style="font-style:normal;font-variant:normal;font-weight:normal;font-stretch:normal;font-size:25.39999962px;line-height:1.25;font-family:Kabel;-inkscape-font-specification:Kabel;letter-spacing:0px;word-spacing:0px;fill:#1bd0d2;fill-opacity:1;stroke:#1fb7b9;stroke-width:0.5291667;stroke-miterlimit:4;stroke-dasharray:none;stroke-opacity:1"
             aria-label="a">
            <g
               id="text1005-72"
               style="font-style:normal;font-variant:normal;font-weight:normal;font-stretch:normal;font-size:25.39999962px;line-height:1.25;font-family:Kabel;-inkscape-font-specification:Kabel;letter-spacing:0px;word-spacing:0px;fill:#1bd0d2;fill-opacity:1;stroke:#1fb7b9;stroke-width:0.5291667;stroke-miterlimit:4;stroke-dasharray:none;stroke-opacity:1"
               aria-label="bcdefghijklmnopqrstuvwxyz  ABCDEFGHIJKLMNOPQRSTUVWXYZ">
              <path
                 inkscape:connector-curvature="0"
                 id="path4842-7"
                 style="font-style:normal;font-variant:normal;font-weight:normal;font-stretch:normal;font-size:25.39999962px;line-height:1.25;font-family:Kabel;-inkscape-font-specification:Kabel;letter-spacing:0px;word-spacing:0px;fill:#1bd0d2;fill-opacity:1;stroke:#1fb7b9;stroke-width:0.52916676;stroke-miterlimit:4;stroke-dasharray:none;stroke-opacity:1"
                 d="m 6.7311856,294.06443 3.5532694,-3.7083 q 0.0806,0.0744 0.33486,0.32866 0.22324,0.27906 0.63252,0.56431 0.40928,0.27905 0.96738,0.47749 0.55811,0.22944 1.39527,0.25425 1.24643,0 2.18281,-0.91157 0.78755,-0.76275 0.78755,-1.70533 0,-0.17363 -0.0248,-0.35346 -0.15502,-0.99219 -0.68833,-1.5751 -0.5581,-0.55811 -1.32085,-0.81235 -0.75654,-0.25425 -1.51928,-0.25425 -1.32085,0 -2.54248,0.38447 -1.22163,0.40308 -1.5254899,0.63252 V 275.9074 H 20.677625 l -1.24643,4.66948 h -5.51284 v 1.87896 q 0.0992,-0.0248 0.22944,-0.0496 0.0992,-0.0248 0.24805,-0.0496 0.15502,-0.0248 0.26044,-0.0496 0.0992,0 0.30386,0 2.00918,0 3.55327,1.09141 1.52549,1.0914 2.36265,2.84633 0.78755,1.72393 0.78755,3.55328 0,0.0496 0,0.0992 -0.0744,2.03399 -1.14102,3.63389 -1.0914,1.62471 -2.84633,2.54248 -1.74873,0.91157 -3.70831,0.96118 -0.0992,0 -0.20463,0 -2.28204,0 -4.4400398,-1.19062 -2.2386296,-1.24644 -2.5920896,-1.77974 z" />
            </g>
          </g>
        </g>
        <g
           style="font-style:normal;font-variant:normal;font-weight:normal;font-stretch:normal;font-size:25.39999962px;line-height:1.25;font-family:Kabel;-inkscape-font-specification:Kabel;letter-spacing:0px;word-spacing:0px;fill:#e77936;fill-opacity:1;stroke:#b95c1f;stroke-width:0.5291667;stroke-miterlimit:4;stroke-dasharray:none;stroke-opacity:1"
           transform="matrix(0.65318672,0,0,0.65318672,14.169677,100.3121)"
           id="layer1-4-2"
           inkscape:label="Calque 1">
          <g
             transform="translate(1.7053228,-3.6786133)"
             id="text817-9-2"
             style="font-style:normal;font-variant:normal;font-weight:normal;font-stretch:normal;font-size:25.39999962px;line-height:1.25;font-family:Kabel;-inkscape-font-specification:Kabel;letter-spacing:0px;word-spacing:0px;fill:#e77936;fill-opacity:1;stroke:#b95c1f;stroke-width:0.5291667;stroke-miterlimit:4;stroke-dasharray:none;stroke-opacity:1"
             aria-label="a">
            <g
               id="text1005-2-6"
               style="font-style:normal;font-variant:normal;font-weight:normal;font-stretch:normal;font-size:25.39999962px;line-height:1.25;font-family:Kabel;-inkscape-font-specification:Kabel;letter-spacing:0px;word-spacing:0px;fill:#e77936;fill-opacity:1;stroke:#b95c1f;stroke-width:0.5291667;stroke-miterlimit:4;stroke-dasharray:none;stroke-opacity:1"
               aria-label="bcdefghijklmnopqrstuvwxyz  ABCDEFGHIJKLMNOPQRSTUVWXYZ">
              <path
                 inkscape:connector-curvature="0"
                 id="path4838-1"
                 style="font-style:normal;font-variant:normal;font-weight:normal;font-stretch:normal;font-size:25.39999962px;line-height:1.25;font-family:Kabel;-inkscape-font-specification:Kabel;letter-spacing:0px;word-spacing:0px;fill:#1bd0d2;fill-opacity:1;stroke:#1fb7b9;stroke-width:0.52916676;stroke-miterlimit:4;stroke-dasharray:none;stroke-opacity:1"
                 d="m 10.574596,281.7241 -3.7083008,-2.49287 q 0.130224,-0.35347 0.7627441,-1.14102 0.632519,-0.78755 1.3456539,-1.27124 2.1083988,-1.50068 4.9795388,-1.50068 1.85415,0 3.602879,0.81235 1.730131,0.84336 2.771931,2.33784 0.81235,1.22164 0.81235,2.69131 0,0.38448 -0.0496,0.76275 -0.155031,1.12241 -0.582911,1.90376 -0.458879,0.81855 -0.91777,1.24643 -0.48369,0.43408 -0.533299,0.45889 1.24643,0.60771 2.05879,2.08359 0.81235,1.46968 0.81235,2.94556 0,1.0418 -0.328661,1.92856 -0.359669,0.89297 -0.892969,1.60611 -0.5333,0.70693 -1.066601,1.16582 -1.92857,1.67431 -5.53765,1.67431 -2.232421,0 -4.1609846,-0.83715 -1.9595701,-0.83716 -3.4292482,-2.51768 l 3.5284668,-3.32383 q 0.204638,0.27905 0.713135,0.76275 0.508496,0.47749 1.215429,0.81235 0.992189,0.45269 1.829342,0.5085 1.017,-0.0806 1.82935,-0.66353 0.78755,-0.58291 0.78755,-1.5751 0,-0.73794 -0.303859,-1.29604 -0.328661,-0.55811 -0.861961,-0.73174 -0.94258,-0.25425 -2.542482,-0.25425 -0.558106,0 -0.762744,0 -0.204639,0.0248 -0.328663,0.0496 v -3.86333 q 0.124024,0 0.409278,0 0.279053,0.0248 0.632519,0.0496 1.370462,0 2.362643,-0.40308 0.96739,-0.38447 0.96739,-1.57509 0,-0.96739 -0.688331,-1.5503 -0.68833,-0.58291 -1.70532,-0.58291 -0.936382,0 -1.823148,0.48369 -0.917775,0.5085 -1.196827,1.29605 z" />
            </g>
          </g>
        </g>
      </g>
    </g>
  </g>
</svg>
