<!--Created with Inkscape (http://www.inkscape.org/)--><svg xmlns:dc="http://purl.org/dc/elements/1.1/" xmlns:cc="http://creativecommons.org/ns#" xmlns:rdf="http://www.w3.org/1999/02/22-rdf-syntax-ns#" xmlns="http://www.w3.org/2000/svg" xmlns:sodipodi="http://sodipodi.sourceforge.net/DTD/sodipodi-0.dtd" xmlns:inkscape="http://www.inkscape.org/namespaces/inkscape" width="120" height="120" viewBox="0 0 31.75 31.750001" version="1.1" id="svg8" inkscape:version="0.92.1 r15371" sodipodi:docname="even786.svg"><sodipodi:namedview id="base" pagecolor="#ffffff" bordercolor="#666666" borderopacity="1.0" inkscape:pageopacity="0.0" inkscape:pageshadow="2" inkscape:zoom="1.4142136" inkscape:cx="72.774653" inkscape:cy="121.06344" inkscape:document-units="mm" inkscape:current-layer="text1005" showgrid="false" units="px" inkscape:window-width="938" inkscape:window-height="1047" inkscape:window-x="938" inkscape:window-y="0" inkscape:window-maximized="0"/><metadata id="metadata5"><rdf:RDF><cc:Work><dc:format>image/svg+xml</dc:format><dc:type rdf:resource="http://purl.org/dc/dcmitype/StillImage"/><dc:title/></cc:Work></rdf:RDF></metadata><g inkscape:label="Calque 1" inkscape:groupmode="layer" id="layer1" transform="translate(0 -265.25)"><g aria-label="a" style="font-style:normal;font-variant:normal;font-weight:400;font-stretch:normal;font-size:25.39999962px;line-height:1.25;font-family:Kabel;-inkscape-font-specification:Kabel;letter-spacing:0;word-spacing:0;fill:#e77936;fill-opacity:1;stroke:#b95c1f;stroke-width:.5291667;stroke-miterlimit:4;stroke-dasharray:none;stroke-opacity:1" id="text817" transform="translate(1.705 -3.679)"><g aria-label="bcdefghijklmnopqrstuvwxyz ABCDEFGHIJKLMNOPQRSTUVWXYZ" style="font-style:normal;font-variant:normal;font-weight:400;font-stretch:normal;font-size:25.39999962px;line-height:1.25;font-family:Kabel;-inkscape-font-specification:Kabel;letter-spacing:0;word-spacing:0;fill:#e77936;fill-opacity:1;stroke:#b95c1f;stroke-width:.5291667;stroke-miterlimit:4;stroke-dasharray:none;stroke-opacity:1" id="text1005"><g transform="matrix(.67531 0 0 .67531 13.697 94.289)" id="layer1-3" inkscape:label="Calque 1"><g transform="translate(1.705 -3.679)" id="text817-5" style="font-style:normal;font-variant:normal;font-weight:400;font-stretch:normal;font-size:25.39999962px;line-height:1.25;font-family:Kabel;-inkscape-font-specification:Kabel;letter-spacing:0;word-spacing:0;fill:#e77936;fill-opacity:1;stroke:#b95c1f;stroke-width:.5291667;stroke-miterlimit:4;stroke-dasharray:none;stroke-opacity:1" aria-label="a"><g id="text1005-6" style="font-style:normal;font-variant:normal;font-weight:400;font-stretch:normal;font-size:25.39999962px;line-height:1.25;font-family:Kabel;-inkscape-font-specification:Kabel;letter-spacing:0;word-spacing:0;fill:#e77936;fill-opacity:1;stroke:#b95c1f;stroke-width:.5291667;stroke-miterlimit:4;stroke-dasharray:none;stroke-opacity:1" aria-label="bcdefghijklmnopqrstuvwxyz ABCDEFGHIJKLMNOPQRSTUVWXYZ"><path inkscape:connector-curvature="0" id="path4844-2" style="font-style:normal;font-variant:normal;font-weight:400;font-stretch:normal;font-size:25.39999962px;line-height:1.25;font-family:Kabel;-inkscape-font-specification:Kabel;letter-spacing:0;word-spacing:0;fill:#e16f6f;fill-opacity:1;stroke:#b91f1f;stroke-width:.52916676;stroke-miterlimit:4;stroke-dasharray:none;stroke-opacity:1" d="m14.6 274.76 5.464 2.01q-.18.05-1.55 1.271-1.396 1.215-1.979 1.798-1.147 1.148-2.443 2.772l.385-.05.558-.08q.18-.025.409-.025 2.79 0 4.645 1.985 1.829 2.003 1.953 4.824v.304q0 2.183-1.067 3.814-1.14 1.749-3.02 2.641-1.903.912-3.807.912-3.535 0-5.767-2.288-2.084-2.109-2.084-5.408 0-.254.025-.533.074-1.32.434-2.462.329-1.122.837-2.133.509-1.017 1.216-2.108.688-1.098 1.122-1.78.862-1.451 4.67-5.463zm-.508 11.764q-1.166.025-1.953.887-.713.812-.713 1.854v.205q.08 1.091.893 1.879.812.787 1.928.787 1.141 0 1.978-.886.788-.819.788-1.886v-.148q-.025-1.172-.887-1.985-.812-.707-1.83-.707h-.204z"/></g></g></g><g transform="matrix(.67531 0 0 .67531 -7.03 93.801)" id="layer1-0" inkscape:label="Calque 1" style="fill:#e16f6f;fill-opacity:1;stroke:#b91f1f;stroke-opacity:1"><g transform="translate(1.705 -3.679)" id="text817-9" style="font-style:normal;font-variant:normal;font-weight:400;font-stretch:normal;font-size:25.39999962px;line-height:1.25;font-family:Kabel;-inkscape-font-specification:Kabel;letter-spacing:0;word-spacing:0;fill:#e16f6f;fill-opacity:1;stroke:#b91f1f;stroke-width:.5291667;stroke-miterlimit:4;stroke-dasharray:none;stroke-opacity:1" aria-label="a"><g id="text1005-3" style="font-style:normal;font-variant:normal;font-weight:400;font-stretch:normal;font-size:25.39999962px;line-height:1.25;font-family:Kabel;-inkscape-font-specification:Kabel;letter-spacing:0;word-spacing:0;fill:#e16f6f;fill-opacity:1;stroke:#b91f1f;stroke-width:.5291667;stroke-miterlimit:4;stroke-dasharray:none;stroke-opacity:1" aria-label="bcdefghijklmnopqrstuvwxyz ABCDEFGHIJKLMNOPQRSTUVWXYZ"><path inkscape:connector-curvature="0" id="path4846-6" style="font-style:normal;font-variant:normal;font-weight:400;font-stretch:normal;font-size:25.39999962px;line-height:1.25;font-family:Kabel;-inkscape-font-specification:Kabel;letter-spacing:0;word-spacing:0;fill:#e16f6f;fill-opacity:1;stroke:#b91f1f;stroke-width:.52916676;stroke-miterlimit:4;stroke-dasharray:none;stroke-opacity:1" d="m6.721 280.682 1.346-4.954h13.537l-6.499 20.674-5.872.837L15 280.682z"/></g></g></g><g transform="matrix(.67531 0 0 .67531 2.619 94.026)" id="layer1-1" inkscape:label="Calque 1" style="fill:#e16f6f;fill-opacity:1;stroke:#b91f1f;stroke-opacity:1"><g transform="translate(1.705 -3.679)" id="text817-8" style="font-style:normal;font-variant:normal;font-weight:400;font-stretch:normal;font-size:25.39999962px;line-height:1.25;font-family:Kabel;-inkscape-font-specification:Kabel;letter-spacing:0;word-spacing:0;fill:#e16f6f;fill-opacity:1;stroke:#b91f1f;stroke-width:.5291667;stroke-miterlimit:4;stroke-dasharray:none;stroke-opacity:1" aria-label="a"><g id="text1005-7" style="font-style:normal;font-variant:normal;font-weight:400;font-stretch:normal;font-size:25.39999962px;line-height:1.25;font-family:Kabel;-inkscape-font-specification:Kabel;letter-spacing:0;word-spacing:0;fill:#e16f6f;fill-opacity:1;stroke:#b91f1f;stroke-width:.5291667;stroke-miterlimit:4;stroke-dasharray:none;stroke-opacity:1" aria-label="bcdefghijklmnopqrstuvwxyz ABCDEFGHIJKLMNOPQRSTUVWXYZ"><path inkscape:connector-curvature="0" id="path4848" style="font-style:normal;font-variant:normal;font-weight:400;font-stretch:normal;font-size:25.39999962px;line-height:1.25;font-family:Kabel;-inkscape-font-specification:Kabel;letter-spacing:0;word-spacing:0;fill:#e16f6f;fill-opacity:1;stroke:#b91f1f;stroke-width:.52916676;stroke-miterlimit:4;stroke-dasharray:none;stroke-opacity:1" d="M14.058 283.448q.329 0 1.19-.608.838-.558.838-1.525v-.05q-.025-.862-.558-1.296-.534-.434-1.37-.434-.788 0-1.297.484-.533.508-.558 1.296v.05q0 .582.354 1.041.384.484.837.713.434.255.564.329zm.1 4.316q-.608.205-1.526.812-.912.64-.912 1.83 0 1.147.763 1.705.732.583 1.854.583.633-.025 1.216-.329.558-.304.917-.787.304-.434.304-.918v-.149q-.13-1.32-1.172-2.034-1.066-.713-1.445-.713zm-4.571-2.028q-.05-.025-.688-.638-.658-.583-1.117-1.625-.409-.837-.409-1.954 0-.229.025-.483.155-1.88 1.147-3.175.992-1.296 2.561-1.904 1.427-.533 3.026-.533h.304q2.822.05 4.7 1.47 1.855 1.426 2.004 4.216v.329q0 1.172-.453 2.083-.558 1.042-1.246 1.6-.689.558-.738.614.812.403 1.96 1.65 1.01 1.166 1.01 3.045v.36q-.074 3.02-2.133 4.545-2.053 1.525-5.153 1.6h-.304q-3.175 0-5.184-1.501-2.134-1.575-2.233-4.44v-.106q0-1.444.608-2.567.608-1.14 1.395-1.879.788-.707.918-.707z"/></g></g></g></g></g></g></svg>