<!--Created with Inkscape (http://www.inkscape.org/)--><svg xmlns:dc="http://purl.org/dc/elements/1.1/" xmlns:cc="http://creativecommons.org/ns#" xmlns:rdf="http://www.w3.org/1999/02/22-rdf-syntax-ns#" xmlns="http://www.w3.org/2000/svg" xmlns:sodipodi="http://sodipodi.sourceforge.net/DTD/sodipodi-0.dtd" xmlns:inkscape="http://www.inkscape.org/namespaces/inkscape" width="120" height="120" viewBox="0 0 31.75 31.750001" version="1.1" id="svg8" inkscape:version="0.92.1 r15371" sodipodi:docname="even96.svg"><sodipodi:namedview id="base" pagecolor="#ffffff" bordercolor="#666666" borderopacity="1.0" inkscape:pageopacity="0.0" inkscape:pageshadow="2" inkscape:zoom="1.4142136" inkscape:cx="67.353922" inkscape:cy="17.681196" inkscape:document-units="mm" inkscape:current-layer="text1005" showgrid="false" units="px" inkscape:window-width="938" inkscape:window-height="1047" inkscape:window-x="938" inkscape:window-y="0" inkscape:window-maximized="0"/><metadata id="metadata5"><rdf:RDF><cc:Work><dc:format>image/svg+xml</dc:format><dc:type rdf:resource="http://purl.org/dc/dcmitype/StillImage"/><dc:title/></cc:Work></rdf:RDF></metadata><g inkscape:label="Calque 1" inkscape:groupmode="layer" id="layer1" transform="translate(0 -265.25)"><g aria-label="a" style="font-style:normal;font-variant:normal;font-weight:400;font-stretch:normal;font-size:25.39999962px;line-height:1.25;font-family:Kabel;-inkscape-font-specification:Kabel;letter-spacing:0;word-spacing:0;fill:#e77936;fill-opacity:1;stroke:#b95c1f;stroke-width:.5291667;stroke-miterlimit:4;stroke-dasharray:none;stroke-opacity:1" id="text817" transform="translate(1.705 -3.679)"><g aria-label="bcdefghijklmnopqrstuvwxyz ABCDEFGHIJKLMNOPQRSTUVWXYZ" style="font-style:normal;font-variant:normal;font-weight:400;font-stretch:normal;font-size:25.39999962px;line-height:1.25;font-family:Kabel;-inkscape-font-specification:Kabel;letter-spacing:0;word-spacing:0;fill:#e77936;fill-opacity:1;stroke:#b95c1f;stroke-width:.5291667;stroke-miterlimit:4;stroke-dasharray:none;stroke-opacity:1" id="text1005"><g aria-label="a" style="font-style:normal;font-variant:normal;font-weight:400;font-stretch:normal;font-size:25.39999962px;line-height:1.25;font-family:Kabel;-inkscape-font-specification:Kabel;letter-spacing:0;word-spacing:0;fill:#1bd0d2;fill-opacity:1;stroke:#1fb7b9;stroke-width:.5291667;stroke-miterlimit:4;stroke-dasharray:none;stroke-opacity:1" id="text817-5" transform="matrix(.86023 0 0 .86023 -10.9 38.317)"><g aria-label="bcdefghijklmnopqrstuvwxyz ABCDEFGHIJKLMNOPQRSTUVWXYZ" style="font-style:normal;font-variant:normal;font-weight:400;font-stretch:normal;font-size:25.39999962px;line-height:1.25;font-family:Kabel;-inkscape-font-specification:Kabel;letter-spacing:0;word-spacing:0;fill:#1bd0d2;fill-opacity:1;stroke:#1fb7b9;stroke-width:.5291667;stroke-miterlimit:4;stroke-dasharray:none;stroke-opacity:1" id="text1005-6"><path d="m20.436 297.6-5.463-1.886q.254-.174 1.37-1.141 1.117-.967 2.084-1.978 1.247-1.222 2.487-2.847-.608.205-1.625.205-2.79-.105-4.496-2.084-1.724-1.96-1.804-4.75v-.384q0-2.133 1.042-3.733 1.147-1.749 2.976-2.636 1.83-.893 3.857-.893 3.535 0 5.792 2.233 2.084 2.083 2.084 5.413 0 .255-.025.534-.074 1.215-.434 2.412-.354 1.222-.862 2.214-.509.986-1.222 2.127-.707 1.147-1.116 1.73-.713 1.14-2.232 2.821-1.526 1.7-2.413 2.642zm.428-11.715q1.148-.025 1.96-.911.787-.862.787-2.01v-.05q-.055-.737-.434-1.32-.378-.583-1.017-.943-.632-.328-1.345-.328-1.19.05-1.978.893-.788.812-.788 1.928v.05q.025 1.116.862 1.904.787.787 1.904.787h.05z" style="font-style:normal;font-variant:normal;font-weight:400;font-stretch:normal;font-size:25.39999962px;line-height:1.25;font-family:Kabel;-inkscape-font-specification:Kabel;letter-spacing:0;word-spacing:0;fill:#1bd0d2;fill-opacity:1;stroke:#1fb7b9;stroke-width:.52916676;stroke-miterlimit:4;stroke-dasharray:none;stroke-opacity:1" id="path4890" inkscape:connector-curvature="0"/></g></g><g transform="matrix(.85404 0 0 .85404 7.64 43.87)" id="layer1-7" inkscape:label="Calque 1" style="stroke:#1fb7b9;stroke-opacity:1;fill:#1bd0d2;fill-opacity:1"><g transform="translate(1.705 -3.679)" id="text817-0" style="font-style:normal;font-variant:normal;font-weight:400;font-stretch:normal;font-size:25.39999962px;line-height:1.25;font-family:Kabel;-inkscape-font-specification:Kabel;letter-spacing:0;word-spacing:0;fill:#1bd0d2;fill-opacity:1;stroke:#1fb7b9;stroke-width:.5291667;stroke-miterlimit:4;stroke-dasharray:none;stroke-opacity:1" aria-label="a"><g id="text1005-9" style="font-style:normal;font-variant:normal;font-weight:400;font-stretch:normal;font-size:25.39999962px;line-height:1.25;font-family:Kabel;-inkscape-font-specification:Kabel;letter-spacing:0;word-spacing:0;fill:#1bd0d2;fill-opacity:1;stroke:#1fb7b9;stroke-width:.5291667;stroke-miterlimit:4;stroke-dasharray:none;stroke-opacity:1" aria-label="bcdefghijklmnopqrstuvwxyz ABCDEFGHIJKLMNOPQRSTUVWXYZ"><path inkscape:connector-curvature="0" id="path4844" style="font-style:normal;font-variant:normal;font-weight:400;font-stretch:normal;font-size:25.39999962px;line-height:1.25;font-family:Kabel;-inkscape-font-specification:Kabel;letter-spacing:0;word-spacing:0;fill:#1bd0d2;fill-opacity:1;stroke:#1fb7b9;stroke-width:.52916676;stroke-miterlimit:4;stroke-dasharray:none;stroke-opacity:1" d="m14.6 274.76 5.464 2.01q-.18.05-1.55 1.271-1.396 1.215-1.979 1.798-1.147 1.148-2.443 2.772l.385-.05.558-.08q.18-.025.409-.025 2.79 0 4.645 1.985 1.829 2.003 1.953 4.824v.304q0 2.183-1.067 3.814-1.14 1.749-3.02 2.641-1.903.912-3.807.912-3.535 0-5.767-2.288-2.084-2.109-2.084-5.408 0-.254.025-.533.074-1.32.434-2.462.329-1.122.837-2.133.509-1.017 1.216-2.108.688-1.098 1.122-1.78.862-1.451 4.67-5.463zm-.508 11.764q-1.166.025-1.953.887-.713.812-.713 1.854v.205q.08 1.091.893 1.879.812.787 1.928.787 1.141 0 1.978-.886.788-.819.788-1.886v-.148q-.025-1.172-.887-1.985-.812-.707-1.83-.707h-.204z"/></g></g></g></g></g></g></svg>