<!--Created with Inkscape (http://www.inkscape.org/)--><svg xmlns:dc="http://purl.org/dc/elements/1.1/" xmlns:cc="http://creativecommons.org/ns#" xmlns:rdf="http://www.w3.org/1999/02/22-rdf-syntax-ns#" xmlns="http://www.w3.org/2000/svg" xmlns:sodipodi="http://sodipodi.sourceforge.net/DTD/sodipodi-0.dtd" xmlns:inkscape="http://www.inkscape.org/namespaces/inkscape" width="120" height="120" viewBox="0 0 31.75 31.750001" version="1.1" id="svg8" inkscape:version="0.92.1 r15371" sodipodi:docname="even192.svg"><sodipodi:namedview id="base" pagecolor="#ffffff" bordercolor="#666666" borderopacity="1.0" inkscape:pageopacity="0.0" inkscape:pageshadow="2" inkscape:zoom="1.4142136" inkscape:cx="43.062292" inkscape:cy="66.2817" inkscape:document-units="mm" inkscape:current-layer="text1005" showgrid="false" units="px" inkscape:window-width="938" inkscape:window-height="1047" inkscape:window-x="938" inkscape:window-y="0" inkscape:window-maximized="0"/><metadata id="metadata5"><rdf:RDF><cc:Work><dc:format>image/svg+xml</dc:format><dc:type rdf:resource="http://purl.org/dc/dcmitype/StillImage"/><dc:title/></cc:Work></rdf:RDF></metadata><g inkscape:label="Calque 1" inkscape:groupmode="layer" id="layer1" transform="translate(0 -265.25)"><g aria-label="a" style="font-style:normal;font-variant:normal;font-weight:400;font-stretch:normal;font-size:25.39999962px;line-height:1.25;font-family:Kabel;-inkscape-font-specification:Kabel;letter-spacing:0;word-spacing:0;fill:#e77936;fill-opacity:1;stroke:#b95c1f;stroke-width:.5291667;stroke-miterlimit:4;stroke-dasharray:none;stroke-opacity:1" id="text817" transform="translate(1.705 -3.679)"><g aria-label="bcdefghijklmnopqrstuvwxyz ABCDEFGHIJKLMNOPQRSTUVWXYZ" style="font-style:normal;font-variant:normal;font-weight:400;font-stretch:normal;font-size:25.39999962px;line-height:1.25;font-family:Kabel;-inkscape-font-specification:Kabel;letter-spacing:0;word-spacing:0;fill:#e77936;fill-opacity:1;stroke:#b95c1f;stroke-width:.5291667;stroke-miterlimit:4;stroke-dasharray:none;stroke-opacity:1" id="text1005"><g style="font-style:normal;font-variant:normal;font-weight:400;font-stretch:normal;font-size:25.39999962px;line-height:1.25;font-family:Kabel;-inkscape-font-specification:Kabel;letter-spacing:0;word-spacing:0;fill:#1b8bd2;fill-opacity:1;stroke:#1f7db9;stroke-width:.5291667;stroke-miterlimit:4;stroke-dasharray:none;stroke-opacity:1" transform="matrix(.68767 0 0 .68767 13.12 90.791)" id="layer1-3-2" inkscape:label="Calque 1"><g transform="translate(1.705 -3.679)" id="text817-5-9" style="font-style:normal;font-variant:normal;font-weight:400;font-stretch:normal;font-size:25.39999962px;line-height:1.25;font-family:Kabel;-inkscape-font-specification:Kabel;letter-spacing:0;word-spacing:0;fill:#1b8bd2;fill-opacity:1;stroke:#1f7db9;stroke-width:.5291667;stroke-miterlimit:4;stroke-dasharray:none;stroke-opacity:1" aria-label="a"><g id="text1005-6-1" style="font-style:normal;font-variant:normal;font-weight:400;font-stretch:normal;font-size:25.39999962px;line-height:1.25;font-family:Kabel;-inkscape-font-specification:Kabel;letter-spacing:0;word-spacing:0;fill:#1b8bd2;fill-opacity:1;stroke:#1f7db9;stroke-width:.5291667;stroke-miterlimit:4;stroke-dasharray:none;stroke-opacity:1" aria-label="bcdefghijklmnopqrstuvwxyz ABCDEFGHIJKLMNOPQRSTUVWXYZ"><path inkscape:connector-curvature="0" id="path4836-2" style="font-style:normal;font-variant:normal;font-weight:400;font-stretch:normal;font-size:25.39999962px;line-height:1.25;font-family:Kabel;-inkscape-font-specification:Kabel;letter-spacing:0;word-spacing:0;fill:#1b8bd2;fill-opacity:1;stroke:#1f7db9;stroke-width:.52916676;stroke-miterlimit:4;stroke-dasharray:none;stroke-opacity:1" d="m6.192 296.402 7.695-9.22q2.512-3.25 2.512-4.62v-.156q-.149-1.345-.862-2.003-.657-.614-1.6-.614h-.149q-1.017.025-1.68.738-.658.713-.707 1.73v.1q0 1.395 1.773 2.288l-2.97 3.907q-.025-.025-.608-.404-.583-.384-1.116-.812-2.084-1.96-2.084-5.004v-.41q.075-1.928 1.092-3.503.992-1.55 2.765-2.388 1.706-.812 3.758-.812h.106q1.978 0 3.677.763 1.705.763 2.772 2.207 1.042 1.451 1.147 3.48v.303q0 1.575-.918 3.535-1.017 2.183-2.461 3.758l-2.134 2.362h6.17l-1.246 4.775z"/></g></g></g><g aria-label="a" style="font-style:normal;font-variant:normal;font-weight:400;font-stretch:normal;font-size:25.39999962px;line-height:1.25;font-family:Kabel;-inkscape-font-specification:Kabel;letter-spacing:0;word-spacing:0;fill:#1b8bd2;fill-opacity:1;stroke:#1f7db9;stroke-width:.5291667;stroke-miterlimit:4;stroke-dasharray:none;stroke-opacity:1" id="text817-5" transform="matrix(.65906 0 0 .65906 -1.355 95.96)"><g aria-label="bcdefghijklmnopqrstuvwxyz ABCDEFGHIJKLMNOPQRSTUVWXYZ" style="font-style:normal;font-variant:normal;font-weight:400;font-stretch:normal;font-size:25.39999962px;line-height:1.25;font-family:Kabel;-inkscape-font-specification:Kabel;letter-spacing:0;word-spacing:0;fill:#1b8bd2;fill-opacity:1;stroke:#1f7db9;stroke-width:.5291667;stroke-miterlimit:4;stroke-dasharray:none;stroke-opacity:1" id="text1005-6"><path d="m20.436 297.6-5.463-1.886q.254-.174 1.37-1.141 1.117-.967 2.084-1.978 1.247-1.222 2.487-2.847-.608.205-1.625.205-2.79-.105-4.496-2.084-1.724-1.96-1.804-4.75v-.384q0-2.133 1.042-3.733 1.147-1.749 2.976-2.636 1.83-.893 3.857-.893 3.535 0 5.792 2.233 2.084 2.083 2.084 5.413 0 .255-.025.534-.074 1.215-.434 2.412-.354 1.222-.862 2.214-.509.986-1.222 2.127-.707 1.147-1.116 1.73-.713 1.14-2.232 2.821-1.526 1.7-2.413 2.642zm.428-11.715q1.148-.025 1.96-.911.787-.862.787-2.01v-.05q-.055-.737-.434-1.32-.378-.583-1.017-.943-.632-.328-1.345-.328-1.19.05-1.978.893-.788.812-.788 1.928v.05q.025 1.116.862 1.904.787.787 1.904.787h.05z" style="font-style:normal;font-variant:normal;font-weight:400;font-stretch:normal;font-size:25.39999962px;line-height:1.25;font-family:Kabel;-inkscape-font-specification:Kabel;letter-spacing:0;word-spacing:0;fill:#1b8bd2;fill-opacity:1;stroke:#1f7db9;stroke-width:.52916676;stroke-miterlimit:4;stroke-dasharray:none;stroke-opacity:1" id="path4890" inkscape:connector-curvature="0"/></g></g><g transform="matrix(.6496 0 0 .6496 -8.301 101.7)" id="layer1-3" inkscape:label="Calque 1" style="fill:#1b8bd2;fill-opacity:1;stroke:#1f7db9;stroke-opacity:1"><g transform="translate(1.705 -3.679)" id="text817-56" style="font-style:normal;font-variant:normal;font-weight:400;font-stretch:normal;font-size:25.39999962px;line-height:1.25;font-family:Kabel;-inkscape-font-specification:Kabel;letter-spacing:0;word-spacing:0;fill:#1b8bd2;fill-opacity:1;stroke:#1f7db9;stroke-width:.5291667;stroke-miterlimit:4;stroke-dasharray:none;stroke-opacity:1" aria-label="a"><g id="text1005-2" style="font-style:normal;font-variant:normal;font-weight:400;font-stretch:normal;font-size:25.39999962px;line-height:1.25;font-family:Kabel;-inkscape-font-specification:Kabel;letter-spacing:0;word-spacing:0;fill:#1b8bd2;fill-opacity:1;stroke:#1f7db9;stroke-width:.5291667;stroke-miterlimit:4;stroke-dasharray:none;stroke-opacity:1" aria-label="bcdefghijklmnopqrstuvwxyz ABCDEFGHIJKLMNOPQRSTUVWXYZ"><path inkscape:connector-curvature="0" id="path4834" style="font-style:normal;font-variant:normal;font-weight:400;font-stretch:normal;font-size:25.39999962px;line-height:1.25;font-family:Kabel;-inkscape-font-specification:Kabel;letter-spacing:0;word-spacing:0;fill:#1b8bd2;fill-opacity:1;stroke:#1f7db9;stroke-width:.52916676;stroke-miterlimit:4;stroke-dasharray:none;stroke-opacity:1" d="m10.89 284.112-1.88-3.231 10.413-6.4v21.872l-5.309.459v-14.356z"/></g></g></g></g></g></g></svg>