<svg xmlns:dc="http://purl.org/dc/elements/1.1/" xmlns:cc="http://creativecommons.org/ns#" xmlns:rdf="http://www.w3.org/1999/02/22-rdf-syntax-ns#" xmlns="http://www.w3.org/2000/svg" version="1.0" xml:space="preserve" height="256" width="256" id="svg699"><metadata id="metadata32"><rdf:RDF><cc:Work><dc:format>image/svg+xml</dc:format><dc:type rdf:resource="http://purl.org/dc/dcmitype/StillImage"/><dc:title/><dc:date>2022</dc:date><dc:creator><cc:Agent><dc:title>Timothée Giet</dc:title></cc:Agent></dc:creator><cc:license rdf:resource="http://creativecommons.org/licenses/by-sa/4.0/"/></cc:Work><cc:License rdf:about="http://creativecommons.org/licenses/by-sa/4.0/"><cc:permits rdf:resource="http://creativecommons.org/ns#Reproduction"/><cc:permits rdf:resource="http://creativecommons.org/ns#Distribution"/><cc:requires rdf:resource="http://creativecommons.org/ns#Notice"/><cc:requires rdf:resource="http://creativecommons.org/ns#Attribution"/><cc:permits rdf:resource="http://creativecommons.org/ns#DerivativeWorks"/><cc:requires rdf:resource="http://creativecommons.org/ns#ShareAlike"/></cc:License></rdf:RDF></metadata><g transform="translate(-152.383 -513.048)" id="g2184"><path style="font-style:italic;font-weight:700;font-size:48px;font-family:'Luxi Serif';fill:#e0b11c;fill-opacity:1;stroke-width:1" d="M405.384 641.048c0 69.035-55.965 125-125 125-69.036 0-125-55.965-125-125 0-69.036 55.964-125 125-125 69.035 0 125 55.964 125 125zm-128.506 58.635z" id="path687"/><path style="font-style:italic;font-weight:700;font-size:48px;font-family:'Luxi Serif';fill:#e8cb3f;fill-opacity:1;stroke-width:1" d="M397.757 641.637c0 65.455-52.812 118.517-117.96 118.517s-117.96-53.062-117.96-118.517 52.812-118.516 117.96-118.516 117.96 53.061 117.96 118.516zM187.43 706.516H274.3l2.188-9.284-13.348-.955c-10.065-.573-12.035-1.336-12.035-4.963 0-2.673.657-7.827 1.75-12.6l25.821-112.054-62.363 12.98-1.97 9.163 8.097-1.336c5.47-.763 11.16-1.527 12.691-1.527 3.502 0 5.47.954 6.127 3.054l-.875 3.246-1.532 9.544-17.505 76.93c-4.814 16.418-5.252 15.758-17.506 16.33l-12.472.955-1.97.191z" id="path665"/><ellipse ry="90.446854" rx="90.022392" cy="641.63733" cx="279.79688" style="fill:#a1a1a1;fill-opacity:1;fill-rule:evenodd;stroke:none;stroke-width:.91983908pt;stroke-linecap:butt;stroke-linejoin:miter;stroke-opacity:1" id="path654"/><path style="font-style:italic;font-weight:700;font-size:48px;font-family:'Luxi Serif';fill:#e5e5e5;fill-opacity:1;stroke:#898989;stroke-width:2;stroke-miterlimit:4;stroke-dasharray:none;stroke-opacity:1" d="M216.222 705.705h57.925l2.204-8.577-2.301-.85c-6.064-.465-22.946.376-23.092-5.075 6.452-40.96 18.039-83.325 27.566-124.661l-62.364 12.974-1.956 9.17 8.071-1.341c5.495-.749 11.175-1.529 12.696-1.529 9.42.539 4.916 8.375 3.726 15.844l-17.508 76.942c-4.16 14.191-5.06 16.374-13.597 17.03a83.312 83.312 0 0 0 8.63 10.073z" id="path686"/></g></svg>