<!--Created with Inkscape (http://www.inkscape.org/)--><svg xmlns:dc="http://purl.org/dc/elements/1.1/" xmlns:cc="http://creativecommons.org/ns#" xmlns:rdf="http://www.w3.org/1999/02/22-rdf-syntax-ns#" xmlns="http://www.w3.org/2000/svg" xmlns:xlink="http://www.w3.org/1999/xlink" xmlns:sodipodi="http://sodipodi.sourceforge.net/DTD/sodipodi-0.dtd" xmlns:inkscape="http://www.inkscape.org/namespaces/inkscape" id="svg2" sodipodi:docname="cookie.svg" viewBox="0 0 314.72162 331.54749" version="1.1" inkscape:version="0.92.1 r15371" width="314.72162" height="331.54749"><defs id="defs6"><radialGradient id="radialGradient6347" xlink:href="#linearGradient5827" gradientUnits="userSpaceOnUse" cy="185.50999" cx="733.62" gradientTransform="matrix(1 0 0 1.2444 28.386 -50.211)" r="23.465" inkscape:collect="always"/><radialGradient id="radialGradient6349" xlink:href="#linearGradient5827" gradientUnits="userSpaceOnUse" cy="111.09" cx="710.77002" gradientTransform="matrix(1 0 0 .98305 28.386 -2.993)" r="15.641" inkscape:collect="always"/><radialGradient id="radialGradient6351" xlink:href="#linearGradient5827" gradientUnits="userSpaceOnUse" cy="196.84" cx="606.89001" gradientTransform="matrix(1 0 0 .77458 28.386 39.496)" r="29.496" inkscape:collect="always"/><radialGradient id="radialGradient6353" xlink:href="#linearGradient5827" gradientUnits="userSpaceOnUse" cy="29.316999" cx="601.69" gradientTransform="matrix(1 0 0 1.257 28.386 -12.411)" r="21.728001" inkscape:collect="always"/><radialGradient id="radialGradient6355" xlink:href="#linearGradient5827" gradientUnits="userSpaceOnUse" cy="214.44" cx="537.79999" gradientTransform="matrix(1 0 0 1.0508 28.386 -15.774)" r="21.719" inkscape:collect="always"/><radialGradient id="radialGradient6357" xlink:href="#linearGradient5827" gradientUnits="userSpaceOnUse" cy="129.81" cx="513.48999" gradientTransform="matrix(1 0 0 1.5826 28.386 -80.502)" r="14.892" inkscape:collect="always"/><radialGradient id="radialGradient6359" xlink:href="#linearGradient5827" gradientUnits="userSpaceOnUse" cy="264.70001" cx="614.81" gradientTransform="matrix(1 0 0 1.09 28.386 -28.706)" r="25.306" inkscape:collect="always"/><radialGradient id="radialGradient6361" xlink:href="#linearGradient5827" gradientUnits="userSpaceOnUse" cy="35.358002" cx="710.90997" gradientTransform="matrix(1 0 0 .61036 28.386 8.901)" r="29.684" inkscape:collect="always"/><linearGradient id="linearGradient5827" inkscape:collect="always"><stop id="stop5829" style="stop-color:#520" offset="0"/><stop id="stop5831" style="stop-color:#502d16" offset="1"/></linearGradient></defs><sodipodi:namedview id="namedview4" bordercolor="#666666" inkscape:pageshadow="2" guidetolerance="10" pagecolor="#ffffff" gridtolerance="10" inkscape:window-maximized="1" inkscape:zoom="1.0211325" objecttolerance="10" borderopacity="1" inkscape:current-layer="g6060" inkscape:cx="339.90443" inkscape:cy="48.581194" inkscape:window-y="0" inkscape:window-x="0" inkscape:window-width="1884" showgrid="false" inkscape:pageopacity="0" inkscape:window-height="1051" fit-margin-top="0" fit-margin-left="0" fit-margin-right="0" fit-margin-bottom="0"/><g id="g6060" transform="translate(-330.577 50.309) scale(.75798)"><path id="path2989-3" d="M615.64 341.776c-3.24-1.176-6.347-2.576-6.907-3.111-.56-.536-2.116-.974-3.459-.974-3.587 0-19.973-3.294-21.251-4.273-.604-.461-3.495-1.634-6.426-2.605-2.93-.971-5.569-2.122-5.863-2.558-.295-.435-2.869-1.828-5.72-3.095-7.285-3.236-18.56-10.131-22.524-13.773-1.841-1.692-3.67-3.078-4.064-3.08-.393-.004-2.638-1.777-4.987-3.941-2.35-2.165-7.088-6.432-10.529-9.483-8.12-7.198-12.326-11.167-14.174-13.373-3.99-4.764-8.71-11.13-10.23-13.8-2.327-4.084-4.056-6.652-5.948-8.836-7.431-8.575-19.484-34.241-18.354-39.081.112-.476-.291-.566-.895-.2-.603.365-1.133.282-1.177-.185-.279-2.975-1.166-6.09-1.873-6.577-.455-.313-1.703-3.64-2.773-7.392-1.07-3.753-2.203-7.531-2.519-8.397-.315-.866-.687-2.52-.826-3.674-.139-1.155-.58-3.753-.98-5.773-.401-2.02-.77-4.956-.82-6.524-.05-1.568-.412-2.656-.804-2.419-.392.238-.66-1.313-.596-3.447.064-2.133-.67-7.998-1.631-13.032-1.066-5.58-1.344-9.285-.714-9.49.648-.212.542-3.193-.283-7.991-1.578-9.172-.971-16.096 1.987-22.65 1.415-3.135 2.042-6.329 1.77-9.012-.25-2.464.035-4.157.701-4.157.618 0 .871-.944.563-2.099-.308-1.154-.095-2.099.474-2.099s.762-.432.429-.96-.216-1.118.26-1.312c1.022-.415 5.573-13.37 5.573-15.862 0-.944 1.356-3.98 3.013-6.748 1.657-2.768 3.84-7.527 4.852-10.576 1.011-3.05 3.593-8.718 5.737-12.596s4.9-8.94 6.125-11.25c1.224-2.309 2.468-4.434 2.765-4.723.296-.289 1.982-2.635 3.748-5.213 3.932-5.743 4.032-5.863 13.81-16.591 9.353-10.262 12.26-12.644 16.42-13.46 2.12-.415 3.462-1.545 4.243-3.571.627-1.63 3.127-4.193 5.553-5.694 2.427-1.502 4.413-3.197 4.413-3.767 0-.57.361-.936.803-.813 1.221.339 5.663-2.254 10.551-6.16 2.417-1.93 4.899-3.51 5.515-3.51.617 0 4.905-2.965 9.528-6.59 10.526-8.252 15.916-10.69 21.894-9.904 2.892.38 5.653.028 7.856-1.001 3.12-1.459 3.696-1.425 7.06.417 3.653 2 3.67 2 7.24-.375 1.97-1.31 5.767-2.702 8.44-3.095 4.95-.728 34.436.037 43.194 1.12 9.778 1.21 18.83 2.938 22.015 4.205 1.801.716 5.443 1.09 8.093.831 4.78-.467 19.698 2 23.213 3.84 1.006.527 6.795 2.236 12.864 3.799 12.007 3.09 16.72 5.59 20.022 10.619 1.178 1.794 4.004 4.078 6.28 5.076 4.522 1.98 7.996 4.701 15.72 12.313 2.783 2.742 5.51 4.986 6.062 4.986 4.868 0 32.052 44.863 34.192 56.43.288 1.556.898 3.075 1.355 3.376.954.627 1.09 1.073 5.992 19.44 2.002 7.505 4.166 15.298 4.81 17.319 3.15 9.9 4.494 20.742 4.554 36.737.05 13.297-.962 35.821-1.697 37.786-.324.866-.538 2.992-.475 4.723.24 6.643-1.73 15.376-4.356 19.314-.924 1.385-1.808 3.038-1.965 3.673-2.453 9.944-3.38 12.396-5.369 14.213-2.12 1.937-9.18 15.116-12.025 22.448-1.317 3.395-14.06 22.244-21.743 32.16-2.922 3.77-9.722 11.017-15.112 16.103-12.818 12.096-14.417 13.477-18.304 15.815-1.801 1.083-3.516 2.316-3.81 2.74-.295.424-2.102 1.558-4.016 2.519-1.914.961-3.48 2.208-3.48 2.77 0 .563-.608 1.023-1.35 1.023-.742 0-2.573 1.063-4.068 2.362-3.516 3.053-7.955 5.57-14.929 8.463-15.17 6.294-32.587 12.123-38.11 12.754-2.304.263-7.322.967-11.15 1.563-3.829.597-15.636 1.307-26.237 1.58-17.497.448-19.82.296-25.166-1.644z" style="fill:#ab6c3d;fill-opacity:1;stroke-width:1.06020296" inkscape:connector-curvature="0"/><path id="path2989" d="M617.5 328.944c-3.025-1.12-5.927-2.454-6.45-2.965-.522-.51-1.976-.927-3.23-.927-3.35 0-18.65-3.139-19.845-4.07-.563-.44-3.263-1.558-6-2.483-2.736-.925-5.2-2.022-5.475-2.437-.275-.415-2.679-1.742-5.341-2.948-6.803-3.084-17.331-9.653-21.033-13.122-1.72-1.612-3.427-2.933-3.795-2.935-.367-.003-2.463-1.693-4.657-3.755a866.32 866.32 0 0 0-9.832-9.034c-7.582-6.858-11.51-10.64-13.236-12.741-3.726-4.54-8.134-10.604-9.553-13.147-2.173-3.892-3.787-6.338-5.553-8.418-6.94-8.17-18.195-32.623-17.14-37.234.104-.454-.272-.54-.835-.191-.564.348-1.059.269-1.1-.176-.26-2.834-1.088-5.801-1.748-6.266-.426-.299-1.59-3.468-2.59-7.043-.999-3.575-2.057-7.175-2.352-8-.295-.825-.642-2.4-.772-3.5s-.542-3.575-.916-5.5c-.374-1.925-.718-4.722-.765-6.216-.046-1.493-.384-2.53-.75-2.304-.367.226-.617-1.252-.557-3.284.06-2.033-.626-7.62-1.523-12.416-.995-5.316-1.255-8.846-.667-9.042.606-.202.507-3.042-.264-7.613-1.474-8.738-.907-15.335 1.855-21.579 1.322-2.987 1.907-6.03 1.653-8.586-.233-2.347.033-3.96.655-3.96.577 0 .814-.9.526-2-.288-1.1-.089-2 .442-2s.712-.411.4-.915c-.31-.503-.2-1.065.244-1.25.954-.395 5.204-12.738 5.204-15.112 0-.899 1.266-3.792 2.813-6.429 1.548-2.637 3.587-7.17 4.531-10.076.945-2.905 3.355-8.305 5.357-12a906.205 906.205 0 0 0 5.72-10.718c1.143-2.2 2.305-4.225 2.582-4.5.276-.275 1.851-2.51 3.5-4.966 3.672-5.472 3.765-5.587 12.896-15.807 8.733-9.777 11.448-12.046 15.334-12.823 1.98-.396 3.232-1.472 3.96-3.403.587-1.553 2.92-3.994 5.187-5.425 2.266-1.43 4.12-3.045 4.12-3.589 0-.543.337-.891.75-.775 1.14.324 5.288-2.146 9.853-5.867 2.256-1.84 4.574-3.345 5.15-3.345.576 0 4.58-2.825 8.897-6.279 9.83-7.861 14.862-10.184 20.445-9.435 2.7.362 5.279.027 7.336-.954 2.914-1.39 3.45-1.357 6.592.397 3.411 1.906 3.427 1.905 6.761-.357 1.838-1.248 5.385-2.575 7.882-2.949 4.62-.693 32.156.036 40.334 1.068 9.13 1.152 17.583 2.799 20.558 4.006 1.681.682 5.082 1.039 7.557.792 4.463-.446 18.394 1.906 21.676 3.658.94.502 6.346 2.13 12.013 3.62 11.212 2.944 15.613 5.325 18.696 10.116 1.1 1.71 3.74 3.886 5.865 4.836 4.222 1.887 7.466 4.48 14.68 11.731 2.598 2.612 5.145 4.75 5.66 4.75 4.546 0 29.93 42.742 31.928 53.763.269 1.482.838 2.93 1.265 3.216.89.598 1.019 1.022 5.595 18.521 1.87 7.15 3.891 14.575 4.492 16.5 2.942 9.431 4.197 19.761 4.252 35 .047 12.67-.898 34.128-1.584 36-.302.825-.502 2.85-.443 4.5.224 6.329-1.615 14.65-4.068 18.4-.863 1.32-1.689 2.895-1.835 3.5-2.29 9.473-3.156 11.81-5.013 13.541-1.98 1.845-8.573 14.401-11.23 21.387-1.23 3.234-13.13 21.192-20.303 30.64-2.729 3.592-9.079 10.495-14.111 15.341-11.97 11.524-13.463 12.84-17.093 15.067-1.682 1.032-3.283 2.206-3.558 2.61-.275.405-1.962 1.485-3.75 2.4-1.787.916-3.25 2.104-3.25 2.64s-.567.974-1.26.974c-.693 0-2.403 1.013-3.8 2.25-3.283 2.91-7.428 5.307-13.94 8.064-14.166 5.996-30.43 11.55-35.586 12.15-2.153.252-6.839.922-10.413 1.49-3.575.568-14.6 1.245-24.5 1.504-16.338.428-18.508.283-23.5-1.566z" style="fill:#cc8f59;fill-opacity:1" inkscape:connector-curvature="0"/><path id="path5287" d="M770.766 149.464c-3.465.118-2.84 5.279-6.469 4.563-1.96.716-1.955 3.083-4.437 2.406-3.139 1.03-7.09 2.545-10.312 1.625-1.65-2.79-7.694-2.628-6.094 1.5-.575 3.58-5.905 6.356-4.625 11-.466 1.867.262 3.864-1.938 5.094-1.406 4.14 4.523 6.038 5.25 9.897 2.737 6.518 8.49 10.745 12.406 16.383-4.033-.086-2.455 4.531.438 4.907-.656 2.849 2.017 3.52 3.812 4.218 3.428 2.652 4.869-2.236 2.844-4.625.162-3.534-3.588-6.254-.312-9.312 3.33-3.588 3.806-8.628 5.343-12.812 2.004-2.629 5.008-4.752 5.25-8.625.774-5.61 2.86-12.065-.406-17.094.121-2.615 2.728-.401 4.125.062 3.452-2.197 10.512 2.528 12.062-3.093-1.676-4.164-7.586-1.023-9.094-4.563-1.655-.449-3.46-.655-5.03-.812-.776-.594-1.85-.825-2.813-.72z" style="fill:#804d33" inkscape:connector-curvature="0"/><path id="path4962" d="M759.466 208.824c-.346-.559-1.047-.757-1.56-.44-.834.515-1.078-.126-.856-2.255.04-.39-.747-1.034-1.75-1.43-1.667-.656-1.674-.724-.08-.788 2.986-.12 1.432-3.97-3.401-8.422-2.477-2.282-5.725-6.588-7.218-9.57-1.493-2.982-3.597-6.187-4.676-7.123-1.754-1.522-1.797-1.836-.41-2.988.854-.709 1.312-1.914 1.018-2.68-.294-.765-.089-1.117.455-.78.543.335.988.16.988-.39s-.433-1.267-.962-1.594c-1.124-.695.784-5.524 2.182-5.524.494 0 .645-.41.334-.912-.31-.502.581-.787 1.98-.633 1.545.17 2.382-.16 2.13-.838-.227-.614-.996-.979-1.708-.81-1.058.25-1.058.022 0-1.25 1.053-1.27 1.054-1.557 0-1.557-.709 0-.992-.297-.629-.66.364-.363 1.504.102 2.534 1.035 1.525 1.38 2.634 1.524 5.957.778 2.246-.505 4.33-.67 4.633-.369.302.303.55.097.55-.456s1.306-.928 2.904-.833c2.055.122 2.755-.218 2.393-1.161-.328-.855.255-1.334 1.627-1.334 1.176 0 2.429-.787 2.784-1.75.908-2.461 2.51-3.313 3.964-2.106.682.566 1.71.738 2.283.383.575-.354 1.044-.142 1.044.473s.52.797 1.155.405c.715-.442.883-.274.44.44-.493.8.518 1.155 3.287 1.155 2.2 0 4.255.412 4.566.916.654 1.057-6.488.796-8.264-.302-.656-.406-1.184-.205-1.184.45 0 .882-.378.867-1.495-.06-1.205-1-1.986-.919-4.028.42-1.393.913-3.04 1.346-3.66.963-.687-.425-.848-.246-.412.459.392.635 1.362 1.154 2.154 1.154.793 0 1.441.675 1.441 1.5s.338 1.5.75 1.5c.413 0 .672 1.463.577 3.25-.095 1.788-.234 3.25-.309 3.25-.075 0-.279 1.575-.454 3.5-.429 4.722-2.331 9.262-3.562 8.502-.55-.341-1.002.044-1.002.856 0 .812-.403 1.626-.895 1.809-.493.183-1.126 2.079-1.408 4.213-.281 2.133-1.462 5.164-2.623 6.735-2.84 3.84-4.248 7.66-2.98 8.083.546.182 1.114 1.469 1.262 2.859.148 1.39.605 3.071 1.016 3.736.41.664.521 1.207.246 1.207s-.782-.457-1.128-1.016z" style="fill:url(#radialGradient6347)" inkscape:connector-curvature="0"/><path id="path5757" style="fill:#e0a367" inkscape:connector-curvature="0" d="M706.286 197.124c.106-1.531.781-3.405 1.5-4.164.72-.758 1.062-2.019.762-2.801-.3-.783-.15-1.18.333-.88.88.544 4.703-6.279 4.308-7.69-.116-.412.48-.75 1.321-.75.843 0 1.79-.675 2.107-1.5.317-.825 1.004-1.5 1.528-1.5s.623.563.221 1.25c-.402.688.134.516 1.191-.381 1.057-.898 3.003-1.962 4.323-2.366 1.994-.609 2.291-.446 1.75.964-.358.933-.651 2.096-.651 2.583 0 .488-1.238 1.558-2.75 2.379-1.513.82-2.357 1.51-1.878 1.531.48.022.32.707-.357 1.522-.677.816-1.444 3.178-1.707 5.25-.592 4.687-3.684 7.848-8.501 8.691-3.558.623-3.686.545-3.5-2.138z"/><path id="path4956" d="M708.286 200.124c.106-1.531.781-3.405 1.5-4.164.72-.758 1.062-2.019.762-2.801-.3-.783-.15-1.18.333-.88.88.544 4.703-6.279 4.308-7.69-.116-.412.48-.75 1.321-.75.843 0 1.79-.675 2.107-1.5.317-.825 1.004-1.5 1.528-1.5s.623.563.221 1.25c-.402.688.134.516 1.191-.381 1.057-.898 3.003-1.962 4.323-2.366 1.994-.609 2.291-.446 1.75.964-.358.933-.651 2.096-.651 2.583 0 .488-1.238 1.558-2.75 2.379-1.513.82-2.357 1.51-1.878 1.531.48.022.32.707-.357 1.522-.677.816-1.444 3.178-1.707 5.25-.592 4.687-3.684 7.848-8.501 8.691-3.558.623-3.686.545-3.5-2.138z" style="fill:#520" inkscape:connector-curvature="0"/><path id="path5699" style="fill:#cd6936" inkscape:connector-curvature="0" d="M701.976 176.974c0-.688-.43-.984-.956-.66-.526.326-2.507-.057-4.404-.849-4.15-1.734-5.516-4.997-3.176-7.583.904-.999 1.714-2.755 1.8-3.902.087-1.147.707-2.297 1.378-2.554.756-.29 1.084.241.862 1.394-.197 1.025.29 2.113 1.084 2.417.793.305 1.874 1.69 2.402 3.08.639 1.679 1.723 2.525 3.235 2.525 1.912 0 2.26.51 2.18 3.198-.052 1.759-.686 3.396-1.409 3.637-.912.304-1.112-.14-.653-1.449.628-1.788.584-1.785-.84.055-.834 1.077-1.503 1.385-1.503.691z"/><path id="path4924" d="M700.976 174.974c0-.688-.43-.984-.956-.66-.526.326-2.507-.057-4.404-.849-4.15-1.734-5.516-4.997-3.176-7.583.904-.999 1.714-2.755 1.8-3.902.087-1.147.707-2.297 1.378-2.554.756-.29 1.084.241.862 1.394-.197 1.025.29 2.113 1.084 2.417.793.305 1.874 1.69 2.402 3.08.639 1.679 1.723 2.525 3.235 2.525 1.912 0 2.26.51 2.18 3.198-.052 1.759-.686 3.396-1.409 3.637-.912.304-1.112-.14-.653-1.449.628-1.788.584-1.785-.84.055-.834 1.077-1.503 1.385-1.503.691z" style="fill:#520" inkscape:connector-curvature="0"/><path id="path5435" style="fill:#930" inkscape:connector-curvature="0" d="M732.836 119.174c-.2-.46-1.712-1.594-3.362-2.52-3.712-2.08-5.132-8.563-2.895-13.22.767-1.597 1.395-3.524 1.395-4.282s.753-1.667 1.673-2.02 2.454-1.423 3.409-2.377c1.545-1.545 1.574-1.963.27-3.826-.807-1.15-1.066-2.092-.578-2.092.488 0 1.452 1.055 2.143 2.345.92 1.721 1.887 2.224 3.63 1.89 1.35-.257 3.041.211 3.915 1.085 1.804 1.804 2.045 3.112.383 2.085-.721-.446-.883-.274-.43.457.397.644 1.161.9 1.697.569.536-.331 2.298.899 3.915 2.734 1.617 1.834 2.948 2.746 2.957 2.026.01-.72.505-1.006 1.103-.637.598.37.869 1.506.602 2.525-.278 1.065 0 1.761.663 1.637.631-.119 1.25.91 1.376 2.284.265 2.907.914 6.467 1.824 10 .55 2.131.331 2.011-1.476-.81-1.166-1.82-1.847-3.753-1.512-4.294.703-1.138-1.107-3.58-3.671-4.953-1.195-.64-2.005-.572-2.487.21-.444.717-.277.885.439.443.68-.42 1.155-.086 1.155.814 0 .947-.57 1.309-1.5.952-.929-.356-1.5.004-1.5.947 0 1.688-5.112 6.901-7.181 7.322-.726.148-2.281.556-3.457.906-1.176.35-2.3.26-2.5-.2z"/><path id="path4798" d="M730.836 121.174c-.2-.46-1.712-1.594-3.362-2.52-3.712-2.08-5.132-8.563-2.895-13.22.767-1.597 1.395-3.524 1.395-4.282s.753-1.667 1.673-2.02 2.454-1.423 3.409-2.377c1.545-1.545 1.574-1.963.27-3.826-.807-1.15-1.066-2.092-.578-2.092.488 0 1.452 1.055 2.143 2.345.92 1.721 1.887 2.224 3.63 1.89 1.35-.257 3.041.211 3.915 1.085 1.804 1.804 2.045 3.112.383 2.085-.721-.446-.883-.274-.43.457.397.644 1.161.9 1.697.569.536-.331 2.298.899 3.915 2.734 1.617 1.834 2.948 2.746 2.957 2.026.01-.72.505-1.006 1.103-.637.598.37.869 1.506.602 2.525-.278 1.065 0 1.761.663 1.637.631-.119 1.25.91 1.376 2.284.265 2.907.914 6.467 1.824 10 .55 2.131.331 2.011-1.476-.81-1.166-1.82-1.847-3.753-1.512-4.294.703-1.138-1.107-3.58-3.671-4.953-1.195-.64-2.005-.572-2.487.21-.444.717-.277.885.439.443.68-.42 1.155-.086 1.155.814 0 .947-.57 1.309-1.5.952-.929-.356-1.5.004-1.5.947 0 1.688-5.112 6.901-7.181 7.322-.726.148-2.281.556-3.457.906-1.176.35-2.3.26-2.5-.2z" style="fill:url(#radialGradient6349)" inkscape:connector-curvature="0"/><g id="g3521" style="fill:#b16641;fill-opacity:1" transform="translate(144.2 -428.156) scale(1.0057)"><path id="path3519" style="fill:#b16641;fill-opacity:1" inkscape:connector-curvature="0" d="M488.03 742.3c.34-.55.816-1 1.059-1s.441.45.441 1-.477 1-1.059 1-.78-.45-.441-1z"/><path id="path3517" style="fill:#b16641;fill-opacity:1" inkscape:connector-curvature="0" d="M459.89 741.52c.369-.597.213-1.368-.345-1.714-.56-.345-1.048-.039-1.087.681-.039.72-.428.41-.865-.69-.438-1.1-.407-3.039.067-4.308.556-1.488.509-2.088-.135-1.69-.548.338-.997.125-.997-.475s.71-1.363 1.577-1.695c.867-.333 1.98-1.669 2.475-2.969.494-1.3 1.702-2.364 2.683-2.364.981 0 2.346-.9 3.033-2 1.66-2.659 4.216-2.655 3.52.005-.288 1.103.075 2.727.806 3.609 1.115 1.343 1.088 1.787-.168 2.744-.824.628-1.345 1.888-1.157 2.799.452 2.19-1.633 3.404-3.106 1.81-.891-.966-.871-1.095.087-.555.689.39 1.25.183 1.25-.46 0-.641-.62-.928-1.378-.637-.758.29-1.95.002-2.647-.643-.97-.897-1.113-.895-.605.009.364.65.205 1.464-.354 1.809-.559.346-1.016 1.925-1.016 3.51 0 1.585-.52 3.203-1.154 3.596-.69.426-.884.276-.484-.372z"/><path id="path3515" style="fill:#b16641;fill-opacity:1" inkscape:connector-curvature="0" d="M519.53 739.92c0-.208.685-.946 1.523-1.641 1.273-1.057 1.42-.995.893.377-.538 1.402-2.416 2.384-2.416 1.264z"/><path id="path3513" style="fill:#b16641;fill-opacity:1" inkscape:connector-curvature="0" d="M505.59 733.96c-.743-1.739-1.99-3.904-2.77-4.812-.957-1.112-1.072-1.865-.354-2.309.586-.362 1.065-.182 1.065.4 0 .583.578 1.06 1.284 1.06.707 0 2.018 1.241 2.914 2.758 1.301 2.203 1.386 3.09.42 4.411-1.07 1.464-1.363 1.29-2.559-1.508z"/><path id="path3511" style="fill:#b16641;fill-opacity:1" inkscape:connector-curvature="0" d="M561.78 731.55c-1.58-.532-1.538-1.29.201-3.585 1.339-1.767 1.458-1.76 3.391.172 1.659 1.66 1.75 2.101.529 2.57-.95.364-1.252.125-.849-.673.345-.681.03-.524-.698.35-.728.873-1.887 1.398-2.574 1.166z"/><path id="path3509" style="fill:#b16641;fill-opacity:1" inkscape:connector-curvature="0" d="M520.03 725.3c.34-.55.816-1 1.059-1s.441.45.441 1-.477 1-1.059 1-.78-.45-.441-1z"/><path id="path3507" style="fill:#b16641;fill-opacity:1" inkscape:connector-curvature="0" d="M555.53 725.24c0-.582.45-.78 1-.441.55.34 1 .817 1 1.059 0 .243-.45.441-1 .441s-1-.477-1-1.059z"/><path id="path3505" style="fill:#b16641;fill-opacity:1" inkscape:connector-curvature="0" d="M413.53 721.9c0-.216.675-.652 1.5-.969.825-.316 1.5-.14 1.5.393s-.675.969-1.5.969-1.5-.177-1.5-.393z"/><path id="path3503" style="fill:#b16641;fill-opacity:1" inkscape:connector-curvature="0" d="M419.53 721.3c0-.55.45-1 1-1s1 .45 1 1-.45 1-1 1-1-.45-1-1z"/><path id="path3501" style="fill:#b16641;fill-opacity:1" inkscape:connector-curvature="0" d="M431.53 720.8c-1.02-1.228-.951-1.5.378-1.5.892 0 1.622.675 1.622 1.5s-.17 1.5-.378 1.5c-.207 0-.937-.675-1.622-1.5z"/><path id="path3499" style="fill:#b16641;fill-opacity:1" inkscape:connector-curvature="0" d="M556.61 718.71c.048-1.165.285-1.402.604-.604.289.722.254 1.584-.079 1.917-.332.332-.568-.259-.525-1.313z"/><path id="path3497" style="fill:#b16641;fill-opacity:1" inkscape:connector-curvature="0" d="M424.53 714.63c0-.733.6-1.333 1.333-1.333.734 0 1.334.6 1.334 1.333s-.6 1.333-1.334 1.333c-.733 0-1.333-.6-1.333-1.333z"/><path id="path3495" style="fill:#b16641;fill-opacity:1" inkscape:connector-curvature="0" d="M456.94 715.15c-.66-1.067 3.257-4.867 4.99-4.843.604.008 1.773.478 2.598 1.042 1.238.848 1.155.976-.478.735-1.087-.16-1.987.233-2 .875-.046 2.423-3.936 4.091-5.11 2.191z"/><path id="path3493" style="fill:#b16641;fill-opacity:1" inkscape:connector-curvature="0" d="M510.1 713.55c.498-.412 1.24-1.2 1.651-1.75.426-.57.753-.249.762.75.009.973-.725 1.75-1.651 1.75-.917 0-1.26-.338-.762-.75z"/><path id="path3491" style="fill:#b16641;fill-opacity:1" inkscape:connector-curvature="0" d="M532.03 711.3c.34-.55 1.068-1 1.618-1s.722.45.382 1c-.34.55-1.068 1-1.618 1s-.722-.45-.382-1z"/><path id="path3489" style="fill:#b16641;fill-opacity:1" inkscape:connector-curvature="0" d="M564.04 711.28c.345-.559 1.047-.757 1.559-.441 1.387.857 1.128 1.457-.628 1.457-.858 0-1.277-.457-.931-1.016z"/><path id="path3487" style="fill:#b16641;fill-opacity:1" inkscape:connector-curvature="0" d="M401.6 708.89c-1.428-1.72-.033-2.808 1.974-1.538.799.505 1.002.957.452 1.004-.55.047-.1.472 1 .945 1.95.838 1.948.861-.127.93-1.17.038-2.655-.565-3.299-1.341z"/><path id="path3485" style="fill:#b16641;fill-opacity:1" inkscape:connector-curvature="0" d="M577.99 709.23c-.363-.587-.419-1.307-.126-1.6.717-.716 2.667.546 2.667 1.726 0 1.278-1.726 1.192-2.54-.126z"/><path id="path3483" style="fill:#b16641;fill-opacity:1" inkscape:connector-curvature="0" d="M593.18 708.83c-.31-.807-.133-1.734.393-2.059.526-.325.956.336.956 1.468 0 2.415-.556 2.658-1.349.591z"/><path id="path3481" style="fill:#b16641;fill-opacity:1" inkscape:connector-curvature="0" d="M577.53 705.3c0-.55.45-1 1-1s1 .45 1 1-.45 1-1 1-1-.45-1-1z"/><path id="path3479" style="fill:#b16641;fill-opacity:1" inkscape:connector-curvature="0" d="M407.53 703.46c0-1.012 1.09-2.337 2.424-2.944 1.958-.892 2.68-.79 3.75.531.904 1.116.937 1.403.103.902-.709-.425-1.96.125-2.973 1.308-2.169 2.533-3.304 2.603-3.304.203z"/><path id="path3477" style="fill:#b16641;fill-opacity:1" inkscape:connector-curvature="0" d="M420.34 704.61c.722-.289 1.584-.253 1.917.079.332.332-.259.569-1.313.525-1.165-.048-1.402-.285-.604-.604z"/><path id="path3475" style="fill:#b16641;fill-opacity:1" inkscape:connector-curvature="0" d="M532.02 702.28c-.345-.559-1.117-.714-1.714-.345-.632.39-.799.207-.398-.44.758-1.227 3.622-.508 3.622.908 0 1.192-.734 1.132-1.51-.123z"/><path id="path3473" style="fill:#b16641;fill-opacity:1" inkscape:connector-curvature="0" d="M577.62 700.9c-.942-1.135-.919-1.403.107-1.252 1.382.203 2.273 1.514 1.532 2.255-.242.243-.98-.209-1.639-1.003z"/><path id="path3471" style="fill:#b16641;fill-opacity:1" inkscape:connector-curvature="0" d="M382.39 699.63c-.609-.733-.687-1.333-.175-1.333s1.752.6 2.755 1.333c1.596 1.168 1.618 1.333.175 1.333-.907 0-2.146-.6-2.755-1.333z"/><path id="path3469" style="fill:#b16641;fill-opacity:1" inkscape:connector-curvature="0" d="M389.09 700.4c-1.746-.683-1.62-.921 1.241-2.349 2.174-1.084 3.394-1.248 3.847-.514.378.611.197.784-.422.402-.597-.369-1.399-.163-1.782.457-.384.62-.077 1.521.68 2.001 1.138.721 1.117.864-.121.818-.825-.03-2.375-.397-3.443-.815z"/><path id="path3467" style="fill:#b16641;fill-opacity:1" inkscape:connector-curvature="0" d="M431.53 700.36c0-.518.445-1.216.989-1.552.566-.35.734.051.393.941-.665 1.732-1.382 2.05-1.382.611z"/><path id="path3465" style="fill:#b16641;fill-opacity:1" inkscape:connector-curvature="0" d="M569.92 699.71c.334-.87.614-2.107.622-2.75.01-.717.36-.624.908.241 1.025 1.62.339 4.09-1.137 4.09-.55 0-.727-.711-.393-1.581z"/><path id="path3463" style="fill:#b16641;fill-opacity:1" inkscape:connector-curvature="0" d="M430.53 697.3c0-.55.477-1 1.059-1s.78.45.441 1c-.34.55-.816 1-1.059 1s-.441-.45-.441-1z"/><path id="path3461" style="fill:#b16641;fill-opacity:1" inkscape:connector-curvature="0" d="M441.53 693.3c0-.55.477-1 1.059-1s.78.45.441 1c-.34.55-.816 1-1.059 1s-.441-.45-.441-1z"/><path id="path3459" style="fill:#b16641;fill-opacity:1" inkscape:connector-curvature="0" d="M409.22 691.93c-.628-1.636 2.229-4.644 4.388-4.62.97.01 1.06.248.287.75-.624.403-1.299 1.596-1.5 2.65-.457 2.396-2.433 3.154-3.175 1.22z"/><path id="path3457" style="fill:#b16641;fill-opacity:1" inkscape:connector-curvature="0" d="M388.63 689c-1.265-2.106-1.244-2.128.478-.478.992.95 1.587 1.941 1.324 2.204-.263.263-1.074-.514-1.802-1.726z"/><path id="path3455" style="fill:#b16641;fill-opacity:1" inkscape:connector-curvature="0" d="M394.44 685.93c-1.764-1.345-1.386-4.233.656-5.016 2.076-.797 6.435 1.075 6.435 2.764 0 2.037-5.204 3.69-7.091 2.252z"/><path id="path3453" style="fill:#b16641;fill-opacity:1" inkscape:connector-curvature="0" d="M376.83 683.05c-1.127-1.238-2.58-3.278-3.228-4.535-1.127-2.183-1.024-2.275 2.308-2.05 1.918.13 3.464.482 3.436.785-.183 1.94.404 2.96 1.935 3.36 1.523.399 1.535.473.093.574-1.145.08-1.495.734-1.133 2.116.693 2.652-.873 2.537-3.411-.25z"/><path id="path3451" style="fill:#b16641;fill-opacity:1" inkscape:connector-curvature="0" d="M620.53 684.3c-.901-.582-1.025-.975-.309-.985.655-.008 1.47.435 1.809.985.767 1.242.421 1.242-1.5 0z"/><path id="path3449" style="fill:#b16641;fill-opacity:1" inkscape:connector-curvature="0" d="M413.86 680.99c0-.718 1.033-1.792 2.295-2.388 1.77-.836 2.705-.749 4.084.379.983.804 1.225 1.177.538.829-.688-.348-1.25-.199-1.25.332s-.9.73-2 .443c-1.119-.293-2-.031-2 .593 0 .614-.375 1.117-.834 1.117-.458 0-.833-.587-.833-1.305z"/><path id="path3447" style="fill:#b16641;fill-opacity:1" inkscape:connector-curvature="0" d="M410.11 671.65c-.527-1.373-.38-1.434.893-.378 1.735 1.44 1.916 2.02.63 2.02-.491 0-1.177-.74-1.523-1.642z"/><path id="path3445" style="fill:#b16641;fill-opacity:1" inkscape:connector-curvature="0" d="M374.99 671.23c-.363-.587-.408-1.317-.102-1.623.823-.823 3.643.461 3.643 1.658 0 1.357-2.697 1.33-3.54-.035z"/><path id="path3443" style="fill:#b16641;fill-opacity:1" inkscape:connector-curvature="0" d="M403.08 666.06c-1.437-2.052-1.422-2.284.192-2.85 1.806-.634 4.168 1.51 4.228 3.834.052 2.042-2.735 1.422-4.42-.984z"/><path id="path3441" style="fill:#b16641;fill-opacity:1" inkscape:connector-curvature="0" d="M376.03 665.3c.34-.55.816-1 1.059-1s.441.45.441 1-.477 1-1.059 1-.78-.45-.441-1z"/><path id="path3439" style="fill:#b16641;fill-opacity:1" inkscape:connector-curvature="0" d="M598.08 663.49c.769-1.54 2.567-3.9 3.997-5.244 2.395-2.25 2.677-2.305 3.576-.698.536.959 1.602 1.743 2.367 1.743.765 0 1.712.52 2.105 1.155.464.752.271.881-.553.372-.697-.43-1.554-.34-1.905.203-.515.796-9.59 5.27-10.689 5.27-.163 0 .333-1.26 1.102-2.801z"/><path id="path3437" style="fill:#b16641;fill-opacity:1" inkscape:connector-curvature="0" d="M636.04 660.91c-.282-.887-.717-2.273-.968-3.08-.637-2.048.988-2.802 2.391-1.11.796.958.832 1.604.114 2.047-.577.357-1.042 1.184-1.033 1.84.01.82.276.78.853-.132 1.067-1.682 5.798-2.254 5.798-.701 0 .64-.938 1.082-2.083.98-1.146-.1-2.64.256-3.322.792-.862.68-1.394.486-1.75-.636z"/><path id="path3435" style="fill:#b16641;fill-opacity:1" inkscape:connector-curvature="0" d="M350.14 655.98c-1.15-4.289-.64-5.274 1.388-2.68 2.346 2.999 2.432 3.62.598 4.323-.862.331-1.626-.3-1.986-1.643z"/><path id="path3433" style="fill:#b16641;fill-opacity:1" inkscape:connector-curvature="0" d="M398.53 657.3c-.901-.582-1.025-.975-.309-.985.655-.008 1.47.435 1.809.985.767 1.242.421 1.242-1.5 0z"/><path id="path3431" style="fill:#b16641;fill-opacity:1" inkscape:connector-curvature="0" d="M372.53 655.08c0-.433 1.152-.787 2.559-.787 1.407 0 2.299.421 1.98.936-.687 1.112-4.539.986-4.539-.149z"/><path id="path3429" style="fill:#b16641;fill-opacity:1" inkscape:connector-curvature="0" d="M583.07 654.37c-.316-.512-.193-1.167.274-1.456.468-.289.85.13.85.93 0 1.687-.315 1.834-1.124.526z"/><path id="path3427" style="fill:#b16641;fill-opacity:1" inkscape:connector-curvature="0" d="M349.61 646.93c.23-.2 1.43-.891 2.667-1.535 1.864-.97 2.25-.908 2.25.364 0 .997-.936 1.536-2.667 1.536-1.467 0-2.48-.165-2.25-.365z"/><path id="path3425" style="fill:#b16641;fill-opacity:1" inkscape:connector-curvature="0" d="M574.49 645.36c1.41-2.635 1.303-5.803-.215-6.346-.687-.245-.879-.841-.425-1.325.461-.49 1.272-.08 1.837.93.655 1.17 1.95 1.716 3.675 1.548 1.465-.143 3.722.318 5.015 1.023 1.294.706 3.191 1.065 4.216.797 1.075-.281 1.772-.002 1.648.66-.13.695 1.065 1.09 3.034 1 3.435-.156 4.102.695 1.948 2.483-.943.783-1.998.721-3.817-.223-3.33-1.727-8.022-3.002-9.863-2.679-.815.143-2.684 1.117-4.154 2.163-3.394 2.417-4.205 2.408-2.899-.031z"/><path id="path3423" style="fill:#b16641;fill-opacity:1" inkscape:connector-curvature="0" d="M641.88 646.15c1.202-.69 2.59-.735 3.953-.127 1.773.79 1.484.957-1.852 1.064-3.256.105-3.627-.06-2.101-.937z"/><path id="path3421" style="fill:#b16641;fill-opacity:1" inkscape:connector-curvature="0" d="M511.67 643.26c-.802-2.302-.766-2.977.152-2.797.666.131 2.712-.56 4.547-1.536 3.21-1.706 3.324-1.704 2.988.04-.212 1.1-1.524 2.026-3.337 2.357-2.357.43-2.937 1.012-2.75 2.758.335 3.106-.354 2.752-1.6-.822z"/><path id="path3419" style="fill:#b16641;fill-opacity:1" inkscape:connector-curvature="0" d="M601.1 644.4c-1.788-.7-1.8-.803-.168-1.43 2.494-.957 5.595-.836 5.595.218 0 .713-2.64 2.327-3.332 2.037a356.24 356.24 0 0 0-2.095-.825z"/><path id="path3417" style="fill:#b16641;fill-opacity:1" inkscape:connector-curvature="0" d="M626.06 642.33c-1.738-1.92-1.719-1.937.837-.75 1.438.667 2.618 1.551 2.622 1.963.014 1.365-1.656.78-3.459-1.213z"/><path id="path3415" style="fill:#b16641;fill-opacity:1" inkscape:connector-curvature="0" d="M435.2 642.63c-1.308-1.308-.634-2.138 1.322-1.626 1.094.286 1.742.919 1.441 1.406-.65 1.052-1.837 1.147-2.763.22z"/><path id="path3413" style="fill:#b16641;fill-opacity:1" inkscape:connector-curvature="0" d="M564.53 642.36c0-.518.445-1.216.989-1.552.566-.35.734.051.393.941-.665 1.732-1.382 2.05-1.382.611z"/><path id="path3411" style="fill:#b16641;fill-opacity:1" inkscape:connector-curvature="0" d="M497.53 640.8c0-.825-.477-1.5-1.059-1.5s-.734-.526-.336-1.17c.47-.76.2-.969-.774-.595-1.115.428-1.498-.157-1.498-2.287 0-1.574.593-3.09 1.318-3.368 1.63-.625 3.818 3.012 2.355 3.916-.63.39-.438 1.702.523 3.56.874 1.69 1.085 2.944.497 2.944-.564 0-1.026-.675-1.026-1.5z"/><path id="path3409" style="fill:#b16641;fill-opacity:1" inkscape:connector-curvature="0" d="M541.28 639.79c-.388-2.03-.22-2.293.883-1.378 1.523 1.264 1.847 3.887.48 3.887-.486 0-1.1-1.13-1.363-2.509z"/><path id="path3407" style="fill:#b16641;fill-opacity:1" inkscape:connector-curvature="0" d="M610.23 640.67c-.346-.346.932-2.533 2.84-4.86 2.765-3.375 3.966-4.137 5.93-3.761 3.62.692 4.782 2.521 3.07 4.831-1.398 1.886-1.447 1.885-2.945-.082-1.496-1.964-1.578-1.942-4.612 1.25-3.363 3.538-3.365 3.54-4.283 2.622z"/><path id="path3405" style="fill:#b16641;fill-opacity:1" inkscape:connector-curvature="0" d="M342.99 637.23c-.917-1.483-.055-2.1 1.892-1.352.9.345 1.389 1.031 1.084 1.523-.748 1.211-2.172 1.13-2.976-.171z"/><path id="path3403" style="fill:#b16641;fill-opacity:1" inkscape:connector-curvature="0" d="M355.13 636.45c-.802-1.298 1.023-5.156 2.439-5.156 1.28 0 1.17 1.004-.428 3.885-.835 1.506-1.576 1.975-2.011 1.271z"/><path id="path3401" style="fill:#b16641;fill-opacity:1" inkscape:connector-curvature="0" d="M413.53 635.3c0-.55.69-1 1.531-1 .843 0 1.795-.686 2.117-1.526.463-1.205.887-1.275 2.023-.332 1.2.996.915 1.413-1.732 2.525-3.797 1.597-3.939 1.61-3.939.333z"/><path id="path3399" style="fill:#b16641;fill-opacity:1" inkscape:connector-curvature="0" d="M359.53 633.53c.558-3.893 23.718-7.69 1.75 1.264-1.32.544-1.75.234-1.75-1.264z"/><path id="path3397" style="fill:#b16641;fill-opacity:1" inkscape:connector-curvature="0" d="M497.53 630.3c0-.55.45-1 1-1s1 .45 1 1-.45 1-1 1-1-.45-1-1z"/><path id="path3395" style="fill:#b16641;fill-opacity:1" inkscape:connector-curvature="0" d="M535.34 630.61c.722-.289 1.584-.253 1.917.079.332.332-.259.569-1.313.525-1.165-.048-1.402-.285-.604-.604z"/><path id="path3393" style="fill:#b16641;fill-opacity:1" inkscape:connector-curvature="0" d="M638 630.25c-.95-1.538.351-2.53 1.635-1.246.718.718.735 1.278.052 1.7-.56.346-1.319.142-1.687-.454z"/><path id="path3391" style="fill:#b16641;fill-opacity:1" inkscape:connector-curvature="0" d="M597.17 628.8c.317-.825 1.033-1.5 1.591-1.5.585 0 .488.635-.23 1.5-.684.825-1.4 1.5-1.59 1.5-.19 0-.088-.675.229-1.5z"/><path id="path3387" style="fill:#b16641;fill-opacity:1" inkscape:connector-curvature="0" d="M469.53 622.8c.685-.825 1.865-1.5 2.622-1.5.758 0 1.378-.45 1.378-1 0-1.387-.176-1.321-4 1.5-1.864 1.375-2.906 2.5-2.317 2.5.59 0 1.632-.675 2.317-1.5z"/><path id="path3385" style="fill:#b16641;fill-opacity:1" inkscape:connector-curvature="0" d="M464.53 608.3c0-.55-.477-1-1.059-1s-.78.45-.441 1c.34.55.816 1 1.059 1s.441-.45.441-1z"/><path id="path3383" style="fill:#b16641;fill-opacity:1" inkscape:connector-curvature="0" d="M347.53 626.3c0-.55.45-1 1-1s1 .45 1 1-.45 1-1 1-1-.45-1-1z"/><path id="path3381" style="fill:#b16641;fill-opacity:1" inkscape:connector-curvature="0" d="M414.53 625.51c0-1.07.74-1.786 1.85-1.786 1.284 0 1.708.547 1.384 1.786-.257.982-1.09 1.786-1.85 1.786-.761 0-1.384-.804-1.384-1.786z"/><path id="path3379" style="fill:#b16641;fill-opacity:1" inkscape:connector-curvature="0" d="M333.53 624.24c0-1.133.43-1.793.956-1.468.526.325.703 1.252.393 2.059-.793 2.067-1.349 1.823-1.349-.591z"/><path id="path3377" style="fill:#b16641;fill-opacity:1" inkscape:connector-curvature="0" d="M630.53 622.24c0-1.133.43-1.793.956-1.468.526.325.703 1.252.393 2.059-.793 2.067-1.349 1.823-1.349-.591z"/><path id="path3375" style="fill:#b16641;fill-opacity:1" inkscape:connector-curvature="0" d="M419.25 619.05c-.278-1.788-.105-3.678.387-4.2 1.549-1.649.97-2.71-1.119-2.047-1.664.529-2.133.067-2.725-2.682-.706-3.275-.707-4.658-.01-8.042.537-2.602 1.73-3.367 1.865-1.196.065 1.054.041 2.326-.053 2.825-.094.5.386 1.253 1.067 1.674.966.597.923 1.155-.197 2.534-.79.972-.904 1.45-.255 1.06 1.8-1.08 2.702 1.208 2.98 7.558.27 6.157-1.097 7.929-1.94 2.516z"/><path id="path3373" style="fill:#b16641;fill-opacity:1" inkscape:connector-curvature="0" d="M419.03 611.3c.34-.55.141-1-.441-1s-1.059.45-1.059 1 .198 1 .441 1 .72-.45 1.059-1z"/><path id="path3371" style="fill:#b16641;fill-opacity:1" inkscape:connector-curvature="0" d="M444.53 620.3c0-.55.45-1 1-1s1 .45 1 1-.45 1-1 1-1-.45-1-1z"/><path id="path3367" style="fill:#b16641;fill-opacity:1" inkscape:connector-curvature="0" d="M432.99 615.23c-.363-.587-.445-1.281-.183-1.543.263-.262.744.218 1.07 1.066.675 1.763.1 2.073-.887.477z"/><path id="path3365" style="fill:#b16641;fill-opacity:1" inkscape:connector-curvature="0" d="M651.53 615.26c0-1.362 1.49-1.899 2.882-1.038.939.58.722.943-.797 1.34-1.147.3-2.085.164-2.085-.302z"/><path id="path3363" style="fill:#b16641;fill-opacity:1" inkscape:connector-curvature="0" d="M338.77 605.98c1.509-.584 3.004-1.883 3.322-2.886.318-1.003 1.023-1.55 1.566-1.214 1.8 1.113-1.601 4.698-4.683 4.935l-2.948.227z"/><path id="path3361" style="fill:#b16641;fill-opacity:1" inkscape:connector-curvature="0" d="M629.09 605c.376-.986.935-1.541 1.243-1.233.307.308 0 1.114-.683 1.793-.988.98-1.103.865-.56-.56z"/><path id="path3359" style="fill:#b16641;fill-opacity:1" inkscape:connector-curvature="0" d="M398.78 598.04c.516-1.547 4.748-1.67 4.748-.137-1.024 2.755-3.903 2.062-4.748.137z"/><path id="path3357" style="fill:#b16641;fill-opacity:1" inkscape:connector-curvature="0" d="M544.53 598.92c0-.208.787-.995 1.75-1.75 1.586-1.244 1.621-1.208.378.378-1.307 1.665-2.128 2.195-2.128 1.372z"/><path id="path3355" style="fill:#b16641;fill-opacity:1" inkscape:connector-curvature="0" d="M437.53 596.8c0-.825.627-1.5 1.393-1.5s1.652.675 1.969 1.5c.391 1.02-.054 1.5-1.393 1.5-1.084 0-1.969-.675-1.969-1.5z"/><path id="path3353" style="fill:#b16641;fill-opacity:1" inkscape:connector-curvature="0" d="M500.53 595.96c0-.821-.563-1.72-1.25-1.997-.688-.278-.04-.54 1.441-.583 1.48-.044 2.97-.53 3.309-1.08.72-1.164 2.526-1.349 2.445-.25-.03.413-1.38 1.797-3 3.077-2.24 1.768-2.945 1.968-2.945.833z"/><path id="path3351" style="fill:#b16641;fill-opacity:1" inkscape:connector-curvature="0" d="M395.53 594.33c0-.533.675-.71 1.5-.393.825.317 1.5.752 1.5.969 0 .216-.675.393-1.5.393s-1.5-.436-1.5-.969z"/><path id="path3349" style="fill:#b16641;fill-opacity:1" inkscape:connector-curvature="0" d="M542.21 593.91c-.31-.809.066-1.993.836-2.632 1.142-.947 1.321-.751.972 1.062-.559 2.903-1.112 3.383-1.808 1.57z"/><path id="path3347" style="fill:#b16641;fill-opacity:1" inkscape:connector-curvature="0" d="M548.02 593.14c.087-1.183 1.256-3.096 2.597-4.25 1.41-1.213 2.286-2.891 2.076-3.978-.2-1.035.223-2.242.938-2.685 1.465-.905 2.896-.321 2.896 1.183 0 .55-.349.784-.776.52-.426-.264-.764 1.735-.75 4.44.015 2.707-.311 4.921-.724 4.921-.412 0-.75-.45-.75-1 0-1.809-1.755-1.042-2.29 1-.71 2.72-3.42 2.592-3.217-.151z"/><path id="path3345" style="fill:#b16641;fill-opacity:1" inkscape:connector-curvature="0" d="M404.53 592.86c0-.857.45-1.559 1-1.559s1 .423 1 .941-.45 1.22-1 1.559c-.55.34-1-.084-1-.941z"/><path id="path3341" style="fill:#b16641;fill-opacity:1" inkscape:connector-curvature="0" d="M507.53 591.33c0-.533.675-.71 1.5-.393.825.317 1.5.752 1.5.969 0 .216-.675.393-1.5.393s-1.5-.436-1.5-.969z"/><path id="path3339" style="fill:#b16641;fill-opacity:1" inkscape:connector-curvature="0" d="M362.1 590.4c-2.701-1.058-.649-2.135 5.15-2.703 4.746-.465 5.527.284 1.172 1.122-1.31.253-2.533.913-2.718 1.469-.385 1.154-.903 1.17-3.604.112z"/><path id="path3337" style="fill:#b16641;fill-opacity:1" inkscape:connector-curvature="0" d="M344.61 589.61c-.114-1.72 1.656-2.547 2.506-1.17.432.697.292.903-.345.51-.588-.364-1.297-.096-1.576.595-.362.899-.528.917-.585.065z"/><path id="path3335" style="fill:#b16641;fill-opacity:1" inkscape:connector-curvature="0" d="M405.53 589.39c0-1.038 1.902-2.542 2.466-1.949.183.193-.297.93-1.067 1.64-.77.71-1.399.848-1.399.309z"/><path id="path3333" style="fill:#b16641;fill-opacity:1" inkscape:connector-curvature="0" d="M470.09 588.39c-.373-.603-1.987-1.096-3.587-1.096-2.171 0-2.764-.38-2.336-1.495.44-1.146 1.542-1.347 4.719-.86 5.138.785 5.41 1.02 3.453 2.975-1.071 1.071-1.787 1.223-2.249.476z"/><path id="path3331" style="fill:#b16641;fill-opacity:1" inkscape:connector-curvature="0" d="M637.53 588.36c0-.518.45-1.22 1-1.559.55-.34 1 .084 1 .941s-.45 1.559-1 1.559-1-.423-1-.941z"/><path id="path3329" style="fill:#b16641;fill-opacity:1" inkscape:connector-curvature="0" d="M410.03 587.3c-.994-1.608.425-3 3.059-3 2.885 0 3.093.785.691 2.608-2.127 1.615-2.942 1.7-3.75.392z"/><path id="path3327" style="fill:#b16641;fill-opacity:1" inkscape:connector-curvature="0" d="M422.65 585.42c-1.031-1.031-2.156-2.494-2.5-3.25-.482-1.061-.758-1.09-1.208-.125-.321.688-1.022 1.25-1.557 1.25-.535 0-.172-1.356.807-3.013 1.662-2.814 1.829-2.879 2.53-.985.662 1.79 1.786 2.455 7.707 4.555 1.103.392.996.807-.5 1.939-2.502 1.893-3.054 1.854-5.279-.371z"/><path id="path3325" style="fill:#b16641;fill-opacity:1" inkscape:connector-curvature="0" d="M478.73 583.1c-.66-.66-1.2-1.748-1.2-2.417 0-.669-.476-1.375-1.057-1.569-1.628-.542-.049-3.553 2.167-4.133 1.57-.41 1.85-.132 1.376 1.364-.328 1.034-.08 2.845.551 4.025 1.348 2.518-.018 4.549-1.837 2.73z"/><path id="path3323" style="fill:#b16641;fill-opacity:1" inkscape:connector-curvature="0" d="M615.7 580.76c-.619-1.358-1.599-2.469-2.178-2.469-.581 0-.947-1.567-.817-3.5.13-1.925.62-3.5 1.09-3.5.47 0 .624-.375.34-.833-.283-.458.044-.833.727-.833.683 0 1.316.712 1.407 1.583.091.87.569 3.737 1.061 6.369.992 5.299.115 7.012-1.63 3.183z"/><path id="path3321" style="fill:#b16641;fill-opacity:1" inkscape:connector-curvature="0" d="M389.67 578.62c.65-.782 1.45-1.063 1.78-.625.33.439.951 1.079 1.38 1.422.43.344-.372.625-1.78.625-2.1 0-2.348-.255-1.38-1.422z"/><path id="path3319" style="fill:#b16641;fill-opacity:1" inkscape:connector-curvature="0" d="M552.19 578.85c-.37-.967-.075-1.265.887-.895.794.304 1.195.956.89 1.449-.766 1.24-1.132 1.126-1.777-.554z"/><path id="path3317" style="fill:#b16641;fill-opacity:1" inkscape:connector-curvature="0" d="M659.56 578.36c-.741-1.385-.707-2.144.12-2.655.717-.443.886-.276.443.44-.435.703-.007 1.185 1.096 1.233 1.06.047 1.289.289.552.586-.69.278-1.002.918-.69 1.42.31.504.329.915.04.915-.287 0-.99-.872-1.561-1.939z"/><path id="path3315" style="fill:#b16641;fill-opacity:1" inkscape:connector-curvature="0" d="M515.09 577.59c-.543-1.425-.428-1.54.56-.56.683.679.99 1.485.683 1.793-.308.308-.867-.247-1.243-1.233z"/><path id="path3313" style="fill:#b16641;fill-opacity:1" inkscape:connector-curvature="0" d="M639.12 576.79c-1.919-2.928-.66-3.336 1.824-.59.975 1.077 1.306 2.156.764 2.49-.525.326-1.69-.53-2.588-1.9z"/><path id="path3311" style="fill:#b16641;fill-opacity:1" inkscape:connector-curvature="0" d="M379.07 577.37c-.662-1.071 1.917-3.277 2.799-2.394.362.362.658.985.658 1.384 0 1.121-2.87 1.96-3.457 1.01z"/><path id="path3309" style="fill:#b16641;fill-opacity:1" inkscape:connector-curvature="0" d="M487.31 577.2c1.436-1.532 7.216-2.16 7.216-.785 0 .485-.787.889-1.75.896-.962.008-2.875.294-4.25.636-2.087.52-2.288.396-1.216-.747z"/><path id="path3307" style="fill:#b16641;fill-opacity:1" inkscape:connector-curvature="0" d="M361.03 576.3c-.34-.55-.141-1 .441-1s1.059.45 1.059 1-.198 1-.441 1-.72-.45-1.059-1z"/><path id="path3305" style="fill:#b16641;fill-opacity:1" inkscape:connector-curvature="0" d="M392.53 576.91c0-.21 1.111-.596 2.47-.856 1.358-.26 2.231-.087 1.94.384-.511.828-4.41 1.246-4.41.472z"/><path id="path3303" style="fill:#b16641;fill-opacity:1" inkscape:connector-curvature="0" d="M409.84 575.86c.198-.588 1.222-1.085 2.274-1.105 1.052-.02 2.588-.445 3.412-.942 1.245-.752 1.289-.645.258.629-.683.844-1.027 1.748-.765 2.01.261.262-.878.476-2.532.476-1.691 0-2.85-.467-2.647-1.068z"/><path id="path3301" style="fill:#b16641;fill-opacity:1" inkscape:connector-curvature="0" d="M379.04 572.31c-.345-.559-.264-1.023.18-1.032.446-.008.135-.451-.69-.984-1.302-.842-1.283-.972.143-.985.904-.008 1.896.645 2.206 1.453.66 1.717-.916 3.042-1.84 1.548z"/><path id="path3299" style="fill:#b16641;fill-opacity:1" inkscape:connector-curvature="0" d="M480.61 571.71c.048-1.165.285-1.402.604-.604.289.722.254 1.584-.079 1.917-.332.332-.568-.259-.525-1.313z"/><path id="path3297" style="fill:#b16641;fill-opacity:1" inkscape:connector-curvature="0" d="M463.03 571.3c-1.63-.7-1.688-.872-.309-.93.93-.038 1.97.38 2.309.93.71 1.15.676 1.15-2 0z"/><path id="path3295" style="fill:#b16641;fill-opacity:1" inkscape:connector-curvature="0" d="M456.53 568.3c0-.55 1.238-.968 2.75-.93 2.437.063 2.522.168.75.93-2.731 1.174-3.5 1.174-3.5 0z"/><path id="path3291" style="fill:#b16641;fill-opacity:1" inkscape:connector-curvature="0" d="M371.53 556.86c0-.243-.45-.72-1-1.059-.55-.34-1-.141-1 .441s.45 1.059 1 1.059 1-.198 1-.441z"/><path id="path3289" style="fill:#b16641;fill-opacity:1" inkscape:connector-curvature="0" d="M359.12 549.55c-1.092-1.092-1.841.645-1.057 2.452.743 1.713.797 1.712 1.212-.035.238-1.006.169-2.093-.155-2.417z"/><path id="path3287" style="fill:#b16641;fill-opacity:1" inkscape:connector-curvature="0" d="M361.26 544.31c-.089-1.18-.516-1.622-1.05-1.087-.496.495-.6 1.39-.23 1.988 1.007 1.629 1.447 1.319 1.28-.901z"/><path id="path3285" style="fill:#b16641;fill-opacity:1" inkscape:connector-curvature="0" d="M361.84 538.99c-.476-.77-.797-.737-1.08.111-.221.664-.883.91-1.471.546-.617-.381-.779-.19-.383.45.378.611 1.345.859 2.15.55.803-.309 1.157-1.054.784-1.657z"/><path id="path3283" style="fill:#b16641;fill-opacity:1" inkscape:connector-curvature="0" d="M637.09 566.59c-.543-1.425-.428-1.54.56-.56.683.679.99 1.485.683 1.793-.308.308-.867-.247-1.243-1.233z"/><path id="path3281" style="fill:#b16641;fill-opacity:1" inkscape:connector-curvature="0" d="M344.28 565.61c-.963-.252-1.75-1.287-1.75-2.3 0-1.014-.563-2.071-1.25-2.348-.766-.31-.592-.535.45-.584.935-.043 2.107.647 2.604 1.535.723 1.293 1.317 1.392 2.984.5 2.754-1.474 2.97-1.433 4.16.788.854 1.597.718 1.824-.852 1.413-1.029-.269-2.173 0-2.542.598-.699 1.13-.914 1.153-3.804.398z"/><path id="path3279" style="fill:#b16641;fill-opacity:1" inkscape:connector-curvature="0" d="M406.67 564.97c-.646-.779-.892-2.153-.546-3.055.346-.902.107-2.269-.531-3.038-.883-1.064-.873-1.576.043-2.142.81-.5.94-.32.4.556-.61.986-.136 1.172 1.957.772 2.67-.51 2.742-.413 2.185 3.019-.712 4.387-1.953 5.762-3.508 3.888z"/><path id="path3277" style="fill:#b16641;fill-opacity:1" inkscape:connector-curvature="0" d="M480.53 564.29c0-.555.9-1.78 2-2.722s2-2.288 2-2.99c0-.703.498-1.278 1.107-1.278s.832.717.496 1.593c-.336.876-.883 2.676-1.216 4-.59 2.35-4.387 3.56-4.387 1.397z"/><path id="path3275" style="fill:#b16641;fill-opacity:1" inkscape:connector-curvature="0" d="M611.53 564.24c0-.582-.419-.8-.93-.484-1.464.905-2.43-1.499-1.124-2.794.895-.887 1-.71.443.751-.473 1.241-.357 1.685.328 1.261.58-.36 1.612.017 2.292.836.858 1.034.893 1.489.113 1.489-.617 0-1.122-.477-1.122-1.059z"/><path id="path3273" style="fill:#b16641;fill-opacity:1" inkscape:connector-curvature="0" d="M575.15 561.23c-.998-1.689-1.587-3.94-1.309-5.001.308-1.177.1-1.681-.531-1.29-.572.353-.839.045-.595-.687.896-2.687 2.76-1.982 4.577 1.733 1.027 2.099 1.782 4.378 1.679 5.065-.104.688-.245 1.7-.313 2.25-.234 1.869-1.689 1.01-3.508-2.07z"/><path id="path3271" style="fill:#b16641;fill-opacity:1" inkscape:connector-curvature="0" d="M563.76 561.3c.687-1.1 1.617-2 2.067-2 .45 0 .469-.563.04-1.25-.893-1.435-.527-5.872.58-7.033.943-.989 4.08.162 4.08 1.497 0 .55-.637.755-1.416.456-.78-.299-1.654.072-1.943.825-.357.93.097 1.248 1.418.994 2.805-.54 2.441 2.138-.558 4.103-1.375.9-2.5 2.261-2.5 3.023s-.679 1.385-1.509 1.385c-1.258 0-1.3-.332-.259-2z"/><path id="path3269" style="fill:#b16641;fill-opacity:1" inkscape:connector-curvature="0" d="M453.61 560.75c-.043-.578.461-1.59 1.121-2.25.933-.933.933-1.2 0-1.2-2.877 0-.858-1.517 2.227-1.673 3.881-.198 5.559 2.116 3.226 4.448-1.085 1.086-1.899 1.164-3.456.33-1.527-.817-2.161-.779-2.537.153-.276.683-.538.77-.581.192z"/><path id="path3267" style="fill:#b16641;fill-opacity:1" inkscape:connector-curvature="0" d="M332.32 558.25c-2.549-2.796-.68-3.073 2.192-.324 1.66 1.586 1.99 2.343 1 2.288-.813-.046-2.25-.93-3.192-1.964z"/><path id="path3265" style="fill:#b16641;fill-opacity:1" inkscape:connector-curvature="0" d="M554.03 558.54c-1.65-.852-3.225-1.861-3.5-2.244-.275-.383-1.625-1.238-3-1.901-2.345-1.13-2.38-1.11-.573.34 1.06.85 1.645 1.827 1.3 2.172-.681.681-6.727-5.517-6.727-6.897 0-1.252 4.372.333 5.3 1.921.44.753 1.427 1.37 2.193 1.37s2.022.897 2.79 1.993c.768 1.096 1.621 1.769 1.896 1.494.275-.275 1.317.403 2.316 1.506 2.092 2.313 2.025 2.32-1.995.246z"/><path id="path3263" style="fill:#b16641;fill-opacity:1" inkscape:connector-curvature="0" d="M489.28 556.1c1.09-2.185 1.781-2.681 2.597-1.865 1.373 1.373-.209 4.273-2.516 4.612-1.405.206-1.413-.077-.081-2.747z"/><path id="path3261" style="fill:#b16641;fill-opacity:1" inkscape:connector-curvature="0" d="M494.26 558.17c.678-.683 1.485-.99 1.793-.683.308.308-.247.867-1.233 1.243-1.425.542-1.54.428-.56-.56z"/><path id="path3259" style="fill:#b16641;fill-opacity:1" inkscape:connector-curvature="0" d="M633.13 558.46c-.283-.458.12-.833.897-.833s1.18.375.897.833c-.283.458-.687.833-.897.833-.21 0-.614-.375-.897-.833z"/><path id="path3257" style="fill:#b16641;fill-opacity:1" inkscape:connector-curvature="0" d="M500.09 557.39c-.308-.499.34-.671 1.441-.383 2.335.61 2.63 1.29.56 1.29-.792 0-1.693-.408-2.001-.907z"/><path id="path3255" style="fill:#b16641;fill-opacity:1" inkscape:connector-curvature="0" d="M628.16 557.5c-.745-1.205 3.881-5.127 5.134-4.352.624.385.82 1.139.437 1.674-1.149 1.605-5.07 3.49-5.571 2.678z"/><path id="path3253" style="fill:#b16641;fill-opacity:1" inkscape:connector-curvature="0" d="M510.99 556.23c-.363-.587-.445-1.281-.183-1.543.263-.262.744.218 1.07 1.066.675 1.763.1 2.073-.887.477z"/><path id="path3251" style="fill:#b16641;fill-opacity:1" inkscape:connector-curvature="0" d="M608.79 555.34c-.673-1.078-.958-2.653-.634-3.5.349-.908.035-1.568-.766-1.61-.746-.038-.457-.457.643-.93 2.76-1.185 3.5-1.173 3.5.06 0 .582-.453.778-1.007.436-.602-.372-.552.378.124 1.862.639 1.402 1.705 2.264 2.447 1.98.723-.278 2.13.011 3.125.642 1.566.991 1.453 1.071-.835.59-1.81-.38-2.826-.084-3.218.938-.78 2.031-1.916 1.874-3.38-.468z"/><path id="path3247" style="fill:#b16641;fill-opacity:1" inkscape:connector-curvature="0" d="M531.55 552.82c-.789-.95-.865-1.524-.202-1.524 1.21 0 2.618 1.897 1.925 2.59-.252.252-1.027-.228-1.723-1.066z"/><path id="path3245" style="fill:#b16641;fill-opacity:1" inkscape:connector-curvature="0" d="M663.17 552.8c.317-.825.752-1.5.969-1.5.216 0 .393.675.393 1.5s-.436 1.5-.969 1.5c-.533 0-.71-.675-.393-1.5z"/><path id="path3243" style="fill:#b16641;fill-opacity:1" inkscape:connector-curvature="0" d="M415.53 550.86c0-.857-.402-1.559-.893-1.559s-1.152-.675-1.469-1.5c-.88-2.296.652-1.726 2.613.971 1.074 1.477 1.364 2.649.75 3.028-.55.34-1.001-.083-1.001-.94z"/><path id="path3241" style="fill:#b16641;fill-opacity:1" inkscape:connector-curvature="0" d="M421.11 549.65c-.527-1.373-.38-1.434.893-.378 1.735 1.44 1.916 2.02.63 2.02-.491 0-1.177-.74-1.523-1.642z"/><path id="path3239" style="fill:#b16641;fill-opacity:1" inkscape:connector-curvature="0" d="M538.24 550.6c-.986-.256-2.987-1.085-4.447-1.843-1.752-.909-3.052-1.047-3.825-.406-.78.647-1.546.518-2.299-.39-.865-1.042-.685-1.761.768-3.077 1.044-.944 2.158-1.295 2.476-.78.318.514 1.825 1.208 3.35 1.542 1.523.334 3.579 1.742 4.567 3.13.988 1.387 1.663 2.47 1.5 2.406-.163-.064-1.104-.326-2.09-.582z"/><path id="path3237" style="fill:#b16641;fill-opacity:1" inkscape:connector-curvature="0" d="M635.28 550.63c.688-.277 1.25-1.156 1.25-1.952 0-.797.675-1.708 1.5-2.024.825-.317 1.5-.963 1.5-1.437 0-.474-.749-.574-1.664-.223-1.119.43-1.427.255-.941-.532.398-.643.247-1.17-.336-1.17-.582 0-1.059-.423-1.059-.94 0-.518 1.238-.295 2.75.494 1.513.789 3.243 1.437 3.846 1.44 1.189.007 7.404 2.938 7.404 3.491 0 .186-.787.212-1.75.057-.962-.155-2.537.126-3.5.623-1.123.581-1.75.535-1.75-.13 0-1.717-2.572-1.165-4.5.965-.995 1.1-2.303 1.965-2.905 1.921-.632-.045-.567-.292.155-.583z"/><path id="path3235" style="fill:#b16641;fill-opacity:1" inkscape:connector-curvature="0" d="M340.53 548.41c0-.55.45-1.278 1-1.618.55-.34 1-.168 1 .382s-.45 1.278-1 1.618c-.55.34-1 .168-1-.382z"/><path id="path3233" style="fill:#b16641;fill-opacity:1" inkscape:connector-curvature="0" d="M574.03 547.3c.34-.55 1.042-1 1.559-1 .518 0 .941.45.941 1s-.702 1-1.559 1-1.28-.45-.941-1z"/><path id="path3231" style="fill:#b16641;fill-opacity:1" inkscape:connector-curvature="0" d="M610.24 546.56c-.237-.421-.73-2.116-1.095-3.766l-.664-3 2.004 2.5c1.102 1.375 2.013 2.81 2.025 3.19.035 1.073-1.787 1.935-2.27 1.076z"/><path id="path3229" style="fill:#b16641;fill-opacity:1" inkscape:connector-curvature="0" d="M412.03 543.3c-1.747-1.93-1.747-2 .012-2 1.002 0 1.525.296 1.163.658-.361.362-.156 1.262.456 2 1.759 2.119.378 1.562-1.63-.658z"/><path id="path3227" style="fill:#b16641;fill-opacity:1" inkscape:connector-curvature="0" d="m522.93 543.05-1.905-2.25 2.25 1.905c2.114 1.79 2.705 2.595 1.905 2.595-.19 0-1.202-1.012-2.25-2.25z"/><path id="path3225" style="fill:#b16641;fill-opacity:1" inkscape:connector-curvature="0" d="M478.11 540.73c-.79-.79-1.867-1.437-2.392-1.437-1.323 0-2.215-3.866-1.057-4.581.52-.321 2.64 1.164 4.713 3.3 3.016 3.109 3.41 3.911 1.971 4.02-.989.074-2.445-.512-3.235-1.302z"/><path id="path3223" style="fill:#b16641;fill-opacity:1" inkscape:connector-curvature="0" d="M491.53 540.03c0-.831.859-2.572 1.908-3.868l1.909-2.357-.52 2.715c-.6 3.14-3.297 6.01-3.297 3.51z"/><path id="path3221" style="fill:#b16641;fill-opacity:1" inkscape:connector-curvature="0" d="M407.86 538.8c0-.825.375-1.5.833-1.5.459 0 .834.675.834 1.5s-.375 1.5-.834 1.5c-.458 0-.833-.675-.833-1.5z"/><path id="path3219" style="fill:#b16641;fill-opacity:1" inkscape:connector-curvature="0" d="M519.53 538.26c0-.44-.273-1.513-.607-2.383-.398-1.038-.054-1.582 1-1.582.884 0 1.607.723 1.607 1.607 0 .976.557 1.393 1.417 1.063.78-.299 1.625-.003 1.879.659.288.75-.62 1.246-2.417 1.32-1.584.064-2.879-.243-2.879-.684z"/><path id="path3215" style="fill:#b16641;fill-opacity:1" inkscape:connector-curvature="0" d="M648.53 536.3c-1.213-.784-1.07-.972.75-.985 1.238-.008 2.25.435 2.25.985 0 1.253-1.061 1.253-3 0z"/><path id="path3213" style="fill:#b16641;fill-opacity:1" inkscape:connector-curvature="0" d="M654.75 531.67c-.118-1.431.215-2.223.788-1.869 1.186.733 1.316 3.179.205 3.865-.433.268-.88-.63-.993-1.996z"/><path id="path3211" style="fill:#b16641;fill-opacity:1" inkscape:connector-curvature="0" d="M520.78 531.74c-.688-.746-1.232-2.163-1.21-3.15.029-1.296.465-1.007 1.578 1.047 1.715 3.165 1.539 4.173-.368 2.103z"/><path id="path3209" style="fill:#b16641;fill-opacity:1" inkscape:connector-curvature="0" d="M610.81 532.05c-1.5-1.938-2.442-3.75-1.952-3.75.244 0 1.18 1.125 2.082 2.5 1.686 2.573 1.592 3.476-.13 1.25z"/><path id="path3207" style="fill:#b16641;fill-opacity:1" inkscape:connector-curvature="0" d="M343.09 530.76c-1.068-.808-1.46-1.468-.872-1.468.587 0 1.628.675 2.313 1.5 1.557 1.876 1.067 1.865-1.44-.032z"/><path id="path3205" style="fill:#b16641;fill-opacity:1" inkscape:connector-curvature="0" d="M476.88 529.14c-.074-1.8-.64-3.443-1.26-3.65-.619-.206-1.797-1.046-2.617-1.866-1.322-1.322-1.253-1.795.608-4.161 2.76-3.509 10.92-4.039 10.92-.709 0 .73.674 1.585 1.5 1.901 2.218.852 1.835 3.639-.5 3.639-1.1 0-2-.499-2-1.107 0-.61-.62-.87-1.379-.579-.758.291-1.844.064-2.413-.505-.569-.57-1.557-.712-2.195-.318-.796.492-.509 1.174.913 2.17 2.535 1.775 2.618 3.444.315 6.288l-1.758 2.171z"/><path id="path3203" style="fill:#b16641;fill-opacity:1" inkscape:connector-curvature="0" d="M498.53 531.3c0-.55.477-1 1.059-1s.78.45.441 1c-.34.55-.816 1-1.059 1s-.441-.45-.441-1z"/><path id="path3201" style="fill:#b16641;fill-opacity:1" inkscape:connector-curvature="0" d="M440.2 528.63c-.97-.97-.817-3.333.217-3.333.486 0 1.118.9 1.406 2 .514 1.965-.312 2.644-1.623 1.333z"/><path id="path3199" style="fill:#b16641;fill-opacity:1" inkscape:connector-curvature="0" d="M443.96 526.1c.237-1.82.468-3.533.513-3.808.046-.275.471.113.945.861.953 1.504.358 4.866-1.011 5.713-.483.298-.684-.947-.447-2.766z"/><path id="path3197" style="fill:#b16641;fill-opacity:1" inkscape:connector-curvature="0" d="M404.56 527.14c-.017-.914-1.46-2.863-3.205-4.333-2.36-1.985-2.84-2.879-1.872-3.477.862-.533 2.3.329 4.246 2.545 2.344 2.67 2.73 3.715 1.902 5.139-.922 1.583-1.044 1.597-1.071.126z"/><path id="path3195" style="fill:#b16641;fill-opacity:1" inkscape:connector-curvature="0" d="M635.03 527.3c-.34-.55-.168-1 .382-1s1.278.45 1.618 1c.34.55.168 1-.382 1s-1.278-.45-1.618-1z"/><path id="path3193" style="fill:#b16641;fill-opacity:1" inkscape:connector-curvature="0" d="M341.53 523.92c0-.208.787-.995 1.75-1.75 1.586-1.244 1.621-1.208.378.378-1.307 1.665-2.128 2.195-2.128 1.372z"/><path id="path3191" style="fill:#b16641;fill-opacity:1" inkscape:connector-curvature="0" d="M495.76 522.3c-1.516-2.427-1.577-3.333-.167-2.461.587.362 1.64-.124 2.34-1.082 1.203-1.646 1.31-1.642 1.972.084.448 1.168.05 2.472-1.106 3.629-1.74 1.74-1.85 1.734-3.04-.17z"/><path id="path3189" style="fill:#b16641;fill-opacity:1" inkscape:connector-curvature="0" d="M441.29 522.63c.69-.279.959-.988.595-1.576-.393-.637-.187-.776.51-.345 1.377.85.55 2.62-1.17 2.506-.853-.056-.834-.223.065-.585z"/><path id="path3187" style="fill:#b16641;fill-opacity:1" inkscape:connector-curvature="0" d="M503.76 522.11c.498-1.495 2.771-2.318 2.771-1.004 0 .537-.713 1.25-1.584 1.584-.973.374-1.43.15-1.187-.58z"/><path id="path3185" style="fill:#b16641;fill-opacity:1" inkscape:connector-curvature="0" d="M414.53 520.8c0-.825.45-1.5 1-1.5s1 .675 1 1.5-.45 1.5-1 1.5-1-.675-1-1.5z"/><path id="path3183" style="fill:#b16641;fill-opacity:1" inkscape:connector-curvature="0" d="M334.99 520.23c-.363-.587-.39-1.337-.059-1.667.33-.33.6-.048.6.626s.52.904 1.155.512c.715-.442.883-.274.44.441-.884 1.43-1.296 1.447-2.136.088z"/><path id="path3181" style="fill:#b16641;fill-opacity:1" inkscape:connector-curvature="0" d="M340.34 520.61c.722-.289 1.584-.253 1.917.079.332.332-.259.569-1.313.525-1.165-.048-1.402-.285-.604-.604z"/><path id="path3179" style="fill:#b16641;fill-opacity:1" inkscape:connector-curvature="0" d="M510.77 520.63c-.69-.279-1.014-.898-.718-1.377.648-1.05 3.474-.115 3.474 1.148 0 .964-.775 1.028-2.756.229z"/><path id="path3177" style="fill:#b16641;fill-opacity:1" inkscape:connector-curvature="0" d="M446.22 518.35c.296-1.131.935-2.057 1.421-2.057 1.35 0 1.053 1.614-.538 2.935-1.166.967-1.324.81-.883-.878z"/><path id="path3175" style="fill:#b16641;fill-opacity:1" inkscape:connector-curvature="0" d="M588.22 518.36c1.807-1.714 7.311-2.53 7.311-1.085 0 1.377-1.592 2.071-5.45 2.375-3.221.254-3.376.147-1.861-1.29z"/><path id="path3173" style="fill:#b16641;fill-opacity:1" inkscape:connector-curvature="0" d="M364.53 518.83c0-1.015 2.92-2.467 3.4-1.691.317.514-.317 1.169-1.411 1.455-1.094.286-1.99.392-1.99.236z"/><path id="path3171" style="fill:#b16641;fill-opacity:1" inkscape:connector-curvature="0" d="M515.78 518.59c-1.238-.238-2.25-1.077-2.25-1.864 0-1.701 3.128-1.902 4.727-.303.836.835 2.05.556 4.7-1.082 4.266-2.637 4.597-2.075.833 1.414-2.697 2.501-3.543 2.695-8.01 1.835z"/><path id="path3169" style="fill:#b16641;fill-opacity:1" inkscape:connector-curvature="0" d="M443.53 514.3c0-.55.477-1 1.059-1s.78.45.441 1c-.34.55-.816 1-1.059 1s-.441-.45-.441-1z"/><path id="path3167" style="fill:#b16641;fill-opacity:1" inkscape:connector-curvature="0" d="M448.79 513.14c-.121-1.61.123-1.853.988-.988.757.757.812 1.486.161 2.137-.65.65-1.043.259-1.149-1.149z"/><path id="path3165" style="fill:#b16641;fill-opacity:1" inkscape:connector-curvature="0" d="M451.86 513.89c0-.773.6-1.174 1.333-.893.734.281 1.334.913 1.334 1.405 0 .49-.6.893-1.334.893-.733 0-1.333-.632-1.333-1.405z"/><path id="path3163" style="fill:#b16641;fill-opacity:1" inkscape:connector-curvature="0" d="M612.09 513.59c-.543-1.425-.428-1.54.56-.56.683.679.99 1.485.683 1.793-.308.308-.867-.247-1.243-1.233z"/><path id="path3161" style="fill:#b16641;fill-opacity:1" inkscape:connector-curvature="0" d="M475.13 513.46c-.283-.458.12-.833.897-.833s1.18.375.897.833c-.283.458-.687.833-.897.833-.21 0-.614-.375-.897-.833z"/><path id="path3159" style="fill:#b16641;fill-opacity:1" inkscape:connector-curvature="0" d="M445.98 511.21c-.37-.598-.268-1.492.227-1.986.531-.531.898-.087.898 1.087 0 2.273-.185 2.42-1.125.899z"/><path id="path3157" style="fill:#b16641;fill-opacity:1" inkscape:connector-curvature="0" d="M510.53 511.47c0-.457-1.238-1.469-2.75-2.248-2.827-1.457-4.208-2.829-4.235-4.206-.021-1.11 3.009.648 6.175 3.584 1.48 1.372 3.28 2.73 4 3.019.72.288.297.56-.94.603-1.238.043-2.25-.295-2.25-.752z"/><path id="path3155" style="fill:#b16641;fill-opacity:1" inkscape:connector-curvature="0" d="M526.53 509.91c0-.76-1.012-1.687-2.25-2.058-2.186-.656-2.193-.7-.25-1.547 2.572-1.12 3.553-1.199 3.288-.262-.117.413.349 1.763 1.035 3 1.052 1.898 1.007 2.25-.288 2.25-.844 0-1.535-.622-1.535-1.383z"/><path id="path3153" style="fill:#b16641;fill-opacity:1" inkscape:connector-curvature="0" d="M452.53 509.1c1.722-2.067 1.102-2.86-1.75-2.238-2.118.462-2.405.355-1.25-.466 1.333-.947 1.333-1.08 0-1.2-.825-.073-1.937-.046-2.472.06-.534.105-.17-.695.811-1.778 1.375-1.52 1.483-2.09.472-2.495-.856-.343-.704-.552.439-.604 2.004-.09 2.263 1.008.623 2.648-.836.836-.073 1.411 2.958 2.227 4.382 1.18 6.482 3.046 3.428 3.046-1.022 0-2.399.45-3.059 1-.873.727-.927.673-.2-.2z"/><path id="path3151" style="fill:#b16641;fill-opacity:1" inkscape:connector-curvature="0" d="M483.92 508.73c.336-.876.611-1.808.611-2.07 0-.263.45-.2 1 .14 1.485.918 1.214 2.205-.611 2.905-1.18.452-1.447.191-1-.975z"/><path id="path3149" style="fill:#b16641;fill-opacity:1" inkscape:connector-curvature="0" d="M610.1 508.63c-.352-.917-.273-2.034.176-2.483.45-.45.909.301 1.022 1.667.237 2.868-.276 3.218-1.198.816z"/><path id="path3147" style="fill:#b16641;fill-opacity:1" inkscape:connector-curvature="0" d="M605.3 508.13c.581-.581 1.647-.86 2.368-.62.75.25.296.704-1.056 1.057-1.664.435-2.054.305-1.312-.437z"/><path id="path3145" style="fill:#b16641;fill-opacity:1" inkscape:connector-curvature="0" d="M443.53 507.3c0-.55.477-1 1.059-1s.78.45.441 1c-.34.55-.816 1-1.059 1s-.441-.45-.441-1z"/><path id="path3143" style="fill:#b16641;fill-opacity:1" inkscape:connector-curvature="0" d="M363.03 506.3c.34-.55 1.042-1 1.559-1 .518 0 .941.45.941 1s-.702 1-1.559 1-1.28-.45-.941-1z"/><path id="path3141" style="fill:#b16641;fill-opacity:1" inkscape:connector-curvature="0" d="M369.33 504.54c-.495-1.809-.132-2.376 1.837-2.87 1.35-.339 2.75-.32 3.114.044.363.363-.31.913-1.493 1.222-1.184.31-2.308 1.305-2.497 2.21-.258 1.236-.498 1.085-.961-.606z"/><path id="path3139" style="fill:#b16641;fill-opacity:1" inkscape:connector-curvature="0" d="M431.53 505.24c0-.582.45-.78 1-.441.55.34 1 .817 1 1.059 0 .243-.45.441-1 .441s-1-.477-1-1.059z"/><path id="path3137" style="fill:#b16641;fill-opacity:1" inkscape:connector-curvature="0" d="M359.53 503.3c0-.55.45-1 1-1s1 .45 1 1-.45 1-1 1-1-.45-1-1z"/><path id="path3135" style="fill:#b16641;fill-opacity:1" inkscape:connector-curvature="0" d="M526.53 502.3c0-1.867.267-2.133 1.2-1.2.933.933.933 1.467 0 2.4-.933.933-1.2.667-1.2-1.2z"/><path id="path3133" style="fill:#b16641;fill-opacity:1" inkscape:connector-curvature="0" d="M414.94 501.87c-1.221-.855-2.573-1.092-3.382-.593-.74.458-1.995.584-2.787.28-1.308-.501-6.431-5.123-5.946-5.363.113-.055 2.005-.186 4.205-.29 3.413-.162 4.564.366 7.842 3.6 3.85 3.798 3.886 5.04.068 2.366z"/><path id="path3131" style="fill:#b16641;fill-opacity:1" inkscape:connector-curvature="0" d="M516.62 501.91c-.71-.856-.81-1.67-.247-2.018.519-.321 1.226.153 1.572 1.054.848 2.21.138 2.727-1.325.964z"/><path id="path3129" style="fill:#b16641;fill-opacity:1" inkscape:connector-curvature="0" d="M375.54 501.55c.039-1.895 1.817-2.75 5.735-2.762 5.495-.015 5.415.981-.193 2.393-5.26 1.325-5.562 1.345-5.542.369z"/><path id="path3127" style="fill:#b16641;fill-opacity:1" inkscape:connector-curvature="0" d="M564.44 500.49c-1.718-1.831-3.757-5.164-2.416-3.95.45.409 1.41.25 2.135-.351 1.01-.838 1.593-.487 2.503 1.509.652 1.43 1.59 2.602 2.084 2.602s.62.45.28 1c-.9 1.455-2.771 1.125-4.586-.81z"/><path id="path3125" style="fill:#b16641;fill-opacity:1" inkscape:connector-curvature="0" d="M356.53 500.3c0-.55.675-1 1.5-1s1.5.45 1.5 1-.675 1-1.5 1-1.5-.45-1.5-1z"/><path id="path3123" style="fill:#b16641;fill-opacity:1" inkscape:connector-curvature="0" d="M419.4 499.55c-1.244-1.586-1.208-1.621.378-.378.962.755 1.75 1.543 1.75 1.75 0 .823-.822.294-2.128-1.372z"/><path id="path3121" style="fill:#b16641;fill-opacity:1" inkscape:connector-curvature="0" d="M347.34 499.49c-1.82-.34-3.312-3.12-1.78-3.318.532-.069 1.53-.212 2.218-.318 1.43-.22 6.75 2.55 6.75 3.515 0 .638-4.059.706-7.188.12z"/><path id="path3119" style="fill:#b16641;fill-opacity:1" inkscape:connector-curvature="0" d="M450.39 498.49c.961-.673 1.027-1.116.225-1.501-.736-.353-.75-.475-.038-.346 1.537.28 1.376 2.027-.225 2.451-1.046.277-1.038.15.038-.604z"/><path id="path3117" style="fill:#b16641;fill-opacity:1" inkscape:connector-curvature="0" d="M528.17 497.8c.317-.825.977-1.5 1.469-1.5.49 0 .893.675.893 1.5s-.661 1.5-1.469 1.5c-.895 0-1.244-.586-.893-1.5z"/><path id="path3115" style="fill:#b16641;fill-opacity:1" inkscape:connector-curvature="0" d="M479.53 497.3c0-.55.45-1 1-1s1 .45 1 1-.45 1-1 1-1-.45-1-1z"/><path id="path3113" style="fill:#b16641;fill-opacity:1" inkscape:connector-curvature="0" d="M648.53 497.42c0-.483.749-1.495 1.664-2.25 1.508-1.244 1.552-1.163.465.878-1.24 2.327-2.129 2.9-2.129 1.372z"/><path id="path3111" style="fill:#b16641;fill-opacity:1" inkscape:connector-curvature="0" d="M483.24 495.3c-.288-1.1-.115-2 .383-2 .499 0 .907.9.907 2s-.173 2-.384 2c-.21 0-.618-.9-.906-2z"/><path id="path3109" style="fill:#b16641;fill-opacity:1" inkscape:connector-curvature="0" d="M486.86 495.84c0-.8.382-1.22.85-.93.467.288.59.943.274 1.455-.809 1.308-1.124 1.161-1.124-.525z"/><path id="path3107" style="fill:#b16641;fill-opacity:1" inkscape:connector-curvature="0" d="M490.77 496.05c-.55-.688-1.276-2.375-1.613-3.75-.337-1.375-.355-1.938-.04-1.25.316.688 1.212 1.25 1.991 1.25.845 0 1.417 1.01 1.417 2.5 0 2.819-.318 3.046-1.755 1.25z"/><path id="path3105" style="fill:#b16641;fill-opacity:1" inkscape:connector-curvature="0" d="M397.77 495.63c-.69-.279-1.021-.887-.734-1.352.288-.465.066-1.128-.493-1.474-.56-.345-1.017-.191-1.017.343 0 .824-.887.866-4 .192-.275-.06.333-.739 1.35-1.51 2.279-1.726 6.227-.261 6.972 2.587.5 1.912.154 2.114-2.078 1.214z"/><path id="path3103" style="fill:#b16641;fill-opacity:1" inkscape:connector-curvature="0" d="M422.53 492.3c-.901-.582-1.025-.975-.309-.985.655-.008 1.47.435 1.809.985.767 1.242.421 1.242-1.5 0z"/><path id="path3101" style="fill:#b16641;fill-opacity:1" inkscape:connector-curvature="0" d="M480.28 489.81c-2.781-2.448-3.583-4.516-1.75-4.516.55 0 1.045-1.913 1.1-4.25.082-3.498.23-3.808.835-1.75.807 2.74.75 3.612-.41 6.3-.542 1.256-.08 2.544 1.523 4.25 2.93 3.119 2.264 3.101-1.298-.034z"/><path id="path3099" style="fill:#b16641;fill-opacity:1" inkscape:connector-curvature="0" d="M369.34 488.61c.722-.289 1.584-.253 1.917.079.332.332-.259.569-1.313.525-1.165-.048-1.402-.285-.604-.604z"/><path id="path3097" style="fill:#b16641;fill-opacity:1" inkscape:connector-curvature="0" d="M487.49 487.13c-1.145-2.233-1.118-2.26.61-.61.993.95 1.532 2 1.197 2.336-.335.335-1.148-.441-1.807-1.726z"/><path id="path3095" style="fill:#b16641;fill-opacity:1" inkscape:connector-curvature="0" d="M533.26 487.36c-.289-1.104.077-2.16.851-2.456 1.67-.64 2.794.979 2.042 2.94-.788 2.052-2.296 1.8-2.893-.484z"/><path id="path3093" style="fill:#b16641;fill-opacity:1" inkscape:connector-curvature="0" d="M537.54 487.73c-.008-2.522 5.454-8.882 6.874-8.004.56.346 1.508-.283 2.104-1.398 1.255-2.344 3.015-2.691 3.015-.595 0 .787-.887 1.714-1.972 2.058-1.085.344-3.782 2.737-5.993 5.318-3.228 3.765-4.023 4.283-4.028 2.621z"/><path id="path3091" style="fill:#b16641;fill-opacity:1" inkscape:connector-curvature="0" d="M410.69 484.99c-.628-.756-.894-1.623-.592-1.925.925-.925 4.538.42 4.162 1.549-.562 1.686-2.328 1.872-3.57.376z"/><path id="path3089" style="fill:#b16641;fill-opacity:1" inkscape:connector-curvature="0" d="M493.26 481.38c-.435-1.663-.305-2.054.437-1.312.581.581.86 1.647.62 2.369-.25.749-.703.295-1.057-1.057z"/><path id="path3087" style="fill:#b16641;fill-opacity:1" inkscape:connector-curvature="0" d="M384.96 480.41c0-1.145.515-1.689 1.311-1.383 1 .383 1.038.832.163 1.886-1.458 1.757-1.474 1.752-1.474-.503z"/><path id="path3085" style="fill:#b16641;fill-opacity:1" inkscape:connector-curvature="0" d="M553 481.25c-.95-1.538.351-2.53 1.635-1.246.718.718.735 1.278.052 1.7-.56.346-1.319.141-1.687-.454z"/><path id="path3083" style="fill:#b16641;fill-opacity:1" inkscape:connector-curvature="0" d="M592.53 479.3c0-.55.702-1 1.559-1s1.28.45.941 1c-.34.55-1.042 1-1.559 1-.518 0-.941-.45-.941-1z"/><path id="path3081" style="fill:#b16641;fill-opacity:1" inkscape:connector-curvature="0" d="M494.53 476.86c0-.857.45-1.559 1-1.559s1 .423 1 .941-.45 1.22-1 1.559c-.55.34-1-.084-1-.941z"/><path id="path3079" style="fill:#b16641;fill-opacity:1" inkscape:connector-curvature="0" d="M476.53 474.91c0-.76.941-1.63 2.092-1.93 2.007-.525 2.021-.47.345 1.383-2.078 2.297-2.437 2.377-2.437.547z"/><path id="path3077" style="fill:#b16641;fill-opacity:1" inkscape:connector-curvature="0" d="M410.22 473.55c-.235-.412-.458-2.28-.496-4.152-.06-2.896.133-3.193 1.301-2 .755.771 1.675 2.64 2.046 4.152.517 2.107.312 2.75-.875 2.75-.852 0-1.741-.338-1.976-.75z"/><path id="path3075" style="fill:#b16641;fill-opacity:1" inkscape:connector-curvature="0" d="M454.53 471.24c0-.582.45-.78 1-.441.55.34 1 .816 1 1.059s-.45.441-1 .441-1-.477-1-1.059z"/><path id="path3069" style="fill:#b16641;fill-opacity:1" inkscape:connector-curvature="0" d="M572.19 453.86c-.303-.79-.014-1.654.643-1.921.657-.267.406-.521-.556-.565-.963-.043-1.75.11-1.75.34 0 .963 1.253 3.581 1.714 3.581.275 0 .252-.645-.051-1.435z"/><path id="path3067" style="fill:#b16641;fill-opacity:1" inkscape:connector-curvature="0" d="M382.53 456.92c0-.208.787-.995 1.75-1.75 1.586-1.244 1.621-1.208.378.378-1.307 1.665-2.128 2.195-2.128 1.372z"/><path id="path3065" style="fill:#b16641;fill-opacity:1" inkscape:connector-curvature="0" d="M393.53 451.3c0-.55.477-1 1.059-1s.78.45.441 1c-.34.55-.816 1-1.059 1s-.441-.45-.441-1z"/><path id="path3063" style="fill:#b16641;fill-opacity:1" inkscape:connector-curvature="0" d="M596.8 444.29c.078-1.03 1.04-2.108 2.14-2.395 2.866-.75 2.9-.237.145 2.159-2.274 1.977-2.417 1.992-2.285.236z"/><path id="path3061" style="fill:#b16641;fill-opacity:1" inkscape:connector-curvature="0" d="M381.03 444.3c-.731-1.183.248-1.183 3 0 1.928.829 1.921.862-.191.93-1.205.038-2.47-.38-2.809-.93z"/><path id="path3059" style="fill:#b16641;fill-opacity:1" inkscape:connector-curvature="0" d="M518.97 442.74c-1.864-1.493-1.852-1.512.309-.465 1.237.6 2.25 1.3 2.25 1.555 0 .766-.519.545-2.559-1.09z"/><path id="path3057" style="fill:#b16641;fill-opacity:1" inkscape:connector-curvature="0" d="M399.53 440.24c0-.582.45-.78 1-.441.55.34 1 .817 1 1.059 0 .243-.45.441-1 .441s-1-.477-1-1.059z"/><path id="path3055" style="fill:#b16641;fill-opacity:1" inkscape:connector-curvature="0" d="M513.17 438.87c-.971-1.483-1.626-3.638-1.454-4.79.301-2.027.418-2.005 3.561.647 3.473 2.931 4.13 4.566 1.834 4.566-.78 0-1.588.511-1.796 1.136-.208.625-1.174-.076-2.145-1.559z"/><path id="path3053" style="fill:#b16641;fill-opacity:1" inkscape:connector-curvature="0" d="M431.53 439.3c-1.293-.835-1.266-.971.191-.985.93-.008 1.97.435 2.309.985.782 1.266-.542 1.266-2.5 0z"/><path id="path3051" style="fill:#b16641;fill-opacity:1" inkscape:connector-curvature="0" d="M612.66 439.3c-.152-2.268 1.469-4.456 2.303-3.107.376.609.24 1.107-.302 1.107s-1.191.787-1.443 1.75c-.324 1.24-.487 1.313-.558.25z"/><path id="path3049" style="fill:#b16641;fill-opacity:1" inkscape:connector-curvature="0" d="M398.99 437.23c-.363-.587-.445-1.281-.183-1.543.263-.262.744.218 1.07 1.066.675 1.763.1 2.073-.887.477z"/><path id="path3047" style="fill:#b16641;fill-opacity:1" inkscape:connector-curvature="0" d="M584.18 437.54c-.259-.419.119-1.566.838-2.55 1.2-1.641 1.297-1.578 1.162.76-.144 2.492-1.06 3.311-2 1.79z"/><path id="path3045" style="fill:#b16641;fill-opacity:1" inkscape:connector-curvature="0" d="M416.61 435.71c.048-1.165.285-1.402.604-.604.289.722.254 1.584-.079 1.917-.332.332-.568-.259-.525-1.313z"/><path id="path3043" style="fill:#b16641;fill-opacity:1" inkscape:connector-curvature="0" d="M590.67 431.93c.706-1.575 1.465-2.318 1.687-1.652.222.667-.355 1.955-1.283 2.864-1.58 1.546-1.605 1.468-.404-1.212z"/><path id="path3041" style="fill:#b16641;fill-opacity:1" inkscape:connector-curvature="0" d="M402.96 429.6c.146-.993.597-1.73 1.003-1.64 1.519.344 1.577 1.085.176 2.248-1.174.974-1.395.86-1.179-.608z"/><path id="path3039" style="fill:#b16641;fill-opacity:1" inkscape:connector-curvature="0" d="M593.53 430.26c0-.533.675-.969 1.5-.969s1.5.177 1.5.393c0 .217-.675.652-1.5.969-.825.317-1.5.14-1.5-.393z"/><path id="path3037" style="fill:#b16641;fill-opacity:1" inkscape:connector-curvature="0" d="M592.53 424.24c0-.582.45-.78 1-.441.55.34 1 .817 1 1.059 0 .243-.45.441-1 .441s-1-.477-1-1.059z"/><path id="path3035" style="fill:#b16641;fill-opacity:1" inkscape:connector-curvature="0" d="M564.1 422.41c-.242-.391.642-.71 1.963-.71 1.32 0 2.179.222 1.906.495-.828.828-3.401.971-3.869.215z"/><path id="path3033" style="fill:#b16641;fill-opacity:1" inkscape:connector-curvature="0" d="M546.44 421.01c-1.88-1.443-2.109-4.385-.341-4.385.681 0 .983.665.67 1.478-.312.814.267 2.087 1.287 2.833s1.43 1.342.913 1.324c-.518-.018-1.656-.58-2.529-1.25z"/><path id="path3031" style="fill:#b16641;fill-opacity:1" inkscape:connector-curvature="0" d="M592.14 420.73c-.618-1.611.226-1.825 2.22-.56 1.085.687 1.054.952-.168 1.42-.825.318-1.749-.07-2.052-.86z"/><path id="path3029" style="fill:#b16641;fill-opacity:1" inkscape:connector-curvature="0" d="M524.2 412.63c-1.15-1.15-.728-2.333.833-2.333.825 0 1.5.675 1.5 1.5 0 1.561-1.182 1.984-2.333.833z"/><path id="path3027" style="fill:#b16641;fill-opacity:1" inkscape:connector-curvature="0" d="M542.54 412.55c.008-.412.452-1.425.985-2.25.784-1.213.972-1.07.984.75.008 1.238-.434 2.25-.984 2.25s-.993-.338-.985-.75z"/><path id="path3025" style="fill:#b16641;fill-opacity:1" inkscape:connector-curvature="0" d="M461.6 408.89c-.821-.99-.85-1.61-.098-2.074.59-.365.95-.124.799.536-.151.66.213 1.38.808 1.602.596.221 1.084-.278 1.084-1.11 0-.833-.847-1.783-1.882-2.111-1.038-.33-1.76-1.346-1.609-2.265.15-.917-.076-2.224-.503-2.906-.524-.835-.297-1.054.698-.672.81.31 2.457-.417 3.659-1.619 2.04-2.04 2.293-2.074 3.827-.51.904.92 1.193 1.59.643 1.488-2.238-.414-2.673.14-1.372 1.744.932 1.15.971 1.451.122.94-1.132-.68-1.785 1.083-1.355 3.658.206 1.232-1.868 4.71-2.808 4.71-.463 0-1.369-.635-2.013-1.411z"/><path id="path3023" style="fill:#b16641;fill-opacity:1" inkscape:connector-curvature="0" d="M473.93 409.05c-.396-.688-.366-.932.065-.543.432.39 1.655-.285 2.72-1.5l1.935-2.207-1.674 2.75c-1.91 3.135-2.062 3.21-3.046 1.5z"/><path id="path3021" style="fill:#b16641;fill-opacity:1" inkscape:connector-curvature="0" d="M496.92 408.47c.348-.563-.16-1.189-1.13-1.39-1.49-.31-1.43-.457.378-.953 3.33-.914 5.104.7 2.375 2.16-1.251.67-1.974.751-1.623.183z"/><path id="path3019" style="fill:#b16641;fill-opacity:1" inkscape:connector-curvature="0" d="M576.04 408.31c-.35-.567.051-.735.941-.393 1.732.665 2.05 1.382.61 1.382-.517 0-1.215-.445-1.551-.989z"/><path id="path3017" style="fill:#b16641;fill-opacity:1" inkscape:connector-curvature="0" d="M488.72 407.22c.197-.591.786-1.075 1.308-1.075.523 0 1.111.484 1.309 1.075.197.591-.392 1.075-1.309 1.075-.916 0-1.505-.484-1.308-1.075z"/><path id="path3015" style="fill:#b16641;fill-opacity:1" inkscape:connector-curvature="0" d="M491.19 405.47c-1.624-1.794-1.33-3.175.675-3.175.55 0 .704.296.342.658-.362.362-.148 1.273.476 2.024 1.754 2.114.384 2.567-1.493.493z"/><path id="path3013" style="fill:#b16641;fill-opacity:1" inkscape:connector-curvature="0" d="M542.03 405.3c-.34-.55-.168-1 .382-1s1.278.45 1.618 1c.34.55.168 1-.382 1s-1.278-.45-1.618-1z"/><path id="path3011" style="fill:#b16641;fill-opacity:1" inkscape:connector-curvature="0" d="M550.23 403.63c.38-.992.233-1.413-.365-1.044-.552.341-1.003-.028-1.003-.82 0-.99.367-1.135 1.175-.465.647.537 1.533.642 1.97.234.436-.407.266.272-.378 1.51-1.361 2.615-2.334 3.023-1.399.585z"/><path id="path3009" style="fill:#b16641;fill-opacity:1" inkscape:connector-curvature="0" d="M458.53 403.4c0-.674-.52-.905-1.155-.512-.744.46-.881.272-.387-.528.546-.883 1.078-.932 1.838-.171.589.588.763 1.378.387 1.753-.376.376-.683.132-.683-.542z"/><path id="path3007" style="fill:#b16641;fill-opacity:1" inkscape:connector-curvature="0" d="M472.99 402.23c-.375-.607-.115-1.627.578-2.266.957-.884 1.103-.884.606.002-.359.64-.11 1.345.554 1.567.88.293.901.591.076 1.101-.623.385-1.439.203-1.814-.404z"/><path id="path3005" style="fill:#b16641;fill-opacity:1" inkscape:connector-curvature="0" d="M543.09 402c.376-.986.935-1.541 1.243-1.233.307.308 0 1.115-.683 1.793-.988.98-1.103.865-.56-.56z"/><path id="path3001" style="fill:#b16641;fill-opacity:1" inkscape:connector-curvature="0" d="M477.07 400.36c-.363-.587-.128-1.067.522-1.067.849 0 .881-.361.117-1.283-.71-.854-.736-1.774-.081-2.75.79-1.177.927-1.072.693.534-.19 1.298.206 1.892 1.127 1.693 1.214-.262 1.22-.045.033 1.5-.762.994-1.468 1.949-1.569 2.123-.1.174-.48-.163-.842-.75z"/></g><path id="path5319" d="M628.386 167.344c-2.605-1.191-3.693 3.956-5.938 1.313-2.078.012-3.271-.543-5.062-1.25-3.108-.264-4.92 3.906-7.656 2.062-4.522-1.447-8.038 4.22-4.22 7.094-1.497 2.725 1.48 4.313 1.938 6.937 3.778 2.781 6.76-3.276 6.344-6.093 1.452.233 4.238-1.962 4.219-1.813-.745 2.705 2.555 2.99-.344 4.813-2.086 4.041 3.7 4.66 5.063 7.28.697 4.055 1.205 8.298 3.406 11.876-.204 2.289-.406 5.022-3.344 4.625-3.889.182-6.876 7.017-1.375 6.469 4.983 3.467 10.643 6.336 16.812 6.062 8.86-.685 15.812-6.74 20.594-13.875 1.092-2.725 3.538-3.919 4.344-6.719 5.39-6.325 4.636-16.779-1.656-22.125.351-4.505-5.137-4.538-8.25-3.781-3.223 1.925-1.405 6.398.437 8.125-.042 2.526-4.298-1.985-6.094-1.344-4.239-.864-8.008-2.512-10.312-6.125-2.534.269-2.368-3.963-5.03-2.687-1.231-.451-2.543-1.573-3.876-.844zm-9.625 6.719c-1.26.2-.551.042 0 0z" style="fill:#963" inkscape:connector-curvature="0"/><path id="path4982" d="M632.056 213.524c-.596-.596-1.083-.76-1.083-.363 0 .93-7.663-2.966-8.502-4.322-.35-.567-1.168-.712-1.817-.323-.673.404-.59-.02.191-.983.755-.93 2.694-1.692 4.31-1.692 1.614 0 2.683-.409 2.375-.908-.309-.5-.172-1.96.303-3.245.606-1.638.398-3.05-.698-4.723-.86-1.312-1.644-3.79-1.741-5.505-.26-4.56-1.385-6.655-4.139-7.702-3.171-1.206-2.44-3.324 1.295-3.75 1.607-.184 3.598-.93 4.423-1.66.825-.729 2.536-1.478 3.803-1.666 2.169-.321 2.209-.457.687-2.341-.981-1.215-1.802-1.565-2.09-.892-.26.61-1.132 1.96-1.939 3-1.352 1.745-1.417 1.75-.83.073.6-1.717.431-1.734-2.998-.301-3.239 1.353-5.191.7-2.633-.88 1.659-1.026 1.132-2.323-1.25-3.08-2.573-.816-3.368-.491-2.976 1.215.15.658-1.104 1.498-2.79 1.868-2.443.537-2.94 1.06-2.455 2.588.346 1.092-.025 2.548-.864 3.386-1.295 1.295-1.543 1.284-2.071-.093-.33-.86-.305-2.044.057-2.629.417-.676.174-.765-.667-.246-.986.61-1.145.35-.62-1.015.386-1.009.274-2.1-.25-2.424-2.156-1.332-1.55-3.324 1.058-3.475 1.47-.085 2.456.196 2.191.625-.265.429.22.78 1.077.78.858 0 1.56-.378 1.56-.84 0-.461 1.124-1.352 2.5-1.978 1.784-.813 2.5-.826 2.5-.044 0 .603.898.86 2 .572 1.1-.288 2-.118 2 .377 0 1.317 4.323.442 4.794-.97.304-.914.78-.892 1.995.091 1.316 1.066 1.452 1.056.782-.058-.649-1.077-.411-1.135 1.176-.285 1.094.585 2.21.843 2.481.573.27-.27.442.715.382 2.191-.062 1.496.513 2.896 1.299 3.164.943.321 1.214-.029.819-1.059-.963-2.509.496-2.918 1.705-.478.76 1.534 3.003 2.812 7.089 4.039 7.404 2.223 8.57 2.843 9.91 5.272.587 1.063 1.462 2.22 1.945 2.571.483.351.6 1.088.261 1.637-.339.549.093 1.588.961 2.308 1.353 1.122 1.53 1.032 1.24-.637-.226-1.291.165-1.857 1.16-1.682 1.074.19.968-.152-.375-1.202-1.114-.87-1.626-2.116-1.262-3.066.356-.928.199-1.343-.374-.99-.544.337-.989-.116-.989-1.006s-.385-1.38-.855-1.09c-.47.291-.64-.6-.376-1.982.322-1.682.066-2.415-.773-2.22-.69.16-1.345-.72-1.458-1.958-.144-1.59.335-2.25 1.63-2.25 1.007 0 1.832.45 1.832 1s.477 1 1.06 1c.582 0 .737-.52.345-1.155-.446-.72-.274-.883.457-.43.644.397.913 1.141.597 1.652-.316.511.63 1.964 2.1 3.23 3.77 3.242 4.368 11.594 1.153 16.104-1.215 1.704-2.23 3.549-2.256 4.099-.026.55-.622.876-1.325.725-.704-.151-1.014.155-.689.68.325.526-.429 2.089-1.675 3.473-1.247 1.384-3.375 3.948-4.73 5.696-4.205 5.426-16.64 8.922-19.954 5.609z" style="fill:url(#radialGradient6351)" inkscape:connector-curvature="0"/><path id="path5359" d="M635.416-5.657c-2.938.866-5.38 4.021-2.813 6.906 1.616 1.6-2.668 2.263-.687-.313.214-3.161-3.656-2.868-5.313-1.718-1.847-2.35-5.395-.822-4.656 2.093-2.55 1.982-5.172 6.03-2.281 8.375-2.507.948-2.335 6.396-5.281 4.282-3.782-.25-1.534 3.477-1.625 4.843-2 1.783.682 4.157-.125 5.375-2.107.733-3.792 2.319-3.406 4.657-2.512 3.141 1.425 5.91.125 9.125.309 3.638 4.617 5.32 4.187 9.156 1.418 2.222 3.323 8.775 5.813 5.062 3.032-2.065 6.573-8.93 10.188-3.78 6.8 6.694 1.12-2.68 3.812-4.345 1.757-.346 3.458-1.097 2.625 1.282 1.798 3.482 6.5 4.094 9.781 4.437 3.31 3.157 5.493-2.325 3.313-4.937 2.787-.125 2.232-3.725 4.969-3.875 3.593-2.05.796-6.319-2.5-4.813-1.01-1.48-4.358-.88-1.438-2.406 5.109-6.206-1.02-14.197-4.25-19.72-1.654-2.914 4.737-.638 4.125-4.25 1.989-3.196-.111-6.29-3.562-6.437-2.031-1.885-5.251-2.69-5.157-5.906-1.109-1.86-3.617-3.794-5.843-3.094z" style="fill:#b36633" inkscape:connector-curvature="0"/><path id="path4654" d="M614.416 49.376c-.857-1.308-1.42-2.98-1.252-3.714.17-.735-.726-2.37-1.988-3.632-1.552-1.552-2.09-2.942-1.662-4.292.348-1.098.115-2.622-.518-3.385-.815-.982-.85-1.954-.118-3.32.569-1.063.79-2.176.494-2.473-.297-.297.345-.821 1.427-1.165 1.082-.343 2.235-1.622 2.562-2.841.878-3.278.72-4.417-.379-2.717-.582.901-.975 1.025-.984.31-.01-.656.456-1.484 1.033-1.84.704-.435.622-1.164-.25-2.223-1.154-1.399-1.046-1.44.966-.368 1.245.664 2.186.85 2.09.414-.327-1.502 1.518-4.796 3.474-6.2 1.892-1.36 1.896-1.455.127-2.75-1.745-1.275-1.703-1.475.87-4.16 1.486-1.552 2.358-3.2 1.938-3.663-.42-.462-.194-.512.503-.111.696.4.978 1.195.626 1.764-.351.569.541.261 1.984-.684 2.957-1.937 3.383-1.019 1.064 2.292-1.176 1.68-1.983 2-3.286 1.302-1.356-.726-1.726-.513-1.726.997 0 2.297 3.714 2.658 5.479.531.634-.764 3.164-1.895 5.622-2.514 4.12-1.038 4.372-1.28 3.23-3.111-1.533-2.453-3.194-2.619-2.364-.236.523 1.503.402 1.482-.861-.147-1.744-2.25-1.133-3.77 1.161-2.89 1.15.442 1.4.252.848-.643-.622-1.005-.337-1.03 1.367-.118 1.184.634 2.026 1.857 1.871 2.718-.155.86.6 2.074 1.676 2.697 1.077.623 2.571 1.695 3.321 2.383.75.687 2.055 1.25 2.9 1.25.989 0 1.32.563.928 1.582-.334.87-.607 1.973-.607 2.452 0 .48-1.38.696-3.07.482-2.402-.304-2.838-.11-2.008.89.584.703.826 1.513.538 1.8-.287.288 1.066 2.937 3.009 5.886 4.185 6.355 4.817 12.149 1.519 13.915-1.566.838-1.796 1.483-1.036 2.904.538 1.004.694 2.11.346 2.458-.347.347-.106.631.536.631.641 0 1.166-.54 1.166-1.2 0-.887.293-.907 1.122-.078.617.617 1.816.856 2.664.53 1.013-.388 1.294-.19.82.578-.398.644-1.372 1.17-2.165 1.17-.792 0-1.44.675-1.44 1.5s-.45 1.5-1 1.5-1-.675-1-1.5-.503-1.5-1.117-1.5c-1.088 0-.929 1.572.709 7 .65 2.153.544 2.328-.761 1.259-.834-.683-1.797-.96-2.142-.616-.788.789-6.69-1.598-6.69-2.705 0-.451.498-1.128 1.107-1.504 2.029-1.254-1.13-2.218-4.658-1.422-1.842.415-3.658.47-4.035.122-.378-.349-.466.588-.196 2.08l.491 2.715-2.784-1.982c-2.007-1.43-2.987-1.656-3.51-.81-.476.771-.243.935.68.48.773-.38.532-.112-.536.596s-2.982 2.28-4.254 3.496l-2.313 2.208-1.558-2.378z" style="fill:url(#radialGradient6353)" inkscape:connector-curvature="0"/><path id="path5595" d="M570.136 182.784c-6.574.197-12.235 4.164-17.531 7.5-5.497-1.531-14.047 2.975-11.688 9.375 2.454 1.8-1.011 4.664.344 7.344.535 3.58 3.365 5.103 4.093 8.344 1.954 1.479 4.7 1.941 5.438 4.843 1.503 6.176 8.217 7.686 13.156 10.156 1.886 2.413 4.413 3.823 7.437 3.282 2.42 7.113 12.272-.178 12.375-5.47 1.11-2.64 4.444-4.236 3.907-7.687.181-3.777 5.31-5.836 4-9.75-.076-3.84-2.103-7.144-1.907-11.125-.957-3.492-1.432-7.235-3.187-10.312-4.67-2.9-9.015-7.122-15.094-6.53-.448.01-.897-.022-1.344.03z" style="fill:#963" inkscape:connector-curvature="0"/><path id="path5034" d="M576.346 232.124c.596-.88.359-1.289-.75-1.289-.892 0-1.623-.41-1.623-.913 0-.502-1.35-.7-3-.44-2.127.336-3 .067-3-.924 0-.801-2.348-2.196-5.5-3.268-3.032-1.03-5.5-2.476-5.5-3.221 0-.744-.444-1.077-.988-.741-.567.35-.735-.051-.393-.94.327-.855.194-1.553-.296-1.553s-1.689-1.35-2.663-3c-.975-1.65-2.47-3-3.323-3-.932 0-1.332-.569-1.003-1.427.516-1.344-1.547-4.023-2.426-3.15-.224.222-.507-.968-.628-2.646s.045-2.786.369-2.462c.737.737 3.351-1.794 3.351-3.243 0-.59-.873-1.072-1.94-1.072-2.561 0-3.388-1.482-1.638-2.935.959-.795 1.605-.831 2.048-.113.357.576 1.158 1.048 1.78 1.048.623 0 .26-.641-.808-1.425-1.772-1.3-1.574-1.39 2.272-1.023 2.82.269 4.473-.041 5-.938.432-.736 3.033-2.526 5.779-3.976 6.798-3.592 14.023-3.647 18.102-.139 1.598 1.374 3.318 2.5 3.822 2.5s.632.286.285.633c-.347.347-.107 1.585.535 2.75 1.455 2.642 1.795 4.196 1.882 8.618.038 1.925.59 4.15 1.226 4.942.765.956.783 1.22.052.782-.622-.372-1.63.492-2.306 1.976-1.075 2.36-1.035 2.499.378 1.326.869-.72 1.869-1.022 2.222-.668.353.353.118.642-.524.642s-1.167.69-1.167 1.532c0 .842-.608 1.765-1.351 2.05-.81.31-1.17 1.469-.9 2.887.32 1.67-.316 3.038-2.155 4.637-1.434 1.247-2.19 2.525-1.68 2.84.51.316-.275 1.937-1.743 3.603-1.47 1.666-2.278 2.45-1.798 1.74z" style="fill:url(#radialGradient6355)" inkscape:connector-curvature="0"/><path id="path5481" style="fill:#804033" inkscape:connector-curvature="0" d="M552.976 147.704c0-.441-.676-.543-1.502-.226-2.394.919-8.655-2.111-12.998-6.29-4.635-4.46-7.806-9.045-7.074-10.23.28-.453-.184-1.678-1.032-2.722-.848-1.043-1.214-1.265-.814-.493.453.873.327 1.157-.332.75-.583-.361-.807-1.626-.497-2.812.436-1.664.243-1.962-.843-1.307-1.17.706-1.191.581-.123-.738.707-.873 1.197-1.972 1.089-2.442-.109-.47.326-2.122.965-3.67.638-1.549 1.16-3.184 1.16-3.635 0-.451 1.14-1.567 2.533-2.48 1.392-.912 2.303-2.028 2.023-2.48-.716-1.16 2.93-4.256 3.936-3.342.457.413.525.22.153-.43-.372-.649-.212-1.467.356-1.818s.8-1.015.515-1.476c-.285-.46.28-.629 1.257-.374 1.863.488 4.508 7.059 3.173 7.884-.426.263-.976-.087-1.223-.778-.246-.69-.799-.93-1.228-.53-.428.399-.21 1.411.486 2.25 1.045 1.259.983 1.524-.358 1.524-.892 0-1.674.787-1.737 1.75-.211 3.202.295 5.746 1.21 6.083.498.183.905 1.192.905 2.242s.926 2.474 2.057 3.166c1.131.692 2.977 2.737 4.103 4.543 1.362 2.187 2.596 3.114 3.693 2.773.906-.281 2.097-.184 2.647.216 1.338.972 1.83 3.55.525 2.742-.945-.584-1.535 1.626-1.062 3.98.98 4.872.722 9.171-.548 9.171-.778 0-1.415-.36-1.415-.801z"/><path id="path4874" d="M552.976 147.704c0-.441-.676-.543-1.502-.226-2.394.919-8.655-2.111-12.998-6.29-4.635-4.46-7.806-9.045-7.074-10.23.28-.453-.184-1.678-1.032-2.722-.848-1.043-1.214-1.265-.814-.493.453.873.327 1.157-.332.75-.583-.361-.807-1.626-.497-2.812.436-1.664.243-1.962-.843-1.307-1.17.706-1.191.581-.123-.738.707-.873 1.197-1.972 1.089-2.442-.109-.47.326-2.122.965-3.67.638-1.549 1.16-3.184 1.16-3.635 0-.451 1.14-1.567 2.533-2.48 1.392-.912 2.303-2.028 2.023-2.48-.716-1.16 2.93-4.256 3.936-3.342.457.413.525.22.153-.43-.372-.649-.212-1.467.356-1.818s.8-1.015.515-1.476c-.285-.46.28-.629 1.257-.374 1.863.488 4.508 7.059 3.173 7.884-.426.263-.976-.087-1.223-.778-.246-.69-.799-.93-1.228-.53-.428.399-.21 1.411.486 2.25 1.045 1.259.983 1.524-.358 1.524-.892 0-1.674.787-1.737 1.75-.211 3.202.295 5.746 1.21 6.083.498.183.905 1.192.905 2.242s.926 2.474 2.057 3.166c1.131.692 2.977 2.737 4.103 4.543 1.362 2.187 2.596 3.114 3.693 2.773.906-.281 2.097-.184 2.647.216 1.338.972 1.83 3.55.525 2.742-.945-.584-1.535 1.626-1.062 3.98.98 4.872.722 9.171-.548 9.171-.778 0-1.415-.36-1.415-.801z" style="fill:url(#radialGradient6357)" inkscape:connector-curvature="0"/><path id="path5653" style="fill:#803e00" inkscape:connector-curvature="0" d="M625.976 129.864c0-.533-.664-.714-1.476-.402-.966.37-2.21-.676-3.599-3.032-1.167-1.978-2.555-3.597-3.083-3.597s-.682.45-.342 1 .141 1-.441 1c-1.341 0-1.381-1.683-.059-2.5 1.436-.888 1.237-2.12-.645-4.003-1.339-1.338-1.823-1.398-2.595-.321-.691.965-.788.827-.354-.508.327-1.008.594-2.245.594-2.75 0-.505.477-.918 1.059-.918s.812.399.51.887c-.3.488.235.825 1.192.75 1.198-.095 1.714.563 1.66 2.113-.044 1.237.32 2.25.809 2.25.488 0 .603.46.255 1.024-.349.564-.058.902.645.75.704-.15 1.34.176 1.413.726.31 2.307 2.059 5.022 3.429 5.324 1.162.255 1.11-.076-.25-1.58-.947-1.046-1.722-2.568-1.722-3.382 0-.814-.614-2.32-1.365-3.346-.862-1.18-1.238-3.734-1.02-6.941.239-3.524.049-4.617-.62-3.575-.53.825-.971 1.037-.98.472-.01-.565.686-2.027 1.542-3.25.872-1.245 1.092-2.222.5-2.222-.581 0-1.057.45-1.057 1s-.45 1-1 1c-1.54 0-.733-2.272 1.633-4.594 2.858-2.806 3.826-6.149 2.308-7.977-1.002-1.207-.94-1.366.343-.874 1.008.387 2.17-.318 3.257-1.977 2.74-4.181 10.388-2.792 16.104 2.924 1.578 1.578 1.813 2.899.355 1.998-.55-.34-1-.083-1 .572 0 .8-1.143 1.004-3.498.622-3.136-.51-3.78-.195-6.25 3.045-2.597 3.41-2.759 4.236-2.873 14.687-.066 6.091-.369 11.974-.673 13.074-.304 1.1-.588 2.338-.63 2.75-.114 1.116-2.076.91-2.076-.218z"/><path id="path4830" d="M626.976 130.864c0-.533-.664-.714-1.476-.402-.966.37-2.21-.676-3.599-3.032-1.167-1.978-2.555-3.597-3.083-3.597s-.682.45-.342 1 .141 1-.441 1c-1.341 0-1.381-1.683-.059-2.5 1.436-.888 1.237-2.12-.645-4.003-1.339-1.338-1.823-1.398-2.595-.321-.691.965-.788.827-.354-.508.327-1.008.594-2.245.594-2.75 0-.505.477-.918 1.059-.918s.812.399.51.887c-.3.488.235.825 1.192.75 1.198-.095 1.714.563 1.66 2.113-.044 1.237.32 2.25.809 2.25.488 0 .603.46.255 1.024-.349.564-.058.902.645.75.704-.15 1.34.176 1.413.726.31 2.307 2.059 5.022 3.429 5.324 1.162.255 1.11-.076-.25-1.58-.947-1.046-1.722-2.568-1.722-3.382 0-.814-.614-2.32-1.365-3.346-.862-1.18-1.238-3.734-1.02-6.941.239-3.524.049-4.617-.62-3.575-.53.825-.971 1.037-.98.472-.01-.565.686-2.027 1.542-3.25.872-1.245 1.092-2.222.5-2.222-.581 0-1.057.45-1.057 1s-.45 1-1 1c-1.54 0-.733-2.272 1.633-4.594 2.858-2.806 3.826-6.149 2.308-7.977-1.002-1.207-.94-1.366.343-.874 1.008.387 2.17-.318 3.257-1.977 2.74-4.181 10.388-2.792 16.104 2.924 1.578 1.578 1.813 2.899.355 1.998-.55-.34-1-.083-1 .572 0 .8-1.143 1.004-3.498.622-3.136-.51-3.78-.195-6.25 3.045-2.597 3.41-2.759 4.236-2.873 14.687-.066 6.091-.369 11.974-.673 13.074-.304 1.1-.588 2.338-.63 2.75-.114 1.116-2.076.91-2.076-.218z" style="fill:#520" inkscape:connector-curvature="0"/><path id="path5183" style="fill:#8c5933" inkscape:connector-curvature="0" d="M646.356 229.444c-.194-.075-.123.296.156 1.094.595 1.7.487 1.805-.812.75-1.51-1.225-2.844-.77-2.844.969 0 .49.4.625.906.312.506-.312 1.632.163 2.5 1.031 1.193 1.193 1.343 2.042.563 3.5-1.24 2.316-1.982 2.398-4.532.469-2.34-1.77-3.826-1.965-2.843-.375.445.721.262.89-.47.438-.643-.398-.91-1.145-.593-1.657.317-.512.114-.937-.469-.937-.951 0-1.221.733-.968 2.625.155 1.16-2.301 2.141-4.157 1.656-1.003-.262-2.585-1.33-3.53-2.375-1.825-2.015-4.067-2.408-6.188-1.062-.984.624-1.036 1.475-.22 3.625.87 2.285.798 2.667-.28 1.937-.731-.494-.52-.163.468.75 1.754 1.62 2.594 4.435 1.032 3.469-.432-.267-.782.356-.782 1.375 0 2.029.898 1.73 4.313-1.344 1.24-1.116 2.25-1.49 2.25-.844s-.35 1.188-.781 1.188c-.432 0-1.615 1.382-2.625 3.094-1.4 2.368-2.031 2.786-2.688 1.75-1.263-1.995-1.452 1.796-.344 6.906.13.601.258 1.026.407 1.375-.014.303-.031.6-.031.906 0 .903.069 1.784.187 2.656a6.236 6.236 0 0 0-2 .938l-2.219 1.562 2.313 3.156c1.276 1.738 2.95 4.394 3.719 5.907.769 1.512 1.962 2.75 2.656 2.75.694 0 2.848 1.012 4.781 2.25 2.434 1.558 3.354 2.792 3 4-.371 1.268-.072 1.56 1.063 1.125.857-.33 1.35-.93 1.093-1.344-.256-.415 1.82-.322 4.625.187 3.568.649 5.958.57 7.938-.25 1.556-.644 2.992-1.038 3.187-.843.196.194 2.501-1.538 5.157-3.875 4.72-4.155 7.406-5.499 5.968-3-.417.726-.341.89.188.406.5-.458.912-1.358.937-2 .025-.642.564-1.062 1.188-.938.68.136.975-.711.719-2.125-.236-1.297.21-3.922 1-5.812 1.14-2.73 1.473-7.281.53-7.281-.1 0-.271-1.526-.374-3.375-.105-1.884-.947-3.932-1.938-4.657-.987-.722-1.355-1.54-.812-1.875 1.241-.767.924-2.957-.719-4.937-.952-1.147-1.885-1.33-3.656-.656-1.594.606-2.633.558-3.094-.188-.419-.678-.232-.84.469-.406.635.392 1.156.239 1.156-.344 0-.582-.705-1.062-1.562-1.062-.857 0-1.279-.449-.938-1 .366-.592-.323-.867-1.687-.657-2.54.393-6.81-1.926-6.844-3.718-.012-.625-.905-2.25-2-3.625-.795-.998-1.275-1.519-1.469-1.594z"/><path id="path5138" d="M644.476 232.244c-.194-.075-.123.296.156 1.094.595 1.7.487 1.805-.812.75-1.51-1.225-2.844-.77-2.844.969 0 .49.4.625.906.312.506-.312 1.632.163 2.5 1.031 1.193 1.193 1.343 2.042.563 3.5-1.24 2.316-1.982 2.398-4.532.469-2.34-1.77-3.826-1.965-2.843-.375.445.721.262.89-.47.438-.643-.398-.91-1.145-.593-1.657.317-.512.114-.937-.469-.937-.951 0-1.221.733-.968 2.625.155 1.16-2.301 2.141-4.157 1.656-1.003-.262-2.585-1.33-3.53-2.375-1.825-2.015-4.067-2.408-6.188-1.062-.984.624-1.036 1.475-.22 3.625.87 2.285.798 2.667-.28 1.937-.731-.494-.52-.163.468.75 1.754 1.62 2.594 4.435 1.032 3.469-.432-.267-.782.356-.782 1.375 0 2.029.898 1.73 4.313-1.344 1.24-1.116 2.25-1.49 2.25-.844s-.35 1.188-.781 1.188c-.432 0-1.615 1.382-2.625 3.094-1.4 2.368-2.031 2.786-2.688 1.75-1.263-1.995-1.452 1.796-.344 6.906.13.601.258 1.026.407 1.375-.014.303-.031.6-.031.906 0 .903.069 1.784.187 2.656a6.236 6.236 0 0 0-2 .938l-2.219 1.562 2.313 3.156c1.276 1.738 2.95 4.394 3.719 5.907.769 1.512 1.962 2.75 2.656 2.75.694 0 2.848 1.012 4.781 2.25 2.434 1.558 3.354 2.792 3 4-.371 1.268-.072 1.56 1.063 1.125.857-.33 1.35-.93 1.093-1.344-.256-.415 1.82-.322 4.625.187 3.568.649 5.958.57 7.938-.25 1.556-.644 2.992-1.038 3.187-.843.196.194 2.501-1.538 5.157-3.875 4.72-4.155 7.406-5.499 5.968-3-.417.726-.341.89.188.406.5-.458.912-1.358.937-2 .025-.642.564-1.062 1.188-.938.68.136.975-.711.719-2.125-.236-1.297.21-3.922 1-5.812 1.14-2.73 1.473-7.281.53-7.281-.1 0-.271-1.526-.374-3.375-.105-1.884-.947-3.932-1.938-4.657-.987-.722-1.355-1.54-.812-1.875 1.241-.767.924-2.957-.719-4.937-.952-1.147-1.885-1.33-3.656-.656-1.594.606-2.633.558-3.094-.188-.419-.678-.232-.84.469-.406.635.392 1.156.239 1.156-.344 0-.582-.705-1.062-1.562-1.062-.857 0-1.279-.449-.938-1 .366-.592-.323-.867-1.687-.657-2.54.393-6.81-1.926-6.844-3.718-.012-.625-.905-2.25-2-3.625-.795-.998-1.275-1.519-1.469-1.594z" style="fill:url(#radialGradient6359)" inkscape:connector-curvature="0"/><path id="path5261" style="fill:#b38033" inkscape:connector-curvature="0" d="M721.976 282.254c0-.873-1.36-2.1-3.02-2.727-2.109-.796-2.832-1.6-2.396-2.663.625-1.525 2.41-14.63 2.836-20.812.162-2.363-.143-3.147-1.085-2.786-.721.277-1.227.182-1.125-.21.102-.394-.17-1.766-.606-3.05-.589-1.733-.265-2.896 1.254-4.514 2.96-3.151 5.19-8.955 4.11-10.704-.517-.837-2.66-1.517-5.081-1.614-3.438-.137-4.759-.808-7.376-3.75-1.753-1.97-3.737-3.583-4.408-3.583-.672 0-.93-.472-.573-1.049.435-.704 1.161-.622 2.213.25.86.715 2.395 1.158 3.41.986 1.016-.172 1.847.166 1.847.75 0 .585 1.093 1.063 2.429 1.063 1.335 0 3.103.675 3.928 1.5.825.825 2.107 1.5 2.849 1.5s2.291.66 3.443 1.467c1.523 1.067 2.927 1.228 5.148.591 1.679-.481 3.209-.719 3.4-.527.192.191 1.63.58 3.198.864 1.568.285 3.096.763 3.397 1.063.3.3 1.305-.14 2.233-.98 1.516-1.373 1.824-1.365 3.017.073 1.111 1.339 1.094 1.75-.106 2.51-1.084.686-1.115.912-.127.924.733.009.995.523.595 1.17-.426.689-.275.884.373.483.597-.37 1.756.285 2.575 1.454 1.466 2.094 4.314 1.795 3.01-.316-.396-.64-.207-.798.463-.384 2.073 1.281-.915 4.624-3.543 3.964-1.534-.385-2.287-.127-2.297.786-.012 1.054-.227 1.024-.958-.132-.7-1.107-.867-.785-.65 1.252.161 1.507.664 3.078 1.118 3.49.454.411.459.116.011-.657-.507-.875-.43-1.166.206-.773.561.346.79 1.833.51 3.303-.4 2.086-.206 2.495.883 1.863.768-.445 1.062-.44.654.01-.408.45-.302 1.346.234 1.993.67.807.528 1.175-.453 1.175-.786 0-1.341-.431-1.234-.958.107-.527-.368-1.165-1.056-1.417-.72-.264-1.25.34-1.25 1.425 0 1.036-.471 2.355-1.048 2.932-.576.576-1.168 2.354-1.315 3.95-.147 1.604-.796 2.79-1.452 2.652-.651-.138-1.253.312-1.337 1a139.06 139.06 0 0 0-.265 2.364c-.062.613-.705 1.828-1.429 2.7-1.186 1.43-1.83 3.335-2.092 6.186-.051.55-.49.371-.977-.397-.714-1.128-1.142-.984-2.225.75-.737 1.18-1.662 2.147-2.055 2.147-.392 0-1.839 1.125-3.214 2.5-2.865 2.865-4.59 3.208-4.59.913z"/><path id="path5110" d="M719.976 281.254c0-.873-1.36-2.1-3.02-2.727-2.109-.796-2.832-1.6-2.396-2.663.625-1.525 2.41-14.63 2.836-20.812.162-2.363-.143-3.147-1.085-2.786-.721.277-1.227.182-1.125-.21.102-.394-.17-1.766-.606-3.05-.589-1.733-.265-2.896 1.254-4.514 2.96-3.151 5.19-8.955 4.11-10.704-.517-.837-2.66-1.517-5.081-1.614-3.438-.137-4.759-.808-7.376-3.75-1.753-1.97-3.737-3.583-4.408-3.583-.672 0-.93-.472-.573-1.049.435-.704 1.161-.622 2.213.25.86.715 2.395 1.158 3.41.986 1.016-.172 1.847.166 1.847.75 0 .585 1.093 1.063 2.429 1.063 1.335 0 3.103.675 3.928 1.5.825.825 2.107 1.5 2.849 1.5s2.291.66 3.443 1.467c1.523 1.067 2.927 1.228 5.148.591 1.679-.481 3.209-.719 3.4-.527.192.191 1.63.58 3.198.864 1.568.285 3.096.763 3.397 1.063.3.3 1.305-.14 2.233-.98 1.516-1.373 1.824-1.365 3.017.073 1.111 1.339 1.094 1.75-.106 2.51-1.084.686-1.115.912-.127.924.733.009.995.523.595 1.17-.426.689-.275.884.373.483.597-.37 1.756.285 2.575 1.454 1.466 2.094 4.314 1.795 3.01-.316-.396-.64-.207-.798.463-.384 2.073 1.281-.915 4.624-3.543 3.964-1.534-.385-2.287-.127-2.297.786-.012 1.054-.227 1.024-.958-.132-.7-1.107-.867-.785-.65 1.252.161 1.507.664 3.078 1.118 3.49.454.411.459.116.011-.657-.507-.875-.43-1.166.206-.773.561.346.79 1.833.51 3.303-.4 2.086-.206 2.495.883 1.863.768-.445 1.062-.44.654.01-.408.45-.302 1.346.234 1.993.67.807.528 1.175-.453 1.175-.786 0-1.341-.431-1.234-.958.107-.527-.368-1.165-1.056-1.417-.72-.264-1.25.34-1.25 1.425 0 1.036-.471 2.355-1.048 2.932-.576.576-1.168 2.354-1.315 3.95-.147 1.604-.796 2.79-1.452 2.652-.651-.138-1.253.312-1.337 1a139.06 139.06 0 0 0-.265 2.364c-.062.613-.705 1.828-1.429 2.7-1.186 1.43-1.83 3.335-2.092 6.186-.051.55-.49.371-.977-.397-.714-1.128-1.142-.984-2.225.75-.737 1.18-1.662 2.147-2.055 2.147-.392 0-1.839 1.125-3.214 2.5-2.865 2.865-4.59 3.208-4.59.913z" style="fill:#520" inkscape:connector-curvature="0"/><path id="path5399" d="M713.106 8.405c-3.165.594-1.95 4.603-.969 5.938-.17 3.173-4.705 5.664-2.781 9.375-2.278 1.772-2.15 5.857.562 7.718 1.468 2.93-.864 10.845 4.5 9.188 2.25-1.8 3.545-5.17 4.47-7.344 2.953 6.123 8.51 11.22 13.811 15.062 7.826-.261 16.521 1.789 23.656-2.062 3.514.137 5.345-3.692 8.97-2.625 3.345.087 7.62-4.975 4.655-6.813-2.34.103-2.695 1.251-2.656-1.469-1.092-2.5-4.553-.186-3.531-3.625-1.279-2.244-5.244-1.735-4.125-5.437.311-2.471-2.767-4.22-4.188-3.188 1.271-4.003-4.102-2.05-5.062-5.312-3.935-1.644-8.752-2.795-12.97-2.563-1.918 1.304-5.035-.453-7.28 1.125-1.51-3.481-5.368-7.963-9.594-6.469-1.165-2.12-4.21.193-6.281-1.468-.384-.102-.798-.074-1.188-.032zm3.875 13.438c.753.64-.698 3.718-2.344 1.688-3.353-.571 1.473-2.179 2.344-1.688z" style="fill:#963" inkscape:connector-curvature="0"/><path id="path4646" d="M727.516 43.337c-2.893-2.75-5.827-6.462-6.519-8.25-1.44-3.718-4.005-4.353-4.038-1-.019 1.94-3.73 8.127-4.049 6.75-.063-.275-.232-2.233-.376-4.35-.143-2.118-.696-4.143-1.23-4.5-.532-.358-1.243-1.396-1.58-2.308-.895-2.435 4.037-3.525 5.695-1.258 1.082 1.48 1.463 1.194 3.268-2.454l2.043-4.13h-3.824c-2.588 0-4.155.566-4.845 1.75-.97 1.667-1.02 1.667-1.05 0-.016-.962.833-2.612 1.887-3.667 1.054-1.054 1.654-2.179 1.333-2.5-.32-.32.194-.583 1.143-.583.949 0 1.476.403 1.172.895-.304.493.143 1.162.993 1.489.885.34 1.285.17.935-.395-.336-.544-.079-.989.57-.989.885 0 .871-.375-.053-1.489-.68-.819-1.594-1.268-2.032-.997-1.294.8-3.977-.615-3.977-2.096 0-1.03.591-1.144 2.397-.457 1.318.501 2.74.602 3.16.225.42-.377.44-.124.044.564-.859 1.493 1.973 1.748 2.892.261.896-1.45 5.514 1.879 6.612 4.765.686 1.804 1.368 2.236 2.659 1.681 2.246-.965 4.27-.945 6.65.068 1.428.608 1.713.49 1.125-.462-.565-.914-.256-1.125 1.086-.743 1.03.293 3.79.832 6.129 1.195 2.34.364 3.996 1.08 3.68 1.59-.314.51-1.104.618-1.753.24-.65-.38-.324.288.724 1.483 2.128 2.426 3.547 3.024 1.595.672-.785-.946-.852-1.5-.182-1.5.585 0 1.346.457 1.692 1.016.345.56 1.16.698 1.809.308.65-.39.506.14-.32 1.176-.824 1.036-.984 1.575-.354 1.198.63-.378 1.422.036 1.761.919.425 1.106.181 1.439-.782 1.07-.973-.374-1.25.027-.913 1.319.618 2.36 3.289 1.457 3.289-1.113 0-1.041.388-1.893.863-1.893.474 0 .87 1.012.879 2.25.03 4.127.25 4.873 1.258 4.25.55-.34 1-.115 1 .5s.46.833 1.025.485c.563-.349.96-.263.881.19-.079.454-.09 1.927-.025 3.275.092 1.906.385 2.183 1.319 1.25 1.647-1.648 2.855-1.508 2.18.252-.928 2.417.557 3.833 2.459 2.346 1.497-1.17 1.52-1.12.24.51-.916 1.165-2.438 1.7-4.29 1.506-1.579-.166-3.23.281-3.67.994-.44.712-1.97 1.419-3.401 1.572-1.43.152-3.225.795-3.988 1.429-.876.727-4.806 1.067-10.662.921l-9.274-.23-5.26-5z" style="fill:url(#radialGradient6361)" inkscape:connector-curvature="0"/></g><metadata id="metadata337"><rdf:RDF><cc:Work><dc:format>image/svg+xml</dc:format><dc:type rdf:resource="http://purl.org/dc/dcmitype/StillImage"/><cc:license rdf:resource="http://creativecommons.org/publicdomain/zero/1.0/"/><dc:publisher><cc:Agent rdf:about="http://openclipart.org/"><dc:title>Openclipart</dc:title></cc:Agent></dc:publisher><dc:title>Chocolate Cookie</dc:title><dc:date>2011-03-31T07:45:33</dc:date><dc:description/><dc:source>https://openclipart.org/detail/130009/cookie-by-gnokii</dc:source><dc:creator><cc:Agent><dc:title>gnokii</dc:title></cc:Agent></dc:creator><dc:subject><rdf:Bag><rdf:li>bakery</rdf:li><rdf:li>baking</rdf:li><rdf:li>chocolate</rdf:li><rdf:li>cookie</rdf:li><rdf:li>food</rdf:li></rdf:Bag></dc:subject></cc:Work><cc:License rdf:about="http://creativecommons.org/publicdomain/zero/1.0/"><cc:permits rdf:resource="http://creativecommons.org/ns#Reproduction"/><cc:permits rdf:resource="http://creativecommons.org/ns#Distribution"/><cc:permits rdf:resource="http://creativecommons.org/ns#DerivativeWorks"/></cc:License></rdf:RDF></metadata></svg>