<svg xmlns:dc="http://purl.org/dc/elements/1.1/" xmlns:cc="http://creativecommons.org/ns#" xmlns:rdf="http://www.w3.org/1999/02/22-rdf-syntax-ns#" xmlns="http://www.w3.org/2000/svg" style="fill:none;stroke:none;stroke-linecap:square;stroke-miterlimit:10" height="128" width="128" id="svg2" stroke-miterlimit="10" viewBox="0 0 128 128" version="1.1"><metadata id="metadata23"><rdf:RDF><cc:Work><dc:format>image/svg+xml</dc:format><dc:type rdf:resource="http://purl.org/dc/dcmitype/StillImage"/><dc:title/><dc:date>2022</dc:date><dc:creator><cc:Agent><dc:title>Timothée Giet</dc:title></cc:Agent></dc:creator><cc:license rdf:resource="http://creativecommons.org/licenses/by-sa/4.0/"/></cc:Work><cc:License rdf:about="http://creativecommons.org/licenses/by-sa/4.0/"><cc:permits rdf:resource="http://creativecommons.org/ns#Reproduction"/><cc:permits rdf:resource="http://creativecommons.org/ns#Distribution"/><cc:requires rdf:resource="http://creativecommons.org/ns#Notice"/><cc:requires rdf:resource="http://creativecommons.org/ns#Attribution"/><cc:permits rdf:resource="http://creativecommons.org/ns#DerivativeWorks"/><cc:requires rdf:resource="http://creativecommons.org/ns#ShareAlike"/></cc:License></rdf:RDF></metadata><clipPath id="p.0"><path style="clip-rule:nonzero" id="path5" d="M0 0h960v540H0z"/></clipPath><g transform="translate(-383.802 -246.924)" id="g7" clip-path="url(#p.0)"><path style="fill:none;fill-rule:nonzero;stroke:#34309f;stroke-width:5;stroke-linecap:butt;stroke-linejoin:round;stroke-miterlimit:10;stroke-dasharray:none;stroke-opacity:1" id="path17" d="M409.89 260.684c0-5.235 16.973-9.479 37.912-9.479 20.938 0 37.912 4.244 37.912 9.479v100.48c0 5.235-16.974 9.479-37.912 9.479-20.939 0-37.913-4.244-37.913-9.479v-100.48"/><path style="fill:#4541ce;fill-opacity:1;fill-rule:nonzero;stroke:none;stroke-width:.56288093;stroke-linecap:square;stroke-miterlimit:10" id="path11" d="M409.89 259.954c0 5.235 16.973 9.478 37.912 9.478 20.938 0 37.912-4.243 37.912-9.478v101.21c0 5.235-16.974 9.479-37.912 9.479-20.939 0-37.913-4.244-37.913-9.479z"/><path style="fill:#66f;fill-rule:nonzero;stroke:#34309f;stroke-width:2;stroke-linecap:square;stroke-miterlimit:10;stroke-dasharray:none;stroke-opacity:1" id="path13" d="M409.89 259.71v0c0-5.234 16.973-9.477 37.912-9.477 20.938 0 37.912 4.243 37.912 9.478v0c0 5.234-16.974 9.478-37.912 9.478-20.939 0-37.913-4.244-37.913-9.478z"/></g></svg>