<svg xmlns:dc="http://purl.org/dc/elements/1.1/" xmlns:cc="http://creativecommons.org/ns#" xmlns:rdf="http://www.w3.org/1999/02/22-rdf-syntax-ns#" xmlns="http://www.w3.org/2000/svg" version="1.0" id="svg2" height="100" width="100"><metadata id="metadata7"><rdf:RDF><cc:Work><dc:format>image/svg+xml</dc:format><dc:type rdf:resource="http://purl.org/dc/dcmitype/StillImage"/><dc:title/><dc:date>2022</dc:date><dc:creator><cc:Agent><dc:title>Timothée Giet</dc:title></cc:Agent></dc:creator><cc:license rdf:resource="http://creativecommons.org/licenses/by-sa/4.0/"/></cc:Work><cc:License rdf:about="http://creativecommons.org/licenses/by-sa/4.0/"><cc:permits rdf:resource="http://creativecommons.org/ns#Reproduction"/><cc:permits rdf:resource="http://creativecommons.org/ns#Distribution"/><cc:requires rdf:resource="http://creativecommons.org/ns#Notice"/><cc:requires rdf:resource="http://creativecommons.org/ns#Attribution"/><cc:permits rdf:resource="http://creativecommons.org/ns#DerivativeWorks"/><cc:requires rdf:resource="http://creativecommons.org/ns#ShareAlike"/></cc:License></rdf:RDF></metadata><g id="layer1"><path id="path827" d="M68.898 17.268H31.102L12.205 50l18.897 32.732h37.796L87.795 50z" style="fill:#94341b;fill-opacity:1;stroke:none;stroke-width:1px;stroke-linecap:butt;stroke-linejoin:miter;stroke-opacity:1"/><path id="path829" d="m15.984 50 15.85 28.917L47.953 51l-15.85-28.917z" style="fill:#e0623f;fill-opacity:1;stroke:none;stroke-width:1px;stroke-linecap:butt;stroke-linejoin:miter;stroke-opacity:1"/><path id="path829-3" d="m50.158 52.273 32.968-.732L67.008 79.46l-32.968.732z" style="fill:#a4482e;fill-opacity:1;stroke:none;stroke-width:1px;stroke-linecap:butt;stroke-linejoin:miter;stroke-opacity:1"/><path id="path829-6" d="m49.89 50.19 32.968-.731-15.85-28.918-32.968.733z" style="fill:#e0623f;fill-opacity:1;stroke:none;stroke-width:1px;stroke-linecap:butt;stroke-linejoin:miter;stroke-opacity:1"/><path id="path4146" d="M60.984 36.703c-5.227-.428-8.275-6.785-3.047-6.364 5.227.42 8.274 6.792 3.047 6.364z" style="color:#000;display:inline;overflow:visible;visibility:visible;opacity:1;fill:#ecc9c0;fill-opacity:1;fill-rule:nonzero;stroke:none;stroke-width:1;stroke-linecap:round;stroke-linejoin:round;stroke-miterlimit:4;stroke-dasharray:none;stroke-dashoffset:0;stroke-opacity:1;marker:none;enable-background:accumulate"/><path id="path4146-3" d="M34.882 36.907c-.132 5.243-6.305 8.646-6.181 3.403.124-5.243 6.312-8.645 6.18-3.403z" style="color:#000;display:inline;overflow:visible;visibility:visible;opacity:1;fill:#ecc9c0;fill-opacity:1;fill-rule:nonzero;stroke:none;stroke-width:1;stroke-linecap:round;stroke-linejoin:round;stroke-miterlimit:4;stroke-dasharray:none;stroke-dashoffset:0;stroke-opacity:1;marker:none;enable-background:accumulate"/><path id="path4146-3-6" d="M27.638 48.991c-.132 5.243-6.305 8.646-6.181 3.403.124-5.243 6.312-8.645 6.18-3.403z" style="color:#000;display:inline;overflow:visible;visibility:visible;opacity:1;fill:#ecc9c0;fill-opacity:1;fill-rule:nonzero;stroke:none;stroke-width:1;stroke-linecap:round;stroke-linejoin:round;stroke-miterlimit:4;stroke-dasharray:none;stroke-dashoffset:0;stroke-opacity:1;marker:none;enable-background:accumulate"/><path id="path4146-3-7" d="M41.795 48.825c-.131 5.243-6.305 8.646-6.18 3.403.124-5.243 6.312-8.646 6.18-3.403z" style="color:#000;display:inline;overflow:visible;visibility:visible;opacity:1;fill:#ecc9c0;fill-opacity:1;fill-rule:nonzero;stroke:none;stroke-width:1;stroke-linecap:round;stroke-linejoin:round;stroke-miterlimit:4;stroke-dasharray:none;stroke-dashoffset:0;stroke-opacity:1;marker:none;enable-background:accumulate"/><path id="path4146-3-5" d="M34.396 61.034c-.132 5.242-6.305 8.645-6.181 3.402.124-5.242 6.312-8.645 6.18-3.402z" style="color:#000;display:inline;overflow:visible;visibility:visible;opacity:1;fill:#ecc9c0;fill-opacity:1;fill-rule:nonzero;stroke:none;stroke-width:1;stroke-linecap:round;stroke-linejoin:round;stroke-miterlimit:4;stroke-dasharray:none;stroke-dashoffset:0;stroke-opacity:1;marker:none;enable-background:accumulate"/><path id="path4146-3-56" d="M65.276 71.912c-.955 5.157-7.588 7.545-6.64 2.387.948-5.158 7.595-7.543 6.64-2.387z" style="color:#000;display:inline;overflow:visible;visibility:visible;opacity:1;fill:#dfa597;fill-opacity:1;fill-rule:nonzero;stroke:none;stroke-width:1;stroke-linecap:round;stroke-linejoin:round;stroke-miterlimit:4;stroke-dasharray:none;stroke-dashoffset:0;stroke-opacity:1;marker:none;enable-background:accumulate"/><path id="path4146-3-56-9" d="M57.252 58.548C56 63.641 49.24 65.64 50.486 60.546c1.245-5.094 8.019-7.09 6.766-1.998z" style="color:#000;display:inline;overflow:visible;visibility:visible;opacity:1;fill:#dfa597;fill-opacity:1;fill-rule:nonzero;stroke:none;stroke-width:1;stroke-linecap:round;stroke-linejoin:round;stroke-miterlimit:4;stroke-dasharray:none;stroke-dashoffset:0;stroke-opacity:1;marker:none;enable-background:accumulate"/></g></svg>