<svg xmlns:dc="http://purl.org/dc/elements/1.1/" xmlns:cc="http://creativecommons.org/ns#" xmlns:rdf="http://www.w3.org/1999/02/22-rdf-syntax-ns#" xmlns="http://www.w3.org/2000/svg" version="1.0" height="64" width="64" id="svg1"><metadata id="metadata44"><rdf:RDF><cc:Work><dc:title/><dc:description/><dc:subject><rdf:Bag/></dc:subject><dc:publisher><cc:Agent rdf:about="http://www.openclipart.org"><dc:title/></cc:Agent></dc:publisher><dc:creator><cc:Agent><dc:title>Timothée Giet</dc:title></cc:Agent></dc:creator><dc:rights><cc:Agent><dc:title/></cc:Agent></dc:rights><dc:date>2022</dc:date><dc:format>image/svg+xml</dc:format><dc:type rdf:resource="http://purl.org/dc/dcmitype/StillImage"/><cc:license rdf:resource="http://creativecommons.org/licenses/by-sa/4.0/"><dc:date/></cc:license><dc:language/></cc:Work><cc:License rdf:about="http://creativecommons.org/licenses/by-sa/4.0/"><cc:permits rdf:resource="http://creativecommons.org/ns#Reproduction"/><cc:permits rdf:resource="http://creativecommons.org/ns#Distribution"/><cc:requires rdf:resource="http://creativecommons.org/ns#Notice"/><cc:requires rdf:resource="http://creativecommons.org/ns#Attribution"/><cc:permits rdf:resource="http://creativecommons.org/ns#DerivativeWorks"/><cc:requires rdf:resource="http://creativecommons.org/ns#ShareAlike"/></cc:License></rdf:RDF></metadata><g transform="translate(-1129.605 -285.42)" style="display:inline" id="layer2"><g id="BALLOON" transform="matrix(1.00303 0 0 1 1113.062 271.455)" style="display:inline"><g id="g3163"><ellipse ry="31.000137" rx="30.906401" cy="45.965591" cx="48.397125" id="path828" style="opacity:1;fill:#262b2d;fill-opacity:1;stroke:none;stroke-width:3.99396539;stroke-linecap:round;stroke-linejoin:round;stroke-miterlimit:4;stroke-dasharray:none;stroke-dashoffset:0;stroke-opacity:1"/><path id="path13406" d="m66.32 25.428-2.479-2.93-3.247-1.594-4.676-2.69-3.484-.715-3.471-.427-2.06.235-.763 1.48 2 1.504 2.571 1.913 1.305 1.39 3.47.427 2.809 1.034 3.102 1.456 2.952 1.173z" style="fill:#f2f2f2;fill-opacity:1;fill-rule:evenodd;stroke:none"/><path id="path13408" d="m68.496 37.05-1.873-4.836-2.76-3.062-3.523-1.582-4.494-1.684-2.375-.62-3.092 1.871-2.22 2.846 1.675 5.603 2.549 5.497 3.497 1.004 3.654 1.432 3.025-1.33 2.445-1.947 2.191-1.398z" style="fill:#f2f2f2;fill-opacity:1;fill-rule:evenodd;stroke:none"/><path id="path13410" d="m75.4 43.259-2.182-2.509-3.411-2.165-2.935 2.298-2.784 2.581-.894 1.63.148 3.322.319 4.037.379 2.298 2.654 1.724 2.592 1.333 2.363.372 1.983-1.968 1.204-3.959.739-5.095z" style="fill:#f2f2f2;fill-opacity:1;fill-rule:evenodd;stroke:none"/><path id="path13412" d="m69.592 61.597-.936-2.418-3.53-1.727-3.076-.878-3.413.873-3.532 1.311-2.698 1.42-1.518 3.105-1.749 4.127-.855 2.497 3.116 1.745 3.228 1.16 3.82-1.035 2.835-1.426 2.955-1.865 3.047-2.882z" style="fill:#f2f2f2;fill-opacity:1;fill-rule:evenodd;stroke:none"/><path id="path13416" d="m43.834 18.636-2.498.795-3.813 1.18-2.535 1.991-3.288.578 4.813-3.538 4.207-1.63 3.275-.867z" style="fill:#f2f2f2;fill-opacity:1;fill-rule:evenodd;stroke:none"/><path id="path13418" d="m33.242 24.708 2.043 4.536-2.838 4.465-2.595 3.73-.743 1.913-3.775 2.046-2.664-.896-.738-4.163 2.012-4.429 2.332-3.43 2.483-3.146 1.989-.844z" style="fill:#f2f2f2;fill-opacity:1;fill-rule:evenodd;stroke:none"/><path id="path13420" d="m21.187 41.29-1.021 4.963 1.287 7.178.956-6.408z" style="fill:#f2f2f2;fill-opacity:1;fill-rule:evenodd;stroke:none"/><path id="path13422" d="m36.658 69.258.478 1.426-1.916.373-6.578-5.065-3.973-5.468-1.84-4.115.605-1.908 5.542 3.52s1.651 2.965 2.386 3.946c.734.98 5.42 6.996 5.296 7.291z" style="fill:#f2f2f2;fill-opacity:1;fill-rule:evenodd;stroke:none"/><path id="path13424" d="m51.26 59.216-2.674-4.223-2.491-3.219-5.978-.896-5.84-.902-2.919 5.763.927 3.257 2.08 4.242 3.325 4.384 5.156 1.076 3.859-.168z" style="fill:#f2f2f2;fill-opacity:1;fill-rule:evenodd;stroke:none"/><path id="path13414" d="m50.249 42.768-2.563 4.452-2.102 2.407-3.865.024-4.49-.527-3.147-1.457-2.222-2.359-1.382-3.122.043-2.132 1.45-2.56 2.188-3.567 2.455-2.678 2.463-.58 4.56.09 1.817.5 2.569 4.951 2.226 6.558z" style="display:inline;fill:#f2f2f2;fill-opacity:1;fill-rule:evenodd;stroke:none"/></g></g></g></svg>