<svg xmlns:dc="http://purl.org/dc/elements/1.1/" xmlns:cc="http://creativecommons.org/ns#" xmlns:rdf="http://www.w3.org/1999/02/22-rdf-syntax-ns#" xmlns="http://www.w3.org/2000/svg" version="1.1" xml:space="preserve" height="128" width="128" id="svg638"><metadata id="metadata3599"><rdf:RDF><cc:Work><dc:format>image/svg+xml</dc:format><dc:type rdf:resource="http://purl.org/dc/dcmitype/StillImage"/><dc:title/><dc:date>2017</dc:date><dc:creator><cc:Agent><dc:title>Timothée Giet</dc:title></cc:Agent></dc:creator><cc:license rdf:resource="http://creativecommons.org/licenses/by-sa/4.0/"/></cc:Work><cc:License rdf:about="http://creativecommons.org/licenses/by-sa/4.0/"><cc:permits rdf:resource="http://creativecommons.org/ns#Reproduction"/><cc:permits rdf:resource="http://creativecommons.org/ns#Distribution"/><cc:requires rdf:resource="http://creativecommons.org/ns#Notice"/><cc:requires rdf:resource="http://creativecommons.org/ns#Attribution"/><cc:permits rdf:resource="http://creativecommons.org/ns#DerivativeWorks"/><cc:requires rdf:resource="http://creativecommons.org/ns#ShareAlike"/></cc:License></rdf:RDF></metadata><path id="path643" d="M127 54.224c0 30.895-28.206 55.94-63 55.94S1 85.12 1 54.225c0-22.205 33.456-36.389 61.95-36.389 29.544 0 64.05 16.356 64.05 36.389z" style="font-size:12px;fill:#ffce00;fill-opacity:1;fill-rule:evenodd;stroke-width:1.06849945"/><path id="path644" d="M127 54.224c0 30.895-28.206 55.94-63 55.94S1 85.12 1 54.225c0-22.205 33.456-36.389 61.95-36.389 29.544 0 64.05 16.356 64.05 36.389z" style="font-size:12px;fill:#f0a631;fill-opacity:1;fill-rule:evenodd;stroke-width:1.06849945"/><path id="path650" d="M124.136 53.467c0 29.375-26.895 53.188-60.072 53.188-33.177 0-60.072-23.813-60.072-53.188 0-21.112 31.9-34.598 59.07-34.598 28.172 0 61.074 15.551 61.074 34.598z" style="font-size:12px;fill:#f1ad41;fill-opacity:1;fill-rule:evenodd;stroke-width:1.01738143"/><path id="path652" d="M123.85 49.879c0 15.897-26.796 28.785-59.85 28.785S3.408 65.776 3.408 49.879C3.408 33.98 30.946 19.942 64 19.942s59.85 18.264 59.85 29.937z" style="font-size:12px;fill:#f7f0be;fill-opacity:1;fill-rule:evenodd;stroke-width:1.06849945"/><path id="path655" d="M75.219 75.985c-6.31 1.683-18.175 1.573-25.154.53-.34-4.864 5.305-17.008 13.614-22.394 9.636 6.95 11.54 16.93 11.54 21.864z" style="font-size:12px;fill:#f7de95;fill-opacity:1;fill-rule:evenodd;stroke-width:1.06849945"/><path id="path659" d="M100.28 69.065c-4.364 4.51-14.41 5.679-21.581 6.25-2.301-7.131-5.294-12.565-11.248-22.208 6.922-1.491 26.985 8.9 32.83 15.958z" style="font-size:12px;fill:#f7de95;fill-opacity:1;fill-rule:evenodd;stroke-width:1.06849945"/><path id="path660" d="M26.987 68.297c4.365 4.51 11.812 5.679 18.983 6.25 2.301-7.131 6.779-12.949 13.475-21.056-9.891-1.107-26.614 7.747-32.458 14.806z" style="font-size:12px;fill:#f7de95;fill-opacity:1;fill-rule:evenodd;stroke-width:1.06849945"/><path id="path661" d="M20.423 33.145c9.16 2.168 25.17 8.434 31.315 14.064-16.958 1.915-33.236 3.033-45.688 6.26-.125-11.304 6.15-17.95 14.373-20.324z" style="font-size:12px;fill:#f7de95;fill-opacity:1;fill-rule:evenodd;stroke-width:1.06849945"/><path id="path662" d="M104.185 31.609c-9.16 2.167-23.686 8.818-29.83 14.448 16.957 1.915 34.35 3.417 46.802 6.643.125-11.303-9.492-17.18-16.972-21.091z" style="font-size:12px;fill:#f7de95;fill-opacity:1;fill-rule:evenodd;stroke-width:1.06849945"/><path id="path663" d="M52.277 22.387c6.31-1.683 18.175-1.572 25.155-.53.339 4.864-5.306 17.009-13.614 22.394-9.637-6.949-11.54-16.929-11.54-21.864z" style="font-size:12px;fill:#f7de95;fill-opacity:1;fill-rule:evenodd;stroke-width:1.06849945"/><path id="path664" d="M99.91 30.033c-4.366-3.741-12.184-5.679-19.355-7.017-2.3 7.13-6.036 12.564-12.733 21.824C85.51 37.498 91.467 34.788 99.91 30.033z" style="font-size:12px;fill:#f7de95;fill-opacity:1;fill-rule:evenodd;stroke-width:1.06849945"/><path id="path665" d="M24.017 31.186c4.365-3.742 17.752-7.216 24.923-8.554 2.301 7.13 8.263 18.324 8.65 22.592-5.437 3.027-24.387-11.205-33.573-14.038z" style="font-size:12px;fill:#f7de95;fill-opacity:1;fill-rule:evenodd;stroke-width:1.06849945"/><path id="path666" d="M6.94 56.007c4.366 4.51 9.956 11.056 17.127 11.626 3.044-7.13 20.514-12.563 29.81-17.983-11.376.045-36.637 2.755-46.936 6.357z" style="font-size:12px;fill:#f7de95;fill-opacity:1;fill-rule:evenodd;stroke-width:1.06849945"/><path id="path667" d="M119.585 56.007c-4.365 4.51-9.956 11.056-17.127 11.626-3.044-7.13-20.514-12.563-29.81-17.983 11.377.045 36.638 2.755 46.937 6.357z" style="font-size:12px;fill:#f7de95;fill-opacity:1;fill-rule:evenodd;stroke-width:1.06849945"/></svg>