<svg xmlns:dc="http://purl.org/dc/elements/1.1/" xmlns:cc="http://creativecommons.org/ns#" xmlns:rdf="http://www.w3.org/1999/02/22-rdf-syntax-ns#" xmlns="http://www.w3.org/2000/svg" version="1.1" id="svg2" viewBox="0 0 128 128" height="128" width="128"><metadata id="metadata7"><rdf:RDF><cc:Work><dc:format>image/svg+xml</dc:format><dc:type rdf:resource="http://purl.org/dc/dcmitype/StillImage"/><dc:title/><dc:date>2022</dc:date><dc:creator><cc:Agent><dc:title>Timothée Giet</dc:title></cc:Agent></dc:creator><cc:license rdf:resource="http://creativecommons.org/licenses/by-sa/4.0/"/></cc:Work><cc:License rdf:about="http://creativecommons.org/licenses/by-sa/4.0/"><cc:permits rdf:resource="http://creativecommons.org/ns#Reproduction"/><cc:permits rdf:resource="http://creativecommons.org/ns#Distribution"/><cc:requires rdf:resource="http://creativecommons.org/ns#Notice"/><cc:requires rdf:resource="http://creativecommons.org/ns#Attribution"/><cc:permits rdf:resource="http://creativecommons.org/ns#DerivativeWorks"/><cc:requires rdf:resource="http://creativecommons.org/ns#ShareAlike"/></cc:License></rdf:RDF></metadata><g transform="translate(151.872 -673.456)" id="layer1"><g transform="translate(-147.872 677.43) scale(.23504)" id="g1040"><polygon transform="matrix(1.0421 0 0 1.0421 -10.749 -10.754)" style="fill:#a5a5a5;fill-opacity:1;stroke:none;stroke-width:.21600001" points="510.44,360.32 510.44,150.44 360.11,0.108 150.44,0.108 0.108,150.44 0.108,360.32 150.44,510.66 360.11,510.66" id="polygon1024-5"/><polygon style="fill:#f0f0f0;fill-opacity:1;stroke:none;stroke-width:.21600001" points="0.108,360.32 150.44,510.66 360.11,510.66 510.44,360.32 510.44,150.44 360.11,0.108 150.44,0.108 0.108,150.44" id="polygon1024"/><polygon style="fill:#e2222a;fill-opacity:1" points="159.73,487.98 350.82,487.98 487.76,350.82 487.76,159.73 350.82,22.788 159.73,22.788 22.788,159.73 22.788,350.82" id="polygon1026"/><path style="fill:#ed171f" d="M323.24 280.04v-49.248c0-13.464-10.728-24.192-23.904-24.192-13.464 0-24.192 10.728-24.192 24.192v49.248c0 13.248 10.728 24.192 24.192 24.192 13.18.01 23.9-10.94 23.9-24.19z" id="path1036"/><path style="fill:#ed171f" d="M423.32 242.24c9.72 0 17.568-7.848 17.568-17.568 0-9.504-7.848-17.568-17.352-17.568h-24.912v35.136h24.69z" id="path1038"/></g></g></svg>