<!--Generator: Adobe Illustrator 10.0, SVG Export Plug-In . SVG Version: 3.0.0 Build 77)--><svg xmlns:i="http://ns.adobe.com/AdobeIllustrator/10.0/" xmlns:dc="http://purl.org/dc/elements/1.1/" xmlns:cc="http://creativecommons.org/ns#" xmlns:rdf="http://www.w3.org/1999/02/22-rdf-syntax-ns#" xmlns="http://www.w3.org/2000/svg" xmlns:sodipodi="http://sodipodi.sourceforge.net/DTD/sodipodi-0.dtd" xmlns:inkscape="http://www.inkscape.org/namespaces/inkscape" i:rulerOrigin="0 0" i:viewOrigin="197 468" i:pageBounds="0 792 612 0" viewBox="0 0 217.444 144.397" overflow="visible" version="1.1" id="svg93" sodipodi:docname="pizza.svg" inkscape:version="0.92.1 r15371"><sodipodi:namedview pagecolor="#ffffff" bordercolor="#666666" borderopacity="1" objecttolerance="10" gridtolerance="10" guidetolerance="10" inkscape:pageopacity="0" inkscape:pageshadow="2" inkscape:window-width="1884" inkscape:window-height="1051" id="namedview95" showgrid="false" inkscape:zoom="3.2687659" inkscape:cx="39.276831" inkscape:cy="72.198502" inkscape:window-x="0" inkscape:window-y="0" inkscape:window-maximized="1" inkscape:current-layer="g88"/><g id="Layer_1" i:layer="yes" i:rgbTrio="#4F008000FFFF" i:dimmedPercent="50"><g stroke-miterlimit="10" id="g88" style="clip-rule:evenodd;fill-rule:evenodd;stroke:#000;stroke-width:.036;stroke-miterlimit:10"><path d="M129.15.019c-2.412.612-4.428 1.836-5.904 3.816-1.475 1.98-2.555 4.536-3.096 7.956-9.973 8.028-18.216 15.48-25.272 22.5-7.128 6.948-9.612 12.816-16.632 19.404-7.164 6.516-12.168 6.912-25.272 20.052-13.248 13.212-30.528 32.4-52.956 58.536l7.956 12.096c10.188-.359 25.02-1.332 45.324-2.771 20.34-1.512 49.068-3.78 75.492-6.229 26.387-2.592 52.992-5.544 81.359-9 1.08-1.008 2.232-2.34 3.457-4.14 1.188-1.908 2.412-3.924 3.814-6.588-1.08-6.588-2.627-12.708-4.5-19.044-2.051-6.372-4.355-12.96-6.912-18.36-2.592-5.436-5.363-8.604-8.314-13.824-3.096-5.328-4.176-10.62-10.045-17.676-6.084-7.236-15.875-17.064-25.631-24.912-9.91-7.883-20.63-15.011-32.88-21.815z" i:knockout="Off" id="path2" inkscape:connector-curvature="0" style="fill:#68431e;fill-opacity:1"/><path d="M3.119 132.61c6.768.72 16.344.611 29.412-.324 13.104-1.116 34.38-4.68 48.132-5.544 13.536-.864 19.368.936 32.904.684 13.572-.396 33.084-1.296 47.412-2.411 14.148-1.08 26.064-2.521 36.721-4.177 1.404-4.176 3.492-6.66 6.551-7.596 2.988-.972 6.805-.288 11.449 2.052l-6.229 10.044c-5.473.685-15.443 1.836-30.492 3.456-15.156 1.512-38.447 4.032-59.184 5.904-20.772 1.764-45.756 3.384-64.404 4.86a8941.735 8941.735 0 0 0-46.728 3.456c-1.841-3.45-3.677-6.91-5.549-10.4z" i:knockout="Off" id="path4" inkscape:connector-curvature="0" style="fill:#c27f3d;fill-opacity:1"/><path d="M2.794 130.88c5.112-4.859 10.764-10.8 17.64-18.359 6.84-7.668 15.012-18.54 22.86-26.641 7.668-8.172 16.884-16.56 23.184-21.816 6.12-5.292 9.972-5.832 14.184-9.684 4.068-3.996 7.812-9.468 11.088-13.5 3.348-4.068 3.888-5.724 9-10.404 5.148-4.716 11.916-10.548 21.132-17.64 2.375 2.556 5.904 5.688 10.729 9.684 4.859 3.888 12.527 8.784 18 13.86 5.363 5.148 9.719 11.592 14.184 16.272 4.355 4.428 9.467 6.012 12.131 10.728 2.592 4.788 1.152 12.708 3.457 17.64 2.305 4.823 7.92 7.271 10.043 11.088 2.018 3.744.9 6.516 2.053 11.088 1.008 4.536 2.447 9.504 4.176 15.588a574.558 574.558 0 0 1-39.131 4.5c-14.438 1.152-33.156 2.088-46.045 2.412-12.888.107-19.152-1.584-30.456-1.044-11.52.576-24.264 3.42-37.404 4.5-13.141 1.04-26.605 1.61-40.826 1.72z" i:knockout="Off" id="path6" inkscape:connector-curvature="0" style="fill:#e1c05a;fill-opacity:1"/><path d="M130.88 2.431c-2.484-.288-4.5.504-5.904 2.088-1.439 1.548-2.412 4.176-2.771 7.596 3.059 2.268 6.588 4.932 10.727 7.992 4.068 3.06 9.758 6.84 13.861 10.368 3.924 3.456 7.199 6.876 10.404 10.404 3.131 3.42 5.436 6.876 9 10.368 3.6 3.312 9.791 5.544 12.455 10.044 2.52 4.5 1.729 12.78 2.771 16.632.9 3.673 1.189 3.204 3.098 5.544 1.943 2.305 6.658 5.112 8.314 8.28 1.512 2.988-.252 5.868.686 10.044.898 4.141 2.268 9.108 4.5 14.904.143-3.78 1.691-5.977 4.5-6.588 2.844-.612 6.91.216 12.49 2.771-1.188-9.288-3.275-17.496-6.264-24.912-3.096-7.451-8.135-13.176-11.771-19.404-3.564-6.3-5.832-11.844-10.008-18-4.355-6.264-7.957-11.916-15.947-19.044-8.209-7.38-25.813-18.9-32.545-23.868-6.77-4.887-9.25-6.579-7.6-5.211z" i:knockout="Off" id="path8" inkscape:connector-curvature="0" style="fill:#a16121"/><path d="M92.435 90.02c-1.8-2.628-2.376-5.364-1.728-8.641.648-3.384 2.268-8.207 5.544-10.728 3.24-2.664 8.712-4.428 13.5-4.176 4.679.324 11.521 2.772 14.544 6.228 2.916 3.348 3.959 7.92 3.131 13.86-3.924-1.296-7.164-1.872-9.719-1.729-2.629.072-4.861 1.008-5.869 2.412-1.043 1.404-1.404 3.276-.684 5.904-4.068-2.196-7.056-3.168-9.36-2.772-2.304.396-3.636 1.872-4.14 4.86a8488.954 8488.954 0 0 0-5.215-5.218z" i:knockout="Off" id="path10" inkscape:connector-curvature="0" style="fill:#c84017;fill-opacity:1"/><path d="M93.119 87.967c-1.116-2.447-1.44-4.896-.684-7.632.684-2.808 1.8-6.66 4.86-8.64 2.952-2.052 8.424-3.96 12.817-3.492 4.355.396 10.26 3.06 13.139 5.904 2.736 2.808 3.889 6.336 3.457 10.728-1.836-1.368-4.068-2.016-6.553-2.088-2.699-.216-6.84.36-8.676 1.729-1.908 1.367-2.412 3.563-2.052 6.588-2.736-2.124-5.22-3.097-7.308-2.772-2.232.252-3.924 1.8-5.508 4.5-1.154-1.585-2.305-3.205-3.493-4.825z" i:knockout="Off" id="path12" inkscape:connector-curvature="0" style="fill:#eb4312;fill-opacity:1"/><path d="M137.11 88.291c.215 2.844 1.223 7.344 4.139 10.729 2.809 3.312 7.273 7.56 12.816 9 5.58 1.332 16.344 1.691 20.088-1.008 3.457-2.952 3.527-10.837 1.045-15.589-2.629-4.823-10.369-10.872-16.273-12.456-5.939-1.584-15.479 1.44-19.043 3.097-3.72 1.513-3.07 3.313-2.78 6.229z" i:knockout="Off" id="path14" inkscape:connector-curvature="0" style="fill:#c84017;fill-opacity:1"/><path d="M89.663 98.695c-2.304 2.771-4.428 4.428-6.228 4.824-1.908.359-4.032-.396-4.824-2.412-.936-2.124-1.584-5.725 0-9.685 1.656-4.067 4.752-8.676 9.684-14.22l-.684-5.184c-7.632 3.672-12.528 7.812-15.264 12.816-2.664 4.933-1.872 12.564-.684 16.632 1.044 3.925 4.572 5.797 7.272 7.272 2.664 1.476 6.804 2.952 8.676 1.368 1.835-1.66 2.375-5.51 2.052-11.415z" i:knockout="Off" id="path28" inkscape:connector-curvature="0" style="fill:#33590c;fill-opacity:1"/><path d="M37.066 90.379c3.6 2.412 7.884 3.24 13.14 2.772 5.22-.576 14.508-2.269 18-5.904 3.276-3.744 2.628-11.916 2.088-15.912-.612-3.96-2.196-6.66-5.184-7.956-8.316 7.92-14.688 14.148-19.404 18.684-4.68 4.464-7.56 7.236-8.64 8.316z" i:knockout="Off" id="path18" inkscape:connector-curvature="0" style="fill:#c84017;fill-opacity:1"/><path d="M40.522 90.379c2.124-2.844 5.184-6.264 9.324-10.403 4.104-4.212 9.144-9 15.264-14.508 1.944.684 3.204 2.34 3.78 5.508.576 3.06 1.116 9.504-.324 12.816-1.656 3.132-5.148 4.788-8.676 6.229-3.564 1.332-8.892 1.979-12.096 2.088-3.239.035-5.615-.542-7.272-1.73z" i:knockout="Off" id="path20" inkscape:connector-curvature="0" style="fill:#eb4312;fill-opacity:1"/><path d="M115.98 55.423c-2.305.036.936 6.768 4.176 10.044 3.205 3.312 8.137 8.316 14.508 9.324 6.264.828 19.584-2.772 22.861-4.14 2.986-1.476-.145-3.24-4.141-4.176-4.104-1.044-13.068 0-19.404-1.728-6.31-1.872-15.74-9.468-18.01-9.324z" i:knockout="Off" id="path22" inkscape:connector-curvature="0" style="fill:#33590c;fill-opacity:1"/><path d="M157.2 68.923c-2.592 1.296-5.76 2.376-9.361 3.096-3.779.72-8.387 2.161-12.455 1.404-4.068-.899-8.785-3.528-11.771-6.228-3.098-2.664-5.293-5.904-6.588-9.72 2.41 2.952 5.039 5.544 8.314 7.632 3.133 2.124 5.365 4.068 10.729 4.86 5.37.648 12.28.252 21.14-1.044z" i:knockout="Off" id="path24" inkscape:connector-curvature="0" style="fill:#4d8712;fill-opacity:1"/><path d="M119.11 57.835c2.986 2.484 6.047 4.392 9.322 5.868 3.168 1.404 5.869 2.052 10.045 2.772 4.141.648 9.107 1.116 14.904 1.404-4.033.648-7.775 1.044-11.088 1.044-3.348.072-5.652.144-9-1.044-3.564-1.476-9.432-5.184-11.771-6.948-2.34-1.764-3.24-2.664-2.41-3.096z" i:knockout="Off" id="path26" inkscape:connector-curvature="0" style="fill:#94e344;fill-opacity:1"/><path d="M87.935 103.52c.36 2.628.18 4.607-.684 5.544-.936.792-2.628 1.044-4.5.359-2.052-.756-4.752-2.304-6.588-3.815-1.764-1.548-2.988-2.664-3.816-4.86-.828-2.196-1.116-5.004-1.008-8.28.216 3.744 1.116 6.805 3.096 9.324 1.836 2.412 6.048 5.185 8.316 5.544 2.231.34 3.959-1.03 5.184-3.8z" i:knockout="Off" id="path30" inkscape:connector-curvature="0" style="fill:#4d8712;fill-opacity:1"/><path d="m87.935 101.43-.108 1.619c-.756 1.44-1.548 2.521-2.52 3.097-1.044.611-1.8.899-3.384.324-1.728-.828-4.824-2.7-6.372-4.5-1.512-1.944-2.556-4.032-2.988-6.265-.648-2.268-1.296-4.607-.54-7.02a16.992 16.992 0 0 1 4.5-8.028c2.484-2.52 5.76-4.86 10.224-7.02l.648 3.708c-2.448 2.376-4.536 4.896-6.264 7.703-1.944 2.7-3.744 5.904-4.284 8.784-.54 2.809.432 6.696 1.548 8.46 1.08 1.656 3.276 2.124 4.932 1.98 1.619-.1 3.06-1.15 4.608-2.84z" i:knockout="Off" id="path32" inkscape:connector-curvature="0" style="fill:#94e344;fill-opacity:1"/><path d="M31.522 104.92c6.876 3.276 12.564 6.624 17.64 10.044 5.04 3.385 8.892 6.841 12.132 10.368l6.552-8.315c-5.436-6.156-10.8-10.656-16.236-13.5-5.508-2.916-10.8-4.177-16.308-3.78-1.26 1.73-2.519 3.46-3.78 5.18z" i:knockout="Off" id="path34" inkscape:connector-curvature="0" style="fill:#33590c;fill-opacity:1"/><path d="M32.999 104.82c2.988 1.584 5.796 2.987 8.568 4.607 2.7 1.513 4.284 2.089 7.668 4.645 3.24 2.448 7.308 5.832 12.06 10.151l1.008-1.367a83.113 83.113 0 0 0-11.376-9.792c-4.032-2.845-9.252-5.364-12.168-6.876-2.916-1.62-4.68-2.448-5.292-2.484-.144.35-.288.71-.468 1.11z" i:knockout="Off" id="path36" inkscape:connector-curvature="0" style="fill:#94e344;fill-opacity:1"/><path d="m34.115 102.44 1.908-2.017c5.148.504 9.612 1.513 13.536 3.168 3.888 1.656 7.02 4.284 9.936 6.624 2.844 2.269 5.076 4.465 6.984 6.876l-3.96 5.185c-3.312-3.96-6.876-7.164-10.692-10.008-4.032-2.916-9.36-5.221-12.384-6.769-2.988-1.548-4.716-2.304-5.328-2.268v-.79z" i:knockout="Off" id="path38" inkscape:connector-curvature="0" style="fill:#4d8712;fill-opacity:1"/><path d="M132.93 121.59c1.189 1.044 2.988-3.743 3.313-6.983.145-3.313.432-8.424-2.051-12.132-2.629-3.816-10.945-9.108-13.141-10.044-2.305-1.009-1.584 1.584-.18 4.176 1.295 2.556 6.299 6.731 8.352 11.016 1.99 4.1 2.53 12.74 3.71 13.96z" i:knockout="Off" id="path40" inkscape:connector-curvature="0" style="fill:#33590c;fill-opacity:1"/><path d="M120.33 93.439c1.98.684 3.889 1.872 6.121 3.42 2.16 1.512 5.039 3.384 6.695 5.904 1.477 2.483 2.305 6.191 2.34 9.18.037 2.844-.611 5.544-1.943 8.1.359-2.735.504-5.363.035-8.027-.504-2.772-.395-4.824-2.592-7.956-2.27-3.12-5.72-6.614-10.66-10.611z" i:knockout="Off" id="path42" inkscape:connector-curvature="0" style="fill:#94e344;fill-opacity:1"/><path d="M132.72 118.78c-.217-2.771-.541-5.4-1.369-7.74-.826-2.447-1.764-4.14-3.348-6.588-1.656-2.556-3.744-5.399-6.408-8.532 2.305 1.765 4.213 3.601 5.869 5.364 1.512 1.764 2.809 2.664 3.744 5.22.863 2.448 1.764 7.381 2.016 9.505.26 2.1.04 2.93-.5 2.78z" i:knockout="Off" id="path44" inkscape:connector-curvature="0" style="fill:#4d8712;fill-opacity:1"/><path d="M138.3 88.363c.18 2.808 1.152 6.768 3.889 10.08 2.699 3.06 6.768 7.128 12.059 8.46 5.184 1.224 15.408 1.548 18.865-.972 3.348-2.809 3.311-10.152 1.008-14.652-2.557-4.572-9.756-10.152-15.336-11.736-5.652-1.476-14.438 1.404-17.893 2.952-3.39 1.333-2.96 3.241-2.6 5.869z" i:knockout="Off" id="path46" inkscape:connector-curvature="0" style="fill:#eb4312;fill-opacity:1"/><path d="M106.15 33.499c.18 2.376 1.044 6.3 3.564 9.144 2.485 2.844 6.12 6.372 10.909 7.668 4.824 1.152 13.859 1.368 17.1-.9 2.916-2.448 3.023-9.324.9-13.284-2.197-4.14-8.893-9.252-13.861-10.62-5.039-1.332-13.176 1.224-16.235 2.664-3.12 1.224-2.62 2.952-2.37 5.328z" i:knockout="Off" id="path48" inkscape:connector-curvature="0" style="fill:#c84017;fill-opacity:1"/><path d="M107.16 33.535c.108 2.304 1.08 5.868 3.347 8.604 2.305 2.664 5.725 6.084 10.26 7.2 4.32 1.008 13.248 1.332 16.094-.828 2.807-2.304 2.807-8.784.828-12.492-2.197-3.816-8.209-8.712-13.033-9.972-4.824-1.188-12.313 1.08-15.264 2.484-3 1.224-2.49 2.664-2.24 5.004z" i:knockout="Off" id="path50" inkscape:connector-curvature="0" style="fill:#eb4312;fill-opacity:1"/><path d="M125.16 31.735c-6.156 2.52-11.557 4.176-16.632 5.508-5.112 1.224-9.612 1.764-13.644 1.764l1.512 9c7.02-.036 13.032-.72 18.035-2.592 5.004-1.836 8.857-4.536 11.846-8.244-.37-1.8-.72-3.6-1.12-5.436z" i:knockout="Off" id="path52" inkscape:connector-curvature="0" style="fill:#33590c;fill-opacity:1"/><path d="M124.37 32.743c-2.773.972-5.365 2.052-7.92 2.844-2.629.72-3.924 1.548-7.381 2.196-3.528.612-7.92 1.332-13.464 1.872l.252 1.44c4.536-.18 8.784-.72 12.888-1.62 3.996-1.08 8.675-2.772 11.412-3.816 2.664-1.008 4.213-1.656 4.645-1.944-.15-.324-.29-.648-.43-.972z" i:knockout="Off" id="path54" inkscape:connector-curvature="0" style="fill:#94e344;fill-opacity:1"/><path d="m125.23 34.867.18 2.376c-3.348 3.024-6.48 5.256-9.828 6.84-3.42 1.548-6.948 1.908-10.007 2.484-3.096.54-5.904.576-8.424.504l-1.044-5.508c4.392.18 8.496-.216 12.6-1.044 4.032-.936 8.749-3.024 11.52-4.032 2.629-.972 4.176-1.8 4.5-2.088.15.144.33.288.51.468z" i:knockout="Off" id="path56" inkscape:connector-curvature="0" style="fill:#4d8712;fill-opacity:1"/><path d="M89.734 62.371c-1.764.972-3.312 1.152-5.04.54-1.728-.72-5.184-1.944-5.076-4.248-.072-2.34 1.476-8.496 5.328-9.576 3.852-1.224 14.508.72 17.82 2.916 3.168 2.16 2.772 8.496 1.584 10.116-1.224 1.548-4.14 1.224-8.748-.828-.828 1.08-.972 2.196-.288 3.744.612 1.512 1.944 3.06 3.996 5.04-1.008 1.764-2.34 2.916-4.536 3.456-2.16.504-4.86.288-8.244-.504.18-2.196.54-4.104 1.08-5.868.469-1.836 1.224-3.384 2.124-4.788z" i:knockout="Off" id="path58" inkscape:connector-curvature="0" style="fill:#926e2e;fill-opacity:1"/><path d="M98.411 70.183c-1.548.9-2.988 1.332-4.86 1.44-1.8.036-3.852-.252-6.012-1.008l-.36 2.088c1.404.359 2.628.54 3.96.685 1.26.035 2.484.071 3.672-.181 1.008-.36 2.304-1.044 2.916-1.512.54-.54.863-1.044.684-1.512z" i:knockout="Off" id="path60" inkscape:connector-curvature="0" style="fill:#948547"/><path d="M80.482 57.079c-.36.936-.288 1.728-.18 2.376.072.576.576 1.008 1.116 1.44.576.396 1.296.864 2.304 1.26.9.324 1.944.648 3.132.684.972-.108 2.016-.468 2.988-1.08l.18-.792c-1.368.432-2.664.684-3.744.756-1.152.072-2.088-.252-2.952-.576-.9-.504-1.656-1.152-2.268-2.088-.18-.648-.359-1.296-.576-1.98z" i:knockout="Off" id="path62" inkscape:connector-curvature="0" style="fill:#948547"/><path d="M95.818 60.895c1.188.54 2.232 1.08 3.276 1.332.936.216 2.088.432 2.916.36.828-.144 1.368-.576 1.908-1.152-1.692.144-3.096.108-4.356-.108-1.332-.216-2.232-.828-3.096-1.44a23.56 23.56 0 0 0-.65 1.008z" i:knockout="Off" id="path64" inkscape:connector-curvature="0" style="fill:#948547"/><path d="M98.086 69.931c-1.08-1.116-1.98-2.16-2.556-3.276-.72-1.152-1.332-2.34-1.152-3.564.072-1.26.9-2.52 2.088-3.924.396.612 1.188 1.08 2.52 1.404 1.332.324 3.024.468 5.364.576.36-.9.576-1.692.504-2.916-.18-1.296.18-2.772-1.008-4.032-1.26-1.332-3.168-2.52-6.12-3.276-3.06-.756-8.568-1.872-11.376-1.26-2.844.54-4.068 2.844-4.932 4.392-.9 1.404-.396 2.916 0 4.104.324 1.116 1.044 1.872 2.16 2.412 1.044.432 2.664.432 4.032.432 1.296-.144 2.448-.432 3.6-1.008-.216.288-.684 1.116-1.26 2.916-.576 1.692-1.404 4.068-2.34 7.272 1.908.648 3.744 1.08 5.508 1.008 1.735-.108 3.39-.432 4.974-1.26z" i:knockout="Off" id="path66" inkscape:connector-curvature="0" style="fill:#d9bc87"/><path d="M103.52 116.48c.18 2.34-.54 4.032-2.016 5.616-1.656 1.403-4.68 4.355-7.128 3.168-2.52-1.332-8.172-5.868-7.38-10.549.864-4.752 8.136-15.084 12.24-17.388 3.888-2.304 10.476 1.368 11.556 3.528 1.043 2.124-.793 4.896-5.364 8.855.648 1.44 1.908 2.053 3.78 2.232 1.909.144 4.284-.54 7.417-1.656 1.404 1.836 1.943 4.032 1.332 6.588-.648 2.521-2.197 5.292-4.789 8.46-2.23-1.332-4.067-2.664-5.651-4.14-1.62-1.55-2.95-2.99-4-4.72z" i:knockout="Off" id="path68" inkscape:connector-curvature="0" style="fill:#926e2e;fill-opacity:1"/><path d="M116.27 111.3c.182 2.017-.143 3.853-.971 5.904-.9 1.908-2.232 3.852-4.141 5.832l2.016 1.476c1.08-1.26 2.053-2.592 2.773-3.852.646-1.476 1.439-2.628 1.691-3.996.252-1.404.072-2.916-.107-3.852-.22-.9-.69-1.41-1.26-1.51z" i:knockout="Off" id="path70" inkscape:connector-curvature="0" style="fill:#948547"/><path d="M93.19 123.57c.828.756 1.62 1.224 2.376 1.404.684.107 1.296-.181 2.124-.469.72-.432 1.656-.972 2.52-1.764.828-.864 1.8-1.908 2.34-2.988.504-1.151.504-2.376.396-3.672l-.756-.647c-.216 1.691-.54 3.096-1.116 4.355a8.746 8.746 0 0 1-2.16 2.844c-.936.685-2.052 1.08-3.348 1.332a32.83 32.83 0 0 1-2.372-.38z" i:knockout="Off" id="path72" inkscape:connector-curvature="0" style="fill:#948547"/><path d="M105.11 109.24c1.296-.9 2.196-1.872 3.096-2.771.864-.973 1.44-1.98 1.872-2.881.217-.936.145-1.8-.215-2.592-.72 1.8-1.512 3.313-2.376 4.536-.972 1.188-2.016 1.98-3.132 2.521.25.39.5.79.76 1.18z" i:knockout="Off" id="path74" inkscape:connector-curvature="0" style="fill:#948547"/><path d="M115.83 111.51c-1.691.647-3.348.899-4.824 1.044-1.619.035-3.059.107-4.319-.612-1.188-.828-2.34-2.196-3.06-4.248.792-.072 1.764-.72 2.772-1.944.972-1.224 2.088-3.023 3.348-5.399-.648-.9-1.584-1.477-2.808-2.017-1.296-.576-2.952-1.655-4.824-1.008-2.016.54-4.32 2.088-6.624 4.788-2.412 2.7-6.336 8.172-7.2 11.412-.864 3.168.972 5.796 2.16 7.488 1.152 1.548 2.88 1.871 4.356 2.088 1.296.144 2.556-.145 3.636-1.008.936-.937 2.016-2.664 2.556-4.068.576-1.404.792-2.844.792-4.32.144.324.9 1.26 2.412 2.809 1.512 1.476 3.636 3.6 6.516 6.228 1.691-1.728 2.988-3.456 3.889-5.328.87-1.94 1.22-3.77 1.22-5.9z" i:knockout="Off" id="path76" inkscape:connector-curvature="0" style="fill:#ccb894"/><path d="M177.25 99.596c2.305.684 3.961 2.123 4.824 4.176.828 2.088 2.592 6.191.432 8.279-2.303 1.944-8.928 5.832-13.355 3.349-4.428-2.628-11.771-14.04-12.6-18.828-.756-4.932 5.291-9.937 7.883-10.152 2.412-.18 4.682 2.557 6.805 8.748 1.584-.18 2.844-1.116 3.637-2.952.828-1.943 1.188-4.428 1.223-7.991 2.449-.757 4.752-.36 7.057 1.188 2.34 1.512 4.355 4.176 6.588 7.992-2.16 1.656-4.211 2.952-6.299 4.032-2.11 1.006-4.13 1.726-6.18 2.159z" i:knockout="Off" id="path78" inkscape:connector-curvature="0" style="fill:#926e2e;fill-opacity:1"/><path d="M176.96 84.943c2.088.504 3.779 1.584 5.471 3.24 1.621 1.548 2.988 3.708 4.248 6.336l2.232-1.44c-.863-1.584-1.799-2.988-2.807-4.212-1.01-1.296-2.16-2.412-3.313-3.204-1.26-.792-2.916-1.296-3.852-1.368-1.01-.144-1.62.072-1.98.648z" i:knockout="Off" id="path80" inkscape:connector-curvature="0" style="fill:#948547"/><path d="M180.35 112.63c1.01-.576 1.908-1.188 2.305-1.836.359-.72.432-1.439.359-2.304-.107-.972-.322-2.124-.791-3.168-.432-1.188-1.26-2.628-2.088-3.492a6.904 6.904 0 0 0-3.527-1.8l-.9.54a14.963 14.963 0 0 1 3.887 2.771c.938 1.009 1.656 1.944 2.018 3.204.252 1.152.395 2.448.035 3.889-.45.72-.88 1.44-1.31 2.2z" i:knockout="Off" id="path82" inkscape:connector-curvature="0" style="fill:#948547"/><path d="M170.66 95.312c-.467-1.584-1.008-3.024-1.619-4.177-.613-1.296-1.369-2.34-2.125-2.987-.791-.648-1.727-.9-2.664-.756 1.512 1.332 2.809 2.699 3.602 4.104.756 1.332 1.295 2.7 1.332 4.104.46-.073.97-.181 1.47-.288z" i:knockout="Off" id="path84" inkscape:connector-curvature="0" style="fill:#948547"/><path d="M177 85.483c-.072 1.979-.287 3.528-.791 5.184-.576 1.513-1.008 3.061-2.268 4.068-1.297.828-3.098 1.439-5.4 1.439.215-.899-.072-2.016-.865-3.491-.863-1.513-2.23-3.313-4.104-5.4-1.152.216-2.088.936-3.096 2.016-1.115 1.009-2.664 2.196-2.844 4.393-.18 2.231.432 4.896 2.232 8.424 1.871 3.348 5.615 9.324 8.604 11.52 2.844 2.017 6.156 1.152 8.279.721 1.945-.54 3.025-2.269 3.781-3.528.684-1.368.756-2.664.359-4.032-.504-1.439-1.943-2.987-3.061-4.067-1.152-1.152-2.592-1.872-4.031-2.448.359-.036 1.656-.432 3.744-1.332 2.051-1.008 4.895-2.232 8.676-4.104-1.008-2.411-2.268-4.319-3.781-5.867-1.55-1.622-3.32-2.738-5.44-3.494z" i:knockout="Off" id="path86" inkscape:connector-curvature="0" style="fill:#ccb894;fill-opacity:1"/></g></g><metadata id="metadata91"><rdf:RDF><cc:Work><dc:format>image/svg+xml</dc:format><dc:type rdf:resource="http://purl.org/dc/dcmitype/StillImage"/><cc:license rdf:resource="http://creativecommons.org/licenses/publicdomain/"/><dc:publisher><cc:Agent rdf:about="http://openclipart.org/"><dc:title>Openclipart</dc:title></cc:Agent></dc:publisher><dc:title>Fast Food, Snack, Pizza, Pepperoni Mushroom</dc:title><dc:date>2007-11-26T20:08:10</dc:date><dc:description>This Clip Art is part of a fast food menu set. Search for &quot;fastfood&quot; to find all.</dc:description><dc:source>https://openclipart.org/detail/9086/fast-food-snack-pizza-pepperoni-mushroom-by-gerald_g</dc:source><dc:creator><cc:Agent><dc:title>Gerald_G</dc:title></cc:Agent></dc:creator><dc:subject><rdf:Bag><rdf:li>cheese</rdf:li><rdf:li>colouring book</rdf:li><rdf:li>dinner</rdf:li><rdf:li>fastfood</rdf:li><rdf:li>food</rdf:li><rdf:li>lunch</rdf:li><rdf:li>menu</rdf:li><rdf:li>mushroom</rdf:li><rdf:li>pepperoni</rdf:li><rdf:li>pizza</rdf:li><rdf:li>snack</rdf:li></rdf:Bag></dc:subject></cc:Work><cc:License rdf:about="http://creativecommons.org/licenses/publicdomain/"><cc:permits rdf:resource="http://creativecommons.org/ns#Reproduction"/><cc:permits rdf:resource="http://creativecommons.org/ns#Distribution"/><cc:permits rdf:resource="http://creativecommons.org/ns#DerivativeWorks"/></cc:License></rdf:RDF></metadata></svg>