<svg xmlns:dc="http://purl.org/dc/elements/1.1/" xmlns:cc="http://creativecommons.org/ns#" xmlns:rdf="http://www.w3.org/1999/02/22-rdf-syntax-ns#" xmlns="http://www.w3.org/2000/svg" version="1.1" id="svg2" height="128" width="128"><metadata id="metadata7"><rdf:RDF><cc:Work><dc:format>image/svg+xml</dc:format><dc:type rdf:resource="http://purl.org/dc/dcmitype/StillImage"/><dc:title/><dc:date>2022</dc:date><dc:creator><cc:Agent><dc:title>Timothée Giet</dc:title></cc:Agent></dc:creator><cc:license rdf:resource="http://creativecommons.org/licenses/by-sa/4.0/"/></cc:Work><cc:License rdf:about="http://creativecommons.org/licenses/by-sa/4.0/"><cc:permits rdf:resource="http://creativecommons.org/ns#Reproduction"/><cc:permits rdf:resource="http://creativecommons.org/ns#Distribution"/><cc:requires rdf:resource="http://creativecommons.org/ns#Notice"/><cc:requires rdf:resource="http://creativecommons.org/ns#Attribution"/><cc:permits rdf:resource="http://creativecommons.org/ns#DerivativeWorks"/><cc:requires rdf:resource="http://creativecommons.org/ns#ShareAlike"/></cc:License></rdf:RDF></metadata><g transform="translate(-52.546 -141.333)" id="layer1"><path id="path4476" d="m74.015 144.405 62.233 121.29 23.817-81.777z" style="fill:#ae60b4;fill-opacity:1;stroke:#6c3970;stroke-width:1.95979118;stroke-linecap:round;stroke-linejoin:miter;stroke-miterlimit:4;stroke-dasharray:none;stroke-opacity:1"/><g style="fill:#f0d652;fill-opacity:1;stroke:#6c3970;stroke-opacity:1" id="layer1-9" transform="matrix(.69177 0 0 .69177 -24.67 61.578)"><path style="fill:#f0d652;fill-opacity:1;stroke:#6c3970;stroke-width:9.07392597;stroke-linejoin:round;stroke-miterlimit:4;stroke-dasharray:none;stroke-opacity:1" id="path4555" d="M117.143 115.22 54.455 95.377 2.572 135.77 2.07 70.02l-54.448-36.863L10 12.362l18.233-63.174L67.286 2.087l65.716-2.182L94.76 53.393z" transform="matrix(.14763 .04568 -.039 .13475 209.212 211.397)"/></g><g style="fill:#f0d652;fill-opacity:1;stroke:#6c3970;stroke-opacity:1" id="layer1-9-3" transform="matrix(.4006 0 0 .44013 54.584 120.518)"><path style="fill:#f0d652;fill-opacity:1;stroke:#6c3970;stroke-width:9.07392597;stroke-linejoin:round;stroke-miterlimit:4;stroke-dasharray:none;stroke-opacity:1" id="path4555-9" d="M117.143 115.22 54.455 95.377 2.572 135.77 2.07 70.02l-54.448-36.863L10 12.362l18.233-63.174L67.286 2.087l65.716-2.182L94.76 53.393z" transform="matrix(.14763 .04568 -.039 .13475 209.212 211.397)"/></g><g style="fill:#f0d652;fill-opacity:1;stroke:#6c3970;stroke-opacity:1" id="layer1-9-5" transform="matrix(.41225 0 0 .45271 39.683 95.225)"><path style="fill:#f0d652;fill-opacity:1;stroke:#6c3970;stroke-width:9.07392597;stroke-linejoin:round;stroke-miterlimit:4;stroke-dasharray:none;stroke-opacity:1" id="path4555-3" d="M117.143 115.22 54.455 95.377 2.572 135.77 2.07 70.02l-54.448-36.863L10 12.362l18.233-63.174L67.286 2.087l65.716-2.182L94.76 53.393z" transform="matrix(.14763 .04568 -.039 .13475 209.212 211.397)"/></g><g style="fill:#f0d652;fill-opacity:1;stroke:#6c3970;stroke-opacity:1" id="layer1-9-5-1" transform="matrix(.57496 0 0 .61664 -20.726 38.353)"><path style="fill:#f0d652;fill-opacity:1;stroke:#6c3970;stroke-width:9.07392597;stroke-linejoin:round;stroke-miterlimit:4;stroke-dasharray:none;stroke-opacity:1" id="path4555-3-7" d="M117.143 115.22 54.455 95.377 2.572 135.77 2.07 70.02l-54.448-36.863L10 12.362l18.233-63.174L67.286 2.087l65.716-2.182L94.76 53.393z" transform="matrix(.14763 .04568 -.039 .13475 209.212 211.397)"/></g><g style="fill:#f0d652;fill-opacity:1;stroke:#6c3970;stroke-opacity:1" id="layer1-9-5-1-5" transform="matrix(.33077 0 0 .38979 62.229 93.81)"><path style="fill:#f0d652;fill-opacity:1;stroke:#6c3970;stroke-width:9.07392597;stroke-linejoin:round;stroke-miterlimit:4;stroke-dasharray:none;stroke-opacity:1" id="path4555-3-7-8" d="M117.143 115.22 54.455 95.377 2.572 135.77 2.07 70.02l-54.448-36.863L10 12.362l18.233-63.174L67.286 2.087l65.716-2.182L94.76 53.393z" transform="matrix(.14763 .04568 -.039 .13475 209.212 211.397)"/></g><g style="fill:#f0d652;fill-opacity:1;stroke:#6c3970;stroke-opacity:1" id="layer1-9-5-1-5-7" transform="matrix(.33077 0 0 .38979 37.597 99.75)"><path style="fill:#f0d652;fill-opacity:1;stroke:#6c3970;stroke-width:9.07392597;stroke-linejoin:round;stroke-miterlimit:4;stroke-dasharray:none;stroke-opacity:1" id="path4555-3-7-8-2" d="M117.143 115.22 54.455 95.377 2.572 135.77 2.07 70.02l-54.448-36.863L10 12.362l18.233-63.174L67.286 2.087l65.716-2.182L94.76 53.393z" transform="matrix(.14763 .04568 -.039 .13475 209.212 211.397)"/></g><g style="fill:#f0d652;fill-opacity:1;stroke:#6c3970;stroke-opacity:1" id="layer1-9-5-1-5-6" transform="matrix(.5164 0 0 .50346 33.412 82.013)"><path style="fill:#f0d652;fill-opacity:1;stroke:#6c3970;stroke-width:9.07392597;stroke-linejoin:round;stroke-miterlimit:4;stroke-dasharray:none;stroke-opacity:1" id="path4555-3-7-8-1" d="M117.143 115.22 54.455 95.377 2.572 135.77 2.07 70.02l-54.448-36.863L10 12.362l18.233-63.174L67.286 2.087l65.716-2.182L94.76 53.393z" transform="matrix(.14763 .04568 -.039 .13475 209.212 211.397)"/></g><g style="fill:#f0d652;fill-opacity:1;stroke:#6c3970;stroke-opacity:1" id="layer1-9-5-1-5-6-5" transform="matrix(.28334 0 0 .2897 57.553 109.273)"><path style="fill:#f0d652;fill-opacity:1;stroke:#6c3970;stroke-width:9.07392597;stroke-linejoin:round;stroke-miterlimit:4;stroke-dasharray:none;stroke-opacity:1" id="path4555-3-7-8-1-3" d="M117.143 115.22 54.455 95.377 2.572 135.77 2.07 70.02l-54.448-36.863L10 12.362l18.233-63.174L67.286 2.087l65.716-2.182L94.76 53.393z" transform="matrix(.14763 .04568 -.039 .13475 209.212 211.397)"/></g><g style="fill:#f0d652;fill-opacity:1;stroke:#6c3970;stroke-opacity:1" id="layer1-9-5-1-5-6-2" transform="matrix(.28334 0 0 .31484 62.794 113.896)"><path style="fill:#f0d652;fill-opacity:1;stroke:#6c3970;stroke-width:9.07392597;stroke-linejoin:round;stroke-miterlimit:4;stroke-dasharray:none;stroke-opacity:1" id="path4555-3-7-8-1-2" d="M117.143 115.22 54.455 95.377 2.572 135.77 2.07 70.02l-54.448-36.863L10 12.362l18.233-63.174L67.286 2.087l65.716-2.182L94.76 53.393z" transform="matrix(.14763 .04568 -.039 .13475 209.212 211.397)"/></g><g style="fill:#f0d652;fill-opacity:1;stroke:#6c3970;stroke-opacity:1" id="layer1-9-5-1-5-6-2-2" transform="matrix(.36467 0 0 .39052 36.088 113.565)"><path style="fill:#f0d652;fill-opacity:1;stroke:#6c3970;stroke-width:9.07392597;stroke-linejoin:round;stroke-miterlimit:4;stroke-dasharray:none;stroke-opacity:1" id="path4555-3-7-8-1-2-9" d="M117.143 115.22 54.455 95.377 2.572 135.77 2.07 70.02l-54.448-36.863L10 12.362l18.233-63.174L67.286 2.087l65.716-2.182L94.76 53.393z" transform="matrix(.14763 .04568 -.039 .13475 209.212 211.397)"/></g></g></svg>