<?xml version="1.0" encoding="UTF-8" standalone="no"?>
<!-- Created with Inkscape (http://www.inkscape.org/) -->

<svg
   xmlns:dc="http://purl.org/dc/elements/1.1/"
   xmlns:cc="http://creativecommons.org/ns#"
   xmlns:rdf="http://www.w3.org/1999/02/22-rdf-syntax-ns#"
   xmlns:svg="http://www.w3.org/2000/svg"
   xmlns="http://www.w3.org/2000/svg"
   xmlns:sodipodi="http://sodipodi.sourceforge.net/DTD/sodipodi-0.dtd"
   xmlns:inkscape="http://www.inkscape.org/namespaces/inkscape"
   id="svg2"
   sodipodi:docname="bowl3.svg"
   viewBox="0 0 128 128"
   version="1.1"
   inkscape:version="0.92.1 r15371"
   width="128"
   height="128">
  <defs
     id="defs4" />
  <sodipodi:namedview
     id="base"
     bordercolor="#666666"
     inkscape:pageshadow="2"
     inkscape:window-y="0"
     pagecolor="#ffffff"
     inkscape:window-height="1051"
     inkscape:window-maximized="1"
     inkscape:zoom="4"
     inkscape:window-x="0"
     showgrid="false"
     borderopacity="1.0"
     inkscape:current-layer="layer1"
     inkscape:cx="68.718988"
     inkscape:cy="62.60356"
     inkscape:showpageshadow="false"
     inkscape:window-width="1884"
     showborder="true"
     inkscape:pageopacity="0.0"
     inkscape:document-units="px"
     fit-margin-top="0"
     fit-margin-left="0"
     fit-margin-right="0"
     fit-margin-bottom="0"
     inkscape:snap-global="false" />
  <g
     id="layer1"
     inkscape:label="Layer 1"
     inkscape:groupmode="layer"
     transform="translate(-181.57867,-464.86215)">
    <path
       id="path3058-3"
       style="color:#000000;fill:#c87e23;fill-opacity:1;stroke-width:0.26302248"
       d="m 249.34348,490.67531 c -17.6492,-3.01035 -35.83061,-5.22628 -53.64549,-2.34134 -4.30029,1.04364 -10.70438,2.14952 -11.39361,7.47831 -5.72366,23.2079 3.10511,49.15343 21.81582,64.03437 18.56427,15.40338 46.24286,18.40177 67.66864,7.3082 19.35443,-9.54826 33.16879,-29.59003 34.78983,-51.14357 -2.2396,-6.10469 -8.85105,-8.92133 -14.18631,-11.81433 -14.23932,-6.69851 -29.63774,-10.61866 -45.0483,-13.5218 z"
       inkscape:connector-curvature="0" />
    <path
       id="path3058"
       style="color:#000000;fill:#e9b474;fill-opacity:1;stroke-width:0.24819522"
       d="m 249.13125,492.91473 c -16.65427,-2.84066 -33.81075,-4.93166 -50.62135,-2.20935 -4.05787,0.9848 -10.10095,2.02834 -10.75132,7.05674 -5.401,21.8996 2.93007,46.38251 20.586,60.42457 17.51775,14.53504 43.63602,17.36441 63.85398,6.89622 18.26336,-9.01001 31.29898,-27.92196 32.82863,-48.26047 -2.11335,-5.76055 -8.3521,-8.41841 -13.38659,-11.14832 -13.43661,-6.32091 -27.96699,-10.02006 -42.50881,-12.75954 z"
       inkscape:connector-curvature="0" />
    <g
       id="g2009"
       transform="matrix(0.97887708,0,0,0.97887708,5.9760488,9.7650024)">
      <path
         sodipodi:start="0"
         sodipodi:end="6.2755815"
         sodipodi:cx="216.34943"
         sodipodi:cy="495.86978"
         transform="matrix(0.99693666,0.07821316,0.01802963,0.99983745,0,0)"
         sodipodi:open="true"
         d="m 240.47497,495.86978 a 24.125547,17.333963 0 0 1 -24.07968,17.33393 24.125547,17.333963 0 0 1 -24.17124,-17.26803 24.125547,17.333963 0 0 1 23.98779,-17.39958 24.125547,17.333963 0 0 1 24.26244,17.20188"
         sodipodi:type="arc"
         style="fill:#2ac3c3;fill-opacity:1;fill-rule:evenodd;stroke-width:0.29918242"
         sodipodi:ry="17.333963"
         sodipodi:rx="24.125547"
         id="path2092-5" />
      <path
         sodipodi:start="0"
         sodipodi:end="6.2755815"
         sodipodi:cx="216.34943"
         sodipodi:cy="495.86978"
         transform="matrix(0.99693666,0.07821316,0.01802963,0.99983745,0,0)"
         sodipodi:open="true"
         d="m 238.05322,495.86978 a 21.703798,15.593962 0 0 1 -21.66254,15.59394 21.703798,15.593962 0 0 1 -21.7449,-15.53465 21.703798,15.593962 0 0 1 21.57987,-15.653 21.703798,15.593962 0 0 1 21.82695,15.47514"
         sodipodi:type="arc"
         style="fill:#47e8e8;fill-opacity:1;fill-rule:evenodd;stroke-width:0.26915017"
         sodipodi:ry="15.593962"
         sodipodi:rx="21.703798"
         id="path2092" />
      <path
         sodipodi:start="0"
         sodipodi:end="6.2755815"
         sodipodi:cx="315.89285"
         sodipodi:cy="431.17786"
         transform="matrix(0.97247822,0.23299379,-0.13839047,0.99037775,0,0)"
         sodipodi:open="true"
         d="m 337.5976,431.17786 a 21.704742,15.593791 0 0 1 -21.66349,15.59376 21.704742,15.593791 0 0 1 -21.74584,-15.53448 21.704742,15.593791 0 0 1 21.5808,-15.65282 21.704742,15.593791 0 0 1 21.8279,15.47497"
         sodipodi:type="arc"
         style="fill:#b8b517;fill-opacity:1;fill-rule:evenodd;stroke-width:0.26915458"
         sodipodi:ry="15.593791"
         sodipodi:rx="21.704742"
         id="path3634" />
      <path
         sodipodi:start="0"
         sodipodi:end="6.2755815"
         sodipodi:cx="316.32083"
         sodipodi:cy="430.57227"
         transform="matrix(0.97247822,0.23299379,-0.13839047,0.99037775,0,0)"
         sodipodi:open="true"
         d="m 335.68823,430.57227 a 19.367399,13.914525 0 0 1 -19.33058,13.9145 19.367399,13.914525 0 0 1 -19.40408,-13.8616 19.367399,13.914525 0 0 1 19.25681,-13.9672 19.367399,13.914525 0 0 1 19.47729,13.80849"
         sodipodi:type="arc"
         style="fill:#eae75a;fill-opacity:1;fill-rule:evenodd;stroke-width:0.24016984"
         sodipodi:ry="13.914525"
         sodipodi:rx="19.367399"
         id="path3634-6" />
      <path
         sodipodi:start="0"
         sodipodi:end="6.2755815"
         sodipodi:cx="288.59521"
         sodipodi:cy="475.6366"
         transform="matrix(0.98325047,0.18225948,-0.0868512,0.9962213,0,0)"
         sodipodi:open="true"
         d="m 312.07576,475.6366 a 23.480541,16.869566 0 0 1 -23.43591,16.86953 23.480541,16.869566 0 0 1 -23.52501,-16.8054 23.480541,16.869566 0 0 1 23.34647,-16.93342 23.480541,16.869566 0 0 1 23.61377,16.74101"
         sodipodi:type="arc"
         style="fill:#df543f;fill-opacity:1;fill-rule:evenodd;stroke-width:0.29117534"
         sodipodi:ry="16.869566"
         sodipodi:rx="23.480541"
         id="path2874" />
      <path
         sodipodi:start="0"
         sodipodi:end="6.2755815"
         sodipodi:cx="288.59521"
         sodipodi:cy="475.6366"
         transform="matrix(0.98325047,0.18225948,-0.0868512,0.9962213,0,0)"
         sodipodi:open="true"
         d="m 309.70633,475.6366 a 21.111115,15.167254 0 0 1 -21.07098,15.16722 21.111115,15.167254 0 0 1 -21.1511,-15.10956 21.111115,15.167254 0 0 1 20.99057,-15.22467 21.111115,15.167254 0 0 1 21.2309,15.05168"
         sodipodi:type="arc"
         style="fill:#e27564;fill-opacity:1;fill-rule:evenodd;stroke-width:0.26179278"
         sodipodi:ry="15.167254"
         sodipodi:rx="21.111115"
         id="path2874-7" />
      <path
         sodipodi:start="0"
         sodipodi:end="6.2755815"
         sodipodi:cx="580.9859"
         sodipodi:cy="4.6322894"
         transform="matrix(0.46535986,0.88512157,-0.83626817,0.54832066,0,0)"
         sodipodi:open="true"
         d="M 602.68976,4.6322894 A 21.703856,15.593307 0 0 1 581.02716,20.225568 21.703856,15.593307 0 0 1 559.2822,4.6915735 a 21.703856,15.593307 0 0 1 21.57993,-15.6523375 21.703856,15.593307 0 0 1 21.827,15.4744861"
         sodipodi:type="arc"
         style="fill:#3f3ebd;fill-opacity:1;fill-rule:evenodd;stroke-width:0.26914489"
         sodipodi:ry="15.593307"
         sodipodi:rx="21.703856"
         id="path3636" />
      <path
         sodipodi:start="0"
         sodipodi:end="6.2755815"
         sodipodi:cx="583.8092"
         sodipodi:cy="-10.747195"
         transform="matrix(0.44197001,0.89702982,-0.81936149,0.57327719,0,0)"
         sodipodi:open="true"
         d="m 604.46108,-10.747195 a 20.65188,14.382514 0 0 1 -20.61262,14.3824878 20.65188,14.382514 0 0 1 -20.69099,-14.3278068 20.65188,14.382514 0 0 1 20.53396,-14.436961 20.65188,14.382514 0 0 1 20.76906,14.272919"
         sodipodi:type="arc"
         style="fill:#6462d4;fill-opacity:1;fill-rule:evenodd;stroke-width:0.25214234"
         sodipodi:ry="14.382514"
         sodipodi:rx="20.65188"
         id="path3636-3" />
    </g>
    <path
       id="path4808"
       style="color:#000000;fill:#e3a253;fill-opacity:1;stroke-width:0.24819522"
       d="m 187.74542,497.76097 c -5.40098,21.89961 2.92884,46.3823 20.584,60.42169 17.51775,14.53504 43.64099,17.36481 63.85647,6.89642 17.51858,-8.64265 30.22097,-26.3981 32.57896,-45.78055 -0.0691,0.18963 -0.1667,0.36817 -0.30287,0.53604 -3.45899,4.23127 -9.49497,4.68442 -14.52587,5.5002 -18.45965,1.77586 -37.05687,-0.84647 -55.10109,-4.675 -14.02525,-3.31506 -28.28514,-7.18567 -40.60223,-14.91096 -2.82809,-2.09859 -7.12633,-4.9213 -6.24251,-8.99249 0.24491,0.0571 -0.004,-0.72643 -0.24631,1.00363 z"
       inkscape:connector-curvature="0" />
    <path
       inkscape:connector-curvature="0"
       style="fill:#c87e23;fill-opacity:1;stroke-width:0.24819522"
       d="m 189.7256,494.06047 c -0.65424,0.48049 -1.57146,1.15511 -1.57146,1.15511 -0.61337,0.23437 -1.16977,0.37499 -1.34685,1.33134 0.002,0.13232 -1.51178,0.94788 -1.03871,2.6588 6.00454,25.5727 117.47307,37.59765 120.70499,22.03762 0.0995,-0.50273 0.15773,-0.96066 0.1807,-1.37977 0.48298,-1.04969 0.70262,-1.87725 -0.33548,-2.36481 -0.45385,-1.13186 -1.28219,-1.82905 -2.05327,-2.52617 -2.74848,19.39844 -119.01685,2.35116 -114.53999,-20.91205 z"
       id="path7923" />
  </g>
  <metadata
     id="metadata11">
    <rdf:RDF>
      <cc:Work>
        <dc:format>image/svg+xml</dc:format>
        <dc:type
           rdf:resource="http://purl.org/dc/dcmitype/StillImage" />
        <cc:license
           rdf:resource="http://creativecommons.org/publicdomain/zero/1.0/" />
        <dc:publisher>
          <cc:Agent
             rdf:about="http://openclipart.org/">
            <dc:title>Openclipart</dc:title>
          </cc:Agent>
        </dc:publisher>
        <dc:title></dc:title>
        <dc:date>2010-08-29T20:18:14</dc:date>
        <dc:description>a brown geometrical cone</dc:description>
        <dc:source>https://openclipart.org/detail/82747/brown-cone-by-mireille</dc:source>
        <dc:creator>
          <cc:Agent>
            <dc:title>mireille</dc:title>
          </cc:Agent>
        </dc:creator>
        <dc:subject>
          <rdf:Bag>
            <rdf:li>brown</rdf:li>
            <rdf:li>cone</rdf:li>
            <rdf:li>geometry</rdf:li>
          </rdf:Bag>
        </dc:subject>
      </cc:Work>
      <cc:License
         rdf:about="http://creativecommons.org/publicdomain/zero/1.0/">
        <cc:permits
           rdf:resource="http://creativecommons.org/ns#Reproduction" />
        <cc:permits
           rdf:resource="http://creativecommons.org/ns#Distribution" />
        <cc:permits
           rdf:resource="http://creativecommons.org/ns#DerivativeWorks" />
      </cc:License>
    </rdf:RDF>
  </metadata>
</svg>
