<?xml version="1.0" encoding="UTF-8" standalone="no"?>
<!-- Generator: Adobe Illustrator 10.0, SVG Export Plug-In . SVG Version: 3.0.0 Build 77)  -->

<svg
   xmlns:i="http://ns.adobe.com/AdobeIllustrator/10.0/"
   xmlns:dc="http://purl.org/dc/elements/1.1/"
   xmlns:cc="http://creativecommons.org/ns#"
   xmlns:rdf="http://www.w3.org/1999/02/22-rdf-syntax-ns#"
   xmlns:svg="http://www.w3.org/2000/svg"
   xmlns="http://www.w3.org/2000/svg"
   xmlns:sodipodi="http://sodipodi.sourceforge.net/DTD/sodipodi-0.dtd"
   xmlns:inkscape="http://www.inkscape.org/namespaces/inkscape"
   i:rulerOrigin="0 0"
   i:viewOrigin="251 490"
   space="preserve"
   i:pageBounds="0 792 612 0"
   viewBox="0 0 128 128"
   enable-background="new 0 0 109.26 189.854"
   overflow="visible"
   id="svg2"
   version="1.1"
   inkscape:version="0.92.1 r15371"
   sodipodi:docname="can.svg"
   width="128"
   height="128"
   style="overflow:visible">
  <defs
     id="defs37" />
  <sodipodi:namedview
     pagecolor="#ffffff"
     bordercolor="#666666"
     borderopacity="1"
     objecttolerance="10"
     gridtolerance="10"
     guidetolerance="10"
     inkscape:pageopacity="0"
     inkscape:pageshadow="2"
     inkscape:window-width="1884"
     inkscape:window-height="1051"
     id="namedview35"
     showgrid="false"
     fit-margin-top="0"
     fit-margin-left="0"
     fit-margin-right="0"
     fit-margin-bottom="0"
     inkscape:zoom="3.7023882"
     inkscape:cx="68.514891"
     inkscape:cy="49.864374"
     inkscape:window-x="0"
     inkscape:window-y="0"
     inkscape:window-maximized="1"
     inkscape:current-layer="g5"
     showborder="true" />
  <g
     id="Layer_1"
     i:layer="yes"
     i:rgbTrio="#4F008000FFFF"
     i:dimmedPercent="50"
     transform="matrix(0.62400966,0.07761003,-0.07761003,0.62400966,38.008406,0.40963463)">
    <g
       stroke-miterlimit="10"
       id="g5"
       style="clip-rule:evenodd;fill-rule:evenodd;stroke:#000000;stroke-width:0.036;stroke-miterlimit:10">
      <path
         d="m 6.102,19.206 c -2.232,2.88 -3.852,6.372 -4.86,10.62 -1.11600002,4.248 -1.15200002,2.916 -1.22400002,14.76 -0.108,11.916 0.648,39.564 0.9,55.584 0.072,15.732 0.036,27.145 0.32400002,38.809 0.252,11.663 -1.29600002,23.292 1.584,30.852 2.988,7.38 8.352,10.152 15.66,13.464 7.128,3.276 16.848,5.04 26.784,5.977 9.828,0.792 22.104,1.079 31.824005,-1.08 9.576,-2.341 19.98,-8.856 25.379995,-12.349 5.292,-3.563 4.752,-3.815 6.013,-8.676 0.972,-5.04 0.756,-7.56 0.756,-20.88 -0.145,-13.608 -0.324,-42.66 -0.685,-59.112 -0.359,-16.452 -0.792,-29.016 -1.151,-38.232 -0.433,-9.144 -0.108,-11.16 -1.368,-16.2 -1.332,-5.148 -3.601,-9.756 -6.659995,-14.22 0.144,-1.008 0.324,-2.016 0.54,-3.456 C 100.026,13.627 100.171,12.043 100.351,10.171 96.859005,6.823 91.496005,4.303 84.116005,2.611 76.519005,0.92500003 66.799,-0.26299997 56.071,0.02500003 45.235,0.24100003 28.711,1.573 20.251,4.021 11.827,6.361 7.075,9.709 5.851,14.209 c 0.072,1.656 0.144,3.312 0.252,5.004 z"
         i:knockout="Off"
         id="path7"
         inkscape:connector-curvature="0"
         style="fill:#2f2f2f;fill-opacity:1" />
      <path
         d="M 50.202,10.098 C 47.142,7.938 44.154,6.426 41.382,5.13 38.466,3.798 35.514,3.006 33.354,2.61 31.158,2.25 29.466,2.538 28.278,2.934 c -1.152,0.288 -1.656,0.612 -2.052,1.26 -0.648,0.504 -1.368,1.152 -1.188,2.232 0.18,1.08 0.36,2.628 2.196,4.068 1.656,1.296 4.356,2.952 8.1,3.996 3.78,0.972 8.46,1.476 14.328,1.656 -1.224,-1.296 -1.764,-2.376 -1.62,-3.384 0.036,-1.008 0.756,-1.944 2.16,-2.664 z"
         i:knockout="Off"
         id="path9"
         inkscape:connector-curvature="0"
         style="fill:#c0c0c0" />
      <path
         d="M 46.854,9.558 C 40.086,6.39 35.478,4.554 32.49,4.446 c -2.988,-0.216 -3.6,2.628 -3.204,3.96 0.396,1.296 2.196,2.7 5.256,3.816 2.952,0.972 7.02,1.944 12.348,2.52 -1.656,-1.476 -2.484,-2.52 -2.484,-3.42 -0.072,-0.828 0.792,-1.512 2.448,-1.764 z"
         i:knockout="Off"
         id="path11"
         inkscape:connector-curvature="0"
         style="fill:#2f2f2f;fill-opacity:1" />
      <path
         d="m 53.37,9.882 c -0.9,0.324 -2.232,1.044 -2.484,2.16 -0.324,1.188 -0.936,3.564 0.396,4.788 1.26,1.008 5.041,2.34 6.876,1.656 1.691,-0.828 3.42,-4.428 3.239,-5.94 C 61.038,11.034 57.582,9.882 56.286,9.486 54.954,8.946 54.162,9.45 53.37,9.882 Z"
         i:knockout="Off"
         id="path13"
         inkscape:connector-curvature="0"
         style="fill:#c0c0c0" />
      <path
         d="m 54.558,12.222 c -0.756,0.252 -1.044,2.052 -0.576,2.772 0.432,0.648 2.124,1.404 2.988,1.152 0.792,-0.36 1.692,-2.304 1.44,-2.916 -0.504,-0.72 -3.132,-1.332 -3.852,-1.008 z"
         i:knockout="Off"
         id="path15"
         inkscape:connector-curvature="0"
         style="fill:#c0c0c0" />
      <path
         d="m 76.698,19.818 c 2.195,-0.108 3.708,-0.72 4.68,-1.692 0.972,-1.116 1.62,-3.384 0.828,-4.464 -0.864,-1.08 -2.844,-1.908 -6.084,-2.088 -3.42,-0.216 -8.028,-0.18 -14.112,0.504 0.036,-0.972 -0.36,-1.62 -1.332,-2.34 -1.044,-0.756 -2.952,-1.692 -4.32,-1.692 -1.439,-0.108 -2.7,0.36 -3.923,1.404 L 49.663,8.01 c 1.224,-0.864 3.924,-1.44 8.1,-1.584 4.248,-0.288 11.34,-0.36 16.813,0.468 5.399,0.72 11.88,2.952 15.012,4.356 2.844,1.26 4.716,2.592 2.556,3.996 -2.27,1.44 -7.238,2.916 -15.446,4.572 z"
         i:knockout="Off"
         id="path17"
         inkscape:connector-curvature="0"
         style="fill:#c0c0c0" />
      <path
         d="m 48.69,16.866 c -0.36,0 0.036,0.288 1.044,0.72 1.044,0.468 3.132,1.584 5.148,1.836 1.98,0.072 3.996,-0.216 6.444,-1.008 0.071,0.324 0.72,0.756 1.943,1.152 1.188,0.396 2.845,0.756 5.112,1.224 -2.34,0.216 -5.328,0.36 -9.252,0.576 -4.068,0.144 -8.856,0.54 -14.076,0.504 -5.256,-0.072 -11.376,-0.432 -16.848,-1.08 -5.508,-0.864 -10.8,-1.944 -16.02,-3.636 -0.144,-1.188 0.72,-2.376 2.88,-3.708 2.124,-1.368 5.292,-2.628 9.648,-4.068 1.98,2.016 4.068,3.564 6.696,4.788 2.484,1.152 5.544,1.8 8.496,2.34 2.917,0.36 5.797,0.612 8.785,0.36 z"
         i:knockout="Off"
         id="path19"
         inkscape:connector-curvature="0"
         style="fill:#c0c0c0" />
      <path
         d="m 39.87,3.042 c 4.644,-0.756 8.856,-1.08 13.068,-1.368 4.104,-0.36 7.127,-0.288 11.592,-0.072 4.319,0.252 10.584,0.972 14.615,1.584 3.96,0.54 6.372,0.792 9.181,1.728 2.771,0.864 5.544,2.232 7.199,3.276 1.513,0.9 2.089,1.584 2.017,2.592 -0.18,0.9 -1.008,1.944 -2.772,3.132 -0.252,-1.296 -1.764,-2.556 -4.14,-3.78 C 88.218,8.766 84.69,7.398 80.046,6.462 75.186,5.418 67.554,4.914 62.01,4.806 56.358,4.734 51.462,5.274 46.782,6.282 Z"
         i:knockout="Off"
         id="path21"
         inkscape:connector-curvature="0"
         style="fill:#c0c0c0" />
      <path
         d="m 23.994,3.834 c -1.584,0.216 -3.528,0.864 -5.832,1.8 -2.484,1.008 -6.516,2.448 -8.208,3.888 -1.764,1.332 -2.016,2.52 -1.872,3.708 0.144,1.008 1.152,1.872 2.88,2.592 -0.54,-0.864 0.288,-1.836 2.484,-3.06 2.196,-1.26 5.652,-2.52 10.512,-4.068 C 23.49,8.046 23.274,7.254 23.31,6.462 23.238,5.634 23.598,4.806 23.994,3.834 Z"
         i:knockout="Off"
         id="path23"
         inkscape:connector-curvature="0"
         style="fill:#c0c0c0" />
      <path
         d="m 7.038,13.626 c -0.324,0.108 -0.324,0.612 -0.396,1.512 0.036,0.864 0,2.124 0.288,3.78 2.196,1.512 4.86,2.592 8.136,3.672 3.24,0.864 6.48,1.548 11.232,2.196 4.608,0.684 11.304,1.368 16.596,1.764 5.112,0.252 8.352,0.288 14.58,-0.036 6.265,-0.288 15.408,-0.648 22.428,-1.764 6.841,-1.332 12.816,-3.096 18.36,-5.688 l 1.152,-7.416 c -1.368,2.196 -3.708,3.888 -7.164,5.472 -3.564,1.404 -8.676,2.556 -13.536,3.456 -5.004,0.864 -10.764,1.332 -15.732,1.8 -4.896,0.396 -8.711,0.54 -13.68,0.576 C 44.19,22.842 37.458,22.554 32.706,22.23 27.882,21.834 24.102,21.294 20.538,20.61 16.83,19.782 13.374,18.666 11.142,17.55 8.874,16.326 7.506,15.066 7.038,13.626 Z"
         i:knockout="Off"
         id="path25"
         inkscape:connector-curvature="0"
         style="fill:#c0c0c0" />
      <path
         d="m 6.642,20.142 c -1.296,2.556 -2.268,5.04 -3.06,7.452 -0.792,2.376 -1.296,3.564 -1.656,6.912 -0.54,3.24 -1.08,7.344 -1.08,12.888 0,5.508 0.144,12.168 0.828,20.124 9.972,6.192 17.856,9.432 23.796,9.576 5.904,-0.036 5.508,-10.08 11.592,-8.748 5.976,1.404 19.404,17.172 24.335,17.028 4.752,-0.324 0.181,-18.54 4.608,-18.54 4.464,-0.108 17.352,18.468 21.852,18.36 4.284,-0.216 1.152,-18 4.356,-19.188 3.276,-1.152 8.064,2.664 14.904,11.988 -0.108,-5.292 -0.252,-10.692 -0.433,-16.488 -0.216,-5.94 -0.468,-13.212 -0.756,-18.072 -0.359,-4.86 -0.216,-6.732 -1.368,-10.62 -1.26,-3.924 -3.239,-8.136 -5.939,-12.636 -3.672,2.124 -8.208,3.852 -14.04,5.184 -5.868,1.296 -12.924,2.124 -20.628,2.628 -7.92,0.396 -17.532,0.72 -25.524,0.144 C 30.365,27.486 22.121,25.578 16.757,24.354 11.358,22.986 8.118,21.582 6.642,20.142 Z"
         i:knockout="Off"
         id="path27"
         inkscape:connector-curvature="0"
         style="fill:#e62e2e;fill-opacity:1" />
      <path
         d="m 1.566,70.506 0.72,37.729 c 15.012,5.796 25.056,8.027 30.564,6.3 5.436,-1.908 -4.104,-16.056 1.8,-16.344 5.832,-0.145 26.568,15.336 32.904,15.336 6.192,-0.252 -0.684,-16.164 4.212,-15.948 4.896,0.36 20.7,17.532 24.624,17.64 3.744,-0.144 -4.392,-16.56 -2.34,-17.748 1.944,-1.044 6.552,2.448 13.968,11.053 L 107.19,80.084 C 101.142,71.84 96.571,68.456 93.474,69.788 90.342,71.192 92.863,88.04 88.542,88.112 84.006,88.004 71.262,69.824 67.266,69.68 c -3.96,-0.144 0,15.588 -2.412,17.748 C 62.19,89.516 56.827,85.16 52.218,82.424 47.466,79.508 40.986,71.084 37.242,70.616 33.498,70.22 33.282,78.824 29.934,80.048 26.442,81.092 21.69,78.824 16.938,77.276 12.186,75.694 7.11,73.39 1.566,70.51 Z"
         i:knockout="Off"
         id="path29"
         inkscape:connector-curvature="0"
         style="fill:#eeeeee;fill-opacity:1" />
      <path
         d="m 107.59,111.19 c -6.48,-8.641 -10.332,-12.492 -11.412,-11.412 -1.224,0.972 4.716,14.363 4.608,17.531 -0.145,3.097 -0.648,3.925 -5.257,1.08 -4.787,-2.987 -18.504,-17.208 -22.392,-18.647 -3.816,-1.404 0.036,6.768 -0.396,9.792 -0.469,2.771 0.504,6.948 -2.628,7.128 -3.385,0 -11.089,-3.744 -16.597,-6.372 -5.652,-2.7 -12.852,-8.532 -15.912,-9.288 -2.952,-0.72 -1.8,2.232 -1.692,4.824 0.072,2.556 2.736,8.208 1.764,10.296 -1.152,2.016 -2.52,2.592 -8.388,1.728 -6.012,-0.972 -14.832,-3.348 -27,-7.271 0.072,11.34 0.36,21.527 0.468,30.852 0.072,9.324 0.36,17.353 0.468,24.66 5.22,5.256 11.88,9.288 20.376,12.24 8.532,2.916 20.952,4.68 30.168,5.292 9.108,0.468 15.265,0.252 24.156,-2.448 8.892,-2.844 18.108,-7.523 28.476,-14.328 0.685,-11.34 0.973,-21.348 1.261,-30.708 0.11,-9.37 0.21,-17.54 -0.07,-24.95 z"
         i:knockout="Off"
         id="path31"
         inkscape:connector-curvature="0"
         style="fill:#e62e2e;fill-opacity:1" />
    </g>
  </g>
  <metadata
     id="metadata33">
    <rdf:RDF>
      <cc:Work>
        <dc:format>image/svg+xml</dc:format>
        <dc:type
           rdf:resource="http://purl.org/dc/dcmitype/StillImage" />
        <cc:license
           rdf:resource="http://creativecommons.org/publicdomain/zero/1.0/" />
        <dc:publisher>
          <cc:Agent
             rdf:about="http://openclipart.org/">
            <dc:title>Openclipart</dc:title>
          </cc:Agent>
        </dc:publisher>
        <dc:title>Fast Food, Drinks, Soda, Can</dc:title>
        <dc:date>2007-11-26T20:55:09</dc:date>
        <dc:description>This Clip Art is part of a fast food menu set. Search for &quot;fastfood&quot; to find all.</dc:description>
        <dc:source>https://openclipart.org/detail/9150/fast-food-drinks-soda-can-by-gerald_g</dc:source>
        <dc:creator>
          <cc:Agent>
            <dc:title>Gerald_G</dc:title>
          </cc:Agent>
        </dc:creator>
        <dc:subject>
          <rdf:Bag>
            <rdf:li>can</rdf:li>
            <rdf:li>colouring book</rdf:li>
            <rdf:li>dinner</rdf:li>
            <rdf:li>drink</rdf:li>
            <rdf:li>fastfood</rdf:li>
            <rdf:li>food</rdf:li>
            <rdf:li>lunch</rdf:li>
            <rdf:li>menu</rdf:li>
            <rdf:li>soda</rdf:li>
          </rdf:Bag>
        </dc:subject>
      </cc:Work>
      <cc:License
         rdf:about="http://creativecommons.org/publicdomain/zero/1.0/">
        <cc:permits
           rdf:resource="http://creativecommons.org/ns#Reproduction" />
        <cc:permits
           rdf:resource="http://creativecommons.org/ns#Distribution" />
        <cc:permits
           rdf:resource="http://creativecommons.org/ns#DerivativeWorks" />
      </cc:License>
    </rdf:RDF>
  </metadata>
</svg>
