<?xml version="1.0" encoding="UTF-8" standalone="no"?>
<!-- Created with Inkscape (http://www.inkscape.org/) -->

<svg
   xmlns:dc="http://purl.org/dc/elements/1.1/"
   xmlns:cc="http://creativecommons.org/ns#"
   xmlns:rdf="http://www.w3.org/1999/02/22-rdf-syntax-ns#"
   xmlns:svg="http://www.w3.org/2000/svg"
   xmlns="http://www.w3.org/2000/svg"
   xmlns:sodipodi="http://sodipodi.sourceforge.net/DTD/sodipodi-0.dtd"
   xmlns:inkscape="http://www.inkscape.org/namespaces/inkscape"
   id="svg10256"
   sodipodi:docname="cd.svg"
   viewBox="0 0 703.21 729.2"
   version="1.1"
   inkscape:version="0.92.1 r15371">
  <title
     id="title10431">CD (blue)</title>
  <defs
     id="defs10258" />
  <sodipodi:namedview
     id="base"
     bordercolor="#666666"
     inkscape:pageshadow="2"
     inkscape:window-y="0"
     pagecolor="#ffffff"
     inkscape:window-height="1051"
     inkscape:window-maximized="1"
     inkscape:zoom="0.49207451"
     inkscape:window-x="0"
     showgrid="false"
     borderopacity="1.0"
     inkscape:current-layer="g4558"
     inkscape:cx="268.45311"
     inkscape:cy="335.70548"
     inkscape:window-width="1884"
     inkscape:pageopacity="0.0"
     inkscape:document-units="px" />
  <g
     id="layer1"
     inkscape:label="Layer 1"
     inkscape:groupmode="layer"
     transform="translate(-105.09 -58.623)">
    <g
       id="g4563"
       inkscape:export-ydpi="90"
       inkscape:export-xdpi="90"
       inkscape:export-filename="C:\Documents and Settings\sheikht\Desktop\Website Improvement\head-download.png"
       transform="matrix(3.1774 0 0 3.1774 -203.57 -3248.2)">
      <g
         id="g4558"
         transform="translate(-6.1145937,10.235269)">
        <path
           id="path4543"
           style="fill:#afc6e9;stroke:#5778aa;stroke-opacity:1;stroke-width:1.57361365;stroke-miterlimit:4;stroke-dasharray:none"
           d="m 213.9,1041.2 c -57.433,0 -104.03,46.598 -104.03,104.03 0,57.433 46.598,104.06 104.03,104.06 57.433,0 104.06,-46.629 104.06,-104.06 0,-57.433 -46.629,-104.03 -104.06,-104.03 z m 0,76.906 c 14.981,10e-5 27.156,12.144 27.156,27.125 10e-6,14.981 -12.175,27.156 -27.156,27.156 -14.981,0 -27.125,-12.175 -27.125,-27.156 -1e-5,-14.981 12.144,-27.125 27.125,-27.125 z"
           inkscape:connector-curvature="0" />
        <path
           id="path4545"
           style="fill:#3771c8;stroke:none"
           d="m 213.56,1049.5 c -52.695,0 -95.469,42.774 -95.469,95.469 0,52.695 42.774,95.469 95.469,95.469 52.695,0 95.438,-42.774 95.438,-95.469 0,-52.695 -42.743,-95.469 -95.438,-95.469 z m 0.34375,52 c 24.187,0 43.812,19.625 43.812,43.812 -2e-5,24.187 -19.625,43.812 -43.812,43.812 -24.187,10e-5 -43.812,-19.625 -43.812,-43.812 -3e-5,-24.187 19.625,-43.812 43.812,-43.812 z"
           inkscape:connector-curvature="0" />
        <circle
           id="path4547"
           style="fill:none;stroke:#5777aa;stroke-width:3.45040011;stroke-opacity:0.73725492"
           transform="matrix(0.30382,0,0,0.30382,469.86,1020.4)"
           cx="-842.46722"
           cy="410.91531"
           r="104.04572" />
      </g>
    </g>
  </g>
  <metadata
     id="metadata14">
    <rdf:RDF>
      <cc:Work>
        <dc:format>image/svg+xml</dc:format>
        <dc:type
           rdf:resource="http://purl.org/dc/dcmitype/StillImage" />
        <cc:license
           rdf:resource="http://creativecommons.org/licenses/publicdomain/" />
        <dc:publisher>
          <cc:Agent
             rdf:about="http://openclipart.org/">
            <dc:title>Openclipart</dc:title>
          </cc:Agent>
        </dc:publisher>
        <dc:title>CD</dc:title>
        <dc:date>2010-04-20T22:21:27</dc:date>
        <dc:description />
        <dc:source>https://openclipart.org/detail/49291/cd-by-sheikh_tuhin</dc:source>
        <dc:creator>
          <cc:Agent>
            <dc:title>sheikh_tuhin</dc:title>
          </cc:Agent>
        </dc:creator>
        <dc:subject>
          <rdf:Bag>
            <rdf:li>CD</rdf:li>
            <rdf:li>IT</rdf:li>
            <rdf:li>computer</rdf:li>
            <rdf:li>disc</rdf:li>
            <rdf:li>music</rdf:li>
          </rdf:Bag>
        </dc:subject>
      </cc:Work>
      <cc:License
         rdf:about="http://creativecommons.org/licenses/publicdomain/">
        <cc:permits
           rdf:resource="http://creativecommons.org/ns#Reproduction" />
        <cc:permits
           rdf:resource="http://creativecommons.org/ns#Distribution" />
        <cc:permits
           rdf:resource="http://creativecommons.org/ns#DerivativeWorks" />
      </cc:License>
    </rdf:RDF>
  </metadata>
</svg>
