<svg xmlns:dc="http://purl.org/dc/elements/1.1/" xmlns:cc="http://creativecommons.org/ns#" xmlns:rdf="http://www.w3.org/1999/02/22-rdf-syntax-ns#" xmlns="http://www.w3.org/2000/svg" id="svg24" version="1.1" height="128" width="128"><metadata id="metadata4"><rdf:RDF><cc:Work><dc:format>image/svg+xml</dc:format><dc:type rdf:resource="http://purl.org/dc/dcmitype/StillImage"/><dc:title/><dc:date>2020</dc:date><dc:creator><cc:Agent><dc:title>Timothée Giet</dc:title></cc:Agent></dc:creator><cc:license rdf:resource="http://creativecommons.org/licenses/by-sa/4.0/"/></cc:Work><cc:License rdf:about="http://creativecommons.org/licenses/by-sa/4.0/"><cc:permits rdf:resource="http://creativecommons.org/ns#Reproduction"/><cc:permits rdf:resource="http://creativecommons.org/ns#Distribution"/><cc:requires rdf:resource="http://creativecommons.org/ns#Notice"/><cc:requires rdf:resource="http://creativecommons.org/ns#Attribution"/><cc:permits rdf:resource="http://creativecommons.org/ns#DerivativeWorks"/><cc:requires rdf:resource="http://creativecommons.org/ns#ShareAlike"/></cc:License></rdf:RDF></metadata><g transform="translate(0 -37)" id="g22"><g id="layer1" transform="translate(-181.579 -427.862)"><path style="fill:#b356ec;fill-opacity:1;stroke:#7e27b2;stroke-width:3;stroke-miterlimit:4;stroke-dasharray:none;stroke-opacity:1" d="m246.697 470.579-44.012 106.203c-.002 7.107 19.203 12.87 42.895 12.869 23.69 0 42.895-5.762 42.892-12.87z" id="path2820"/></g><path id="path12" transform="matrix(1.09114 0 0 1.09812 78.978 75.473)" d="m-7.235 50.644-4.642-6.995-8.395-.141 5.218-6.577-2.46-8.027 7.868 2.93 6.874-4.82-.356 8.388 6.709 5.048-8.088 2.254z" style="opacity:1;fill:#f3d351;fill-opacity:1;fill-rule:evenodd;stroke:none;stroke-width:3.63655877;stroke-linecap:butt;stroke-linejoin:bevel;stroke-miterlimit:4;stroke-dasharray:none;stroke-dashoffset:0;stroke-opacity:1"/><path id="path16" d="m68.926 67.03 3.649 10.416-6.519 6.757 8.26-.753 5.278 10.215.771-7.968-5.567-13.758z" style="opacity:1;fill:#f3d351;fill-opacity:1;fill-rule:evenodd;stroke:none;stroke-width:4.58623934;stroke-linecap:butt;stroke-linejoin:bevel;stroke-miterlimit:4;stroke-dasharray:none;stroke-dashoffset:0;stroke-opacity:1"/><path id="path20" d="m42.969 111.746-4.474 10.088 5.953 7.258-8.172-1.414-6.083 9.758.076-7.092 5.742-13.773z" style="opacity:1;fill:#f3d351;fill-opacity:1;fill-rule:evenodd;stroke:none;stroke-width:4.58623934;stroke-linecap:butt;stroke-linejoin:bevel;stroke-miterlimit:4;stroke-dasharray:none;stroke-dashoffset:0;stroke-opacity:1"/></g></svg>