<?xml version="1.0" encoding="UTF-8" standalone="no"?>
<svg
   xmlns:dc="http://purl.org/dc/elements/1.1/"
   xmlns:cc="http://creativecommons.org/ns#"
   xmlns:rdf="http://www.w3.org/1999/02/22-rdf-syntax-ns#"
   xmlns:svg="http://www.w3.org/2000/svg"
   xmlns="http://www.w3.org/2000/svg"
   xmlns:sodipodi="http://sodipodi.sourceforge.net/DTD/sodipodi-0.dtd"
   xmlns:inkscape="http://www.inkscape.org/namespaces/inkscape"
   version="1.1"
   viewBox="0 0 210 210"
   stroke-miterlimit="10"
   id="svg2"
   inkscape:version="0.91 r13725"
   sodipodi:docname="cube.svg"
   width="210"
   height="210"
   style="fill:none;stroke:none;stroke-linecap:square;stroke-miterlimit:10">
  <metadata
     id="metadata25">
    <rdf:RDF>
      <cc:Work
         rdf:about="">
        <dc:format>image/svg+xml</dc:format>
        <dc:type
           rdf:resource="http://purl.org/dc/dcmitype/StillImage" />
        <dc:title></dc:title>
      </cc:Work>
    </rdf:RDF>
  </metadata>
  <defs
     id="defs23" />
  <sodipodi:namedview
     pagecolor="#ffffff"
     bordercolor="#666666"
     borderopacity="1"
     objecttolerance="10"
     gridtolerance="10"
     guidetolerance="10"
     inkscape:pageopacity="0"
     inkscape:pageshadow="2"
     inkscape:window-width="1366"
     inkscape:window-height="704"
     id="namedview21"
     showgrid="false"
     inkscape:zoom="0.72693783"
     inkscape:cx="480"
     inkscape:cy="251.8908"
     inkscape:window-x="0"
     inkscape:window-y="27"
     inkscape:window-maximized="1"
     inkscape:current-layer="svg2" />
  <clipPath
     id="p.0">
    <path
       d="M 0,0 960,0 960,540 0,540 0,0 Z"
       id="path5"
       inkscape:connector-curvature="0"
       style="clip-rule:nonzero" />
  </clipPath>
  <g
     clip-path="url(#p.0)"
     id="g7"
     transform="translate(-352.16216,-151.16765)">
    <path
       d="m 0,0 960,0 0,540 -960,0 z"
       id="path9"
       inkscape:connector-curvature="0"
       style="fill:#000000;fill-opacity:0;fill-rule:nonzero" />
    <path
       d="m 373.11285,219.33595 132.33072,0 0,128.74016 -132.33072,0 z"
       id="path11"
       inkscape:connector-curvature="0"
       style="fill:#0000ff;fill-rule:nonzero" />
    <path
       d="m 505.44357,219.33595 42.91336,-42.91338 0,128.74014 -42.91336,42.91339 z"
       id="path13"
       inkscape:connector-curvature="0"
       style="fill:#0000cb;fill-rule:nonzero" />
    <path
       d="m 373.11285,219.33595 42.91339,-42.91338 132.33069,0 -42.91336,42.91338 z"
       id="path15"
       inkscape:connector-curvature="0"
       style="fill:#3333ff;fill-rule:nonzero" />
    <path
       d="m 373.11285,219.33595 42.91339,-42.91338 132.33069,0 0,128.74014 -42.91336,42.91339 -132.33072,0 z m 0,0 132.33072,0 42.91336,-42.91338 m -42.91336,42.91338 0,128.74016"
       id="path17"
       inkscape:connector-curvature="0"
       style="fill:#000000;fill-opacity:0;fill-rule:nonzero" />
    <path
       d="m 373.11285,219.33595 42.91339,-42.91338 132.33069,0 0,128.74014 -42.91336,42.91339 -132.33072,0 z m 0,0 132.33072,0 42.91336,-42.91338 m -42.91336,42.91338 0,128.74016"
       id="path19"
       inkscape:connector-curvature="0"
       style="fill-rule:nonzero;stroke:#f3f3f3;stroke-width:1;stroke-linecap:butt;stroke-linejoin:round" />
  </g>
</svg>
