<svg xmlns:dc="http://purl.org/dc/elements/1.1/" xmlns:cc="http://creativecommons.org/ns#" xmlns:rdf="http://www.w3.org/1999/02/22-rdf-syntax-ns#" xmlns="http://www.w3.org/2000/svg" style="fill:none;stroke:none;stroke-linecap:square;stroke-miterlimit:10" height="128" width="128" id="svg2" stroke-miterlimit="10" viewBox="0 0 128 128" version="1.1"><metadata id="metadata25"><rdf:RDF><cc:Work><dc:format>image/svg+xml</dc:format><dc:type rdf:resource="http://purl.org/dc/dcmitype/StillImage"/><dc:title/><dc:date>2022</dc:date><dc:creator><cc:Agent><dc:title>Timothée Giet</dc:title></cc:Agent></dc:creator><cc:license rdf:resource="http://creativecommons.org/licenses/by-sa/4.0/"/></cc:Work><cc:License rdf:about="http://creativecommons.org/licenses/by-sa/4.0/"><cc:permits rdf:resource="http://creativecommons.org/ns#Reproduction"/><cc:permits rdf:resource="http://creativecommons.org/ns#Distribution"/><cc:requires rdf:resource="http://creativecommons.org/ns#Notice"/><cc:requires rdf:resource="http://creativecommons.org/ns#Attribution"/><cc:permits rdf:resource="http://creativecommons.org/ns#DerivativeWorks"/><cc:requires rdf:resource="http://creativecommons.org/ns#ShareAlike"/></cc:License></rdf:RDF></metadata><clipPath id="p.0"><path style="clip-rule:nonzero" id="path5" d="M0 0h960v540H0z"/></clipPath><g transform="translate(-352.162 -233.168)" id="g7" clip-path="url(#p.0)"><path id="path11-3" d="m384.162 237.168-28 28v92h91.799l28.201-28v-92z" style="fill:#2c2c94;fill-opacity:1;fill-rule:nonzero;stroke:none;stroke-width:.69870007;stroke-linecap:square;stroke-miterlimit:10"/><path style="fill:#000;fill-opacity:0;fill-rule:nonzero" id="path9" d="M0 0h960v540H0z"/><path style="fill:#4747d3;fill-opacity:1;fill-rule:nonzero;stroke-width:.64825273" id="path11" d="m360.162 269.168 83.906.822v82.693l-83.906.485z"/><path style="fill:#3838bc;fill-opacity:1;fill-rule:nonzero;stroke-width:.65451235" id="path13" d="m448.162 269.168 24-24v82l-24 24z"/><path style="fill:#6c6cde;fill-opacity:1;fill-rule:nonzero;stroke-width:.6614843" id="path15" d="m362.162 265.168 24-24h84l-24 24z"/><path style="fill:#000;fill-opacity:0;fill-rule:nonzero;stroke-width:.66375077" id="path17" d="m358.125 268.778 28.579-28.389h88.128v85.167l-28.579 28.39h-88.128zm0 0h88.128l28.579-28.389m-28.579 28.39v85.166"/></g></svg>