<?xml version="1.0" encoding="UTF-8" standalone="no"?>
<svg
   xmlns:dc="http://purl.org/dc/elements/1.1/"
   xmlns:cc="http://creativecommons.org/ns#"
   xmlns:rdf="http://www.w3.org/1999/02/22-rdf-syntax-ns#"
   xmlns:svg="http://www.w3.org/2000/svg"
   xmlns="http://www.w3.org/2000/svg"
   xmlns:sodipodi="http://sodipodi.sourceforge.net/DTD/sodipodi-0.dtd"
   xmlns:inkscape="http://www.inkscape.org/namespaces/inkscape"
   version="1.1"
   viewBox="0 0 254 166"
   stroke-miterlimit="10"
   id="svg27"
   inkscape:version="0.91 r13725"
   sodipodi:docname="cuboid.svg"
   width="254"
   height="166"
   style="fill:none;stroke:none;stroke-linecap:square;stroke-miterlimit:10">
  <metadata
     id="metadata50">
    <rdf:RDF>
      <cc:Work
         rdf:about="">
        <dc:format>image/svg+xml</dc:format>
        <dc:type
           rdf:resource="http://purl.org/dc/dcmitype/StillImage" />
        <dc:title></dc:title>
      </cc:Work>
    </rdf:RDF>
  </metadata>
  <defs
     id="defs48" />
  <sodipodi:namedview
     pagecolor="#ffffff"
     bordercolor="#666666"
     borderopacity="1"
     objecttolerance="10"
     gridtolerance="10"
     guidetolerance="10"
     inkscape:pageopacity="0"
     inkscape:pageshadow="2"
     inkscape:window-width="1366"
     inkscape:window-height="704"
     id="namedview46"
     showgrid="false"
     fit-margin-top="0"
     fit-margin-left="1"
     fit-margin-right="0"
     fit-margin-bottom="0"
     inkscape:zoom="0.5"
     inkscape:cx="487.6296"
     inkscape:cy="282.07225"
     inkscape:window-x="0"
     inkscape:window-y="27"
     inkscape:window-maximized="1"
     inkscape:current-layer="svg27" />
  <clipPath
     id="p.0">
    <path
       d="M 0,0 960,0 960,540 0,540 0,0 Z"
       id="path30"
       inkscape:connector-curvature="0"
       style="clip-rule:nonzero" />
  </clipPath>
  <g
     clip-path="url(#p.0)"
     id="g32"
     transform="translate(-310,-168)">
    <path
       d="m 0,0 960,0 0,540 -960,0 z"
       id="path34"
       inkscape:connector-curvature="0"
       style="fill:#000000;fill-opacity:0;fill-rule:nonzero" />
    <path
       d="m 333.7743,222.61417 188.62988,0 0,81.35434 -188.62988,0 z"
       id="path36"
       inkscape:connector-curvature="0"
       style="fill:#0000ff;fill-rule:nonzero" />
    <path
       d="m 522.4042,222.61417 27.11816,-27.1181 0,81.35434 -27.11816,27.1181 z"
       id="path38"
       inkscape:connector-curvature="0"
       style="fill:#0000cb;fill-rule:nonzero" />
    <path
       d="m 333.7743,222.61417 27.1181,-27.1181 188.62994,0 -27.11816,27.1181 z"
       id="path40"
       inkscape:connector-curvature="0"
       style="fill:#3333ff;fill-rule:nonzero" />
    <path
       d="m 333.7743,222.61417 27.1181,-27.1181 188.62994,0 0,81.35434 -27.11816,27.1181 -188.62988,0 z m 0,0 188.62988,0 27.11816,-27.1181 m -27.11816,27.1181 0,81.35434"
       id="path42"
       inkscape:connector-curvature="0"
       style="fill:#000000;fill-opacity:0;fill-rule:nonzero" />
    <path
       d="m 333.7743,222.61417 27.1181,-27.1181 188.62994,0 0,81.35434 -27.11816,27.1181 -188.62988,0 z m 0,0 188.62988,0 27.11816,-27.1181 m -27.11816,27.1181 0,81.35434"
       id="path44"
       inkscape:connector-curvature="0"
       style="fill-rule:nonzero;stroke:#f3f3f3;stroke-width:1;stroke-linecap:butt;stroke-linejoin:round" />
  </g>
</svg>
