<?xml version="1.0" encoding="UTF-8" standalone="no"?>
<!-- Created with Inkscape (http://www.inkscape.org/) -->

<svg
   xmlns:dc="http://purl.org/dc/elements/1.1/"
   xmlns:cc="http://creativecommons.org/ns#"
   xmlns:rdf="http://www.w3.org/1999/02/22-rdf-syntax-ns#"
   xmlns:svg="http://www.w3.org/2000/svg"
   xmlns="http://www.w3.org/2000/svg"
   xmlns:sodipodi="http://sodipodi.sourceforge.net/DTD/sodipodi-0.dtd"
   xmlns:inkscape="http://www.inkscape.org/namespaces/inkscape"
   id="svg2"
   sodipodi:docname="cylbin.svg"
   viewBox="0 0 493.50021 589.29468"
   sodipodi:version="0.32"
   version="1.0"
   inkscape:output_extension="org.inkscape.output.svg.inkscape"
   inkscape:version="0.92.1 r15371"
   width="493.50021"
   height="589.29468">
  <sodipodi:namedview
     id="base"
     bordercolor="#666666"
     inkscape:pageshadow="2"
     inkscape:guide-bbox="true"
     pagecolor="#ffffff"
     inkscape:window-height="1051"
     inkscape:zoom="0.54044398"
     inkscape:window-x="0"
     showgrid="false"
     borderopacity="1.0"
     inkscape:current-layer="g7288"
     inkscape:cx="-34.545252"
     inkscape:cy="312.35013"
     showguides="true"
     inkscape:window-y="0"
     inkscape:window-width="1884"
     inkscape:pageopacity="0.0"
     inkscape:document-units="px"
     inkscape:window-maximized="1"
     fit-margin-top="0"
     fit-margin-left="0"
     fit-margin-right="0"
     fit-margin-bottom="0" />
  <defs
     id="defs4" />
  <g
     id="layer6"
     inkscape:label="Label"
     inkscape:groupmode="layer"
     transform="translate(-168.09435,-109.55635)">
    <g
       id="g7288"
       transform="matrix(0.98361904,-0.18025976,0.18025976,0.98361904,-44.132227,79.93465)">
      <path
         id="path5526"
         sodipodi:nodetypes="csccsccsc"
         style="fill:#becddf;fill-rule:evenodd;fill-opacity:1"
         d="m 410.56,117.23 c -124.5,0 -228.64,29.53 -228.64,69.52 0,65.59 3.13,63.11 5.6,79.46 l 30.5,355.49 c 0,41.33 86.26,74.85 192.54,74.85 106.27,0 192.49,-33.52 192.49,-74.85 0,0 30.51,-355.49 30.51,-355.49 3.84,-16.32 5.59,-52.94 5.59,-79.46 0,-39.93 -104.1,-69.52 -228.59,-69.52 z"
         inkscape:connector-curvature="0" />
      <path
         id="path2271"
         sodipodi:nodetypes="csccccsccccsc"
         style="fill:#e9eef4;fill-rule:evenodd;fill-opacity:1"
         d="m 410.55,162.59 c -121.27,0 -219.7,26.94 -219.7,74.1 0,7.52 3.79,21.77 3.79,21.77 0,0 1.88,6.61 1.88,10 -0.01,1.43 0.15,2.86 0.28,4.29 l 28.08,342.87 c 0,39.85 83.19,72.18 185.67,72.18 102.49,0 185.64,-32.33 185.64,-72.18 l 28.08,-342.87 c 0.16,-1.43 0.24,-2.86 0.28,-4.29 0,-3.39 1.88,-10 1.88,-10 0,0 3.8,-14.25 3.8,-21.77 0,-47.16 -98.4,-74.1 -219.68,-74.1 z"
         inkscape:connector-curvature="0" />
      <path
         id="path6530"
         sodipodi:nodetypes="ccscc"
         style="fill:#d4dbe9;fill-rule:evenodd;fill-opacity:1"
         d="m 410.56,127.94 c -110.7,0 -202.01,25.69 -214.48,59.97 0.9,34.95 96.64,63.24 214.48,63.24 117.83,0 213.53,-28.29 214.44,-63.24 -12.48,-34.28 -103.75,-59.97 -214.44,-59.97 z"
         inkscape:connector-curvature="0" />
      <path
         id="path4310"
         sodipodi:nodetypes="cccscccccscc"
         style="fill:#d7e1ec;fill-rule:evenodd;fill-opacity:1"
         d="m 410.55,125.65 c -121.27,0 -219.7,28.43 -219.7,63.46 l 0,45.24 c 0,35.03 98.43,63.46 219.7,63.46 121.28,0 219.68,-28.43 219.68,-63.46 l 0,-45.24 c 0,-35.03 -98.4,-63.46 -219.68,-63.46 z m 0,5.81 c 109.24,0 199.32,23.98 211.63,55.98 -0.89,32.63 -95.34,59.03 -211.63,59.03 -116.28,0 -210.76,-26.4 -211.65,-59.03 12.3,-32 102.42,-55.98 211.65,-55.98 z"
         inkscape:connector-curvature="0" />
      <path
         id="path4327"
         style="fill:#becddf;fill-opacity:1;fill-rule:evenodd"
         d="m 410.55,125.65 c -121.27,0 -219.7,28.43 -219.7,63.46 0,35.03 98.43,63.46 219.7,63.46 121.28,0 219.68,-28.43 219.68,-63.46 0,-35.03 -98.4,-63.46 -219.68,-63.46 z m 0,5.81 c 109.24,0 199.32,23.98 211.63,55.98 -0.89,32.63 -95.34,59.03 -211.63,59.03 -116.28,0 -210.76,-26.4 -211.65,-59.03 12.3,-32 102.42,-55.98 211.65,-55.98 z"
         inkscape:connector-curvature="0" />
    </g>
  </g>
  <metadata
     id="metadata38">
    <rdf:RDF>
      <cc:Work>
        <dc:format>image/svg+xml</dc:format>
        <dc:type
           rdf:resource="http://purl.org/dc/dcmitype/StillImage" />
        <cc:license
           rdf:resource="http://creativecommons.org/publicdomain/zero/1.0/" />
        <dc:publisher>
          <cc:Agent
             rdf:about="http://openclipart.org/">
            <dc:title>Openclipart</dc:title>
          </cc:Agent>
        </dc:publisher>
        <dc:title>Trash Bins</dc:title>
        <dc:date>2008-05-13T01:22:58</dc:date>
        <dc:description>A sheet of paper, crumbled paper, and three bins</dc:description>
        <dc:source>https://openclipart.org/detail/16725/trash-bins-by-doofi-16725</dc:source>
        <dc:creator>
          <cc:Agent>
            <dc:title>DooFi</dc:title>
          </cc:Agent>
        </dc:creator>
        <dc:subject>
          <rdf:Bag>
            <rdf:li>archive</rdf:li>
            <rdf:li>arrow</rdf:li>
            <rdf:li>bin</rdf:li>
            <rdf:li>bins</rdf:li>
            <rdf:li>blue</rdf:li>
            <rdf:li>can</rdf:li>
            <rdf:li>cans</rdf:li>
            <rdf:li>creased</rdf:li>
            <rdf:li>cross</rdf:li>
            <rdf:li>crumble</rdf:li>
            <rdf:li>crumbled</rdf:li>
            <rdf:li>domain</rdf:li>
            <rdf:li>dust</rdf:li>
            <rdf:li>garbage</rdf:li>
            <rdf:li>green</rdf:li>
            <rdf:li>inkscape</rdf:li>
            <rdf:li>jpg</rdf:li>
            <rdf:li>paper</rdf:li>
            <rdf:li>public</rdf:li>
            <rdf:li>red</rdf:li>
            <rdf:li>refuse</rdf:li>
            <rdf:li>rubbish</rdf:li>
            <rdf:li>sheet</rdf:li>
            <rdf:li>trash</rdf:li>
            <rdf:li>vector</rdf:li>
            <rdf:li>waste</rdf:li>
            <rdf:li>white</rdf:li>
            <rdf:li>zip</rdf:li>
          </rdf:Bag>
        </dc:subject>
      </cc:Work>
      <cc:License
         rdf:about="http://creativecommons.org/publicdomain/zero/1.0/">
        <cc:permits
           rdf:resource="http://creativecommons.org/ns#Reproduction" />
        <cc:permits
           rdf:resource="http://creativecommons.org/ns#Distribution" />
        <cc:permits
           rdf:resource="http://creativecommons.org/ns#DerivativeWorks" />
      </cc:License>
    </rdf:RDF>
  </metadata>
</svg>
