<?xml version="1.0" encoding="UTF-8" standalone="no"?>
<svg
   xmlns:dc="http://purl.org/dc/elements/1.1/"
   xmlns:cc="http://creativecommons.org/ns#"
   xmlns:rdf="http://www.w3.org/1999/02/22-rdf-syntax-ns#"
   xmlns:svg="http://www.w3.org/2000/svg"
   xmlns="http://www.w3.org/2000/svg"
   xmlns:sodipodi="http://sodipodi.sourceforge.net/DTD/sodipodi-0.dtd"
   xmlns:inkscape="http://www.inkscape.org/namespaces/inkscape"
   version="1.1"
   viewBox="0 0 160 220"
   stroke-miterlimit="10"
   id="svg2"
   inkscape:version="0.91 r13725"
   sodipodi:docname="cylinder.svg"
   width="160"
   height="220"
   style="fill:none;stroke:none;stroke-linecap:square;stroke-miterlimit:10">
  <metadata
     id="metadata23">
    <rdf:RDF>
      <cc:Work
         rdf:about="">
        <dc:format>image/svg+xml</dc:format>
        <dc:type
           rdf:resource="http://purl.org/dc/dcmitype/StillImage" />
        <dc:title></dc:title>
      </cc:Work>
    </rdf:RDF>
  </metadata>
  <defs
     id="defs21" />
  <sodipodi:namedview
     pagecolor="#ffffff"
     bordercolor="#666666"
     borderopacity="1"
     objecttolerance="10"
     gridtolerance="10"
     guidetolerance="10"
     inkscape:pageopacity="0"
     inkscape:pageshadow="2"
     inkscape:window-width="1366"
     inkscape:window-height="704"
     id="namedview19"
     showgrid="false"
     inkscape:zoom="0.72693783"
     inkscape:cx="480"
     inkscape:cy="251.8908"
     inkscape:window-x="0"
     inkscape:window-y="27"
     inkscape:window-maximized="1"
     inkscape:current-layer="svg2" />
  <clipPath
     id="p.0">
    <path
       d="M 0,0 960,0 960,540 0,540 0,0 Z"
       id="path5"
       inkscape:connector-curvature="0"
       style="clip-rule:nonzero" />
  </clipPath>
  <g
     clip-path="url(#p.0)"
     id="g7"
     transform="translate(-383.80174,-154.924)">
    <path
       d="m 0,0 960,0 0,540 -960,0 z"
       id="path9"
       inkscape:connector-curvature="0"
       style="fill:#000000;fill-opacity:0;fill-rule:nonzero" />
    <path
       d="m 396.95276,175.3819 0,0 c 0,9.29968 30.15555,16.83858 67.35434,16.83858 37.19876,0 67.35434,-7.5389 67.35434,-16.83858 l 0,178.51181 c 0,9.29968 -30.15558,16.83856 -67.35434,16.83856 -37.19879,0 -67.35434,-7.53888 -67.35434,-16.83856 z"
       id="path11"
       inkscape:connector-curvature="0"
       style="fill:#0000ff;fill-rule:nonzero" />
    <path
       d="m 396.95276,175.3819 0,0 c 0,-9.2997 30.15555,-16.83859 67.35434,-16.83859 37.19876,0 67.35434,7.53889 67.35434,16.83859 l 0,0 c 0,9.29968 -30.15558,16.83858 -67.35434,16.83858 -37.19879,0 -67.35434,-7.5389 -67.35434,-16.83858 z"
       id="path13"
       inkscape:connector-curvature="0"
       style="fill:#6666ff;fill-rule:nonzero" />
    <path
       d="m 531.66144,175.3819 0,0 c 0,9.29968 -30.15558,16.83858 -67.35434,16.83858 -37.19879,0 -67.35434,-7.5389 -67.35434,-16.83858 l 0,0 c 0,-9.2997 30.15555,-16.83859 67.35434,-16.83859 37.19876,0 67.35434,7.53889 67.35434,16.83859 l 0,178.51181 c 0,9.29968 -30.15558,16.83856 -67.35434,16.83856 -37.19879,0 -67.35434,-7.53888 -67.35434,-16.83856 l 0,-178.51181"
       id="path15"
       inkscape:connector-curvature="0"
       style="fill:#000000;fill-opacity:0;fill-rule:nonzero" />
    <path
       d="m 531.66144,175.3819 0,0 c 0,9.29968 -30.15558,16.83858 -67.35434,16.83858 -37.19879,0 -67.35434,-7.5389 -67.35434,-16.83858 l 0,0 c 0,-9.2997 30.15555,-16.83859 67.35434,-16.83859 37.19876,0 67.35434,7.53889 67.35434,16.83859 l 0,178.51181 c 0,9.29968 -30.15558,16.83856 -67.35434,16.83856 -37.19879,0 -67.35434,-7.53888 -67.35434,-16.83856 l 0,-178.51181"
       id="path17"
       inkscape:connector-curvature="0"
       style="fill-rule:nonzero;stroke:#000000;stroke-width:1;stroke-linecap:butt;stroke-linejoin:round" />
  </g>
</svg>
