<?xml version="1.0" encoding="UTF-8" standalone="no"?>
<svg
   xmlns:dc="http://purl.org/dc/elements/1.1/"
   xmlns:cc="http://creativecommons.org/ns#"
   xmlns:rdf="http://www.w3.org/1999/02/22-rdf-syntax-ns#"
   xmlns:svg="http://www.w3.org/2000/svg"
   xmlns="http://www.w3.org/2000/svg"
   xmlns:sodipodi="http://sodipodi.sourceforge.net/DTD/sodipodi-0.dtd"
   xmlns:inkscape="http://www.inkscape.org/namespaces/inkscape"
   version="1.1"
   viewBox="0 0 128 128"
   stroke-miterlimit="10"
   id="svg2"
   inkscape:version="0.92.1 r15371"
   sodipodi:docname="cylinder.svg"
   width="128"
   height="128"
   style="fill:none;stroke:none;stroke-linecap:square;stroke-miterlimit:10">
  <metadata
     id="metadata23">
    <rdf:RDF>
      <cc:Work
         rdf:about="">
        <dc:format>image/svg+xml</dc:format>
        <dc:type
           rdf:resource="http://purl.org/dc/dcmitype/StillImage" />
        <dc:title></dc:title>
      </cc:Work>
    </rdf:RDF>
  </metadata>
  <defs
     id="defs21" />
  <sodipodi:namedview
     pagecolor="#ffffff"
     bordercolor="#666666"
     borderopacity="1"
     objecttolerance="10"
     gridtolerance="10"
     guidetolerance="10"
     inkscape:pageopacity="0"
     inkscape:pageshadow="2"
     inkscape:window-width="1884"
     inkscape:window-height="1051"
     id="namedview19"
     showgrid="false"
     inkscape:zoom="4.1121813"
     inkscape:cx="69.972021"
     inkscape:cy="60.037218"
     inkscape:window-x="0"
     inkscape:window-y="0"
     inkscape:window-maximized="1"
     inkscape:current-layer="g7" />
  <clipPath
     id="p.0">
    <path
       d="M 0,0 H 960 V 540 H 0 Z"
       id="path5"
       inkscape:connector-curvature="0"
       style="clip-rule:nonzero" />
  </clipPath>
  <g
     clip-path="url(#p.0)"
     id="g7"
     transform="translate(-383.80174,-246.924)">
    <path
       d="m 409.88926,260.68356 c 0,-5.23462 16.97397,-9.47812 37.91246,-9.47812 20.93849,0 37.91249,4.2435 37.91249,9.47812 v 100.4809 c 0,5.23461 -16.974,9.4781 -37.91249,9.4781 -20.93849,0 -37.91246,-4.24349 -37.91246,-9.4781 v -100.4809"
       id="path17"
       inkscape:connector-curvature="0"
       style="fill:none;fill-rule:nonzero;stroke:#34309f;stroke-width:5;stroke-linecap:butt;stroke-linejoin:round;stroke-miterlimit:10;stroke-dasharray:none;stroke-opacity:1"
       sodipodi:nodetypes="csssssc" />
    <path
       d="m 409.88926,259.95402 v 0 c 0,5.23461 16.97397,9.47812 37.91246,9.47812 20.93849,0 37.91249,-4.24351 37.91249,-9.47812 v 101.21044 c 0,5.23461 -16.974,9.4781 -37.91249,9.4781 -20.93849,0 -37.91246,-4.24349 -37.91246,-9.4781 z"
       id="path11"
       inkscape:connector-curvature="0"
       style="fill:#4541ce;fill-opacity:1;fill-rule:nonzero;stroke:none;stroke-width:0.56288093;stroke-linecap:square;stroke-miterlimit:10"
       sodipodi:nodetypes="ccscsssc" />
    <path
       d="m 409.88926,259.71084 v 0 c 0,-5.23462 16.97397,-9.47812 37.91246,-9.47812 20.93849,0 37.91249,4.2435 37.91249,9.47812 v 0 c 0,5.23461 -16.974,9.47812 -37.91249,9.47812 -20.93849,0 -37.91246,-4.24351 -37.91246,-9.47812 z"
       id="path13"
       inkscape:connector-curvature="0"
       style="fill:#6666ff;fill-rule:nonzero;stroke:#34309f;stroke-width:2;stroke-linecap:square;stroke-miterlimit:10;stroke-dasharray:none;stroke-opacity:1" />
  </g>
</svg>
