<?xml version="1.0" encoding="UTF-8" standalone="no"?>
<svg
   xmlns:dc="http://purl.org/dc/elements/1.1/"
   xmlns:cc="http://creativecommons.org/ns#"
   xmlns:rdf="http://www.w3.org/1999/02/22-rdf-syntax-ns#"
   xmlns:svg="http://www.w3.org/2000/svg"
   xmlns="http://www.w3.org/2000/svg"
   xmlns:xlink="http://www.w3.org/1999/xlink"
   xmlns:sodipodi="http://sodipodi.sourceforge.net/DTD/sodipodi-0.dtd"
   xmlns:inkscape="http://www.inkscape.org/namespaces/inkscape"
   id="svg7219"
   viewBox="0 0 502.55827 502.5583"
   version="1.1"
   inkscape:version="0.91 r13725"
   sodipodi:docname="rotateddiceface.svg"
   width="502.55829"
   height="502.55829">
  <sodipodi:namedview
     pagecolor="#ffffff"
     bordercolor="#666666"
     borderopacity="1"
     objecttolerance="10"
     gridtolerance="10"
     guidetolerance="10"
     inkscape:pageopacity="0"
     inkscape:pageshadow="2"
     inkscape:window-width="1366"
     inkscape:window-height="704"
     id="namedview40"
     showgrid="false"
     fit-margin-top="0"
     fit-margin-left="0"
     fit-margin-right="0"
     fit-margin-bottom="0"
     inkscape:zoom="0.75356027"
     inkscape:cx="248.27375"
     inkscape:cy="251.27104"
     inkscape:window-x="0"
     inkscape:window-y="27"
     inkscape:window-maximized="1"
     inkscape:current-layer="svg7219" />
  <defs
     id="defs7221">
    <linearGradient
       id="linearGradient6343"
       x1="72.832001"
       gradientUnits="userSpaceOnUse"
       x2="72.832001"
       y1="20.395"
       y2="36.658001">
      <stop
         id="stop9464-1"
         stop-color="#a40000"
         offset="0" />
      <stop
         id="stop9466-6"
         stop-color="#ef2929"
         offset="1" />
    </linearGradient>
    <radialGradient
       id="radialGradient6353"
       gradientUnits="userSpaceOnUse"
       cy="94.288002"
       cx="103.59"
       gradientTransform="matrix(1,0,0,0.84932,0,14.208)"
       r="25.809">
      <stop
         id="stop9500-8"
         stop-color="#fff"
         offset="0" />
      <stop
         id="stop9502-8"
         stop-color="#fff"
         stop-opacity="0"
         offset="1" />
    </radialGradient>
    <filter
       id="filter9518-1"
       style="color-interpolation-filters:sRGB">
      <feGaussianBlur
         id="feGaussianBlur9520-0"
         stdDeviation="0.71376063" />
    </filter>
    <linearGradient
       id="linearGradient6269"
       x1="264.29001"
       gradientUnits="userSpaceOnUse"
       y1="573.26001"
       gradientTransform="matrix(4,0,0,4,-715.14,-1918.8)"
       x2="264.29001"
       y2="649.32001">
      <stop
         id="stop9358-3"
         stop-color="#f9f8f8"
         offset="0" />
      <stop
         id="stop9364-4"
         stop-color="#ececec"
         offset=".070067" />
      <stop
         id="stop9366-3"
         stop-color="#e8e7e7"
         offset=".93328" />
      <stop
         id="stop9360-1"
         stop-color="#b4b3b4"
         offset="1" />
    </linearGradient>
    <linearGradient
       id="linearGradient6271"
       x1="248.75999"
       gradientUnits="userSpaceOnUse"
       y1="634.69"
       gradientTransform="matrix(4,0,0,4,-715.14,-1918.8)"
       x2="249.81"
       y2="664.5">
      <stop
         id="stop9378-8"
         stop-color="#dad9d9"
         offset="0" />
      <stop
         id="stop9384-9"
         stop-color="#dad9d9"
         offset=".27966" />
      <stop
         id="stop9380-8"
         offset="1" />
    </linearGradient>
    <filter
       id="filter10343-3"
       style="color-interpolation-filters:sRGB">
      <feGaussianBlur
         id="feGaussianBlur10345-0"
         stdDeviation="0.74285713" />
    </filter>
    <radialGradient
       inkscape:collect="always"
       xlink:href="#radialGradient6353"
       id="radialGradient3368"
       gradientUnits="userSpaceOnUse"
       gradientTransform="matrix(1,0,0,0.84932,0,14.208)"
       cx="103.59"
       cy="94.288002"
       r="25.809" />
    <radialGradient
       inkscape:collect="always"
       xlink:href="#radialGradient6353"
       id="radialGradient3370"
       gradientUnits="userSpaceOnUse"
       gradientTransform="matrix(1,0,0,0.84932,0,14.208)"
       cx="103.59"
       cy="94.288002"
       r="25.809" />
    <linearGradient
       inkscape:collect="always"
       xlink:href="#linearGradient6343"
       id="linearGradient3372"
       gradientUnits="userSpaceOnUse"
       x1="72.832001"
       y1="20.395"
       x2="72.832001"
       y2="36.658001" />
    <linearGradient
       inkscape:collect="always"
       xlink:href="#linearGradient6343"
       id="linearGradient3374"
       gradientUnits="userSpaceOnUse"
       x1="72.832001"
       y1="20.395"
       x2="72.832001"
       y2="36.658001" />
    <linearGradient
       inkscape:collect="always"
       xlink:href="#linearGradient6343"
       id="linearGradient3376"
       gradientUnits="userSpaceOnUse"
       x1="72.832001"
       y1="20.395"
       x2="72.832001"
       y2="36.658001" />
    <linearGradient
       inkscape:collect="always"
       xlink:href="#linearGradient6343"
       id="linearGradient3378"
       gradientUnits="userSpaceOnUse"
       x1="72.832001"
       y1="20.395"
       x2="72.832001"
       y2="36.658001" />
    <linearGradient
       inkscape:collect="always"
       xlink:href="#linearGradient6343"
       id="linearGradient3380"
       gradientUnits="userSpaceOnUse"
       x1="72.832001"
       y1="20.395"
       x2="72.832001"
       y2="36.658001" />
  </defs>
  <g
     id="layer1"
     transform="matrix(0.64649219,0.7629206,-0.7629206,0.64649219,429.20936,-362.19348)">
    <rect
       id="rect10729"
       transform="matrix(4,0,0,4,220,-3151.1)"
       ry="9.2856998"
       height="74.286003"
       width="74.286003"
       y="883.71997"
       x="-3.8929"
       style="opacity:0.72245023;fill:#888a85;stroke:#888a85;stroke-width:0.44290999;filter:url(#filter10343-3)" />
    <rect
       id="rect10731"
       ry="37.143002"
       height="297.14001"
       width="297.14001"
       y="377.79001"
       x="193.42999"
       style="fill:url(#linearGradient6269);stroke:url(#linearGradient6271);stroke-width:1.77170002" />
    <path
       id="path10733"
       d="m 129.4,94.288 c 0,12.106 -11.555,21.92 -25.809,21.92 -14.254,0 -25.809,-9.8141 -25.809,-21.92 0,-12.1059 11.555,-21.92 25.809,-21.92 14.254,0 25.809,9.8141 25.809,21.92 z"
       transform="matrix(3.4289,0,0,2.1938,-70.417,221.89)"
       style="opacity:0.76327;fill:url(#radialGradient3368);filter:url(#filter9518-1)"
       inkscape:connector-curvature="0" />
    <path
       id="path10735"
       d="m 129.4,94.288 c 0,12.106 -11.555,21.92 -25.809,21.92 -14.254,0 -25.809,-9.8141 -25.809,-21.92 0,-12.1059 11.555,-21.92 25.809,-21.92 14.254,0 25.809,9.8141 25.809,21.92 z"
       transform="matrix(1.4249,0,0,1.7581,299.81,468.42)"
       style="opacity:0.76327;fill:url(#radialGradient3370);filter:url(#filter9518-1)"
       inkscape:connector-curvature="0" />
    <path
       id="path10737"
       transform="matrix(3.507,0,0,3.507,86.574,426.32)"
       d="m 80.964,28.527 c 0,4.491 -3.6407,8.1317 -8.1317,8.1317 -4.491,0 -8.1317,-3.6407 -8.1317,-8.1317 0,-4.491 3.6407,-8.1317 8.1317,-8.1317 4.491,0 8.1317,3.6407 8.1317,8.1317 z"
       style="fill:url(#linearGradient3372)"
       inkscape:connector-curvature="0" />
    <path
       id="path10743"
       transform="matrix(3.507,0,0,3.507,-1.4262,330.32)"
       d="m 80.964,28.527 c 0,4.491 -3.6407,8.1317 -8.1317,8.1317 -4.491,0 -8.1317,-3.6407 -8.1317,-8.1317 0,-4.491 3.6407,-8.1317 8.1317,-8.1317 4.491,0 8.1317,3.6407 8.1317,8.1317 z"
       style="fill:url(#linearGradient3374)"
       inkscape:connector-curvature="0" />
    <path
       id="path10745"
       transform="matrix(3.507,0,0,3.507,174.57,330.32)"
       d="m 80.964,28.527 c 0,4.491 -3.6407,8.1317 -8.1317,8.1317 -4.491,0 -8.1317,-3.6407 -8.1317,-8.1317 0,-4.491 3.6407,-8.1317 8.1317,-8.1317 4.491,0 8.1317,3.6407 8.1317,8.1317 z"
       style="fill:url(#linearGradient3376)"
       inkscape:connector-curvature="0" />
    <path
       id="path10747"
       transform="matrix(3.507,0,0,3.507,-1.4262,514.32)"
       d="m 80.964,28.527 c 0,4.491 -3.6407,8.1317 -8.1317,8.1317 -4.491,0 -8.1317,-3.6407 -8.1317,-8.1317 0,-4.491 3.6407,-8.1317 8.1317,-8.1317 4.491,0 8.1317,3.6407 8.1317,8.1317 z"
       style="fill:url(#linearGradient3378)"
       inkscape:connector-curvature="0" />
    <path
       id="path10749"
       transform="matrix(3.507,0,0,3.507,174.57,514.32)"
       d="m 80.964,28.527 c 0,4.491 -3.6407,8.1317 -8.1317,8.1317 -4.491,0 -8.1317,-3.6407 -8.1317,-8.1317 0,-4.491 3.6407,-8.1317 8.1317,-8.1317 4.491,0 8.1317,3.6407 8.1317,8.1317 z"
       style="fill:url(#linearGradient3380)"
       inkscape:connector-curvature="0" />
    <path
       id="path10751"
       d="m 313.6,529.51 c -0.0972,0.9588 -0.0952,1.8694 -0.0952,2.8536 0,15.75 12.691,28.536 28.441,28.536 15.75,0 28.536,-12.786 28.536,-28.536 0,-0.9842 0.002,-1.8948 -0.0948,-2.8536 -1.5884,14.246 -13.771,25.302 -28.441,25.302 -14.67,0 -26.757,-11.056 -28.346,-25.302 z"
       inkscape:connector-curvature="0"
       style="fill:#ffffff" />
    <path
       id="path10757"
       d="m 401.6,617.51 c -0.0972,0.9588 -0.0952,1.8694 -0.0952,2.8538 0,15.75 12.691,28.536 28.441,28.536 15.75,0 28.536,-12.786 28.536,-28.536 0,-0.9844 0.002,-1.895 -0.0948,-2.8538 -1.5884,14.246 -13.771,25.302 -28.441,25.302 -14.67,0 -26.757,-11.056 -28.346,-25.302 z"
       inkscape:connector-curvature="0"
       style="fill:#ffffff" />
    <path
       id="path10759"
       d="m 225.6,617.51 c -0.0972,0.9588 -0.0952,1.8694 -0.0952,2.8538 0,15.75 12.691,28.536 28.441,28.536 15.75,0 28.536,-12.786 28.536,-28.536 0,-0.9844 0.002,-1.895 -0.0948,-2.8538 -1.5884,14.246 -13.771,25.302 -28.441,25.302 -14.67,0 -26.757,-11.056 -28.346,-25.302 z"
       inkscape:connector-curvature="0"
       style="fill:#ffffff" />
    <path
       id="path10761"
       d="m 225.6,433.51 c -0.0972,0.9588 -0.0952,1.8692 -0.0952,2.8536 0,15.75 12.691,28.536 28.441,28.536 15.75,0 28.536,-12.786 28.536,-28.536 0,-0.9844 0.002,-1.8948 -0.0948,-2.8536 -1.5884,14.246 -13.771,25.302 -28.441,25.302 -14.67,0 -26.757,-11.056 -28.346,-25.302 z"
       inkscape:connector-curvature="0"
       style="fill:#ffffff" />
    <path
       id="path10763"
       d="m 401.6,433.51 c -0.0972,0.9588 -0.0952,1.8692 -0.0952,2.8536 0,15.75 12.691,28.536 28.441,28.536 15.75,0 28.536,-12.786 28.536,-28.536 0,-0.9844 0.002,-1.8948 -0.0948,-2.8536 -1.5884,14.246 -13.771,25.302 -28.441,25.302 -14.67,0 -26.757,-11.056 -28.346,-25.302 z"
       inkscape:connector-curvature="0"
       style="fill:#ffffff" />
  </g>
  <metadata
     id="metadata38">
    <rdf:RDF>
      <cc:Work>
        <dc:format>image/svg+xml</dc:format>
        <dc:type
           rdf:resource="http://purl.org/dc/dcmitype/StillImage" />
        <cc:license
           rdf:resource="http://creativecommons.org/publicdomain/zero/1.0/" />
        <dc:publisher>
          <cc:Agent
             rdf:about="http://openclipart.org/">
            <dc:title>Openclipart</dc:title>
          </cc:Agent>
        </dc:publisher>
        <dc:title></dc:title>
        <dc:date>2010-11-16T20:18:44</dc:date>
        <dc:description>The six sides of a dice</dc:description>
        <dc:source>http://openclipart.org/detail/96103/dado-5-by-rg1024</dc:source>
        <dc:creator>
          <cc:Agent>
            <dc:title>rg1024</dc:title>
          </cc:Agent>
        </dc:creator>
        <dc:subject>
          <rdf:Bag>
            <rdf:li>clip art</rdf:li>
            <rdf:li>clipart</rdf:li>
            <rdf:li>dice</rdf:li>
            <rdf:li>game</rdf:li>
          </rdf:Bag>
        </dc:subject>
      </cc:Work>
      <cc:License
         rdf:about="http://creativecommons.org/publicdomain/zero/1.0/">
        <cc:permits
           rdf:resource="http://creativecommons.org/ns#Reproduction" />
        <cc:permits
           rdf:resource="http://creativecommons.org/ns#Distribution" />
        <cc:permits
           rdf:resource="http://creativecommons.org/ns#DerivativeWorks" />
      </cc:License>
    </rdf:RDF>
  </metadata>
</svg>
