<?xml version="1.0" encoding="UTF-8" standalone="no"?>
<svg
   xmlns:dc="http://purl.org/dc/elements/1.1/"
   xmlns:cc="http://creativecommons.org/ns#"
   xmlns:rdf="http://www.w3.org/1999/02/22-rdf-syntax-ns#"
   xmlns:svg="http://www.w3.org/2000/svg"
   xmlns="http://www.w3.org/2000/svg"
   xmlns:xlink="http://www.w3.org/1999/xlink"
   xmlns:sodipodi="http://sodipodi.sourceforge.net/DTD/sodipodi-0.dtd"
   xmlns:inkscape="http://www.inkscape.org/namespaces/inkscape"
   id="svg7219"
   viewBox="0 0 128 128"
   version="1.1"
   inkscape:version="0.92.1 r15371"
   sodipodi:docname="diceface.svg"
   width="128"
   height="128">
  <sodipodi:namedview
     pagecolor="#ffffff"
     bordercolor="#666666"
     borderopacity="1"
     objecttolerance="10"
     gridtolerance="10"
     guidetolerance="10"
     inkscape:pageopacity="0"
     inkscape:pageshadow="2"
     inkscape:window-width="1884"
     inkscape:window-height="1051"
     id="namedview40"
     showgrid="false"
     fit-margin-top="0"
     fit-margin-left="0"
     fit-margin-right="0"
     fit-margin-bottom="0"
     inkscape:zoom="2.1313903"
     inkscape:cx="94.610652"
     inkscape:cy="32.673379"
     inkscape:window-x="0"
     inkscape:window-y="0"
     inkscape:window-maximized="1"
     inkscape:current-layer="layer1" />
  <defs
     id="defs7221">
    <radialGradient
       id="radialGradient6353"
       gradientUnits="userSpaceOnUse"
       cy="94.288002"
       cx="103.59"
       gradientTransform="matrix(1,0,0,0.84932,0,14.208)"
       r="25.809">
      <stop
         id="stop9500-8"
         stop-color="#fff"
         offset="0" />
      <stop
         id="stop9502-8"
         stop-color="#fff"
         stop-opacity="0"
         offset="1" />
    </radialGradient>
    <filter
       id="filter9518-1"
       style="color-interpolation-filters:sRGB">
      <feGaussianBlur
         id="feGaussianBlur9520-0"
         stdDeviation="0.71376063" />
    </filter>
    <radialGradient
       inkscape:collect="always"
       xlink:href="#radialGradient6353"
       id="radialGradient3368"
       gradientUnits="userSpaceOnUse"
       gradientTransform="matrix(1,0,0,0.84932,0,14.208)"
       cx="103.59"
       cy="94.288002"
       r="25.809" />
    <radialGradient
       inkscape:collect="always"
       xlink:href="#radialGradient6353"
       id="radialGradient3370"
       gradientUnits="userSpaceOnUse"
       gradientTransform="matrix(1,0,0,0.84932,0,14.208)"
       cx="103.59"
       cy="94.288002"
       r="25.809" />
  </defs>
  <g
     id="layer1"
     transform="rotate(49.722353,1009.6127,94.771826)">
    <rect
       id="rect10731"
       ry="11.387077"
       height="91.095398"
       width="91.095398"
       y="751.88617"
       x="330.58893"
       style="fill:#edeaea;fill-opacity:1;stroke:#c7bfbf;stroke-width:3;stroke-miterlimit:4;stroke-dasharray:none;stroke-opacity:1" />
    <path
       id="path10733"
       d="m 129.4,94.288 c 0,12.106 -11.555,21.92 -25.809,21.92 -14.254,0 -25.809,-9.8141 -25.809,-21.92 0,-12.1059 11.555,-21.92 25.809,-21.92 14.254,0 25.809,9.8141 25.809,21.92 z"
       transform="matrix(1.0512115,0,0,0.67256199,249.70029,704.09134)"
       style="opacity:0.76327;fill:url(#radialGradient3368);filter:url(#filter9518-1)"
       inkscape:connector-curvature="0" />
    <path
       id="path10735"
       d="m 129.4,94.288 c 0,12.106 -11.555,21.92 -25.809,21.92 -14.254,0 -25.809,-9.8141 -25.809,-21.92 0,-12.1059 11.555,-21.92 25.809,-21.92 14.254,0 25.809,9.8141 25.809,21.92 z"
       transform="matrix(0.43683726,0,0,0.53898771,363.20225,779.67102)"
       style="opacity:0.76327;fill:url(#radialGradient3370);filter:url(#filter9518-1)"
       inkscape:connector-curvature="0" />
    <path
       id="path10737"
       d="m 384.87849,797.4352 c 0,4.82852 -3.91432,8.74284 -8.74284,8.74284 -4.82852,0 -8.74284,-3.91432 -8.74284,-8.74284 0,-4.82852 3.91432,-8.74284 8.74284,-8.74284 4.82852,0 8.74284,3.91432 8.74284,8.74284 z"
       style="fill:#cc1818;stroke-width:1.0751549;fill-opacity:1"
       inkscape:connector-curvature="0" />
    <path
       id="path10743"
       d="m 357.89992,768.0041 c 0,4.82852 -3.91432,8.74283 -8.74284,8.74283 -4.82852,0 -8.74284,-3.91431 -8.74284,-8.74283 0,-4.82852 3.91432,-8.74284 8.74284,-8.74284 4.82852,0 8.74284,3.91432 8.74284,8.74284 z"
       style="fill:#cc1818;stroke-width:1.0751549;fill-opacity:1"
       inkscape:connector-curvature="0" />
    <path
       id="path10745"
       d="m 411.85577,768.0041 c 0,4.82852 -3.91431,8.74283 -8.74283,8.74283 -4.82853,0 -8.74284,-3.91431 -8.74284,-8.74283 0,-4.82852 3.91431,-8.74284 8.74284,-8.74284 4.82852,0 8.74283,3.91432 8.74283,8.74284 z"
       style="fill:#cc1818;stroke-width:1.0751549;fill-opacity:1"
       inkscape:connector-curvature="0" />
    <path
       id="path10747"
       d="m 357.89992,824.41371 c 0,4.82852 -3.91432,8.74284 -8.74284,8.74284 -4.82852,0 -8.74284,-3.91432 -8.74284,-8.74284 0,-4.82852 3.91432,-8.74284 8.74284,-8.74284 4.82852,0 8.74284,3.91432 8.74284,8.74284 z"
       style="fill:#cc1818;stroke-width:1.0751549;fill-opacity:1"
       inkscape:connector-curvature="0" />
    <path
       id="path10749"
       d="m 411.85577,824.41371 c 0,4.82852 -3.91431,8.74284 -8.74283,8.74284 -4.82853,0 -8.74284,-3.91432 -8.74284,-8.74284 0,-4.82852 3.91431,-8.74284 8.74284,-8.74284 4.82852,0 8.74283,3.91432 8.74283,8.74284 z"
       style="fill:#cc1818;stroke-width:1.0751549;fill-opacity:1"
       inkscape:connector-curvature="0" />
    <path
       id="path10751"
       d="m 367.42991,798.39962 c -0.0298,0.29395 -0.0292,0.57311 -0.0292,0.87484 0,4.82854 3.89073,8.7484 8.71927,8.7484 4.82854,0 8.7484,-3.91986 8.7484,-8.7484 0,-0.30173 6.1e-4,-0.58089 -0.0291,-0.87484 -0.48696,4.36746 -4.22183,7.75694 -8.71927,7.75694 -4.49744,0 -8.203,-3.38948 -8.69014,-7.75694 z"
       inkscape:connector-curvature="0"
       style="fill:#ffffff;stroke-width:0.30657399" />
    <path
       id="path10757"
       d="m 394.40842,825.37813 c -0.0298,0.29395 -0.0292,0.57311 -0.0292,0.8749 0,4.82854 3.89073,8.7484 8.71927,8.7484 4.82854,0 8.7484,-3.91986 8.7484,-8.7484 0,-0.30179 6.1e-4,-0.58095 -0.0291,-0.8749 -0.48696,4.36746 -4.22183,7.75694 -8.71927,7.75694 -4.49744,0 -8.203,-3.38948 -8.69014,-7.75694 z"
       inkscape:connector-curvature="0"
       style="fill:#ffffff;stroke-width:0.30657399" />
    <path
       id="path10759"
       d="m 340.4514,825.37813 c -0.0298,0.29395 -0.0292,0.57311 -0.0292,0.8749 0,4.82854 3.89073,8.7484 8.71927,8.7484 4.82854,0 8.7484,-3.91986 8.7484,-8.7484 0,-0.30179 6.1e-4,-0.58095 -0.0291,-0.8749 -0.48696,4.36746 -4.22183,7.75694 -8.71927,7.75694 -4.49744,0 -8.203,-3.38948 -8.69014,-7.75694 z"
       inkscape:connector-curvature="0"
       style="fill:#ffffff;stroke-width:0.30657399" />
    <path
       id="path10761"
       d="m 340.4514,768.96852 c -0.0298,0.29394 -0.0292,0.57305 -0.0292,0.87484 0,4.82854 3.89073,8.7484 8.71927,8.7484 4.82854,0 8.7484,-3.91986 8.7484,-8.7484 0,-0.30179 6.1e-4,-0.5809 -0.0291,-0.87484 -0.48696,4.36745 -4.22183,7.75694 -8.71927,7.75694 -4.49744,0 -8.203,-3.38949 -8.69014,-7.75694 z"
       inkscape:connector-curvature="0"
       style="fill:#ffffff;stroke-width:0.30657399" />
    <path
       id="path10763"
       d="m 394.40842,768.96852 c -0.0298,0.29394 -0.0292,0.57305 -0.0292,0.87484 0,4.82854 3.89073,8.7484 8.71927,8.7484 4.82854,0 8.7484,-3.91986 8.7484,-8.7484 0,-0.30179 6.1e-4,-0.5809 -0.0291,-0.87484 -0.48696,4.36745 -4.22183,7.75694 -8.71927,7.75694 -4.49744,0 -8.203,-3.38949 -8.69014,-7.75694 z"
       inkscape:connector-curvature="0"
       style="fill:#ffffff;stroke-width:0.30657399" />
  </g>
  <metadata
     id="metadata38">
    <rdf:RDF>
      <cc:Work>
        <dc:format>image/svg+xml</dc:format>
        <dc:type
           rdf:resource="http://purl.org/dc/dcmitype/StillImage" />
        <cc:license
           rdf:resource="http://creativecommons.org/publicdomain/zero/1.0/" />
        <dc:publisher>
          <cc:Agent
             rdf:about="http://openclipart.org/">
            <dc:title>Openclipart</dc:title>
          </cc:Agent>
        </dc:publisher>
        <dc:title></dc:title>
        <dc:date>2010-11-16T20:18:44</dc:date>
        <dc:description>The six sides of a dice</dc:description>
        <dc:source>http://openclipart.org/detail/96103/dado-5-by-rg1024</dc:source>
        <dc:creator>
          <cc:Agent>
            <dc:title>rg1024</dc:title>
          </cc:Agent>
        </dc:creator>
        <dc:subject>
          <rdf:Bag>
            <rdf:li>clip art</rdf:li>
            <rdf:li>clipart</rdf:li>
            <rdf:li>dice</rdf:li>
            <rdf:li>game</rdf:li>
          </rdf:Bag>
        </dc:subject>
      </cc:Work>
      <cc:License
         rdf:about="http://creativecommons.org/publicdomain/zero/1.0/">
        <cc:permits
           rdf:resource="http://creativecommons.org/ns#Reproduction" />
        <cc:permits
           rdf:resource="http://creativecommons.org/ns#Distribution" />
        <cc:permits
           rdf:resource="http://creativecommons.org/ns#DerivativeWorks" />
      </cc:License>
    </rdf:RDF>
  </metadata>
</svg>
