<svg xmlns:dc="http://purl.org/dc/elements/1.1/" xmlns:cc="http://creativecommons.org/ns#" xmlns:rdf="http://www.w3.org/1999/02/22-rdf-syntax-ns#" xmlns="http://www.w3.org/2000/svg" xmlns:xlink="http://www.w3.org/1999/xlink" xmlns:sodipodi="http://sodipodi.sourceforge.net/DTD/sodipodi-0.dtd" xmlns:inkscape="http://www.inkscape.org/namespaces/inkscape" id="svg7219" viewBox="0 0 128 128" version="1.1" inkscape:version="0.92.1 r15371" sodipodi:docname="diceface.svg" width="128" height="128"><sodipodi:namedview pagecolor="#ffffff" bordercolor="#666666" borderopacity="1" objecttolerance="10" gridtolerance="10" guidetolerance="10" inkscape:pageopacity="0" inkscape:pageshadow="2" inkscape:window-width="1884" inkscape:window-height="1051" id="namedview40" showgrid="false" fit-margin-top="0" fit-margin-left="0" fit-margin-right="0" fit-margin-bottom="0" inkscape:zoom="2.1313903" inkscape:cx="94.610652" inkscape:cy="32.673379" inkscape:window-x="0" inkscape:window-y="0" inkscape:window-maximized="1" inkscape:current-layer="layer1"/><defs id="defs7221"><radialGradient id="radialGradient6353" gradientUnits="userSpaceOnUse" cy="94.288002" cx="103.59" gradientTransform="matrix(1 0 0 .84932 0 14.208)" r="25.809"><stop id="stop9500-8" stop-color="#fff" offset="0"/><stop id="stop9502-8" stop-color="#fff" stop-opacity="0" offset="1"/></radialGradient><radialGradient inkscape:collect="always" xlink:href="#radialGradient6353" id="radialGradient3368" gradientUnits="userSpaceOnUse" gradientTransform="matrix(1 0 0 .84932 0 14.208)" cx="103.59" cy="94.288002" r="25.809"/><radialGradient inkscape:collect="always" xlink:href="#radialGradient6353" id="radialGradient3370" gradientUnits="userSpaceOnUse" gradientTransform="matrix(1 0 0 .84932 0 14.208)" cx="103.59" cy="94.288002" r="25.809"/><filter id="filter9518-1" style="color-interpolation-filters:sRGB"><feGaussianBlur id="feGaussianBlur9520-0" stdDeviation="0.71376063"/></filter></defs><g id="layer1" transform="rotate(49.722 1009.613 94.772)"><rect id="rect10731" ry="11.387077" height="91.095398" width="91.095398" y="751.88617" x="330.58893" style="fill:#edeaea;fill-opacity:1;stroke:#c7bfbf;stroke-width:3;stroke-miterlimit:4;stroke-dasharray:none;stroke-opacity:1"/><path id="path10733" d="M129.4 94.288c0 12.106-11.555 21.92-25.809 21.92-14.254 0-25.809-9.814-25.809-21.92 0-12.106 11.555-21.92 25.809-21.92 14.254 0 25.809 9.814 25.809 21.92z" transform="matrix(1.05121 0 0 .67256 249.7 704.091)" style="opacity:.76327;fill:url(#radialGradient3368);filter:url(#filter9518-1)" inkscape:connector-curvature="0"/><path id="path10735" d="M129.4 94.288c0 12.106-11.555 21.92-25.809 21.92-14.254 0-25.809-9.814-25.809-21.92 0-12.106 11.555-21.92 25.809-21.92 14.254 0 25.809 9.814 25.809 21.92z" transform="matrix(.43684 0 0 .53899 363.202 779.671)" style="opacity:.76327;fill:url(#radialGradient3370);filter:url(#filter9518-1)" inkscape:connector-curvature="0"/><path id="path10737" d="M384.878 797.435a8.743 8.743 0 1 1-17.485 0 8.743 8.743 0 0 1 17.485 0z" style="fill:#cc1818;stroke-width:1.0751549;fill-opacity:1" inkscape:connector-curvature="0"/><path id="path10743" d="M357.9 768.004a8.743 8.743 0 1 1-17.486 0 8.743 8.743 0 0 1 17.486 0z" style="fill:#cc1818;stroke-width:1.0751549;fill-opacity:1" inkscape:connector-curvature="0"/><path id="path10745" d="M411.856 768.004a8.743 8.743 0 1 1-17.486 0 8.743 8.743 0 0 1 17.486 0z" style="fill:#cc1818;stroke-width:1.0751549;fill-opacity:1" inkscape:connector-curvature="0"/><path id="path10747" d="M357.9 824.414a8.743 8.743 0 1 1-17.486 0 8.743 8.743 0 0 1 17.486 0z" style="fill:#cc1818;stroke-width:1.0751549;fill-opacity:1" inkscape:connector-curvature="0"/><path id="path10749" d="M411.856 824.414a8.743 8.743 0 1 1-17.486 0 8.743 8.743 0 0 1 17.486 0z" style="fill:#cc1818;stroke-width:1.0751549;fill-opacity:1" inkscape:connector-curvature="0"/><path id="path10751" d="M367.43 798.4c-.03.294-.03.573-.03.874 0 4.829 3.891 8.749 8.72 8.749 4.829 0 8.748-3.92 8.748-8.749 0-.301.001-.58-.029-.874-.487 4.367-4.222 7.757-8.719 7.757a8.74 8.74 0 0 1-8.69-7.757z" inkscape:connector-curvature="0" style="fill:#fff;stroke-width:.30657399"/><path id="path10757" d="M394.408 825.378c-.03.294-.029.573-.029.875 0 4.829 3.89 8.748 8.72 8.748 4.828 0 8.748-3.92 8.748-8.748 0-.302 0-.58-.03-.875-.486 4.368-4.221 7.757-8.718 7.757a8.74 8.74 0 0 1-8.69-7.757z" inkscape:connector-curvature="0" style="fill:#fff;stroke-width:.30657399"/><path id="path10759" d="M340.451 825.378c-.03.294-.029.573-.029.875 0 4.829 3.89 8.748 8.72 8.748 4.828 0 8.748-3.92 8.748-8.748 0-.302 0-.58-.03-.875-.486 4.368-4.221 7.757-8.719 7.757a8.74 8.74 0 0 1-8.69-7.757z" inkscape:connector-curvature="0" style="fill:#fff;stroke-width:.30657399"/><path id="path10761" d="M340.451 768.969c-.03.293-.029.573-.029.874 0 4.829 3.89 8.749 8.72 8.749 4.828 0 8.748-3.92 8.748-8.749 0-.301 0-.58-.03-.874-.486 4.367-4.221 7.756-8.719 7.756a8.74 8.74 0 0 1-8.69-7.756z" inkscape:connector-curvature="0" style="fill:#fff;stroke-width:.30657399"/><path id="path10763" d="M394.408 768.969c-.03.293-.029.573-.029.874 0 4.829 3.89 8.749 8.72 8.749 4.828 0 8.748-3.92 8.748-8.749 0-.301 0-.58-.03-.874-.486 4.367-4.221 7.756-8.718 7.756a8.74 8.74 0 0 1-8.69-7.756z" inkscape:connector-curvature="0" style="fill:#fff;stroke-width:.30657399"/></g><metadata id="metadata38"><rdf:RDF><cc:Work><dc:format>image/svg+xml</dc:format><dc:type rdf:resource="http://purl.org/dc/dcmitype/StillImage"/><cc:license rdf:resource="http://creativecommons.org/publicdomain/zero/1.0/"/><dc:publisher><cc:Agent rdf:about="http://openclipart.org/"><dc:title>Openclipart</dc:title></cc:Agent></dc:publisher><dc:title/><dc:date>2010-11-16T20:18:44</dc:date><dc:description>The six sides of a dice</dc:description><dc:source>http://openclipart.org/detail/96103/dado-5-by-rg1024</dc:source><dc:creator><cc:Agent><dc:title>rg1024</dc:title></cc:Agent></dc:creator><dc:subject><rdf:Bag><rdf:li>clip art</rdf:li><rdf:li>clipart</rdf:li><rdf:li>dice</rdf:li><rdf:li>game</rdf:li></rdf:Bag></dc:subject></cc:Work><cc:License rdf:about="http://creativecommons.org/publicdomain/zero/1.0/"><cc:permits rdf:resource="http://creativecommons.org/ns#Reproduction"/><cc:permits rdf:resource="http://creativecommons.org/ns#Distribution"/><cc:permits rdf:resource="http://creativecommons.org/ns#DerivativeWorks"/></cc:License></rdf:RDF></metadata></svg>