<?xml version="1.0" encoding="UTF-8" standalone="no"?>
<!-- Created with Inkscape (http://www.inkscape.org/) -->

<svg
   xmlns:dc="http://purl.org/dc/elements/1.1/"
   xmlns:cc="http://creativecommons.org/ns#"
   xmlns:rdf="http://www.w3.org/1999/02/22-rdf-syntax-ns#"
   xmlns:svg="http://www.w3.org/2000/svg"
   xmlns="http://www.w3.org/2000/svg"
   xmlns:xlink="http://www.w3.org/1999/xlink"
   xmlns:sodipodi="http://sodipodi.sourceforge.net/DTD/sodipodi-0.dtd"
   xmlns:inkscape="http://www.inkscape.org/namespaces/inkscape"
   id="svg2620"
   sodipodi:docname="glass.svg"
   viewBox="0 0 235.45639 297.74042"
   sodipodi:version="0.32"
   version="1.0"
   inkscape:output_extension="org.inkscape.output.svg.inkscape"
   inkscape:version="0.91 r13725"
   width="235.45639"
   height="297.74042">
  <defs
     id="defs2622">
    <linearGradient
       id="linearGradient7496"
       y2="542.41998"
       xlink:href="#linearGradient6578"
       gradientUnits="userSpaceOnUse"
       x2="-204.08"
       gradientTransform="matrix(0.95954,0,0,0.91232,-7.9868,58.542)"
       y1="498.04999"
       x1="-204.72"
       inkscape:collect="always" />
    <linearGradient
       id="linearGradient6578"
       inkscape:collect="always">
      <stop
         id="stop6580"
         style="stop-color:#9caf4f"
         offset="0" />
      <stop
         id="stop6582"
         style="stop-color:#9caf4f;stop-opacity:0"
         offset="1" />
    </linearGradient>
    <linearGradient
       id="linearGradient7494"
       y2="542.41998"
       xlink:href="#linearGradient6578"
       gradientUnits="userSpaceOnUse"
       x2="-204.08"
       y1="547.58002"
       x1="-261.48001"
       inkscape:collect="always" />
    <linearGradient
       id="linearGradient7492"
       y2="439.76001"
       gradientUnits="userSpaceOnUse"
       x2="-163.24001"
       y1="478.69"
       x1="-165.63"
       inkscape:collect="always">
      <stop
         id="stop6570"
         style="stop-color:#558c30"
         offset="0" />
      <stop
         id="stop6572"
         style="stop-color:#4d653c;stop-opacity:0"
         offset="1" />
    </linearGradient>
  </defs>
  <sodipodi:namedview
     id="base"
     bordercolor="#666666"
     inkscape:pageshadow="2"
     guidetolerance="10"
     pagecolor="#ffffff"
     gridtolerance="10000"
     inkscape:window-height="704"
     inkscape:zoom="0.84365568"
     objecttolerance="10"
     borderopacity="1.0"
     inkscape:current-layer="layer1"
     inkscape:cx="-92.551385"
     inkscape:cy="207.67846"
     inkscape:window-y="27"
     inkscape:window-x="0"
     inkscape:window-width="1366"
     inkscape:pageopacity="0.0"
     inkscape:document-units="px"
     showgrid="false"
     fit-margin-top="0"
     fit-margin-left="0"
     fit-margin-right="0"
     fit-margin-bottom="0"
     inkscape:window-maximized="1" />
  <g
     id="layer1"
     inkscape:label="Layer 1"
     inkscape:groupmode="layer"
     transform="translate(-236.19775,-89.068078)">
    <g
       id="g7481"
       inkscape:export-ydpi="300"
       inkscape:export-xdpi="300"
       inkscape:export-filename="/home/biswa/Desktop/Image for Rahul Book/created by Biswa/Biswa_Bin.png"
       transform="matrix(1.1515466,0.17185731,-0.16931848,1.134535,627.40998,-343.8023)">
      <ellipse
         id="path4790"
         style="fill:#44aa00;stroke:#331f13;stroke-width:1.60000002;stroke-opacity:0.94643004"
         cx="-171.81961"
         cy="444.91913"
         rx="100.66199"
         ry="32.975479" />
      <ellipse
         id="path4792"
         style="fill:none;stroke:#ee13d2;stroke-width:1.55809999;stroke-opacity:0.94643004"
         transform="matrix(0.6905,0,0,0.63414,-53.179,356.78)"
         cx="-171.81961"
         cy="444.91913"
         rx="100.66199"
         ry="45.256855" />
      <path
         id="path5679"
         sodipodi:nodetypes="ccsssssssscsssszc"
         style="fill:#bcd35f;fill-rule:evenodd;stroke:#000000;stroke-width:1px"
         d="m -273.36,446.44 32.39,192.88 c 0,0 -0.22,4.25 2.61,8.35 1.73,2.51 5.53,4.4 8.54,6.88 4.1,3.38 9.98,4.7 16.19,7.04 12.52,4.71 28.37,6.32 43.57,5.67 27.08,-1.15 41.35,-4.79 50.98,-9.5 7.69,-3.76 9.88,-6.6 11.62,-8.76 2.23,-2.75 4.26,-3.91 4.71,-9.69 0.04,-0.58 0.86,-4.85 2.02,-11.79 7.117,-42.28 30.312,-183.24 30.312,-183.24 0,0 -1.738,12.48 -23.819,20.85 -6.323,2.4 -10.903,4.61 -17.533,6.3 -8.41,2.14 -23.25,5.87 -44.77,6.17 -14.66,0.2 -21.8,-0.22 -28.86,-0.29 -8.84,-0.08 -18.03,0.7 -39.68,-3.61 -37.76,-7.51 -48.28,-27.26 -48.28,-27.26 z"
         inkscape:connector-curvature="0" />
      <ellipse
         id="path5681"
         style="fill:url(#linearGradient7492);stroke:#331f13;stroke-width:2;stroke-opacity:0.94643004"
         cx="-171.81961"
         cy="444.91913"
         rx="100.66199"
         ry="32.975479" />
      <path
         id="path6576"
         sodipodi:nodetypes="ccsssssssscsssszc"
         style="fill:url(#linearGradient7494);fill-rule:evenodd;stroke:#000000;stroke-width:1px"
         d="m -273.36,446.44 32.39,192.88 c 0,0 -0.22,4.25 2.61,8.35 1.73,2.51 5.53,4.4 8.54,6.88 4.1,3.38 9.98,4.7 16.19,7.04 12.52,4.71 28.37,6.32 43.57,5.67 27.08,-1.15 41.35,-4.79 50.98,-9.5 7.69,-3.76 9.88,-6.6 11.62,-8.76 2.23,-2.75 4.26,-3.91 4.71,-9.69 0.04,-0.58 0.86,-4.85 2.02,-11.79 7.117,-42.28 30.312,-183.24 30.312,-183.24 0,0 -1.738,12.48 -23.819,20.85 -6.323,2.4 -10.903,4.61 -17.533,6.3 -8.41,2.14 -23.25,5.87 -44.77,6.17 -14.66,0.2 -21.8,-0.22 -28.86,-0.29 -8.84,-0.08 -18.03,0.7 -39.68,-3.61 -37.76,-7.51 -48.28,-27.26 -48.28,-27.26 z"
         inkscape:connector-curvature="0" />
      <path
         id="path6586"
         sodipodi:rx="99.528305"
         sodipodi:ry="32.975479"
         style="fill:none;stroke:#331f13;stroke-width:1.60000002;stroke-opacity:0.94643004"
         sodipodi:type="arc"
         d="m -72.291306,444.91913 a 99.528305,32.975479 0 0 1 -49.764154,28.5576 99.528305,32.975479 0 0 1 -99.52831,0 99.528305,32.975479 0 0 1 -49.76415,-28.5576"
         sodipodi:open="true"
         transform="matrix(0.9937,0,0,1.0001,-1.3973,15.931)"
         sodipodi:cy="444.91913"
         sodipodi:cx="-171.81961"
         sodipodi:end="3.1415927"
         sodipodi:start="0" />
      <path
         id="path6588"
         sodipodi:nodetypes="ccsssssssscsssszc"
         style="fill:url(#linearGradient7496);fill-rule:evenodd"
         d="m -269.16,470.37 29.95,171.44 c 0,0 -0.21,3.88 2.51,7.61 1.66,2.29 5.3,4.02 8.2,6.28 3.92,3.08 9.57,4.29 15.53,6.42 12.01,4.3 27.22,5.77 41.81,5.17 25.98,-1.05 39.67,-4.37 48.91,-8.67 7.38,-3.43 9.48,-6.01 11.16,-7.98 2.13,-2.52 4.08,-3.58 4.51,-8.85 0.04,-0.52 0.82,-4.42 1.94,-10.75 6.827,-38.57 28.801,-158.67 28.801,-158.67 0,0 -1.101,4.3 -22.288,11.94 -6.063,2.19 -10.753,2.78 -17.103,4.32 -8.08,1.96 -20.9,5.36 -41.55,5.63 -14.06,0.18 -22.63,0.25 -29.39,-0.26 -8.48,-0.64 -17.3,-1.06 -37.79,-3.29 -20.76,-2.26 -45.2,-20.34 -45.2,-20.34 z"
         inkscape:connector-curvature="0" />
      <path
         id="path6592"
         sodipodi:rx="100.66199"
         sodipodi:ry="45.256855"
         style="fill:none;stroke:#ee13d2;stroke-width:1.55809999;stroke-opacity:0.94643004"
         sodipodi:type="arc"
         sodipodi:start="0"
         sodipodi:open="true"
         transform="matrix(0.70213,0,0,0.63396,-51.179,346.86)"
         sodipodi:cy="444.91913"
         sodipodi:cx="-171.81961"
         sodipodi:end="3.1484861"
         d="m -71.157623,444.91913 a 100.66199,45.256855 0 0 1 -50.531437,39.24548 100.66199,45.256855 0 0 1 -100.86164,-0.1563 100.66199,45.256855 0 0 1 -49.92851,-39.40115" />
      <ellipse
         id="path7479"
         style="fill:none;stroke:#331f13;stroke-width:2;stroke-opacity:0.94643004"
         transform="matrix(0.94702,0,0,0.91202,-9.1028,39.146)"
         cx="-171.81961"
         cy="444.91913"
         rx="100.66199"
         ry="32.975479" />
    </g>
  </g>
  <metadata
     id="metadata24">
    <rdf:RDF>
      <cc:Work>
        <dc:format>image/svg+xml</dc:format>
        <dc:type
           rdf:resource="http://purl.org/dc/dcmitype/StillImage" />
        <cc:license
           rdf:resource="http://creativecommons.org/publicdomain/zero/1.0/" />
        <dc:publisher>
          <cc:Agent
             rdf:about="http://openclipart.org/">
            <dc:title>Openclipart</dc:title>
          </cc:Agent>
        </dc:publisher>
        <dc:title>Bin</dc:title>
        <dc:date>2007-09-03T08:04:22</dc:date>
        <dc:description />
        <dc:source>https://openclipart.org/detail/5144/bin-by-biswajyotim</dc:source>
        <dc:creator>
          <cc:Agent>
            <dc:title>biswajyotim</dc:title>
          </cc:Agent>
        </dc:creator>
        <dc:subject>
          <rdf:Bag>
            <rdf:li>bin</rdf:li>
            <rdf:li>cartoon</rdf:li>
            <rdf:li>icon</rdf:li>
            <rdf:li>recycle</rdf:li>
          </rdf:Bag>
        </dc:subject>
      </cc:Work>
      <cc:License
         rdf:about="http://creativecommons.org/publicdomain/zero/1.0/">
        <cc:permits
           rdf:resource="http://creativecommons.org/ns#Reproduction" />
        <cc:permits
           rdf:resource="http://creativecommons.org/ns#Distribution" />
        <cc:permits
           rdf:resource="http://creativecommons.org/ns#DerivativeWorks" />
      </cc:License>
    </rdf:RDF>
  </metadata>
</svg>
