<?xml version="1.0" encoding="UTF-8" standalone="no"?>
<!-- Created with Sodipodi ("http://www.sodipodi.com/") -->

<svg
   xmlns:dc="http://purl.org/dc/elements/1.1/"
   xmlns:cc="http://creativecommons.org/ns#"
   xmlns:rdf="http://www.w3.org/1999/02/22-rdf-syntax-ns#"
   xmlns:svg="http://www.w3.org/2000/svg"
   xmlns="http://www.w3.org/2000/svg"
   xmlns:sodipodi="http://sodipodi.sourceforge.net/DTD/sodipodi-0.dtd"
   xmlns:inkscape="http://www.inkscape.org/namespaces/inkscape"
   id="svg638"
   sodipodi:version="0.34"
   width="128"
   height="128"
   xml:space="preserve"
   sodipodi:docname="halforange.svg"
   version="1.1"
   inkscape:version="0.92.1 r15371"><metadata
     id="metadata3599"><rdf:RDF><cc:Work
         rdf:about=""><dc:format>image/svg+xml</dc:format><dc:type
           rdf:resource="http://purl.org/dc/dcmitype/StillImage" /><dc:title></dc:title></cc:Work></rdf:RDF></metadata><defs
     id="defs640" /><sodipodi:namedview
     id="base"
     showgrid="false"
     fit-margin-top="0"
     fit-margin-left="0"
     fit-margin-right="0"
     fit-margin-bottom="0"
     inkscape:zoom="3.5881183"
     inkscape:cx="75.980952"
     inkscape:cy="55.672232"
     inkscape:window-width="1884"
     inkscape:window-height="1051"
     inkscape:window-x="0"
     inkscape:window-y="0"
     inkscape:window-maximized="1"
     inkscape:current-layer="svg638" /><path
     style="font-size:12px;fill:#ffce00;fill-opacity:1;fill-rule:evenodd;stroke-width:1.06849945"
     d="m 127,54.223934 c 0,30.895222 -28.206058,55.940736 -63.000015,55.940736 -34.793925,0 -62.9999867,-25.045514 -62.9999867,-55.940736 0,-22.205346 33.4560747,-36.3886 61.9499917,-36.3886 29.543943,0 64.05001,16.355687 64.05001,36.3886 z"
     id="path643"
     sodipodi:nodetypes="ccccc"
     inkscape:connector-curvature="0" /><path
     style="font-size:12px;fill:#f0a631;fill-opacity:1;fill-rule:evenodd;stroke-width:1.06849945"
     d="m 127,54.223934 c 0,30.895222 -28.206058,55.940736 -63.000015,55.940736 -34.793925,0 -62.9999867,-25.045514 -62.9999867,-55.940736 0,-22.205346 33.4560747,-36.3886 61.9499917,-36.3886 29.543943,0 64.05001,16.355687 64.05001,36.3886 z"
     id="path644"
     sodipodi:nodetypes="ccccc"
     inkscape:connector-curvature="0" /><path
     style="font-size:12px;fill:#f1ad41;fill-opacity:1;fill-rule:evenodd;stroke-width:1.01738143"
     d="m 124.1358,53.467192 c 0,29.375029 -26.895078,53.188238 -60.072203,53.188238 -33.176973,0 -60.0720607,-23.813209 -60.0720607,-53.188238 0,-21.112573 31.9010577,-34.598091 59.0711147,-34.598091 28.170854,0 61.073149,15.550868 61.073149,34.598091 z"
     id="path650"
     sodipodi:nodetypes="ccccc"
     inkscape:connector-curvature="0" /><path
     style="font-size:12px;fill:#f7f0be;fill-opacity:1;fill-rule:evenodd;stroke-width:1.06849945"
     d="m 123.84987,49.878916 c 0,15.897536 -26.795754,28.785037 -59.849969,28.785037 -33.054226,0 -60.5923819,-12.887501 -60.5923819,-28.785037 0,-15.897534 27.5381559,-29.937128 60.5923819,-29.937128 33.054215,0 59.849969,18.264056 59.849969,29.937128 z"
     id="path652"
     sodipodi:nodetypes="ccccc"
     inkscape:connector-curvature="0" /><path
     style="font-size:12px;fill:#f7de95;fill-opacity:1;fill-rule:evenodd;stroke-width:1.06849945"
     d="M 75.218639,75.985377 C 68.909711,77.66838 57.044393,77.5578 50.064514,76.51544 49.725581,71.651106 55.370416,59.506687 63.678523,54.121256 c 9.636281,6.948955 11.540116,16.929026 11.540116,21.864121 z"
     id="path655"
     sodipodi:nodetypes="cccc"
     inkscape:connector-curvature="0" /><path
     style="font-size:12px;fill:#f7de95;fill-opacity:1;fill-rule:evenodd;stroke-width:1.06849945"
     d="M 100.2807,69.06484 C 95.91552,73.574385 85.870341,74.743843 78.699023,75.314324 76.397931,68.183943 73.405486,62.750486 67.451176,53.106598 74.372593,51.61565 94.436427,62.006545 100.2807,69.06484 Z"
     id="path659"
     sodipodi:nodetypes="cccc"
     inkscape:connector-curvature="0" /><path
     style="font-size:12px;fill:#f7de95;fill-opacity:1;fill-rule:evenodd;stroke-width:1.06849945"
     d="m 26.987026,68.296729 c 4.365183,4.509555 11.811761,5.679002 18.983068,6.249495 2.301102,-7.130382 6.77845,-12.947894 13.475223,-21.055636 -9.891277,-1.106859 -26.614014,7.747844 -32.458291,14.806141 z"
     id="path660"
     sodipodi:nodetypes="cccc"
     inkscape:connector-curvature="0" /><path
     style="font-size:12px;fill:#f7de95;fill-opacity:1;fill-rule:evenodd;stroke-width:1.06849945"
     d="m 20.423144,33.145217 c 9.15972,2.167357 25.17024,8.433457 31.314759,14.064219 C 34.780141,49.123836 18.501746,50.24215 6.0497705,53.468538 5.9246523,42.165164 12.199984,35.519138 20.423144,33.145217 Z"
     id="path661"
     sodipodi:nodetypes="cccc"
     inkscape:connector-curvature="0" /><path
     style="font-size:12px;fill:#f7de95;fill-opacity:1;fill-rule:evenodd;stroke-width:1.06849945"
     d="m 104.18453,31.609037 c -9.159722,2.167335 -23.685297,8.817492 -29.829816,14.448242 16.957762,1.9144 34.349846,3.416727 46.801826,6.643158 0.12512,-11.303384 -9.4913,-17.181332 -16.97201,-21.0914 z"
     id="path662"
     sodipodi:nodetypes="cccc"
     inkscape:connector-curvature="0" /><path
     style="font-size:12px;fill:#f7de95;fill-opacity:1;fill-rule:evenodd;stroke-width:1.06849945"
     d="M 52.277455,22.386992 C 58.586382,20.703988 70.45169,20.814567 77.431569,21.856916 77.770512,26.721261 72.125678,38.865669 63.81757,44.251111 54.181279,37.302157 52.277455,27.322074 52.277455,22.386992 Z"
     id="path663"
     sodipodi:nodetypes="cccc"
     inkscape:connector-curvature="0" /><path
     style="font-size:12px;fill:#f7de95;fill-opacity:1;fill-rule:evenodd;stroke-width:1.06849945"
     d="M 99.909492,30.033462 C 95.544305,26.291985 87.726491,24.354491 80.555172,23.015898 78.254113,30.146279 74.519205,35.579747 67.822443,44.839579 85.509557,37.497625 91.466609,34.787509 99.909492,30.033462 Z"
     id="path664"
     sodipodi:nodetypes="cccc"
     inkscape:connector-curvature="0" /><path
     style="font-size:12px;fill:#f7de95;fill-opacity:1;fill-rule:evenodd;stroke-width:1.06849945"
     d="m 24.017176,31.185586 c 4.365215,-3.74151 17.751491,-7.215151 24.922798,-8.553733 2.301071,7.130382 8.263364,18.324415 8.649193,22.591739 C 52.152683,48.25072 33.202549,34.019408 24.017176,31.185586 Z"
     id="path665"
     sodipodi:nodetypes="cccc"
     inkscape:connector-curvature="0" /><path
     style="font-size:12px;fill:#f7de95;fill-opacity:1;fill-rule:evenodd;stroke-width:1.06849945"
     d="M 6.9405465,56.007443 C 11.305731,60.516987 16.896147,67.062999 24.067466,67.633491 27.111019,60.503109 44.581461,55.06962 53.876825,49.650172 42.500655,49.695381 17.239576,52.405476 6.9405465,56.007443 Z"
     id="path666"
     sodipodi:nodetypes="cccc"
     inkscape:connector-curvature="0" /><path
     style="font-size:12px;fill:#f7de95;fill-opacity:1;fill-rule:evenodd;stroke-width:1.06849945"
     d="m 119.58473,56.007443 c -4.36519,4.509544 -9.95561,11.055556 -17.12692,11.626048 C 99.414262,60.503109 81.943816,55.06962 72.648442,49.650172 c 11.37618,0.0452 36.637258,2.755304 46.936288,6.357271 z"
     id="path667"
     sodipodi:nodetypes="cccc"
     inkscape:connector-curvature="0" /></svg>