<svg xmlns:dc="http://purl.org/dc/elements/1.1/" xmlns:cc="http://creativecommons.org/ns#" xmlns:rdf="http://www.w3.org/1999/02/22-rdf-syntax-ns#" xmlns="http://www.w3.org/2000/svg" version="1.1" id="svg2" viewBox="0 0 128 128" height="128" width="128"><metadata id="metadata7"><rdf:RDF><cc:Work><dc:format>image/svg+xml</dc:format><dc:type rdf:resource="http://purl.org/dc/dcmitype/StillImage"/><dc:title/><dc:date>2022</dc:date><dc:creator><cc:Agent><dc:title>Timothée Giet</dc:title></cc:Agent></dc:creator><cc:license rdf:resource="http://creativecommons.org/licenses/by-sa/4.0/"/></cc:Work><cc:License rdf:about="http://creativecommons.org/licenses/by-sa/4.0/"><cc:permits rdf:resource="http://creativecommons.org/ns#Reproduction"/><cc:permits rdf:resource="http://creativecommons.org/ns#Distribution"/><cc:requires rdf:resource="http://creativecommons.org/ns#Notice"/><cc:requires rdf:resource="http://creativecommons.org/ns#Attribution"/><cc:permits rdf:resource="http://creativecommons.org/ns#DerivativeWorks"/><cc:requires rdf:resource="http://creativecommons.org/ns#ShareAlike"/></cc:License></rdf:RDF></metadata><g transform="translate(283.53 -1366.648)" id="layer1"><g transform="matrix(-.0008 .36703 -.36703 -.0008 -280.978 1322.278)" id="layer1-7-0" style="fill:#424242;fill-opacity:1;opacity:1"><path style="fill:#424242;fill-opacity:1;fill-rule:evenodd;stroke-width:1;opacity:1" d="m121.689-168.063 86.599 149.996 86.602-149.992-86.597 149.992 173.202.004 86.607-150.003-86.61-149.996-173.196.007-.006-.012z" id="path3346-9"/></g><g id="layer1-7" transform="rotate(90.125 -751.45 615.575) scale(.34641)"><path d="m7.103 236.335 86.602-150 86.601 150H7.106z" style="fill:#d43e3e;fill-opacity:1;fill-rule:evenodd;opacity:1" id="path3346"/><path d="m93.705 386.335 86.601-150 86.6 150h-173.2z" style="fill:#4646d1;fill-opacity:1;fill-rule:evenodd;opacity:1" id="path3348"/><path d="m180.306 236.335 86.6-150 86.61 150z" style="fill:#2eca2e;fill-opacity:1;fill-rule:evenodd;opacity:1" id="path3350"/><path d="m7.103 236.335 86.602 150 86.601-150H7.106z" style="fill:#cf4ccf;fill-opacity:1;fill-rule:evenodd;opacity:1" id="path3352"/><path d="m93.705 86.34 86.601 150 86.6-150-173.2.005z" style="fill:#d4d433;fill-opacity:1;fill-rule:evenodd;opacity:1" id="path3354"/><path d="m180.306 236.335 86.6 150 86.61-150z" style="fill:#2acaca;fill-opacity:1;fill-rule:evenodd;opacity:1" id="path3356"/></g></g></svg>