<?xml version="1.0" encoding="UTF-8" standalone="no"?>
<!-- Created with Inkscape (http://www.inkscape.org/) -->

<svg
   xmlns:dc="http://purl.org/dc/elements/1.1/"
   xmlns:cc="http://creativecommons.org/ns#"
   xmlns:rdf="http://www.w3.org/1999/02/22-rdf-syntax-ns#"
   xmlns:svg="http://www.w3.org/2000/svg"
   xmlns="http://www.w3.org/2000/svg"
   xmlns:sodipodi="http://sodipodi.sourceforge.net/DTD/sodipodi-0.dtd"
   xmlns:inkscape="http://www.inkscape.org/namespaces/inkscape"
   width="128"
   height="128"
   viewBox="0 0 128 128"
   id="svg2"
   version="1.1"
   inkscape:version="0.92.1 r15371"
   sodipodi:docname="hexagon4.svg">
  <defs
     id="defs4" />
  <sodipodi:namedview
     id="base"
     pagecolor="#ffffff"
     bordercolor="#666666"
     borderopacity="1.0"
     inkscape:pageopacity="0.0"
     inkscape:pageshadow="2"
     inkscape:zoom="2.8"
     inkscape:cx="63.789049"
     inkscape:cy="49.195431"
     inkscape:document-units="px"
     inkscape:current-layer="layer1-79"
     showgrid="false"
     inkscape:window-width="938"
     inkscape:window-height="1051"
     inkscape:window-x="942"
     inkscape:window-y="0"
     inkscape:window-maximized="0"
     fit-margin-top="0"
     fit-margin-left="0"
     fit-margin-right="0"
     fit-margin-bottom="0"
     units="px" />
  <metadata
     id="metadata7">
    <rdf:RDF>
      <cc:Work
         rdf:about="">
        <dc:format>image/svg+xml</dc:format>
        <dc:type
           rdf:resource="http://purl.org/dc/dcmitype/StillImage" />
        <dc:title></dc:title>
      </cc:Work>
    </rdf:RDF>
  </metadata>
  <g
     inkscape:label="Layer 1"
     inkscape:groupmode="layer"
     id="layer1"
     transform="translate(283.5308,-1366.6479)">
    <g
       transform="matrix(-7.5871871e-4,0.34640702,-0.34640702,-7.5871871e-4,-137.5258,1368.3666)"
       id="layer1-7" />
    <g
       transform="matrix(0.0649519,0,0,0.0649519,-242.91348,1385.6778)"
       id="layer1-79">
      <path
         style="fill:#2792ce;stroke:none;stroke-width:15.39600754px;stroke-linecap:butt;stroke-linejoin:miter;stroke-opacity:1;fill-opacity:1"
         d="m -101.88024,-107.64 h 923.76008 l 384.90056,799.9998 -423.39019,733.3335 -846.78041,-2e-4 -423.39025,-733.33306 z"
         id="path15816"
         inkscape:connector-curvature="0" />
      <g
         id="g8525">
        <g
           transform="translate(157.30018,-14.067496)"
           id="g3485_1_">
          <path
             d="m -259.1804,-93.5725 -38.49,66.6667 h 76.98 l 38.49,-66.6667 z"
             id="path3041_1_"
             inkscape:connector-curvature="0"
             style="fill:#ff0000" />
          <path
             d="m -182.2004,-93.5725 -38.49,66.6667 h 76.98 l 38.49,-66.6667 z"
             id="path3043_1_"
             inkscape:connector-curvature="0"
             style="fill:#ff8000" />
          <path
             d="m -105.2204,-93.5725 -38.49,66.6667 h 76.98 l 38.49,-66.6667 z"
             id="path3045_1_"
             inkscape:connector-curvature="0"
             style="fill:#ffff00" />
          <path
             d="m -28.2403,-93.5725 -38.49,66.6667 h 76.98 l 38.49,-66.6667 z"
             id="path3049_1_"
             inkscape:connector-curvature="0"
             style="fill:#80ff00" />
          <path
             d="m 48.7397,-93.5725 -38.49,66.6667 h 76.98 l 38.4901,-66.6667 z"
             id="path3051_1_"
             inkscape:connector-curvature="0"
             style="fill:#00ff00" />
          <path
             d="m 125.7197,-93.5725 -38.49,66.6667 h 76.98 l 38.49,-66.6667 z"
             id="path3053_1_"
             inkscape:connector-curvature="0"
             style="fill:#00ff80" />
          <path
             d="m 202.6997,-93.5725 -38.49,66.6667 h 76.98 l 38.49,-66.6667 z"
             id="path3055_1_"
             inkscape:connector-curvature="0"
             style="fill:#00ffff" />
          <path
             d="m 279.6797,-93.5725 -38.49,66.6667 h 76.98 l 38.4901,-66.6667 z"
             id="path3057_1_"
             inkscape:connector-curvature="0"
             style="fill:#0080ff" />
          <path
             d="m 356.6598,-93.5725 -38.49,66.6667 h 76.98 l 38.49,-66.6667 z"
             id="path3059_1_"
             inkscape:connector-curvature="0"
             style="fill:#0000ff" />
          <path
             d="m 433.6399,-93.5725 -38.49,66.6667 H 472.13 l 38.49,-66.6667 z"
             id="path3061_1_"
             inkscape:connector-curvature="0"
             style="fill:#8000ff" />
          <path
             d="m 587.5999,-93.5725 -38.4901,66.6667 h 76.98 l 38.4899,-66.6667 z"
             id="path3063_1_"
             inkscape:connector-curvature="0"
             style="fill:#ff00ff" />
          <path
             d="m 510.6199,-93.5725 -38.49,66.6667 h 76.98 L 587.6,-93.5725 Z"
             id="path3065_1_"
             inkscape:connector-curvature="0"
             style="fill:#ff0080" />
        </g>
        <g
           transform="rotate(60,262.73786,834.34075)"
           id="g3629_1_">
          <path
             d="m -273.4703,-120.8811 -38.49,66.6667 h 76.98 l 38.4901,-66.6667 z"
             id="path3631_1_"
             inkscape:connector-curvature="0"
             style="fill:#ff0000" />
          <path
             d="m -196.4903,-120.8811 -38.49,66.6667 h 76.9801 l 38.49,-66.6667 z"
             id="path3633_1_"
             inkscape:connector-curvature="0"
             style="fill:#ff8000" />
          <path
             d="m -119.5102,-120.881 -38.49,66.6667 h 76.9801 l 38.49,-66.6667 z"
             id="path3635_1_"
             inkscape:connector-curvature="0"
             style="fill:#ffff00" />
          <path
             d="m -42.5302,-120.881 -38.4901,66.6667 h 76.9801 l 38.49,-66.6667 z"
             id="path3637_1_"
             inkscape:connector-curvature="0"
             style="fill:#80ff00" />
          <path
             d="m 34.4499,-120.881 -38.49,66.6667 h 76.98 L 111.43,-120.881 Z"
             id="path3639_1_"
             inkscape:connector-curvature="0"
             style="fill:#00ff00" />
          <path
             d="m 111.4299,-120.881 -38.49,66.6667 h 76.98 L 188.41,-120.881 Z"
             id="path3641_1_"
             inkscape:connector-curvature="0"
             style="fill:#00ff80" />
          <path
             d="m 188.41,-120.881 -38.4901,66.6667 H 226.9 l 38.49,-66.6667 z"
             id="path3643_1_"
             inkscape:connector-curvature="0"
             style="fill:#00ffff" />
          <path
             d="m 265.39,-120.881 -38.49,66.6667 h 76.9801 l 38.4901,-66.6667 z"
             id="path3645_1_"
             inkscape:connector-curvature="0"
             style="fill:#0080ff" />
          <path
             d="M 342.3701,-120.881 303.88,-54.2143 h 76.98 l 38.4901,-66.6667 z"
             id="path3647_1_"
             inkscape:connector-curvature="0"
             style="fill:#0000ff" />
          <path
             d="m 419.3502,-120.8809 -38.4901,66.6667 h 76.9801 l 38.49,-66.6667 z"
             id="path3649_1_"
             inkscape:connector-curvature="0"
             style="fill:#8000ff" />
          <path
             d="m 573.3103,-120.8809 -38.4901,66.6667 h 76.98 l 38.4901,-66.6667 z"
             id="path3651_1_"
             inkscape:connector-curvature="0"
             style="fill:#ff00ff" />
          <path
             d="m 496.3302,-120.8809 -38.49,66.6667 h 76.9801 l 38.4901,-66.6667 z"
             id="path3653_1_"
             inkscape:connector-curvature="0"
             style="fill:#ff0080" />
        </g>
        <g
           transform="rotate(120,254.616,743.52345)"
           id="g3655_1_">
          <path
             d="m -304.2652,-122.16 -38.49,66.6667 h 76.98 l 38.49,-66.6667 z"
             id="path3657_1_"
             inkscape:connector-curvature="0"
             style="fill:#ff0000" />
          <path
             d="m -227.2852,-122.16 -38.49,66.6667 h 76.9801 l 38.49,-66.6667 z"
             id="path3659_1_"
             inkscape:connector-curvature="0"
             style="fill:#ff8000" />
          <path
             d="m -150.3051,-122.16 -38.49,66.6667 h 76.9801 l 38.49,-66.6667 z"
             id="path3661_1_"
             inkscape:connector-curvature="0"
             style="fill:#ffff00" />
          <path
             d="m -73.325,-122.16 -38.49,66.6667 h 76.9801 L 3.655,-122.16 Z"
             id="path3663_1_"
             inkscape:connector-curvature="0"
             style="fill:#80ff00" />
          <path
             d="m 3.655,-122.16 -38.49,66.6667 h 76.98 L 80.6351,-122.16 Z"
             id="path3665_1_"
             inkscape:connector-curvature="0"
             style="fill:#00ff00" />
          <path
             d="m 80.635,-122.16 -38.49,66.6667 h 76.9801 l 38.49,-66.6667 z"
             id="path3667_1_"
             inkscape:connector-curvature="0"
             style="fill:#00ff80" />
          <path
             d="m 157.6151,-122.1601 -38.49,66.6667 h 76.98 l 38.49,-66.6667 z"
             id="path3669_1_"
             inkscape:connector-curvature="0"
             style="fill:#00ffff" />
          <path
             d="m 234.5951,-122.1601 -38.49,66.6667 h 76.9801 l 38.4901,-66.6667 z"
             id="path3671_1_"
             inkscape:connector-curvature="0"
             style="fill:#0080ff" />
          <path
             d="m 311.5752,-122.1601 -38.49,66.6667 h 76.9801 l 38.49,-66.6667 z"
             id="path3673_1_"
             inkscape:connector-curvature="0"
             style="fill:#0000ff" />
          <path
             d="m 388.5553,-122.1601 -38.49,66.6667 h 76.9801 l 38.49,-66.6667 z"
             id="path3675_1_"
             inkscape:connector-curvature="0"
             style="fill:#8000ff" />
          <path
             d="m 542.5154,-122.1601 -38.4901,66.6667 h 76.98 l 38.49,-66.6667 z"
             id="path3677_1_"
             inkscape:connector-curvature="0"
             style="fill:#ff00ff" />
          <path
             d="m 465.5353,-122.1601 -38.49,66.6667 h 76.98 l 38.4901,-66.6667 z"
             id="path3679_1_"
             inkscape:connector-curvature="0"
             style="fill:#ff0080" />
        </g>
        <g
           transform="rotate(180,250.55506,698.1148)"
           id="g3681_1_">
          <path
             d="m -320.77,-96.1303 -38.49,66.6667 h 76.98 l 38.49,-66.6667 z"
             id="path3683_1_"
             inkscape:connector-curvature="0"
             style="fill:#ff0000" />
          <path
             d="m -243.79,-96.1303 -38.49,66.6667 h 76.98 l 38.49,-66.6667 z"
             id="path3685_1_"
             inkscape:connector-curvature="0"
             style="fill:#ff8000" />
          <path
             d="m -166.8099,-96.1303 -38.49,66.6667 h 76.98 l 38.49,-66.6667 z"
             id="path3687_1_"
             inkscape:connector-curvature="0"
             style="fill:#ffff00" />
          <path
             d="m -89.8299,-96.1303 -38.49,66.6667 h 76.98 l 38.49,-66.6667 z"
             id="path3689_1_"
             inkscape:connector-curvature="0"
             style="fill:#80ff00" />
          <path
             d="m -12.8499,-96.1303 -38.49,66.6667 h 76.98 l 38.4901,-66.6667 z"
             id="path3691_1_"
             inkscape:connector-curvature="0"
             style="fill:#00ff00" />
          <path
             d="m 64.1301,-96.1303 -38.49,66.6667 h 76.98 l 38.49,-66.6667 z"
             id="path3693_1_"
             inkscape:connector-curvature="0"
             style="fill:#00ff80" />
          <path
             d="m 141.1102,-96.1303 -38.49,66.6667 h 76.98 l 38.49,-66.6667 z"
             id="path3695_1_"
             inkscape:connector-curvature="0"
             style="fill:#00ffff" />
          <path
             d="m 218.0902,-96.1303 -38.49,66.6667 h 76.98 l 38.4901,-66.6667 z"
             id="path3697_1_"
             inkscape:connector-curvature="0"
             style="fill:#0080ff" />
          <path
             d="m 295.0702,-96.1303 -38.49,66.6667 h 76.98 l 38.49,-66.6667 z"
             id="path3699_1_"
             inkscape:connector-curvature="0"
             style="fill:#0000ff" />
          <path
             d="m 372.0503,-96.1303 -38.49,66.6667 h 76.9801 l 38.49,-66.6667 z"
             id="path3701_1_"
             inkscape:connector-curvature="0"
             style="fill:#8000ff" />
          <path
             d="m 526.0104,-96.1303 -38.4901,66.6667 h 76.98 l 38.49,-66.6667 z"
             id="path3703_1_"
             inkscape:connector-curvature="0"
             style="fill:#ff00ff" />
          <path
             d="m 449.0303,-96.1303 -38.49,66.6667 h 76.98 l 38.4901,-66.6667 z"
             id="path3705_1_"
             inkscape:connector-curvature="0"
             style="fill:#ff0080" />
        </g>
        <g
           transform="rotate(-120,246.49413,652.70615)"
           id="g3707_1_">
          <path
             d="m -306.4803,-68.8219 -38.49,66.6667 h 76.98 l 38.4901,-66.6667 z"
             id="path3709_1_"
             inkscape:connector-curvature="0"
             style="fill:#ff0000" />
          <path
             d="m -229.5003,-68.8219 -38.49,66.6667 h 76.9801 l 38.49,-66.6667 z"
             id="path3711_1_"
             inkscape:connector-curvature="0"
             style="fill:#ff8000" />
          <path
             d="m -152.5202,-68.8219 -38.49,66.6667 h 76.9801 l 38.49,-66.6667 z"
             id="path3713_1_"
             inkscape:connector-curvature="0"
             style="fill:#ffff00" />
          <path
             d="m -75.5401,-68.8219 -38.4901,66.6667 h 76.9801 l 38.49,-66.6667 z"
             id="path3715_1_"
             inkscape:connector-curvature="0"
             style="fill:#80ff00" />
          <path
             d="m 1.4399,-68.8219 -38.49,66.6667 h 76.98 L 78.42,-68.8218 Z"
             id="path3717_1_"
             inkscape:connector-curvature="0"
             style="fill:#00ff00" />
          <path
             d="m 78.4199,-68.8218 -38.49,66.6667 H 116.91 l 38.49,-66.6667 z"
             id="path3719_1_"
             inkscape:connector-curvature="0"
             style="fill:#00ff80" />
          <path
             d="m 155.4,-68.8218 -38.49,66.6667 h 76.9801 l 38.49,-66.6667 z"
             id="path3721_1_"
             inkscape:connector-curvature="0"
             style="fill:#00ffff" />
          <path
             d="m 232.38,-68.8218 -38.49,66.6667 h 76.9801 l 38.4901,-66.6667 z"
             id="path3723_1_"
             inkscape:connector-curvature="0"
             style="fill:#0080ff" />
          <path
             d="m 309.3601,-68.8218 -38.49,66.6667 h 76.98 l 38.4901,-66.6667 z"
             id="path3725_1_"
             inkscape:connector-curvature="0"
             style="fill:#0000ff" />
          <path
             d="m 386.3402,-68.8218 -38.49,66.6667 h 76.9801 l 38.49,-66.6667 z"
             id="path3727_1_"
             inkscape:connector-curvature="0"
             style="fill:#8000ff" />
          <path
             d="m 540.3003,-68.8217 -38.4901,66.6666 h 76.9801 l 38.49,-66.6667 z"
             id="path3729_1_"
             inkscape:connector-curvature="0"
             style="fill:#ff00ff" />
          <path
             d="m 463.3203,-68.8218 -38.49,66.6667 h 76.98 l 38.4901,-66.6667 z"
             id="path3731_1_"
             inkscape:connector-curvature="0"
             style="fill:#ff0080" />
        </g>
        <g
           transform="rotate(-60,238.37225,561.88884)"
           id="g3733_1_">
          <path
             d="m -275.6855,-67.5429 -38.49,66.6667 h 76.98 l 38.49,-66.6667 z"
             id="path3735_1_"
             inkscape:connector-curvature="0"
             style="fill:#ff0000" />
          <path
             d="m -198.7055,-67.5429 -38.49,66.6667 h 76.9801 l 38.49,-66.6667 z"
             id="path3737_1_"
             inkscape:connector-curvature="0"
             style="fill:#ff8000" />
          <path
             d="m -121.7254,-67.5429 -38.49,66.6667 h 76.9801 l 38.49,-66.6667 z"
             id="path3739_1_"
             inkscape:connector-curvature="0"
             style="fill:#ffff00" />
          <path
             d="m -44.7453,-67.5429 -38.49,66.6667 h 76.9801 l 38.49,-66.6667 z"
             id="path3741_1_"
             inkscape:connector-curvature="0"
             style="fill:#80ff00" />
          <path
             d="m 32.2347,-67.5429 -38.49,66.6667 h 76.98 l 38.4901,-66.6667 z"
             id="path3743_1_"
             inkscape:connector-curvature="0"
             style="fill:#00ff00" />
          <path
             d="m 109.2147,-67.5429 -38.49,66.6667 h 76.9801 l 38.49,-66.6667 z"
             id="path3745_1_"
             inkscape:connector-curvature="0"
             style="fill:#00ff80" />
          <path
             d="m 186.1948,-67.543 -38.49,66.6667 h 76.9801 l 38.49,-66.6667 z"
             id="path3747_1_"
             inkscape:connector-curvature="0"
             style="fill:#00ffff" />
          <path
             d="m 263.1749,-67.543 -38.49,66.6667 h 76.98 L 340.155,-67.543 Z"
             id="path3749_1_"
             inkscape:connector-curvature="0"
             style="fill:#0080ff" />
          <path
             d="m 340.1549,-67.543 -38.49,66.6667 h 76.9801 l 38.49,-66.6667 z"
             id="path3751_1_"
             inkscape:connector-curvature="0"
             style="fill:#0000ff" />
          <path
             d="m 417.135,-67.543 -38.49,66.6667 h 76.9801 l 38.49,-66.6667 z"
             id="path3753_1_"
             inkscape:connector-curvature="0"
             style="fill:#8000ff" />
          <path
             d="M 571.0951,-67.543 532.605,-0.8763 h 76.9801 L 648.075,-67.543 Z"
             id="path3755_1_"
             inkscape:connector-curvature="0"
             style="fill:#ff00ff" />
          <path
             d="m 494.1151,-67.543 -38.49,66.6667 h 76.9801 l 38.4901,-66.6667 z"
             id="path3757_1_"
             inkscape:connector-curvature="0"
             style="fill:#ff0080" />
        </g>
        <path
           d="m -140.3703,-40.9734 h 76.98 l 38.49,-66.6666 h -76.98 z"
           id="path3759_1_"
           inkscape:connector-curvature="0"
           style="fill:#ff0000" />
      </g>
    </g>
  </g>
</svg>
