<?xml version="1.0" encoding="UTF-8" standalone="no"?>
<!-- Created with Inkscape (http://www.inkscape.org/) -->

<svg
   xmlns:dc="http://purl.org/dc/elements/1.1/"
   xmlns:cc="http://creativecommons.org/ns#"
   xmlns:rdf="http://www.w3.org/1999/02/22-rdf-syntax-ns#"
   xmlns:svg="http://www.w3.org/2000/svg"
   xmlns="http://www.w3.org/2000/svg"
   xmlns:sodipodi="http://sodipodi.sourceforge.net/DTD/sodipodi-0.dtd"
   xmlns:inkscape="http://www.inkscape.org/namespaces/inkscape"
   width="128"
   height="128"
   viewBox="0 0 128 128"
   id="svg2"
   version="1.1"
   inkscape:version="0.92.1 r15371"
   sodipodi:docname="icecream.svg">
  <sodipodi:namedview
     id="base"
     pagecolor="#ffffff"
     bordercolor="#666666"
     borderopacity="1.0"
     inkscape:pageopacity="0.0"
     inkscape:pageshadow="2"
     inkscape:zoom="2.8"
     inkscape:cx="63.840623"
     inkscape:cy="73.944169"
     inkscape:document-units="px"
     inkscape:current-layer="layer1-3"
     showgrid="false"
     inkscape:window-width="938"
     inkscape:window-height="1051"
     inkscape:window-x="942"
     inkscape:window-y="0"
     inkscape:window-maximized="0"
     fit-margin-top="0"
     fit-margin-left="0"
     fit-margin-right="0"
     fit-margin-bottom="0"
     units="px"
     inkscape:snap-global="false" />
  <defs
     id="defs4" />
  <metadata
     id="metadata7">
    <rdf:RDF>
      <cc:Work
         rdf:about="">
        <dc:format>image/svg+xml</dc:format>
        <dc:type
           rdf:resource="http://purl.org/dc/dcmitype/StillImage" />
        <dc:title></dc:title>
      </cc:Work>
    </rdf:RDF>
  </metadata>
  <g
     transform="translate(283.5308,-1366.6479)"
     id="layer1"
     inkscape:groupmode="layer"
     inkscape:label="Layer 1">
    <g
       id="layer1-7"
       transform="matrix(-7.5871871e-4,0.34640702,-0.34640702,-7.5871871e-4,-137.5258,1368.3666)" />
    <g
       id="layer1-79"
       transform="matrix(0.0649519,0,0,0.0649519,-242.91348,1385.6778)">
      <g
         id="g3020"
         transform="matrix(2.9324955,0,0,2.9324955,-748.94135,-369.54868)">
        <g
           id="layer1-3"
           transform="matrix(0.41447243,0,0,0.41447243,224.14145,206.06665)"
           style="stroke:#000000;stroke-width:1px">
          <path
             style="fill:#d231e0;stroke:none;fill-opacity:1"
             d="M 10.043,191.91 C 15.347621,153.70911 18.017974,114.12111 16.336664,75.941176 7.2406139,28.978712 -2.4730244,-23.092325 23.102266,-66.90312 c 23.961098,-56.5641 76.761414,-91.78214 119.920274,-132.67075 35.56842,-34.13977 65.45579,-74.5222 89.1322,-117.70556 16.95207,-34.42236 58.58773,-45.2925 89.33525,-63.19628 40.29565,-9.19296 78.35391,13.0937 117.65794,17.96484 40.02897,12.32206 86.54509,16.59496 119.41042,43.85409 18.95253,31.06529 17.83635,73.09337 46.9661,98.32067 31.17328,21.60303 44.9119,57.575 48.74005,94.04987 13.00137,44.293469 5.44293,92.61061 24.69838,135.2806438 6.8936,34.5373922 20.69234,66.4110962 38.46317,96.4404162 l -17.40658,15.60017"
             id="path3061"
             inkscape:connector-curvature="0"
             sodipodi:nodetypes="ccccccccccccc" />
          <path
             style="fill:#f19df8;fill-opacity:1;stroke:none;stroke-width:0.91092259px"
             d="M 41.399777,166.31868 C 46.231875,131.52064 48.664367,95.459018 47.132823,60.680063 38.847026,17.90089 29.998652,-29.531791 53.295761,-69.440038 75.122469,-120.96554 123.21946,-153.04644 162.53384,-190.2928 c 32.40007,-31.0987 59.62516,-67.88397 81.19254,-107.22065 15.44202,-31.35611 53.36889,-41.25797 81.3775,-57.56692 36.70622,-8.37408 71.37434,11.92734 107.17727,16.36457 36.46329,11.22445 78.83587,15.11673 108.77364,39.94769 17.26428,28.29806 16.24753,66.5824 42.78249,89.56252 28.39644,19.67868 40.91125,52.44636 44.39841,85.67215 11.84324,40.347908 4.95808,84.361082 22.4983,123.23017295 6.27954,31.46089205 18.84912,60.49537005 35.03697,87.84975605 l -15.85604,14.210551"
             id="path3061-7"
             inkscape:connector-curvature="0"
             sodipodi:nodetypes="ccccccccccccc" />
          <path
             d="M -13.724893,177.49366 C 118.42155,124.62678 737.38343,96.244732 737.38343,96.244732 700.81487,266.63907 396.96095,1217.3242 368.566,1135.248 L -20.342911,230.46325 Z"
             id="path3037"
             inkscape:connector-curvature="0"
             style="fill:#9d6138;fill-opacity:1"
             sodipodi:nodetypes="ccccc" />
          <path
             d="M 9.6719526,192.91542 C 134.08035,144.58416 716.79793,118.63711 716.79793,118.63711 682.37072,274.41276 396.30944,1143.5354 369.57719,1068.5009 L 3.4414614,241.34058 Z"
             id="path3037-5"
             inkscape:connector-curvature="0"
             style="fill:#c87137;stroke:none;stroke-width:0.92772514px"
             sodipodi:nodetypes="ccccc" />
        </g>
      </g>
    </g>
  </g>
</svg>
