<?xml version="1.0" encoding="UTF-8" standalone="no"?>
<svg
   xmlns:dc="http://purl.org/dc/elements/1.1/"
   xmlns:cc="http://creativecommons.org/ns#"
   xmlns:rdf="http://www.w3.org/1999/02/22-rdf-syntax-ns#"
   xmlns:svg="http://www.w3.org/2000/svg"
   xmlns="http://www.w3.org/2000/svg"
   xmlns:sodipodi="http://sodipodi.sourceforge.net/DTD/sodipodi-0.dtd"
   xmlns:inkscape="http://www.inkscape.org/namespaces/inkscape"
   version="1.1"
   xml:space="preserve"
   enable-background="new 0 0 336 325"
   y="0px"
   x="0px"
   viewBox="0 0 278.18073 222.74236"
   id="svg2"
   inkscape:version="0.92.1 r15371"
   sodipodi:docname="icecube.svg"
   width="278.18073"
   height="222.74236"><defs
     id="defs846" /><sodipodi:namedview
     pagecolor="#ffffff"
     bordercolor="#666666"
     borderopacity="1"
     objecttolerance="10"
     gridtolerance="10"
     guidetolerance="10"
     inkscape:pageopacity="0"
     inkscape:pageshadow="2"
     inkscape:window-width="1884"
     inkscape:window-height="1051"
     id="namedview844"
     showgrid="false"
     fit-margin-top="0"
     fit-margin-left="0"
     fit-margin-right="0"
     fit-margin-bottom="0"
     inkscape:zoom="1.4864589"
     inkscape:cx="-10.205745"
     inkscape:cy="109.83467"
     inkscape:window-x="0"
     inkscape:window-y="0"
     inkscape:window-maximized="1"
     inkscape:current-layer="Group_effects" /><g
     id="Group_effects"
     transform="matrix(-0.88895989,-0.45798506,0.45798506,-0.88895989,217.23789,325.17141)"><mask
       id="SVGID_1_"
       height="196.023"
       width="239.987"
       y="64.488"
       x="48.006"
       maskUnits="userSpaceOnUse" /><g
       mask="url(#SVGID_1_)"
       id="g6"><path
         d="m 193.76,258.39 c 3.458,-0.91 15.061,-6.146 15.061,-6.146 l 13.239,-5.727 13.239,-5.728 13.239,-5.727 13.238,-5.728 c 0,0 9.902,-4.377 13.239,-5.727 3.042,-1.232 9.405,-3.553 11.408,-6.792 2.261,-3.66 1.438,-12.455 1.368,-16.646 -0.072,-4.428 -0.463,-17.708 -0.463,-17.708 l 0,-70.837 c 0,0 0.084,-13.632 0.264,-18.055 0.154,-3.798 0.176,-11.213 -2.409,-13.922 -1.035,-1.086 -3.364,-2.635 -5.019,-3.291 -1.26,-0.502 -5.856,-1.131 -7.834,-1.393 -4.009,-0.529 -16.049,-1.818 -16.049,-1.818 l -15.955,-1.532 -15.965,-1.53 -15.969,-1.529 -15.969,-1.533 -15.97,-1.529 c 0,0 -11.819,-1.194 -15.822,-0.981 -3.541,0.188 -14.092,2.298 -14.092,2.298 l -13.944,2.848 -13.944,2.847 -13.943,2.847 -13.943,2.85 -13.978,2.873 c 0,0 -10.554,1.694 -13.944,2.847 -3.183,1.08 -9.094,2.653 -11.73,5.909 -2.052,2.535 -2.898,11.457 -2.676,15.345 0.263,4.592 -0.463,18.406 -0.463,18.406 l 0,73.621 c 0,0 0.503,13.805 0.463,18.406 -0.037,4.16 0.005,12.864 2.646,16.425 2.693,3.633 10.647,4.947 14.377,5.695 4.185,0.84 16.734,3.715 16.734,3.715 l 16.705,3.715 16.691,3.711 16.684,3.715 16.68,3.714 c 0,0 12.481,2.946 16.677,3.714 6.26,1.13 20.81,0.31 28.1,-1.61 z"
         id="path8"
         inkscape:connector-curvature="0" /></g><radialGradient
       id="SVGID_2_"
       gradientUnits="userSpaceOnUse"
       cy="171.60001"
       cx="168.36"
       gradientTransform="matrix(1,0,0,1.0906,0,-26.649)"
       r="103.55"><stop
         stop-color="#fff"
         offset="0"
         id="stop11" /><stop
         stop-color="#FDFEFF"
         offset=".2462"
         id="stop13" /><stop
         stop-color="#F5FDFD"
         offset=".3833"
         id="stop15" /><stop
         stop-color="#E7FAFB"
         offset=".4936"
         id="stop17" /><stop
         stop-color="#D3F6F7"
         offset=".5896"
         id="stop19" /><stop
         stop-color="#BAF0F3"
         offset=".6764"
         id="stop21" /><stop
         stop-color="#9AE9ED"
         offset=".7565"
         id="stop23" /><stop
         stop-color="#75E1E7"
         offset=".8315"
         id="stop25" /><stop
         stop-color="#4AD8DF"
         offset=".9025"
         id="stop27" /><stop
         stop-color="#1ACED7"
         offset=".9677"
         id="stop29" /><stop
         stop-color="#00C8D2"
         offset="1"
         id="stop31" /></radialGradient><path
       d="m 192.78,253.55 c 3.396,-0.884 14.788,-5.964 14.788,-5.964 l 13,-5.559 13,-5.558 13,-5.558 13,-5.557 c 0,0 9.723,-4.246 13,-5.558 2.986,-1.195 9.234,-3.445 11.201,-6.591 2.221,-3.549 2.083,-12.084 2.014,-16.152 -0.071,-4.295 0.215,-17.183 0.215,-17.183 l 0,-68.738 c 0,0 -0.587,-13.228 -0.411,-17.521 0.151,-3.684 -0.161,-10.88 -2.7,-13.51 -1.017,-1.053 -3.471,-2.555 -5.095,-3.193 -1.237,-0.486 -5.835,-1.097 -7.777,-1.35 -3.936,-0.514 -15.799,-1.766 -15.799,-1.766 L 238.527,72.306 222.84,70.821 207.155,69.337 191.471,67.852 175.788,66.366 c 0,0 -11.606,-1.158 -15.537,-0.952 -3.478,0.183 -13.838,2.23 -13.838,2.23 l -13.692,2.763 -13.692,2.763 -13.691,2.764 -13.691,2.764 -13.692,2.763 c 0,0 -10.364,1.646 -13.692,2.763 -3.125,1.049 -8.93,2.575 -11.518,5.735 -2.015,2.459 -2.176,11.115 -1.958,14.888 0.244,4.45 0.201,17.85 0.201,17.85 l 0,71.439 c 0,0 -0.176,13.396 -0.215,17.86 -0.036,4.037 -0.33,12.484 2.263,15.938 2.645,3.525 10.288,4.802 13.951,5.526 4.109,0.814 16.348,3.604 16.348,3.604 l 16.362,3.604 16.368,3.603 16.372,3.603 16.374,3.604 c 0,0 12.253,2.859 16.374,3.604 6.15,1.13 20.43,0.33 27.59,-1.53 z"
       id="path33"
       style="fill:url(#SVGID_2_)"
       inkscape:connector-curvature="0" /><g
       id="g35"
       style="opacity:0.8"><linearGradient
         id="SVGID_3_"
         y2="263.37"
         gradientUnits="userSpaceOnUse"
         y1="110.71"
         x2="18.374001"
         x1="180.24001"><stop
           stop-color="#fff"
           offset="0"
           id="stop38" /><stop
           stop-color="#7FD0E8"
           offset=".312"
           id="stop40" /><stop
           stop-color="#83D1E9"
           offset=".4937"
           id="stop42" /><stop
           stop-color="#00B0D8"
           offset=".6814"
           id="stop44" /><stop
           stop-color="#008AA9"
           offset=".8352"
           id="stop46" /><stop
           stop-color="#00708C"
           offset=".9888"
           id="stop48" /></linearGradient><path
         d="m 53.054,89.667 c 3.336,-2.646 9.827,-0.965 13.469,-0.396 2.17,0.339 16.375,2.242 16.375,2.242 l 16.375,2.242 16.375,2.243 16.375,2.242 16.375,2.242 16.375,2.242 c 0,0 10.936,1.647 13.666,5.021 2.915,3.604 3.562,16.443 3.562,16.443 l 0,96.109 c 0,0 -0.573,14.42 -0.426,19.223 0.102,3.32 -0.063,10.174 -2.352,13.084 -2.861,3.635 -10.781,3.15 -14.343,2.533 -4.125,-0.714 -16.428,-3.604 -16.428,-3.604 l -16.401,-3.605 -16.389,-3.603 -16.381,-3.603 -16.378,-3.604 c 0,0 -12.268,-2.79 -16.377,-3.604 -3.663,-0.725 -11.36,-2 -14.004,-5.525 -2.593,-3.455 -1.982,-11.902 -1.946,-15.938 0.029,-4.45 0.416,-17.85 0.416,-17.85 l 0,-71.44 c 0,0 -0.168,-13.405 -0.426,-17.86 -0.219,-3.77 0.501,-13.655 2.48,-15.223 z"
         id="path50"
         style="fill:url(#SVGID_3_)"
         inkscape:connector-curvature="0" /><linearGradient
         id="SVGID_4_"
         y2="240.23"
         gradientUnits="userSpaceOnUse"
         y1="135.86"
         x2="373.54999"
         x1="173.50999"><stop
           stop-color="#fff"
           offset="0"
           id="stop53" /><stop
           stop-color="#7FD0E8"
           offset=".4125"
           id="stop55" /><stop
           stop-color="#00B0D8"
           offset=".6606"
           id="stop57" /><stop
           stop-color="#008AA9"
           offset=".8485"
           id="stop59" /><stop
           stop-color="#00708C"
           offset=".9888"
           id="stop61" /></linearGradient><path
         d="m 283.35,213.25 c -1.967,3.146 -8.215,5.396 -11.202,6.591 -3.277,1.312 -13,5.558 -13,5.558 l -13,5.557 -13,5.559 -13,5.557 -13,5.559 c 0,0 -9.747,4.176 -13,5.559 -2.592,1.102 -9.431,3.05 -11.121,-0.406 -1.914,-3.912 -1.388,-9.906 -1.453,-13.258 -0.092,-4.805 0.426,-19.223 0.426,-19.223 l 0,-96.128 c 0,0 -0.24,-13.341 2.131,-17.391 2.028,-3.463 10.23,-5.352 10.23,-5.352 l 12.894,-3.52 12.947,-3.521 12.974,-3.521 12.986,-3.52 12.994,-3.52 c 0,0 9.789,-2.474 12.997,-3.52 2.613,-0.853 7.572,-2.433 10.21,-0.183 3.103,2.646 3.364,10.161 3.214,13.846 -0.176,4.292 0.425,17.185 0.425,17.185 l 0,68.737 c 0,0 -0.497,12.888 -0.426,17.183 0.07,4.08 0,12.62 -2.22,16.17 z"
         id="path63"
         style="fill:url(#SVGID_4_)"
         inkscape:connector-curvature="0" /><linearGradient
         id="SVGID_5_"
         y2="107.38"
         gradientUnits="userSpaceOnUse"
         y1="74.834"
         x2="-75.146004"
         x1="274.48999"><stop
           stop-color="#fff"
           offset="0"
           id="stop66" /><stop
           stop-color="#7FD0E8"
           offset=".5169"
           id="stop68" /><stop
           stop-color="#00B0D8"
           offset=".6506"
           id="stop70" /><stop
           stop-color="#008AA9"
           offset=".7753"
           id="stop72" /><stop
           stop-color="#00708C"
           offset=".9888"
           id="stop74" /></linearGradient><path
         d="m 56.892,87.548 c -0.481,-0.889 5.383,-2.949 6.947,-3.281 3.418,-0.727 13.692,-2.764 13.692,-2.764 l 13.692,-2.763 13.691,-2.764 13.691,-2.763 13.692,-2.764 13.692,-2.764 c 0,0 10.36,-2.047 13.838,-2.229 3.931,-0.207 15.537,0.951 15.537,0.951 l 15.683,1.486 15.683,1.485 15.684,1.485 15.684,1.485 15.683,1.485 15.683,1.486 c 0,0 9.829,1.179 9.847,2.652 0.01,0.836 -4.843,2.008 -7.029,2.555 -3.092,0.774 -13.134,3.318 -13.134,3.318 l -13,3.52 -13,3.52 -13,3.521 -13,3.521 -13,3.52 c 0,0 -11.214,2.059 -14.557,2.274 -4.119,0.267 -14.818,-0.997 -14.818,-0.997 L 148.398,100.481 132.023,98.239 115.648,95.997 99.273,93.754 82.898,91.512 c 0,0 -12.189,-1.521 -16.375,-2.242 -2.112,-0.367 -8.858,-0.345 -9.603,-1.721 z"
         id="path76"
         style="fill:url(#SVGID_5_)"
         inkscape:connector-curvature="0" /></g><mask
       id="SVGID_6_"
       height="68.646"
       width="87.678"
       y="95.282"
       x="132.447"
       maskUnits="userSpaceOnUse" /><linearGradient
       id="SVGID_7_"
       y2="183.23"
       gradientUnits="userSpaceOnUse"
       y1="183.23"
       x2="281.31"
       x1="280.32999"><stop
         stop-color="#231F20"
         stop-opacity="0"
         offset="0"
         id="stop86" /><stop
         stop-color="#1764FF"
         offset="0"
         id="stop88" /><stop
         stop-color="#F4E9F8"
         stop-opacity="0"
         offset="1"
         id="stop90" /></linearGradient><linearGradient
       id="SVGID_8_"
       y2="167.62"
       gradientUnits="userSpaceOnUse"
       y1="132.03999"
       x2="235.91"
       x1="305.17001"><stop
         stop-color="#231F20"
         stop-opacity="0"
         offset="0"
         id="stop97" /><stop
         stop-color="#1764FF"
         offset="0"
         id="stop99" /><stop
         stop-color="#F4E9F8"
         stop-opacity="0"
         offset="1"
         id="stop101" /></linearGradient><linearGradient
       id="SVGID_9_"
       y2="165.44"
       gradientUnits="userSpaceOnUse"
       y1="165.44"
       x2="73.718002"
       x1="71.786003"><stop
         stop-color="#231F20"
         stop-opacity="0"
         offset="0"
         id="stop108" /><stop
         stop-color="#1764FF"
         offset="0"
         id="stop110" /><stop
         stop-color="#F4E9F8"
         stop-opacity="0"
         offset="1"
         id="stop112" /></linearGradient><linearGradient
       id="SVGID_10_"
       y2="185"
       gradientUnits="userSpaceOnUse"
       y1="185"
       x2="140.63"
       x1="54.946999"><stop
         stop-color="#231F20"
         stop-opacity="0"
         offset="0"
         id="stop119" /><stop
         stop-color="#1764FF"
         offset="0"
         id="stop121" /><stop
         stop-color="#F4E9F8"
         stop-opacity="0"
         offset="1"
         id="stop123" /></linearGradient><g
       id="g150"
       style="opacity:0.1"><linearGradient
         id="SVGID_12_"
         y2="201.37"
         gradientUnits="userSpaceOnUse"
         y1="247.35001"
         x2="147.17"
         x1="178.17999"><stop
           stop-color="#fff"
           offset="0"
           id="stop153" /><stop
           stop-color="#4599FF"
           offset="1"
           id="stop155" /><stop
           stop-color="#7FD0E8"
           offset="1"
           id="stop157" /><stop
           stop-color="#87D3E9"
           offset="1"
           id="stop159" /><stop
           stop-color="#00B0D8"
           offset="1"
           id="stop161" /><stop
           stop-color="#008AA9"
           offset="1"
           id="stop163" /></linearGradient><path
         d="m 62.416,229.67 c -0.077,-3.565 5.389,-3.615 8.801,-4.653 3.411,-1.038 3.63,-0.319 7.041,-1.357 3.411,-1.038 3.49,-0.78 6.901,-1.818 3.411,-1.038 4.321,1.952 7.733,0.914 3.412,-1.039 3.792,0.21 7.204,-0.828 3.41,-1.038 3.049,-2.226 6.458,-3.263 3.412,-1.038 3.628,-0.326 7.04,-1.364 3.412,-1.038 3.347,-1.25 6.758,-2.289 3.412,-1.038 3.362,-1.199 6.774,-2.237 3.413,-1.038 3.925,0.646 7.337,-0.393 3.41,-1.037 3.177,-1.803 6.588,-2.841 3.414,-1.039 2.618,-3.652 6.032,-4.69 3.416,-1.039 4.452,2.366 7.868,1.327 3.416,-1.04 2.358,-2.716 5.921,-2.943 3.646,-0.233 3.168,-0.489 6.773,0.101 3.604,0.591 3.615,0.522 7.219,1.112 3.604,0.591 3.697,0.022 7.301,0.613 3.604,0.59 3.865,-0.998 7.469,-0.408 3.605,0.591 4.023,-1.958 7.628,-1.368 3.603,0.59 3.479,1.345 7.082,1.935 3.604,0.59 3.303,2.43 6.907,3.021 3.604,0.59 3.767,-0.402 7.371,0.188 3.604,0.591 2.874,5.049 6.478,5.64 3.605,0.591 4.153,-2.75 7.758,-2.159 3.604,0.591 3.781,-0.494 7.384,0.097 3.606,0.591 3.923,-1.342 7.529,-0.751 3.609,0.591 3.261,2.712 6.87,3.304 3.609,0.592 6.37,-1.079 6.922,2.536 0.539,3.531 -2.248,3.793 -5.564,5.121 -3.316,1.328 -4.332,-1.209 -7.648,0.118 -3.316,1.328 -3.121,1.817 -6.437,3.145 -3.313,1.327 -4.658,-2.031 -7.971,-0.705 -3.315,1.328 -2.761,2.71 -6.077,4.038 -3.316,1.328 -3.4,1.119 -6.717,2.447 -3.317,1.328 -3.321,1.316 -6.638,2.645 -3.316,1.328 -4.05,-0.503 -7.366,0.824 -3.317,1.329 -2.46,3.471 -5.777,4.799 -3.315,1.327 -2.189,4.141 -5.504,5.469 -3.319,1.329 -4.6,-1.872 -7.919,-0.543 -3.321,1.33 -1.689,5.404 -5.011,6.734 -3.321,1.33 -3.871,1.179 -7.432,1.517 -3.496,0.332 -3.255,-3.241 -6.698,-3.928 -3.444,-0.688 -3.47,-0.559 -6.914,-1.246 -3.445,-0.688 -3.56,-0.114 -7.004,-0.801 -3.444,-0.687 -3.634,0.263 -7.078,-0.425 -3.444,-0.688 -3.718,0.687 -7.163,0 -3.445,-0.688 -3.313,-1.351 -6.757,-2.038 -3.445,-0.688 -3.514,-0.344 -6.959,-1.032 -3.443,-0.688 -2.667,-4.573 -6.111,-5.26 -3.444,-0.687 -4.397,4.091 -7.842,3.403 -3.445,-0.688 -3.245,-1.69 -6.689,-2.377 -3.444,-0.688 -3.44,-0.708 -6.885,-1.395 -3.445,-0.688 -3.181,-2.013 -6.626,-2.701 -3.443,-0.687 -2.724,-4.292 -6.168,-4.979 -3.446,-0.688 -4.113,2.65 -7.559,1.963 -3.449,-0.688 -3.603,-3.519 -7.115,-3.343 -5.319,0.25 -9.445,4.63 -9.521,1.11 z"
         id="path165"
         style="fill:url(#SVGID_12_)"
         inkscape:connector-curvature="0" /></g><g
       id="g167"
       style="opacity:0.2"><linearGradient
         id="SVGID_13_"
         y2="64.900002"
         gradientUnits="userSpaceOnUse"
         y1="99.042"
         x2="142.48"
         x1="165.50999"><stop
           stop-color="#fff"
           offset="0"
           id="stop170" /><stop
           stop-color="#4599FF"
           offset="1"
           id="stop172" /><stop
           stop-color="#7FD0E8"
           offset="1"
           id="stop174" /><stop
           stop-color="#87D3E9"
           offset="1"
           id="stop176" /><stop
           stop-color="#00B0D8"
           offset="1"
           id="stop178" /><stop
           stop-color="#008AA9"
           offset="1"
           id="stop180" /></linearGradient><path
         d="m 79.415,86.458 c -0.72,-3.474 2.067,-0.953 5.524,-1.751 3.457,-0.798 2.912,-3.157 6.368,-3.956 3.458,-0.799 4.575,4.037 8.033,3.238 3.455,-0.799 3.08,-2.422 6.535,-3.221 3.457,-0.799 4.006,1.58 7.463,0.781 3.457,-0.799 3.422,-0.949 6.878,-1.748 3.457,-0.799 3.479,-0.702 6.936,-1.501 3.458,-0.799 3.222,-1.818 6.679,-2.618 3.456,-0.799 3.295,-1.495 6.75,-2.293 3.458,-0.799 3.061,-2.518 6.52,-3.317 3.461,-0.8 3.798,0.658 7.259,-0.143 3.461,-0.8 3.185,-2.42 6.734,-2.561 3.621,-0.144 3.278,2.863 6.864,3.384 3.587,0.521 3.583,0.544 7.17,1.065 3.587,0.521 3.98,-2.183 7.567,-1.661 3.587,0.521 3.3,2.494 6.887,3.016 3.588,0.521 4.171,-3.493 7.759,-2.972 3.586,0.521 3.208,3.119 6.794,3.64 3.589,0.521 3.677,-0.082 7.266,0.44 3.592,0.521 3.921,-1.747 7.513,-1.225 3.592,0.522 9.493,0.425 9.246,4.046 -0.252,3.707 -6.369,-0.976 -10.036,-0.382 -3.667,0.594 -3.023,4.572 -6.69,5.165 -3.667,0.594 -3.722,0.256 -7.389,0.85 -3.667,0.594 -4.139,-2.32 -7.807,-1.727 -3.668,0.594 -3.1,4.102 -6.768,4.696 -3.665,0.593 -3.818,-0.355 -7.484,0.238 -3.667,0.594 -3.661,0.634 -7.328,1.228 -3.667,0.593 -4.094,-2.045 -7.761,-1.452 -3.667,0.594 -3.156,3.75 -6.824,4.343 -3.668,0.594 -3.886,-0.755 -7.554,-0.162 -3.669,0.594 -4.057,-1.799 -7.726,-1.205 -3.668,0.594 -3.473,1.803 -7.141,2.396 -3.671,0.594 -3.848,-0.499 -7.519,0.095 -3.67,0.594 -3.427,3.706 -7.146,3.718 -3.779,0.013 -3.634,-2.614 -7.371,-3.183 -3.738,-0.569 -3.705,-0.788 -7.442,-1.357 -3.739,-0.569 -3.628,-1.295 -7.367,-1.865 -3.737,-0.569 -3.593,-1.519 -7.33,-2.088 -3.74,-0.569 -4.066,1.573 -7.834,1.912 -3.652,0.329 -5.463,1.841 -6.231,-1.863 z"
         id="path182"
         style="fill:url(#SVGID_13_)"
         inkscape:connector-curvature="0" /></g><radialGradient
       id="SVGID_14_"
       gradientUnits="userSpaceOnUse"
       cy="164.5"
       cx="109.43"
       r="4.8937998"><stop
         stop-color="#fff"
         offset=".4971"
         id="stop185" /><stop
         stop-color="#E2F0FF"
         offset=".5578"
         id="stop187" /><stop
         stop-color="#BADCFF"
         offset=".6521"
         id="stop189" /><stop
         stop-color="#9BCCFF"
         offset=".7453"
         id="stop191" /><stop
         stop-color="#85C0FF"
         offset=".8357"
         id="stop193" /><stop
         stop-color="#78B9FF"
         offset=".9221"
         id="stop195" /><stop
         stop-color="#73B7FF"
         offset="1"
         id="stop197" /></radialGradient><radialGradient
       id="SVGID_15_"
       gradientUnits="userSpaceOnUse"
       cy="213.61"
       cx="125.59"
       r="4.4040999"><stop
         stop-color="#fff"
         offset=".4971"
         id="stop202" /><stop
         stop-color="#E2F0FF"
         offset=".5578"
         id="stop204" /><stop
         stop-color="#BADCFF"
         offset=".6521"
         id="stop206" /><stop
         stop-color="#9BCCFF"
         offset=".7453"
         id="stop208" /><stop
         stop-color="#85C0FF"
         offset=".8357"
         id="stop210" /><stop
         stop-color="#78B9FF"
         offset=".9221"
         id="stop212" /><stop
         stop-color="#73B7FF"
         offset="1"
         id="stop214" /></radialGradient><radialGradient
       id="SVGID_16_"
       gradientUnits="userSpaceOnUse"
       cy="198.71001"
       cx="104.27"
       r="5.3056998"><stop
         stop-color="#fff"
         offset=".4971"
         id="stop219" /><stop
         stop-color="#E2F0FF"
         offset=".5578"
         id="stop221" /><stop
         stop-color="#BADCFF"
         offset=".6521"
         id="stop223" /><stop
         stop-color="#9BCCFF"
         offset=".7453"
         id="stop225" /><stop
         stop-color="#85C0FF"
         offset=".8357"
         id="stop227" /><stop
         stop-color="#78B9FF"
         offset=".9221"
         id="stop229" /><stop
         stop-color="#73B7FF"
         offset="1"
         id="stop231" /></radialGradient><radialGradient
       id="SVGID_17_"
       gradientUnits="userSpaceOnUse"
       cy="139"
       cx="111.56"
       r="2.4409001"><stop
         stop-color="#fff"
         offset=".4971"
         id="stop236" /><stop
         stop-color="#E2F0FF"
         offset=".5578"
         id="stop238" /><stop
         stop-color="#BADCFF"
         offset=".6521"
         id="stop240" /><stop
         stop-color="#9BCCFF"
         offset=".7453"
         id="stop242" /><stop
         stop-color="#85C0FF"
         offset=".8357"
         id="stop244" /><stop
         stop-color="#78B9FF"
         offset=".9221"
         id="stop246" /><stop
         stop-color="#73B7FF"
         offset="1"
         id="stop248" /></radialGradient><radialGradient
       id="SVGID_18_"
       gradientUnits="userSpaceOnUse"
       cy="132"
       cx="97.558998"
       r="2.4409001"><stop
         stop-color="#fff"
         offset=".4971"
         id="stop253" /><stop
         stop-color="#E2F0FF"
         offset=".5578"
         id="stop255" /><stop
         stop-color="#BADCFF"
         offset=".6521"
         id="stop257" /><stop
         stop-color="#9BCCFF"
         offset=".7453"
         id="stop259" /><stop
         stop-color="#85C0FF"
         offset=".8357"
         id="stop261" /><stop
         stop-color="#78B9FF"
         offset=".9221"
         id="stop263" /><stop
         stop-color="#73B7FF"
         offset="1"
         id="stop265" /></radialGradient><radialGradient
       id="SVGID_19_"
       gradientUnits="userSpaceOnUse"
       cy="155.95"
       cx="132.42999"
       r="2.447"><stop
         stop-color="#fff"
         offset=".4971"
         id="stop270" /><stop
         stop-color="#E2F0FF"
         offset=".5578"
         id="stop272" /><stop
         stop-color="#BADCFF"
         offset=".6521"
         id="stop274" /><stop
         stop-color="#9BCCFF"
         offset=".7453"
         id="stop276" /><stop
         stop-color="#85C0FF"
         offset=".8357"
         id="stop278" /><stop
         stop-color="#78B9FF"
         offset=".9221"
         id="stop280" /><stop
         stop-color="#73B7FF"
         offset="1"
         id="stop282" /></radialGradient><radialGradient
       id="SVGID_20_"
       gradientUnits="userSpaceOnUse"
       cy="175.59"
       cx="128.97"
       r="5.4303999"><stop
         stop-color="#fff"
         offset=".4971"
         id="stop287" /><stop
         stop-color="#E2F0FF"
         offset=".5578"
         id="stop289" /><stop
         stop-color="#BADCFF"
         offset=".6521"
         id="stop291" /><stop
         stop-color="#9BCCFF"
         offset=".7453"
         id="stop293" /><stop
         stop-color="#85C0FF"
         offset=".8357"
         id="stop295" /><stop
         stop-color="#78B9FF"
         offset=".9221"
         id="stop297" /><stop
         stop-color="#73B7FF"
         offset="1"
         id="stop299" /></radialGradient><radialGradient
       id="SVGID_21_"
       gradientUnits="userSpaceOnUse"
       cy="118"
       cx="140.56"
       r="2.4409001"><stop
         stop-color="#fff"
         offset=".4971"
         id="stop304" /><stop
         stop-color="#E2F0FF"
         offset=".5578"
         id="stop306" /><stop
         stop-color="#BADCFF"
         offset=".6521"
         id="stop308" /><stop
         stop-color="#9BCCFF"
         offset=".7453"
         id="stop310" /><stop
         stop-color="#85C0FF"
         offset=".8357"
         id="stop312" /><stop
         stop-color="#78B9FF"
         offset=".9221"
         id="stop314" /><stop
         stop-color="#73B7FF"
         offset="1"
         id="stop316" /></radialGradient><radialGradient
       id="SVGID_22_"
       gradientUnits="userSpaceOnUse"
       cy="134"
       cx="135.56"
       r="2.4409001"><stop
         stop-color="#fff"
         offset=".4971"
         id="stop321" /><stop
         stop-color="#E2F0FF"
         offset=".5578"
         id="stop323" /><stop
         stop-color="#BADCFF"
         offset=".6521"
         id="stop325" /><stop
         stop-color="#9BCCFF"
         offset=".7453"
         id="stop327" /><stop
         stop-color="#85C0FF"
         offset=".8357"
         id="stop329" /><stop
         stop-color="#78B9FF"
         offset=".9221"
         id="stop331" /><stop
         stop-color="#73B7FF"
         offset="1"
         id="stop333" /></radialGradient><radialGradient
       id="SVGID_23_"
       gradientUnits="userSpaceOnUse"
       cy="162.5"
       cx="158.42999"
       r="4.8937998"><stop
         stop-color="#fff"
         offset=".4971"
         id="stop338" /><stop
         stop-color="#E2F0FF"
         offset=".5578"
         id="stop340" /><stop
         stop-color="#BADCFF"
         offset=".6521"
         id="stop342" /><stop
         stop-color="#9BCCFF"
         offset=".7453"
         id="stop344" /><stop
         stop-color="#85C0FF"
         offset=".8357"
         id="stop346" /><stop
         stop-color="#78B9FF"
         offset=".9221"
         id="stop348" /><stop
         stop-color="#73B7FF"
         offset="1"
         id="stop350" /></radialGradient><radialGradient
       id="SVGID_24_"
       gradientUnits="userSpaceOnUse"
       cy="195.71001"
       cx="148.84"
       r="2.3057001"><stop
         stop-color="#fff"
         offset=".4971"
         id="stop355" /><stop
         stop-color="#E2F0FF"
         offset=".5578"
         id="stop357" /><stop
         stop-color="#BADCFF"
         offset=".6521"
         id="stop359" /><stop
         stop-color="#9BCCFF"
         offset=".7453"
         id="stop361" /><stop
         stop-color="#85C0FF"
         offset=".8357"
         id="stop363" /><stop
         stop-color="#78B9FF"
         offset=".9221"
         id="stop365" /><stop
         stop-color="#73B7FF"
         offset="1"
         id="stop367" /></radialGradient><radialGradient
       id="SVGID_25_"
       gradientUnits="userSpaceOnUse"
       cy="218.28999"
       cx="167.27"
       r="6.7301998"><stop
         stop-color="#fff"
         offset=".4971"
         id="stop372" /><stop
         stop-color="#E2F0FF"
         offset=".5578"
         id="stop374" /><stop
         stop-color="#BADCFF"
         offset=".6521"
         id="stop376" /><stop
         stop-color="#9BCCFF"
         offset=".7453"
         id="stop378" /><stop
         stop-color="#85C0FF"
         offset=".8357"
         id="stop380" /><stop
         stop-color="#78B9FF"
         offset=".9221"
         id="stop382" /><stop
         stop-color="#73B7FF"
         offset="1"
         id="stop384" /></radialGradient><radialGradient
       id="SVGID_26_"
       gradientUnits="userSpaceOnUse"
       cy="230.48"
       cx="140.08"
       r="3.5386"><stop
         stop-color="#fff"
         offset=".4971"
         id="stop389" /><stop
         stop-color="#E2F0FF"
         offset=".5578"
         id="stop391" /><stop
         stop-color="#BADCFF"
         offset=".6521"
         id="stop393" /><stop
         stop-color="#9BCCFF"
         offset=".7453"
         id="stop395" /><stop
         stop-color="#85C0FF"
         offset=".8357"
         id="stop397" /><stop
         stop-color="#78B9FF"
         offset=".9221"
         id="stop399" /><stop
         stop-color="#73B7FF"
         offset="1"
         id="stop401" /></radialGradient><radialGradient
       id="SVGID_27_"
       gradientUnits="userSpaceOnUse"
       cy="213.11"
       cx="141.45"
       r="4.9094"><stop
         stop-color="#fff"
         offset=".4971"
         id="stop406" /><stop
         stop-color="#E2F0FF"
         offset=".5578"
         id="stop408" /><stop
         stop-color="#BADCFF"
         offset=".6521"
         id="stop410" /><stop
         stop-color="#9BCCFF"
         offset=".7453"
         id="stop412" /><stop
         stop-color="#85C0FF"
         offset=".8357"
         id="stop414" /><stop
         stop-color="#78B9FF"
         offset=".9221"
         id="stop416" /><stop
         stop-color="#73B7FF"
         offset="1"
         id="stop418" /></radialGradient><radialGradient
       id="SVGID_28_"
       gradientUnits="userSpaceOnUse"
       cy="206.53"
       cx="153.02"
       r="4.4849"><stop
         stop-color="#fff"
         offset=".4971"
         id="stop423" /><stop
         stop-color="#E2F0FF"
         offset=".5578"
         id="stop425" /><stop
         stop-color="#BADCFF"
         offset=".6521"
         id="stop427" /><stop
         stop-color="#9BCCFF"
         offset=".7453"
         id="stop429" /><stop
         stop-color="#85C0FF"
         offset=".8357"
         id="stop431" /><stop
         stop-color="#78B9FF"
         offset=".9221"
         id="stop433" /><stop
         stop-color="#73B7FF"
         offset="1"
         id="stop435" /></radialGradient><radialGradient
       id="SVGID_29_"
       gradientUnits="userSpaceOnUse"
       cy="118"
       cx="157.56"
       r="2.4409001"><stop
         stop-color="#fff"
         offset=".4971"
         id="stop440" /><stop
         stop-color="#E2F0FF"
         offset=".5578"
         id="stop442" /><stop
         stop-color="#BADCFF"
         offset=".6521"
         id="stop444" /><stop
         stop-color="#9BCCFF"
         offset=".7453"
         id="stop446" /><stop
         stop-color="#85C0FF"
         offset=".8357"
         id="stop448" /><stop
         stop-color="#78B9FF"
         offset=".9221"
         id="stop450" /><stop
         stop-color="#73B7FF"
         offset="1"
         id="stop452" /></radialGradient><radialGradient
       id="SVGID_30_"
       gradientUnits="userSpaceOnUse"
       cy="137.52"
       cx="160.03"
       r="2.1284001"><stop
         stop-color="#fff"
         offset=".4971"
         id="stop457" /><stop
         stop-color="#E2F0FF"
         offset=".5578"
         id="stop459" /><stop
         stop-color="#BADCFF"
         offset=".6521"
         id="stop461" /><stop
         stop-color="#9BCCFF"
         offset=".7453"
         id="stop463" /><stop
         stop-color="#85C0FF"
         offset=".8357"
         id="stop465" /><stop
         stop-color="#78B9FF"
         offset=".9221"
         id="stop467" /><stop
         stop-color="#73B7FF"
         offset="1"
         id="stop469" /></radialGradient><radialGradient
       id="SVGID_31_"
       gradientUnits="userSpaceOnUse"
       cy="134.60001"
       cx="197.56"
       r="3.9985001"><stop
         stop-color="#fff"
         offset=".4971"
         id="stop474" /><stop
         stop-color="#E2F0FF"
         offset=".5578"
         id="stop476" /><stop
         stop-color="#BADCFF"
         offset=".6521"
         id="stop478" /><stop
         stop-color="#9BCCFF"
         offset=".7453"
         id="stop480" /><stop
         stop-color="#85C0FF"
         offset=".8357"
         id="stop482" /><stop
         stop-color="#78B9FF"
         offset=".9221"
         id="stop484" /><stop
         stop-color="#73B7FF"
         offset="1"
         id="stop486" /></radialGradient><radialGradient
       id="SVGID_32_"
       gradientUnits="userSpaceOnUse"
       cy="152.78"
       cx="208.14999"
       r="1.6091"><stop
         stop-color="#fff"
         offset=".4971"
         id="stop491" /><stop
         stop-color="#E2F0FF"
         offset=".5578"
         id="stop493" /><stop
         stop-color="#BADCFF"
         offset=".6521"
         id="stop495" /><stop
         stop-color="#9BCCFF"
         offset=".7453"
         id="stop497" /><stop
         stop-color="#85C0FF"
         offset=".8357"
         id="stop499" /><stop
         stop-color="#78B9FF"
         offset=".9221"
         id="stop501" /><stop
         stop-color="#73B7FF"
         offset="1"
         id="stop503" /></radialGradient><radialGradient
       id="SVGID_33_"
       gradientUnits="userSpaceOnUse"
       cy="192.13"
       cx="208.42"
       r="3.885"><stop
         stop-color="#fff"
         offset=".4971"
         id="stop508" /><stop
         stop-color="#E2F0FF"
         offset=".5578"
         id="stop510" /><stop
         stop-color="#BADCFF"
         offset=".6521"
         id="stop512" /><stop
         stop-color="#9BCCFF"
         offset=".7453"
         id="stop514" /><stop
         stop-color="#85C0FF"
         offset=".8357"
         id="stop516" /><stop
         stop-color="#78B9FF"
         offset=".9221"
         id="stop518" /><stop
         stop-color="#73B7FF"
         offset="1"
         id="stop520" /></radialGradient><radialGradient
       id="SVGID_34_"
       gradientUnits="userSpaceOnUse"
       cy="107"
       cx="211.56"
       r="2.4409001"><stop
         stop-color="#fff"
         offset=".4971"
         id="stop525" /><stop
         stop-color="#E2F0FF"
         offset=".5578"
         id="stop527" /><stop
         stop-color="#BADCFF"
         offset=".6521"
         id="stop529" /><stop
         stop-color="#9BCCFF"
         offset=".7453"
         id="stop531" /><stop
         stop-color="#85C0FF"
         offset=".8357"
         id="stop533" /><stop
         stop-color="#78B9FF"
         offset=".9221"
         id="stop535" /><stop
         stop-color="#73B7FF"
         offset="1"
         id="stop537" /></radialGradient><radialGradient
       id="SVGID_35_"
       gradientUnits="userSpaceOnUse"
       cy="106.68"
       cx="136.72"
       gradientTransform="matrix(0.8879,0.46,-0.46,0.8879,73.24,-70.615)"
       r="2.4412"><stop
         stop-color="#fff"
         offset=".4971"
         id="stop542" /><stop
         stop-color="#E2F0FF"
         offset=".5578"
         id="stop544" /><stop
         stop-color="#BADCFF"
         offset=".6521"
         id="stop546" /><stop
         stop-color="#9BCCFF"
         offset=".7453"
         id="stop548" /><stop
         stop-color="#85C0FF"
         offset=".8357"
         id="stop550" /><stop
         stop-color="#78B9FF"
         offset=".9221"
         id="stop552" /><stop
         stop-color="#73B7FF"
         offset="1"
         id="stop554" /></radialGradient><radialGradient
       id="SVGID_36_"
       gradientUnits="userSpaceOnUse"
       cy="87.998001"
       cx="120.56"
       r="2.4409001"><stop
         stop-color="#fff"
         offset=".4971"
         id="stop559" /><stop
         stop-color="#E2F0FF"
         offset=".5578"
         id="stop561" /><stop
         stop-color="#BADCFF"
         offset=".6521"
         id="stop563" /><stop
         stop-color="#9BCCFF"
         offset=".7453"
         id="stop565" /><stop
         stop-color="#85C0FF"
         offset=".8357"
         id="stop567" /><stop
         stop-color="#78B9FF"
         offset=".9221"
         id="stop569" /><stop
         stop-color="#73B7FF"
         offset="1"
         id="stop571" /></radialGradient><radialGradient
       id="SVGID_37_"
       gradientUnits="userSpaceOnUse"
       cy="84.998001"
       cx="163.56"
       r="2.4409001"><stop
         stop-color="#fff"
         offset=".4971"
         id="stop576" /><stop
         stop-color="#E2F0FF"
         offset=".5578"
         id="stop578" /><stop
         stop-color="#BADCFF"
         offset=".6521"
         id="stop580" /><stop
         stop-color="#9BCCFF"
         offset=".7453"
         id="stop582" /><stop
         stop-color="#85C0FF"
         offset=".8357"
         id="stop584" /><stop
         stop-color="#78B9FF"
         offset=".9221"
         id="stop586" /><stop
         stop-color="#73B7FF"
         offset="1"
         id="stop588" /></radialGradient><radialGradient
       id="SVGID_38_"
       gradientUnits="userSpaceOnUse"
       cy="93.998001"
       cx="181.56"
       r="2.4409001"><stop
         stop-color="#fff"
         offset=".4971"
         id="stop593" /><stop
         stop-color="#E2F0FF"
         offset=".5578"
         id="stop595" /><stop
         stop-color="#BADCFF"
         offset=".6521"
         id="stop597" /><stop
         stop-color="#9BCCFF"
         offset=".7453"
         id="stop599" /><stop
         stop-color="#85C0FF"
         offset=".8357"
         id="stop601" /><stop
         stop-color="#78B9FF"
         offset=".9221"
         id="stop603" /><stop
         stop-color="#73B7FF"
         offset="1"
         id="stop605" /></radialGradient><radialGradient
       id="SVGID_39_"
       gradientUnits="userSpaceOnUse"
       cy="90.998001"
       cx="197.56"
       r="2.4409001"><stop
         stop-color="#fff"
         offset=".4971"
         id="stop610" /><stop
         stop-color="#E2F0FF"
         offset=".5578"
         id="stop612" /><stop
         stop-color="#BADCFF"
         offset=".6521"
         id="stop614" /><stop
         stop-color="#9BCCFF"
         offset=".7453"
         id="stop616" /><stop
         stop-color="#85C0FF"
         offset=".8357"
         id="stop618" /><stop
         stop-color="#78B9FF"
         offset=".9221"
         id="stop620" /><stop
         stop-color="#73B7FF"
         offset="1"
         id="stop622" /></radialGradient><radialGradient
       id="SVGID_40_"
       gradientUnits="userSpaceOnUse"
       cy="76.998001"
       cx="183.56"
       r="2.4409001"><stop
         stop-color="#fff"
         offset=".4971"
         id="stop627" /><stop
         stop-color="#E2F0FF"
         offset=".5578"
         id="stop629" /><stop
         stop-color="#BADCFF"
         offset=".6521"
         id="stop631" /><stop
         stop-color="#9BCCFF"
         offset=".7453"
         id="stop633" /><stop
         stop-color="#85C0FF"
         offset=".8357"
         id="stop635" /><stop
         stop-color="#78B9FF"
         offset=".9221"
         id="stop637" /><stop
         stop-color="#73B7FF"
         offset="1"
         id="stop639" /></radialGradient><radialGradient
       id="SVGID_41_"
       gradientUnits="userSpaceOnUse"
       cy="121.28"
       cx="223.28"
       r="3.47"><stop
         stop-color="#fff"
         offset=".4971"
         id="stop644" /><stop
         stop-color="#E2F0FF"
         offset=".5578"
         id="stop646" /><stop
         stop-color="#BADCFF"
         offset=".6521"
         id="stop648" /><stop
         stop-color="#9BCCFF"
         offset=".7453"
         id="stop650" /><stop
         stop-color="#85C0FF"
         offset=".8357"
         id="stop652" /><stop
         stop-color="#78B9FF"
         offset=".9221"
         id="stop654" /><stop
         stop-color="#73B7FF"
         offset="1"
         id="stop656" /></radialGradient><radialGradient
       id="SVGID_42_"
       gradientUnits="userSpaceOnUse"
       cy="195.55"
       cx="245.00999"
       r="5.4685001"><stop
         stop-color="#fff"
         offset=".4971"
         id="stop661" /><stop
         stop-color="#E2F0FF"
         offset=".5578"
         id="stop663" /><stop
         stop-color="#BADCFF"
         offset=".6521"
         id="stop665" /><stop
         stop-color="#9BCCFF"
         offset=".7453"
         id="stop667" /><stop
         stop-color="#85C0FF"
         offset=".8357"
         id="stop669" /><stop
         stop-color="#78B9FF"
         offset=".9221"
         id="stop671" /><stop
         stop-color="#73B7FF"
         offset="1"
         id="stop673" /></radialGradient><radialGradient
       id="SVGID_43_"
       gradientUnits="userSpaceOnUse"
       cy="141"
       cx="231.56"
       r="2.4409001"><stop
         stop-color="#fff"
         offset=".4971"
         id="stop678" /><stop
         stop-color="#E2F0FF"
         offset=".5578"
         id="stop680" /><stop
         stop-color="#BADCFF"
         offset=".6521"
         id="stop682" /><stop
         stop-color="#9BCCFF"
         offset=".7453"
         id="stop684" /><stop
         stop-color="#85C0FF"
         offset=".8357"
         id="stop686" /><stop
         stop-color="#78B9FF"
         offset=".9221"
         id="stop688" /><stop
         stop-color="#73B7FF"
         offset="1"
         id="stop690" /></radialGradient><mask
       id="SVGID_44_"
       height="59.292"
       width="49.977"
       y="178.491"
       x="52.034"
       maskUnits="userSpaceOnUse" /><mask
       id="SVGID_45_"
       height="49.449"
       width="53.48"
       y="91.296"
       x="51.788"
       maskUnits="userSpaceOnUse" /><mask
       id="SVGID_47_"
       height="51.974"
       width="43.135"
       y="198.214"
       x="186.028"
       maskUnits="userSpaceOnUse" /><mask
       id="SVGID_50_"
       height="65.825"
       width="77.261"
       y="188.669"
       x="101.902"
       maskUnits="userSpaceOnUse" /><mask
       id="SVGID_52_"
       height="48.522"
       width="50.434"
       y="82.661"
       x="234.227"
       maskUnits="userSpaceOnUse" /><g
       mask="url(#SVGID_52_)"
       id="g743"><path
         d="m 282.35,131.18 c 0,0 4.412,-42.115 1.036,-46.293 -5.48,-6.782 -34.007,4.078 -34.007,4.078 0,0 -14.5,4.318 -15.144,7.608 -0.644,3.29 27.047,-10.976 40.773,-6.137 13.73,4.842 0.78,29.474 7.34,40.744 z"
         id="path745"
         inkscape:connector-curvature="0"
         style="fill:#ffffff" /></g><mask
       id="SVGID_53_"
       height="81.555"
       width="57.18"
       y="155.394"
       x="226.685"
       maskUnits="userSpaceOnUse" /><mask
       id="SVGID_55_"
       height="91.44"
       width="72.335"
       y="98.641"
       x="104.268"
       maskUnits="userSpaceOnUse" /><mask
       id="SVGID_56_"
       height="138.629"
       width="92.401"
       y="80.552"
       x="185.958"
       maskUnits="userSpaceOnUse" /><mask
       id="SVGID_57_"
       height="52.003"
       width="10.23"
       y="144.609"
       x="54.045"
       maskUnits="userSpaceOnUse" /><mask
       id="SVGID_58_"
       height="61.412"
       width="13.962"
       y="105.374"
       x="264.394"
       maskUnits="userSpaceOnUse" /><mask
       id="SVGID_59_"
       height="61.782"
       width="16.902"
       y="171.525"
       x="196.046"
       maskUnits="userSpaceOnUse" /><mask
       id="SVGID_61_"
       height="9.079"
       width="41.361"
       y="92.122"
       x="143.77"
       maskUnits="userSpaceOnUse" /><mask
       id="SVGID_62_"
       height="14.057"
       width="40.462"
       y="99.676"
       x="89.236"
       maskUnits="userSpaceOnUse" /><mask
       id="SVGID_63_"
       height="19.022"
       width="65.565"
       y="221.25"
       x="76.351"
       maskUnits="userSpaceOnUse" /><mask
       id="SVGID_64_"
       height="12.683"
       width="34.877"
       y="79.439"
       x="65.122"
       maskUnits="userSpaceOnUse" /><mask
       id="SVGID_65_"
       height="12.68"
       width="34.972"
       y="73.778"
       x="237.003"
       maskUnits="userSpaceOnUse" /><mask
       id="SVGID_66_"
       height="12.102"
       width="114.755"
       y="66.407"
       x="106.942"
       maskUnits="userSpaceOnUse" /></g><metadata
     id="metadata842"><rdf:RDF><cc:Work><dc:format>image/svg+xml</dc:format><dc:type
           rdf:resource="http://purl.org/dc/dcmitype/StillImage" /><cc:license
           rdf:resource="http://creativecommons.org/publicdomain/zero/1.0/" /><dc:publisher><cc:Agent
             rdf:about="http://openclipart.org/"><dc:title>Openclipart</dc:title></cc:Agent></dc:publisher><dc:title>Ice cube</dc:title><dc:date>2013-08-09T06:27:21</dc:date><dc:description>You look like you need a fresh drink. And put a few of these in it! ;D</dc:description><dc:source>https://openclipart.org/detail/181701/ice-cube-by-lekamie-181701</dc:source><dc:creator><cc:Agent><dc:title>lekamie</dc:title></cc:Agent></dc:creator><dc:subject><rdf:Bag><rdf:li>blue</rdf:li><rdf:li>cube</rdf:li><rdf:li>fresh</rdf:li><rdf:li>glass</rdf:li><rdf:li>glossy</rdf:li><rdf:li>ice</rdf:li></rdf:Bag></dc:subject></cc:Work><cc:License
         rdf:about="http://creativecommons.org/publicdomain/zero/1.0/"><cc:permits
           rdf:resource="http://creativecommons.org/ns#Reproduction" /><cc:permits
           rdf:resource="http://creativecommons.org/ns#Distribution" /><cc:permits
           rdf:resource="http://creativecommons.org/ns#DerivativeWorks" /></cc:License></rdf:RDF></metadata></svg>