<?xml version="1.0" encoding="UTF-8" standalone="no"?>
<!-- Generator: Adobe Illustrator 10.0, SVG Export Plug-In . SVG Version: 3.0.0 Build 77)  -->

<svg
   xmlns:i="http://ns.adobe.com/AdobeIllustrator/10.0/"
   xmlns:dc="http://purl.org/dc/elements/1.1/"
   xmlns:cc="http://creativecommons.org/ns#"
   xmlns:rdf="http://www.w3.org/1999/02/22-rdf-syntax-ns#"
   xmlns:svg="http://www.w3.org/2000/svg"
   xmlns="http://www.w3.org/2000/svg"
   xmlns:sodipodi="http://sodipodi.sourceforge.net/DTD/sodipodi-0.dtd"
   xmlns:inkscape="http://www.inkscape.org/namespaces/inkscape"
   i:rulerOrigin="0 0"
   i:viewOrigin="238 495"
   space="preserve"
   i:pageBounds="0 792 612 0"
   viewBox="0 0 134.30121 206.29845"
   enable-background="new 0 0 135.566 198.125"
   overflow="visible"
   id="svg2"
   version="1.1"
   inkscape:version="0.91 r13725"
   sodipodi:docname="juice2.svg"
   width="134.30121"
   height="206.29845"
   style="overflow:visible">
  <defs
     id="defs95" />
  <sodipodi:namedview
     pagecolor="#ffffff"
     bordercolor="#666666"
     borderopacity="1"
     objecttolerance="10"
     gridtolerance="10"
     guidetolerance="10"
     inkscape:pageopacity="0"
     inkscape:pageshadow="2"
     inkscape:window-width="1366"
     inkscape:window-height="704"
     id="namedview93"
     showgrid="false"
     fit-margin-top="0"
     fit-margin-left="0"
     fit-margin-right="0"
     fit-margin-bottom="0"
     inkscape:zoom="1.2350486"
     inkscape:cx="129.3375"
     inkscape:cy="71.842797"
     inkscape:window-x="0"
     inkscape:window-y="27"
     inkscape:window-maximized="1"
     inkscape:current-layer="svg2" />
  <g
     id="Layer_1"
     i:layer="yes"
     i:rgbTrio="#4F008000FFFF"
     i:dimmedPercent="50"
     transform="matrix(0.98039529,-0.19704085,0.19704085,0.98039529,-11.849384,19.60657)">
    <g
       id="g5"
       style="clip-rule:evenodd;fill-rule:evenodd">
      <path
         d="M 0.487,171.1 C 1.891,159.904 2.503,145.539 2.467,126.892 2.395,108.136 1.531,86.356 0.019,60.148 6.859,57.772 16.399,54.172 29.467,49.348 42.571,44.452 58.231,38.44 77.563,31.168 l 5.4,3.924 c 1.979,-9.576 3.996,-16.992 6.443,-22.788 2.341,-5.868 4.788,-10.188 7.776,-11.7 2.916,-1.584 3.672,0.252 9.9,2.592 6.264,2.268 15.228,6.048 27.323,11.196 1.152,1.692 1.549,3.204 1.044,4.68 -0.504,1.44 -1.764,2.7 -3.924,3.924 -6.768,-2.124 -12.563,-4.248 -17.676,-6.516 -5.076,-2.376 -9.324,-4.536 -12.744,-7.02 -3.023,4.428 -5.399,9.072 -7.271,13.788 -1.908,4.788 -3.168,9.468 -3.925,14.58 l 24.984,13.5 c 1.224,12.456 1.872,28.044 1.944,47.592 0.071,19.548 -0.468,42.084 -1.477,68.724 -15.443,7.704 -29.231,14.04 -42.191,19.152 -12.96,5.111 -24.408,8.747 -34.884,11.304 -6.192,-3.42 -12.276,-7.309 -18.648,-11.809 -6.324,-4.48 -12.66,-9.59 -19.14,-15.18 z"
         i:knockout="Off"
         stroke-miterlimit="10"
         id="path7"
         inkscape:connector-curvature="0"
         style="stroke:#000000;stroke-width:0.036;stroke-miterlimit:10" />
      <path
         d="m 2.791,64.797 c 1.548,2.016 3.492,5.796 5.832,11.628 2.304,5.796 4.968,13.32 8.136,23.004 -0.144,-3.996 0,-7.992 0.288,-12.528 0.252,-4.572 0.792,-9.144 1.476,-14.256 C 16.291,70.377 13.807,68.757 11.215,67.389 8.479,66.057 5.851,65.193 2.791,64.797 Z"
         i:knockout="Off"
         stroke-miterlimit="10"
         id="path9"
         inkscape:connector-curvature="0"
         style="fill:#f2c802;stroke:#000000;stroke-width:0.036;stroke-miterlimit:10" />
      <path
         d="m 22.591,74.085 c 2.988,1.548 5.508,2.916 7.56,4.392 2.016,1.44 3.564,2.7 4.644,4.068 -2.376,3.564 -4.752,6.624 -7.272,9.324 -2.592,2.628 -5.076,4.86 -7.848,6.696 0.396,-8.856 1.008,-15.12 1.44,-19.224 0.54,-4.14 0.9,-5.796 1.476,-5.256 z"
         i:knockout="Off"
         stroke-miterlimit="10"
         id="path11"
         inkscape:connector-curvature="0"
         style="fill:#f2c802;stroke:#000000;stroke-width:0.036;stroke-miterlimit:10" />
      <path
         d="m 7.723,61.593 c 1.188,-0.144 5.184,-1.476 12.528,-4.392 7.344,-2.952 21.096,-8.892 30.852,-12.816 9.576,-3.996 18.36,-7.56 26.496,-10.836 l 4.824,2.808 c -0.685,2.88 -1.044,4.968 -1.368,6.264 -0.396,1.188 -0.36,1.08 -0.432,1.476 -0.072,0.36 -0.072,0.72 0,0.936 -2.664,-0.144 -3.96,-0.036 -3.889,0.468 0,0.396 2.053,1.872 4.068,2.34 1.944,0.504 6.264,0.792 7.56,0.576 1.188,-0.36 0.9,-1.044 -0.575,-2.34 l 1.764,-6.696 22.392,12.528 C 107.947,53.997 99.847,57.345 87.5,62.097 74.972,66.849 58.844,72.681 38,80.133 c -3.024,-2.736 -5.544,-4.824 -7.56,-6.408 -2.052,-1.584 -3.6,-2.556 -4.644,-2.916 9.936,-4.104 14.4,-6.336 13.68,-6.696 -0.792,-0.432 -6.912,1.08 -18.36,4.392 -2.52,-2.16 -4.716,-3.816 -6.984,-4.968 -2.266,-1.152 -4.355,-1.8 -6.406,-1.944 z"
         i:knockout="Off"
         stroke-miterlimit="10"
         id="path13"
         inkscape:connector-curvature="0"
         style="fill:#f2c802;stroke:#000000;stroke-width:0.036;stroke-miterlimit:10" />
      <path
         d="m 133.8,14.865 c -0.973,0.36 -1.656,1.116 -2.053,2.412 -0.432,1.224 -0.575,2.988 -0.432,5.148 1.656,-0.792 2.628,-1.872 3.061,-3.096 0.39,-1.296 0.24,-2.736 -0.58,-4.464 z"
         i:knockout="Off"
         stroke-miterlimit="10"
         id="path15"
         inkscape:connector-curvature="0"
         style="fill:#ffffff;stroke:#000000;stroke-width:0.036;stroke-miterlimit:10" />
      <path
         d="M 132.1,14.325 C 128.176,12.669 124.36,10.977 120.112,9.393 115.829,7.737 110.428,5.865 106.972,4.605 103.516,3.273 101.464,1.689 99.556,1.653 97.612,1.509 97,0.825 95.2,3.921 c -1.943,3.024 -5.147,9.18 -7.271,15.984 -2.232,6.732 -4.212,14.652 -5.94,24.192 -0.071,1.044 0.396,1.728 1.009,2.196 0.72,0.396 1.584,0.54 2.987,0.432 0.54,-2.196 1.368,-5.328 2.484,-9.252 1.08,-4.032 2.268,-9.972 4.248,-14.616 1.872,-4.68 4.355,-9.216 7.308,-13.464 -1.584,-0.324 -2.52,-0.828 -3.096,-1.116 -0.648,-0.468 -0.72,-1.224 -0.216,-1.152 0.468,0.108 1.439,0.468 3.06,1.476 -0.216,-1.44 -0.288,-2.34 -0.216,-2.844 0,-0.576 0.324,-0.396 0.576,0 0.107,0.396 0.432,1.188 0.576,2.376 2.016,-1.584 3.168,-2.34 3.312,-2.268 0.145,0.036 -0.576,0.864 -2.304,2.628 -0.072,0.864 2.34,2.34 7.092,4.572 4.824,2.196 11.844,5.004 21.456,8.568 -0.18,-2.124 -0.108,-3.852 0.216,-5.04 0.28,-1.26 0.82,-2.016 1.61,-2.268 z"
         i:knockout="Off"
         stroke-miterlimit="10"
         id="path17"
         inkscape:connector-curvature="0"
         style="fill:#c0c0c0;stroke:#000000;stroke-width:0.036;stroke-miterlimit:10" />
      <path
         d="m 39.294,84.201 c -0.936,1.296 4.608,-0.504 17.172,-5.4 12.527,-4.968 31.392,-12.852 57.42,-24.048 0.144,25.956 0.144,47.627 0,66.276 -0.18,18.54 -0.504,32.94 -0.972,44.172 -17.929,8.676 -32.832,15.192 -45.145,20.124 -12.42,4.86 -21.636,7.704 -28.476,8.82 1.008,-28.656 1.404,-51.732 1.476,-70.2 -0.076,-18.5 -0.472,-31.423 -1.481,-39.739 z"
         i:knockout="Off"
         stroke-miterlimit="10"
         id="path19"
         inkscape:connector-curvature="0"
         style="fill:#f2c802;stroke:#000000;stroke-width:0.036;stroke-miterlimit:10" />
      <path
         d="m 35.839,87.153 c -1.008,1.332 -3.132,3.456 -6.372,6.372 -3.348,2.916 -7.668,6.372 -13.248,10.8 -1.656,-3.528 -3.312,-7.812 -5.4,-13.248 C 8.767,85.641 6.427,79.305 3.943,71.925 c 1.368,12.672 2.016,26.964 1.944,43.704 -0.072,16.74 -0.936,35.064 -2.448,55.944 7.776,5.437 14.148,9.972 19.656,13.752 5.472,3.78 9.54,6.624 12.744,8.82 1.332,-12.744 1.944,-27.685 1.98,-45.648 -0.036,-18.09 -0.649,-38.04 -1.98,-61.327 z"
         i:knockout="Off"
         stroke-miterlimit="10"
         id="path21"
         inkscape:connector-curvature="0"
         style="fill:#f2c802;stroke:#000000;stroke-width:0.036;stroke-miterlimit:10" />
      <path
         i:knockout="Off"
         d="m 103.7,91.725 c -8.964,-5.508 -16.523,-7.884 -23.111,-7.668 -6.624,0.324 -11.521,5.184 -16.2,9.324 -4.788,3.996 -9.216,9.936 -12.168,14.508 -2.916,4.392 -4.644,7.956 -5.58,12.06 -1.116,4.14 -1.044,8.1 -0.9,12.276 0.108,3.996 0.108,6.588 1.512,11.52 1.224,4.86 2.268,12.636 6.336,17.353 4.14,4.68 10.008,7.991 18.144,10.332 5.292,0.252 10.296,-1.116 15.156,-4.5 4.824,-3.385 9.9,-9.36 13.68,-15.444 3.636,-6.192 6.517,-14.796 8.353,-21.096 1.764,-6.372 3.239,-10.152 2.483,-16.597 -0.9,-6.55 -3.42,-13.71 -7.7,-22.065 z"
         id="path23"
         inkscape:connector-curvature="0" />
      <path
         d="m 54.883,113.9 c 2.7,-4.608 8.316,-11.268 12.42,-15.408 3.96,-4.248 7.812,-7.452 11.412,-9.468 3.492,-2.016 6.228,-2.916 9.72,-2.556 3.42,0.252 7.813,1.944 10.8,4.104 2.844,1.944 4.393,4.104 6.192,8.136 1.62,3.959 3.924,10.08 3.996,16.02 -0.036,5.904 -1.908,13.104 -3.816,19.368 -2.016,6.228 -4.5,12.456 -7.452,17.424 -3.06,4.788 -6.66,8.352 -10.224,11.52 -3.564,3.061 -7.021,6.048 -10.764,7.021 -3.853,0.792 -8.208,-0.216 -11.7,-1.908 -3.6,-1.8 -7.056,-4.248 -9.252,-8.604 -2.268,-4.5 -3.132,-11.987 -3.96,-17.604 -0.972,-5.76 -1.656,-11.556 -1.224,-16.272 0.393,-4.72 1.077,-7.35 3.849,-11.78 z"
         i:knockout="Off"
         id="path25"
         inkscape:connector-curvature="0"
         style="fill:#ff8000" />
      <path
         i:knockout="Off"
         d="m 80.083,123.15 c -1.225,-7.668 -2.196,-13.716 -2.628,-18.288 -0.576,-4.608 -1.152,-6.66 -0.324,-9.072 0.756,-2.448 2.447,-5.04 5.076,-5.688 2.592,-0.828 9.504,-1.224 10.584,1.332 0.863,2.52 -2.988,9.684 -4.752,14.256 -1.872,4.5 -3.925,8.82 -6.156,12.96 -0.576,1.48 -1.189,2.99 -1.8,4.5 z"
         id="path27"
         inkscape:connector-curvature="0" />
      <path
         i:knockout="Off"
         d="m 85.194,115.38 c 1.584,-2.771 3.132,-5.939 4.788,-9.504 1.656,-3.672 2.809,-10.332 4.824,-12.06 1.908,-1.764 5.076,0.252 6.444,1.728 1.26,1.404 1.584,3.636 1.115,6.696 -0.396,-0.468 -0.396,-0.468 0,0 0.252,0.36 2.448,1.368 2.16,2.736 -0.359,1.332 -0.611,2.34 -4.067,5.651 -3.637,3.313 -9.072,7.849 -16.992,14.004 -0.108,-0.468 -0.288,-0.792 -0.54,-0.972 -0.324,-0.252 -0.648,-0.36 -1.116,-0.324 1.125,-2.64 2.241,-5.3 3.392,-7.96 z"
         id="path29"
         inkscape:connector-curvature="0" />
      <path
         i:knockout="Off"
         d="m 85.446,125.78 c 1.765,-1.979 8.532,-6.479 11.952,-8.784 3.313,-2.412 6.229,-5.256 7.776,-5.076 1.296,0.181 0.647,3.42 0.576,5.977 -0.036,2.34 0.036,6.156 -0.9,8.388 -1.008,2.088 -2.196,4.356 -5.112,4.716 -3.06,0.36 -10.26,-1.8 -12.708,-2.592 -2.447,-0.84 -3.347,-0.88 -1.584,-2.64 z"
         id="path31"
         inkscape:connector-curvature="0" />
      <path
         i:knockout="Off"
         d="m 84.15,129.74 c 1.08,-0.144 3.24,1.296 5.94,2.232 2.664,0.792 7.775,1.655 9.647,2.592 1.62,0.756 1.116,0.899 0.721,2.771 -0.433,1.944 -1.944,6.553 -2.988,8.82 -1.116,2.16 -2.124,4.392 -3.42,3.924 -1.44,-0.684 -2.772,-4.464 -4.536,-7.308 -1.872,-2.988 -4.896,-7.524 -5.868,-9.72 -0.866,-2.18 -0.649,-3.19 0.502,-3.3 z"
         id="path33"
         inkscape:connector-curvature="0" />
      <path
         i:knockout="Off"
         d="m 81.774,131.79 c 0.937,0.828 2.772,6.984 4.536,10.116 1.584,3.061 4.608,5.904 5.328,8.244 0.54,2.196 -0.324,3.42 -1.188,5.076 -0.936,1.584 -2.411,3.204 -3.743,4.284 -1.477,1.008 -3.168,2.664 -4.248,1.764 -1.08,-1.224 -1.513,-4.788 -1.729,-7.776 -0.216,-2.952 0.324,-6.84 0.36,-9.576 -0.216,-2.771 -0.648,-5.039 -0.612,-6.947 0.037,-2.11 0.289,-5.96 1.296,-5.17 z"
         id="path35"
         inkscape:connector-curvature="0" />
      <path
         i:knockout="Off"
         d="m 77.599,122 c 0,-2.304 -1.476,-9.54 -2.196,-13.644 -0.611,-4.176 -0.647,-9.9 -1.655,-11.196 -1.225,-1.332 -3.673,1.692 -5.256,3.384 -1.584,1.62 -4.14,4.068 -4.068,6.372 0.072,2.232 2.484,4.5 4.32,7.093 1.656,2.483 4.284,6.588 5.796,7.991 1.439,1.26 2.879,2.23 3.059,0 z"
         id="path37"
         inkscape:connector-curvature="0" />
      <path
         i:knockout="Off"
         d="m 75.979,128.08 c -1.764,-2.52 -3.852,-5.004 -6.408,-7.632 -2.52,-2.628 -5.147,-7.56 -8.604,-7.992 -3.492,-0.468 -4.104,3.925 -5.292,6.192 -1.188,2.267 -1.512,3.852 -1.8,7.271 -0.288,3.456 -0.684,10.765 0.108,13.104 0.792,2.304 2.016,1.62 4.536,0.72 2.556,-0.936 7.488,-4.176 10.44,-6.155 2.951,-1.93 5.22,-3.77 7.02,-5.5 z"
         id="path39"
         inkscape:connector-curvature="0" />
      <path
         i:knockout="Off"
         d="m 72.271,133.85 c -1.908,1.079 -4.608,2.951 -7.272,4.788 -2.772,1.8 -7.164,4.247 -8.748,6.084 -1.62,1.728 -1.332,2.376 -0.936,4.571 0.36,2.232 1.368,6.084 2.88,8.353 1.404,2.124 3.996,4.031 5.436,4.319 1.404,0.217 1.188,-0.144 2.7,-3.168 1.296,-3.275 3.564,-11.304 5.436,-15.731 1.8,-4.5 4.788,-8.604 5.508,-10.513 0.612,-1.979 -0.72,-1.115 -1.512,-0.899 -0.901,0.18 -1.693,1.01 -3.492,2.2 z"
         id="path41"
         inkscape:connector-curvature="0" />
      <path
         i:knockout="Off"
         d="m 77.742,135.61 c -1.079,1.764 -2.592,4.608 -4.104,8.244 -1.584,3.708 -4.32,10.188 -5.004,13.752 -0.864,3.384 -0.72,5.796 0.72,6.84 1.548,0.9 6.588,0.036 8.316,-0.792 1.476,-0.936 1.116,-1.548 1.296,-4.212 0.072,-2.772 -0.036,-9.36 0.072,-11.988 0.144,-2.592 0.647,-1.836 0.827,-3.708 0.036,-2.088 -0.252,-6.228 -0.288,-8.1 -0.071,-2.017 0.253,-2.988 0,-3.061 -0.322,0 -0.934,1.01 -1.835,3.03 z"
         id="path43"
         inkscape:connector-curvature="0" />
      <path
         d="m 75.727,144.14 c -0.288,-0.288 -1.979,3.6 -2.592,5.832 -0.72,2.231 -1.62,7.199 -1.332,7.523 0.216,0.108 1.944,-3.96 2.7,-6.228 0.647,-2.3 1.332,-6.94 1.224,-7.12 z"
         i:knockout="Off"
         id="path45"
         inkscape:connector-curvature="0"
         style="fill:#ff8000" />
      <path
         d="m 76.95,150.94 c 0.217,0.216 -0.323,7.164 -0.792,8.496 -0.468,1.188 -2.016,0.324 -1.871,-1.044 0.18,-1.55 2.232,-7.6 2.663,-7.46 z"
         i:knockout="Off"
         id="path47"
         inkscape:connector-curvature="0"
         style="fill:#ff8000" />
      <path
         d="m 82.675,139.96 c -0.216,-0.18 0.468,2.017 0.504,3.528 -0.036,1.477 -0.468,4.86 -0.324,5.148 0.072,0.071 1.08,-2.772 1.08,-4.212 -0.073,-1.55 -1.188,-4.28 -1.26,-4.47 z"
         i:knockout="Off"
         id="path49"
         inkscape:connector-curvature="0"
         style="fill:#ff8000" />
      <path
         d="m 85.771,144 c 0.252,0.468 2.844,6.229 3.061,7.128 0.107,0.721 -1.404,-1.368 -1.908,-2.52 -0.577,-1.23 -1.478,-5.08 -1.153,-4.61 z"
         i:knockout="Off"
         id="path51"
         inkscape:connector-curvature="0"
         style="fill:#ff8000" />
      <path
         d="m 89.658,132.94 c 0.469,-0.036 -0.107,0.18 1.477,0.936 1.584,0.792 7.271,3.24 7.884,3.744 0.432,0.36 -3.168,-0.576 -4.968,-1.26 -1.944,-0.756 -5.185,-2.448 -5.977,-2.988 -0.72,-0.6 0.973,-0.57 1.584,-0.43 z"
         i:knockout="Off"
         id="path53"
         inkscape:connector-curvature="0"
         style="fill:#ff8000" />
      <path
         d="m 90.486,139.42 c 0.072,0.396 1.225,1.765 2.196,2.988 0.936,1.044 3.204,4.032 3.204,3.672 -0.145,-0.504 -3.061,-4.859 -3.888,-5.976 -0.972,-1.21 -1.619,-1.07 -1.512,-0.68 z"
         i:knockout="Off"
         id="path55"
         inkscape:connector-curvature="0"
         style="fill:#ff8000" />
      <path
         d="m 89.263,126 c -0.036,0.181 3.42,0.828 5.796,1.116 2.232,0.108 7.632,0.324 7.74,0.108 -0.072,-0.324 -5.328,-1.404 -7.561,-1.584 -2.268,-0.23 -6.012,-0.01 -5.976,0.35 z"
         i:knockout="Off"
         id="path57"
         inkscape:connector-curvature="0"
         style="fill:#ff8000" />
      <path
         d="m 98.479,122.97 c 0.576,0.036 3.816,-0.108 4.032,-0.288 -0.036,-0.216 -2.556,-0.973 -3.24,-0.864 -0.719,-0.07 -1.404,1.01 -0.791,1.15 z"
         i:knockout="Off"
         id="path59"
         inkscape:connector-curvature="0"
         style="fill:#ff8000" />
      <path
         d="m 99.595,107.24 c -0.072,0.252 -3.204,3.6 -4.68,5.328 -1.549,1.62 -4.32,4.14 -4.284,4.068 0.036,-0.324 2.556,-3.708 4.212,-5.292 1.439,-1.66 4.643,-4.33 4.752,-4.11 z"
         i:knockout="Off"
         id="path61"
         inkscape:connector-curvature="0"
         style="fill:#ff8000" />
      <path
         d="m 97.831,98.961 c -0.324,0.828 -4.824,7.884 -5.437,8.676 -0.647,0.54 0.648,-3.133 1.656,-4.608 0.9,-1.44 3.961,-4.933 3.781,-4.069 z"
         i:knockout="Off"
         id="path63"
         inkscape:connector-curvature="0"
         style="fill:#ff8000" />
      <path
         d="m 90.486,109.65 c -0.144,0 -1.332,1.944 -2.304,3.744 -1.044,1.764 -3.888,6.336 -3.672,6.516 0.107,-0.036 3.204,-4.716 4.284,-6.408 0.973,-1.83 1.765,-3.81 1.692,-3.85 z"
         i:knockout="Off"
         id="path65"
         inkscape:connector-curvature="0"
         style="fill:#ff8000" />
      <path
         d="m 87.282,102.16 c -0.216,0.937 -3.023,6.624 -3.96,8.856 -1.188,2.016 -2.34,4.788 -2.195,3.888 0.216,-0.972 2.34,-7.271 3.456,-9.324 0.972,-2.2 2.844,-4.36 2.699,-3.43 z"
         i:knockout="Off"
         id="path67"
         inkscape:connector-curvature="0"
         style="fill:#ff8000" />
      <path
         d="m 80.73,97.27 c -0.18,0.54 -0.324,5.724 -0.144,6.264 0.036,0.432 0.828,-2.484 0.863,-3.456 -0.106,-1.073 -0.539,-3.449 -0.719,-2.8 z"
         i:knockout="Off"
         id="path69"
         inkscape:connector-curvature="0"
         style="fill:#ff8000" />
      <path
         d="m 85.734,93.165 c -0.216,0.072 -0.647,2.664 -0.611,3.204 0.071,0.468 0.504,-0.072 0.72,-0.504 0.036,-0.612 0,-2.808 -0.109,-2.7 z"
         i:knockout="Off"
         id="path71"
         inkscape:connector-curvature="0"
         style="fill:#ff8000" />
      <path
         d="m 87.463,93.597 c -0.252,0.324 -0.756,4.464 -0.685,5.04 0.036,0.36 0.721,-1.08 0.937,-1.98 0.072,-0.864 -0.145,-3.456 -0.252,-3.06 z"
         i:knockout="Off"
         id="path73"
         inkscape:connector-curvature="0"
         style="fill:#ff8000" />
      <path
         d="m 74.755,114.87 c -0.685,-1.439 -1.765,-5.256 -2.269,-5.903 -0.611,-0.792 -1.439,-0.145 -0.828,1.367 0.612,1.404 3.673,6.48 4.32,7.309 0.504,0.61 -0.683,-1.34 -1.223,-2.78 z"
         i:knockout="Off"
         id="path75"
         inkscape:connector-curvature="0"
         style="fill:#ff8000" />
      <path
         d="m 66.655,107.6 c 0.396,0.756 4.176,6.264 4.68,6.66 0.252,0.323 -1.477,-3.637 -2.269,-4.681 -0.827,-1.26 -2.879,-2.7 -2.411,-1.98 z"
         i:knockout="Off"
         id="path77"
         inkscape:connector-curvature="0"
         style="fill:#ff8000" />
      <path
         d="m 61.542,115.12 c 0.576,0.36 6.48,6.66 7.417,7.813 0.575,0.899 -1.548,-0.468 -2.88,-1.729 -1.369,-1.32 -5.004,-6.4 -4.537,-6.08 z"
         i:knockout="Off"
         id="path79"
         inkscape:connector-curvature="0"
         style="fill:#ff8000" />
      <path
         d="m 68.887,125.02 c 0.107,-0.216 -2.916,-1.224 -4.608,-1.908 -1.764,-0.828 -5.472,-2.592 -5.58,-2.376 -0.252,0.18 2.916,2.556 4.644,3.384 1.728,0.74 5.292,0.99 5.544,0.91 z"
         i:knockout="Off"
         id="path81"
         inkscape:connector-curvature="0"
         style="fill:#ff8000" />
      <path
         d="m 70.902,129.49 c -0.288,0.54 -5.832,5.076 -7.74,6.516 -1.944,1.225 -3.852,1.549 -3.636,1.116 0.18,-0.54 2.52,-2.52 4.536,-3.852 1.836,-1.31 6.985,-4.33 6.84,-3.79 z"
         i:knockout="Off"
         id="path83"
         inkscape:connector-curvature="0"
         style="fill:#ff8000" />
      <path
         d="m 67.123,140.15 c -0.36,0 -6.516,5.076 -7.488,6.048 -1.008,0.864 0.396,0.36 1.692,-0.54 1.259,-1.16 6.012,-5.59 5.796,-5.51 z"
         i:knockout="Off"
         id="path85"
         inkscape:connector-curvature="0"
         style="fill:#ff8000" />
      <path
         d="m 70.759,139.03 c -0.36,0.108 -3.024,3.888 -3.96,6.048 -0.828,2.017 -1.728,6.336 -1.332,6.3 0.288,-0.252 1.908,-4.896 2.916,-6.983 0.935,-2.24 2.519,-5.37 2.376,-5.37 z"
         i:knockout="Off"
         id="path87"
         inkscape:connector-curvature="0"
         style="fill:#ff8000" />
      <path
         d="m 82.891,85.641 -5.04,-0.396 c -5.94,3.06 -10.908,6.732 -15.336,11.016 -4.572,4.32 -8.388,9.288 -11.016,14.508 -2.628,5.004 -4.104,10.584 -4.572,15.912 -0.504,5.328 0.612,11.483 1.26,15.695 0.54,3.96 1.152,5.977 1.98,8.568 0.684,2.592 1.512,4.968 2.628,6.984 1.008,1.943 2.448,3.527 3.924,4.752 -2.268,-5.257 -3.888,-10.404 -5.148,-15.841 -1.26,-5.508 -2.628,-11.231 -2.304,-16.632 0.252,-5.436 1.368,-10.368 4.032,-15.624 2.592,-5.472 7.74,-11.592 11.556,-15.875 3.744,-4.212 7.668,-7.272 10.8,-9.324 2.988,-2.202 5.4,-3.498 7.236,-3.75 z"
         i:knockout="Off"
         stroke-miterlimit="10"
         id="path89"
         inkscape:connector-curvature="0"
         style="fill:#ff8000;stroke:#000000;stroke-width:0.036;stroke-miterlimit:10" />
    </g>
  </g>
  <metadata
     id="metadata91">
    <rdf:RDF>
      <cc:Work>
        <dc:format>image/svg+xml</dc:format>
        <dc:type
           rdf:resource="http://purl.org/dc/dcmitype/StillImage" />
        <cc:license
           rdf:resource="http://creativecommons.org/publicdomain/zero/1.0/" />
        <dc:publisher>
          <cc:Agent
             rdf:about="http://openclipart.org/">
            <dc:title>Openclipart</dc:title>
          </cc:Agent>
        </dc:publisher>
        <dc:title>Fast Food, Drinks, Juice, Orange</dc:title>
        <dc:date>2007-11-26T20:55:09</dc:date>
        <dc:description>This Clip Art is part of a fast food menu set. Search for &quot;fastfood&quot; to find all.</dc:description>
        <dc:source>https://openclipart.org/detail/9149/fast-food-drinks-juice-orange-by-gerald_g</dc:source>
        <dc:creator>
          <cc:Agent>
            <dc:title>Gerald_G</dc:title>
          </cc:Agent>
        </dc:creator>
        <dc:subject>
          <rdf:Bag>
            <rdf:li>colouring book</rdf:li>
            <rdf:li>dinner</rdf:li>
            <rdf:li>drink</rdf:li>
            <rdf:li>fastfood</rdf:li>
            <rdf:li>food</rdf:li>
            <rdf:li>juice</rdf:li>
            <rdf:li>lunch</rdf:li>
            <rdf:li>menu</rdf:li>
            <rdf:li>orange</rdf:li>
          </rdf:Bag>
        </dc:subject>
      </cc:Work>
      <cc:License
         rdf:about="http://creativecommons.org/publicdomain/zero/1.0/">
        <cc:permits
           rdf:resource="http://creativecommons.org/ns#Reproduction" />
        <cc:permits
           rdf:resource="http://creativecommons.org/ns#Distribution" />
        <cc:permits
           rdf:resource="http://creativecommons.org/ns#DerivativeWorks" />
      </cc:License>
    </rdf:RDF>
  </metadata>
</svg>
