<?xml version="1.0" encoding="UTF-8" standalone="no"?>
<!-- Generator: Adobe Illustrator 10.0, SVG Export Plug-In . SVG Version: 3.0.0 Build 77)  -->

<svg
   xmlns:i="http://ns.adobe.com/AdobeIllustrator/10.0/"
   xmlns:dc="http://purl.org/dc/elements/1.1/"
   xmlns:cc="http://creativecommons.org/ns#"
   xmlns:rdf="http://www.w3.org/1999/02/22-rdf-syntax-ns#"
   xmlns:svg="http://www.w3.org/2000/svg"
   xmlns="http://www.w3.org/2000/svg"
   xmlns:sodipodi="http://sodipodi.sourceforge.net/DTD/sodipodi-0.dtd"
   xmlns:inkscape="http://www.inkscape.org/namespaces/inkscape"
   i:rulerOrigin="0 0"
   i:viewOrigin="238 494.9995"
   space="preserve"
   i:pageBounds="0 792 612 0"
   viewBox="0 0 169.74431 176.34222"
   enable-background="new 0 0 135.566 198.089"
   overflow="visible"
   id="svg2"
   version="1.1"
   inkscape:version="0.91 r13725"
   sodipodi:docname="juice1.svg"
   width="169.74431"
   height="176.34222"
   style="overflow:visible">
  <defs
     id="defs37" />
  <sodipodi:namedview
     pagecolor="#ffffff"
     bordercolor="#666666"
     borderopacity="1"
     objecttolerance="10"
     gridtolerance="10"
     guidetolerance="10"
     inkscape:pageopacity="0"
     inkscape:pageshadow="2"
     inkscape:window-width="1366"
     inkscape:window-height="704"
     id="namedview35"
     showgrid="false"
     fit-margin-top="0"
     fit-margin-left="0"
     fit-margin-right="0"
     fit-margin-bottom="0"
     inkscape:zoom="1.7742358"
     inkscape:cx="55.322651"
     inkscape:cy="65.784802"
     inkscape:window-x="0"
     inkscape:window-y="27"
     inkscape:window-maximized="1"
     inkscape:current-layer="svg2" />
  <g
     id="Layer_1"
     i:layer="yes"
     i:rgbTrio="#4F008000FFFF"
     i:dimmedPercent="50"
     transform="matrix(0.96738673,0.25330399,-0.25330399,0.96738673,42.846737,-25.01832)">
    <g
       stroke-miterlimit="10"
       id="g5"
       style="clip-rule:evenodd;fill-rule:evenodd;stroke:#000000;stroke-width:0.036;stroke-miterlimit:10">
      <path
         d="M 0.523,171.07 C 1.891,159.873 2.539,145.509 2.467,126.861 2.395,108.105 1.531,86.325 0.019,60.117 6.751,57.741 16.435,54.141 29.467,49.317 42.535,44.421 58.303,38.409 77.599,31.137 l 5.4,3.924 c 1.908,-9.504 3.996,-16.956 6.408,-22.752 2.376,-5.868 4.752,-10.152 7.812,-11.736 2.916,-1.476 3.672,0.18 9.9,2.628 6.228,2.304 15.191,5.976 27.288,11.16 1.151,1.692 1.548,3.204 1.044,4.68 -0.505,1.44 -1.801,2.7 -3.889,3.924 -6.768,-2.124 -12.563,-4.248 -17.676,-6.516 -5.148,-2.376 -9.36,-4.536 -12.78,-7.02 -3.023,4.428 -5.399,9.072 -7.271,13.788 -1.98,4.788 -3.097,9.468 -3.889,14.58 l 24.948,13.5 c 1.225,12.456 1.836,28.044 1.98,47.592 0.071,19.548 -0.468,42.085 -1.477,68.724 -15.516,7.705 -29.268,14.041 -42.228,19.152 -12.924,5.111 -24.444,8.748 -34.848,11.305 -6.192,-3.457 -12.276,-7.236 -18.648,-11.773 -6.327,-4.6 -12.663,-9.53 -19.143,-15.22 z"
         i:knockout="Off"
         id="path7"
         inkscape:connector-curvature="0" />
      <path
         d="m 2.827,64.761 c 1.476,2.016 3.456,5.796 5.796,11.628 2.268,5.796 5.04,13.32 8.172,23.004 -0.144,-3.996 0,-7.992 0.288,-12.528 0.288,-4.572 0.72,-9.144 1.44,-14.256 -2.268,-2.124 -4.644,-3.996 -7.272,-5.22 -2.736,-1.26 -5.364,-2.268 -8.424,-2.628 z"
         i:knockout="Off"
         id="path9"
         inkscape:connector-curvature="0"
         style="fill:#0000ff" />
      <path
         d="m 22.591,74.085 c 3.06,1.476 5.544,2.88 7.596,4.356 2.016,1.44 3.564,2.7 4.644,4.068 -2.376,3.564 -4.752,6.624 -7.272,9.324 -2.592,2.628 -5.076,4.86 -7.848,6.696 0.396,-8.856 1.008,-15.12 1.44,-19.224 0.396,-4.14 1.008,-5.832 1.44,-5.22 z"
         i:knockout="Off"
         id="path11"
         inkscape:connector-curvature="0"
         style="fill:#0000ff" />
      <path
         d="m 7.759,61.557 c 1.188,-0.072 5.184,-1.476 12.528,-4.356 7.344,-2.952 21.096,-8.892 30.852,-12.816 9.576,-4.032 18.36,-7.524 26.496,-10.872 l 4.824,2.808 c -0.576,2.88 -1.08,4.968 -1.368,6.264 -0.324,1.224 -0.432,1.08 -0.468,1.512 -0.072,0.324 -0.072,0.756 0,0.9 -2.593,-0.144 -3.924,-0.036 -3.853,0.468 0,0.396 2.053,1.872 4.068,2.34 1.944,0.504 6.264,0.792 7.56,0.576 1.188,-0.36 0.9,-1.044 -0.575,-2.34 l 1.728,-6.696 22.428,12.528 c -3.996,2.088 -12.096,5.436 -24.443,10.188 -12.528,4.752 -28.656,10.584 -49.5,18.036 -3.024,-2.736 -5.544,-4.824 -7.56,-6.408 -2.052,-1.62 -3.564,-2.484 -4.68,-2.88 9.936,-4.104 14.4,-6.336 13.68,-6.696 -0.828,-0.396 -6.84,1.008 -18.324,4.356 -2.52,-2.16 -4.716,-3.816 -6.984,-4.968 -2.27,-1.152 -4.358,-1.8 -6.41,-1.944 z"
         i:knockout="Off"
         id="path13"
         inkscape:connector-curvature="0"
         style="fill:#0000ff" />
      <path
         d="m 133.83,14.865 c -0.973,0.288 -1.656,1.08 -2.053,2.376 -0.396,1.224 -0.647,2.988 -0.468,5.148 1.62,-0.9 2.7,-1.8 3.097,-3.096 0.39,-1.296 0.25,-2.772 -0.58,-4.428 z"
         i:knockout="Off"
         id="path15"
         inkscape:connector-curvature="0"
         style="fill:#c0c0c0" />
      <path
         d="M 132.14,14.289 C 128.216,12.597 124.4,11.013 120.152,9.393 115.869,7.593 110.468,5.937 107.012,4.569 103.556,3.237 101.504,1.653 99.596,1.617 97.58,1.473 97.148,0.789 95.24,3.885 c -2.088,3.024 -5.039,9.18 -7.308,15.984 -2.231,6.696 -4.212,14.724 -5.939,24.228 0.071,0.972 0.287,1.692 1.044,2.16 0.575,0.468 1.691,0.576 2.951,0.468 0.54,-2.196 1.332,-5.328 2.521,-9.252 1.116,-4.032 2.196,-9.972 4.212,-14.616 1.872,-4.68 4.356,-9.216 7.308,-13.464 -1.512,-0.468 -2.483,-0.72 -3.06,-1.152 -0.576,-0.468 -0.792,-1.224 -0.252,-1.152 0.432,0.108 1.512,0.468 3.096,1.476 -0.216,-1.44 -0.288,-2.34 -0.216,-2.844 0,-0.576 0.324,-0.396 0.576,0 0.144,0.396 0.324,1.152 0.54,2.412 2.016,-1.656 3.168,-2.376 3.312,-2.304 0.145,0.036 -0.611,0.864 -2.268,2.628 -0.072,0.864 2.34,2.34 7.092,4.572 4.824,2.196 11.844,5.004 21.456,8.568 -0.18,-2.124 -0.108,-3.852 0.216,-5.04 0.29,-1.26 0.83,-2.016 1.62,-2.268 z"
         i:knockout="Off"
         id="path17"
         inkscape:connector-curvature="0"
         style="fill:#c0c0c0" />
      <path
         d="m 39.295,84.165 c -0.972,1.296 4.716,-0.504 17.208,-5.4 12.527,-4.968 31.392,-12.852 57.42,-24.048 0.144,25.956 0.144,47.628 0,66.276 -0.18,18.539 -0.504,32.939 -0.972,44.172 -18.036,8.676 -32.725,15.191 -45.181,20.123 -12.42,4.824 -21.636,7.777 -28.476,8.857 1.008,-28.656 1.404,-51.732 1.476,-70.201 -0.07,-18.46 -0.466,-31.495 -1.474,-39.775 z"
         i:knockout="Off"
         id="path19"
         inkscape:connector-curvature="0"
         style="fill:#0000ff" />
      <path
         d="m 35.875,87.117 c -1.008,1.332 -3.096,3.456 -6.408,6.372 -3.348,2.916 -7.668,6.372 -13.248,10.799 -1.656,-3.527 -3.312,-7.812 -5.4,-13.248 C 8.767,85.604 6.427,79.268 3.943,71.888 c 1.404,12.672 2.016,26.964 1.98,43.704 -0.072,16.74 -0.936,35.064 -2.448,55.943 7.704,5.438 14.148,9.973 19.62,13.752 5.436,3.744 9.648,6.697 12.78,8.857 1.26,-12.709 1.908,-27.793 1.944,-45.686 -0.036,-18.03 -0.684,-38.15 -1.944,-61.333 z"
         i:knockout="Off"
         id="path21"
         inkscape:connector-curvature="0"
         style="fill:#0000ff" />
      <path
         d="m 76.555,99.645 -0.216,-0.036 -0.18,0 -0.181,-0.036 -0.288,0 -0.18,-0.036 -0.18,0 -0.217,-0.036 -0.252,0 -0.18,0.072 -0.468,0 -0.252,0.072 -0.18,0 -0.288,0.108 -0.252,0 -0.181,0.072 -0.252,0.108 -0.288,0 -0.252,0.107 -0.252,0.072 -0.252,0.107 -0.252,0.109 -0.288,0.107 -0.252,0.107 -0.252,0.109 -0.252,0.107 -0.252,0.107 -0.324,0.109 -0.288,0.215 -0.252,0.107 -0.324,0.109 -0.251,0.215 -0.324,0.145 -0.252,0.18 -0.324,0.145 -0.324,0.215 -0.324,0.145 -0.324,0.217 -0.36,0.252 -0.324,0.107 -0.324,0.252 -0.36,0.252 -0.324,0.107 -0.324,0.252 -0.396,0.254 -0.324,0.215 -0.396,0.289 -0.324,0.215 -0.396,0.252 -0.324,0.252 -0.396,0.324 -0.324,0.252 -0.324,0.324 -0.396,0.252 -0.324,0.359 -0.324,0.324 -0.324,0.324 -0.396,0.359 -0.324,0.324 -0.324,0.361 -0.252,0.395 -0.324,0.324 -0.324,0.434 -0.324,0.467 -0.288,0.396 -0.324,0.432 -0.252,0.432 -0.324,0.541 -0.252,0.395 -0.324,0.541 -0.324,0.539 -0.288,0.396 -0.324,0.541 -0.252,0.539 -0.324,0.541 -0.252,0.504 -0.288,0.611 -0.324,0.541 -0.252,0.611 -0.252,0.504 -0.288,0.648 -0.252,0.611 -0.252,0.504 -0.252,0.611 -0.288,0.721 -0.18,0.611 -0.288,0.613 -0.18,0.576 -0.216,0.719 -0.18,0.686 -0.216,0.574 -0.18,0.721 -0.18,0.684 -0.144,0.684 -0.144,0.648 -0.144,0.684 -0.108,0.758 -0.144,0.684 -0.144,0.756 -0.108,0.791 -0.072,0.756 -0.144,0.756 -0.072,0.758 -0.072,0.826 -0.072,0.758 -0.072,0.863 -0.072,0.828 -0.036,0.756 -0.072,0.828 -0.036,0.828 -0.036,0.863 -0.036,0.828 0,3.384 0.036,0.898 0,0.828 0.072,0.793 0.072,0.9 0.036,0.791 0.072,0.793 0.072,0.9 0.108,0.756 0.108,0.756 0.144,0.791 0.108,0.756 0.144,0.865 0.18,0.756 0.18,0.719 0.144,0.865 0.252,0.719 0.18,0.828 0.18,0.865 0.252,0.791 0.252,0.828 0.252,0.793 0.252,0.828 0.324,0.791 0.252,0.793 0.288,0.791 0.324,0.793 0.324,0.791 0.288,0.756 0.324,0.793 0.324,0.684 0.36,0.756 0.324,0.684 0.396,0.756 0.36,0.648 0.324,0.684 0.36,0.648 0.396,0.539 0.432,0.613 0.396,0.539 0.36,0.432 0.396,0.576 0.432,0.396 0.36,0.432 0.396,0.469 0.432,0.287 0.432,0.324 0.396,0.324 0.504,0.289 0.432,0.215 0.468,0.217 0.432,0.215 0.504,0.182 0.504,0.07 0.468,0.182 0.504,0.107 0.504,0.072 0.504,0.072 0.504,-0.037 0.504,0.072 0.504,0 0.576,-0.072 0.504,0.072 0.504,-0.107 0.576,-0.072 0.505,-0.037 0.504,0 0.575,-0.18 0.505,-0.107 0.575,-0.072 0.504,-0.145 0.54,-0.107 0.576,-0.145 0.504,-0.143 0.504,-0.145 0.505,-0.107 0.504,-0.145 0.504,-0.217 0.504,-0.143 0.576,-0.252 0.504,-0.109 0.54,-0.252 0.576,-0.252 0.504,-0.215 0.504,-0.252 0.576,-0.361 0.504,-0.215 0.575,-0.252 0.505,-0.361 0.504,-0.324 0.575,-0.359 0.54,-0.324 0.576,-0.359 0.504,-0.324 0.504,-0.324 0.505,-0.359 0.575,-0.432 0.504,-0.324 0.54,-0.432 0.505,-0.434 0.504,-0.432 0.468,-0.324 0.504,-0.504 0.504,-0.432 0.468,-0.432 0.504,-0.396 0.433,-0.432 0.468,-0.504 0.432,-0.396 0.469,-0.504 0.468,-0.504 0.432,-0.469 0.396,-0.504 0.432,-0.467 0.468,-0.504 0.396,-0.469 0.396,-0.467 0.433,-0.613 0.396,-0.467 0.396,-0.576 0.396,-0.469 0.432,-0.611 0.396,-0.576 0.324,-0.541 0.396,-0.576 0.396,-0.539 0.396,-0.576 0.324,-0.648 0.36,-0.576 0.359,-0.646 0.324,-0.541 0.324,-0.611 0.324,-0.648 0.323,-0.648 0.324,-0.648 0.324,-0.646 0.288,-0.576 0.324,-0.648 0.252,-0.611 0.324,-0.756 0.287,-0.613 0.253,-0.684 0.287,-0.611 0.252,-0.721 0.217,-0.684 0.252,-0.721 0.252,-0.791 0.216,-0.686 0.216,-0.684 0.252,-0.791 0.216,-0.686 0.217,-0.791 0.18,-0.793 0.216,-0.756 0.216,-0.791 0.145,-0.648 0.18,-0.863 0.144,-0.756 0.217,-0.793 0.144,-0.756 0.145,-0.721 0.144,-0.756 0.144,-0.863 0.072,-0.721 0.145,-0.756 0.071,-0.828 0.145,-0.719 0.072,-0.721 0.071,-0.828 0.036,-0.719 0.072,-0.793 0.072,-0.721 0,-0.719 0.035,-0.793 0,-0.684 0.036,-0.793 -0.071,-0.756 0.035,-0.828 -0.071,-0.756 -0.036,-0.756 -0.036,-0.756 -0.072,-0.791 -0.036,-0.756 -0.107,-0.828 -0.072,-0.793 -0.107,-0.719 -0.108,-0.865 -0.108,-0.719 -0.107,-0.756 -0.108,-0.721 -0.107,-0.756 -0.145,-0.721 -0.18,-0.719 -0.108,-0.758 -0.18,-0.719 -0.18,-0.721 -0.181,-0.611 -0.107,-0.721 -0.181,-0.611 -0.18,-0.648 -0.252,-0.576 -0.18,-0.504 -0.181,-0.611 -0.18,-0.541 -0.252,-0.467 -0.18,-0.541 -0.252,-0.396 -0.181,-0.504 -0.252,-0.395 -0.252,-0.505 -0.252,-0.396 -0.252,-0.36 -0.252,-0.324 -0.288,-0.36 -0.252,-0.396 -0.252,-0.288 -0.324,-0.252 -0.324,-0.396 -0.252,-0.288 -0.323,-0.252 -0.288,-0.288 -0.324,-0.144 -0.324,-0.288 -0.324,-0.252 -0.323,-0.18 -0.324,-0.252 -0.36,-0.144 -0.324,-0.18 -0.323,-0.18 -0.396,-0.144 -0.288,-0.18 -0.324,-0.144 -0.396,-0.144 -0.324,-0.18 -0.396,-0.036 -0.288,-0.18 -0.396,-0.036 -0.324,-0.18 -0.396,-0.036 -0.36,-0.036 -0.323,-0.072 -0.396,-0.072 -0.396,-0.036 -0.324,-0.072 -0.36,-0.036 -0.396,-0.036 -0.396,0.036 -0.396,-0.036 -0.36,0.072 -0.396,0.036 -0.396,-0.036 -0.396,0.036 -0.359,0.072 -0.468,0.072 -0.396,0.144 -0.396,0.072 -0.433,0.072 -0.396,0.144 -0.396,0.072 -0.432,0.18 -0.396,0.144 -0.468,0.072 -0.432,0.18 -0.396,0.18 -0.468,0.18 -0.432,0.288 -0.469,0.18 -0.468,0.18 -0.432,0.252 0,-0.288 -0.072,-0.072 0,-0.288 -0.072,-0.108 0,-0.288 0.036,-0.108 -0.072,-0.072 0,-1.8 0.036,-0.216 0,-0.684 0.072,-0.252 0,-0.612 0.072,-0.108 0,-0.288 0.072,-0.252 0,-0.288 0.071,-0.216 0,-0.108 0.072,-0.252 0,-0.18 0.072,-0.144 0,-0.288 0.071,-0.216 0.036,-0.252 0,-0.072 0.072,-0.252 0,-0.18 0.072,-0.144 0.071,-0.216 0,-0.216 0.072,-0.216 0.072,-0.144 0,-0.18 0.072,-0.252 0.071,-0.216 0.072,-0.108 0,-0.216 0.072,-0.216 0.036,-0.252 0.036,-0.072 0.035,-0.144 0,-0.396 0.036,-0.108 0,-0.684 -0.071,-0.072 0,-0.108 -0.072,-0.072 0,-0.216 -0.036,-0.072 0,-0.108 -0.072,-0.072 -0.072,0.036 0,-0.108 -0.071,-0.072 -0.036,-0.072 -0.072,-0.072 -0.072,-0.072 -0.071,-0.108 -0.072,0.036 -0.036,-0.072 -0.072,-0.072 -0.071,-0.072 -0.072,-0.072 -0.108,0.036 -0.071,-0.072 -0.145,-0.036 -0.036,-0.072 -0.144,-0.072 -0.072,0.036 -0.107,-0.036 -0.145,-0.072 -0.072,-0.072 -0.107,0.036 -0.145,-0.036 -0.107,-0.036 -0.145,0.036 -0.071,-0.072 -0.108,-0.036 -0.144,0.036 -0.145,-0.036 -0.108,0.036 -0.071,-0.072 -0.145,0.036 -0.036,0.036 -0.144,-0.036 -0.072,0 -0.107,0.072 -0.072,0 -0.145,0.072 -0.071,0 -0.036,0.036 -0.072,0.036 -0.072,0.036 -0.071,0 -0.072,0.144 -0.072,0 -0.036,0.144 -0.071,0.036 -0.072,0 -0.072,0.144 -0.072,0.108 -0.071,0.144 -0.036,0.108 0,0.108 -0.072,0.036 0,0.108 -0.072,0.108 0,0.108 -0.071,0.144 0,0.18 -0.072,0.144 0,0.396 -0.072,0.108 0,0.72 0.072,0.18 0,0.216 0.036,0.144 0,0.216 0.071,0.18 0,0.216 0.072,0.072 0,0.396 0.036,0.18 0,0.18 0.072,0.18 0,0.432 0.072,0.144 -0.036,0.216 0.071,0.18 0,0.396 0.072,0.18 0,0.324 0.036,0.144 0,0.432 0.072,0.144 0,0.432 0.071,0.18 0,0.18 -0.035,0.216 0.071,0.18 0,0.612 0.072,0.18 0,0.396 0.036,0.18 0,0.576 0.072,0.18 0,0.612 0.036,0.18 0,0.792 0.071,0.18 0,0.612 -0.036,0.216 0.072,0.18 0,1.008 0.072,0.18 -0.216,-0.432 -0.108,-0.576 -0.108,-0.54 -0.216,-0.54 -0.107,-0.432 -0.181,-0.54 -0.18,-0.432 -0.216,-0.432 -0.108,-0.54 -0.18,-0.432 -0.252,-0.396 -0.216,-0.432 -0.181,-0.432 -0.252,-0.396 -0.18,-0.432 -0.252,-0.396 -0.18,-0.324 -0.288,-0.432 -0.252,-0.396 -0.252,-0.288 -0.252,-0.432 -0.324,-0.252 -0.252,-0.324 -0.252,-0.396 -0.324,-0.288 -0.252,-0.288 -0.324,-0.288 -0.324,-0.288 -0.323,-0.252 -0.288,-0.288 -0.324,-0.288 -0.324,-0.18 -0.396,-0.252 -0.324,-0.288 -0.396,-0.144 -0.359,-0.252 -0.396,-0.252 -0.396,-0.144 -0.396,-0.144 -0.432,-0.252 -0.396,-0.144 -0.468,-0.144 -0.36,-0.144 -0.468,-0.216 -0.432,-0.144 -0.468,-0.144 -0.468,0 -0.432,-0.144 -0.468,-0.144 -0.504,0 -0.468,-0.108 -0.432,-0.036 -0.54,-0.108 -0.432,-0.036 -0.468,-0.036 -0.504,0 -0.468,-0.036 -0.972,0 -0.468,0.072 -0.468,-0.036 -0.432,0.072 -0.54,0.072 -0.432,0 -0.468,0.072 -0.468,0.18 -0.432,0.072 -0.468,0.072 -0.432,0.072 -0.54,0.18 -0.468,0.18 -0.432,0.072 -0.468,0.18 -0.468,0.18 -0.432,0.144 -0.54,0.216 -0.468,0.18 -0.432,0.288 -0.468,0.144 -0.504,0.324 -0.468,0.18 -0.468,0.252 -0.432,0.288 -0.54,0.288 -0.468,0.288 -0.432,0.288 -0.54,0.288 -0.468,0.288 -0.504,0.396 -0.468,0.288 -0.432,0.396 -0.54,0.288 -0.468,0.36 -0.504,0.432 -0.468,0.36 -0.504,0.432 0.252,0.396 0.324,0.396 0.252,0.432 0.252,0.396 0.324,0.288 0.252,0.432 0.324,0.36 0.252,0.324 0.324,0.396 0.288,0.288 0.324,0.288 0.324,0.396 0.288,0.288 0.324,0.288 0.288,0.324 0.324,0.288 0.324,0.252 0.324,0.288 0.324,0.18 0.36,0.288 0.324,0.288 0.324,0.18 0.324,0.252 0.396,0.18 0.324,0.18 0.396,0.252 0.324,0.18 0.36,0.144 0.324,0.18 0.396,0.18 0.396,0.144 0.396,0.144 0.36,0.144 0.396,0.18 0.396,0.144 0.396,0.036 0.396,0.18 0.432,0 0.396,0.072 0.468,0.036 0.36,0.036 0.468,0.036 0.468,0 0.432,0.036 0.468,0.036 0.396,0.036 0.432,0.036 0.468,-0.072 0.432,0 0.468,0.036 0.432,-0.072 0.468,0.036 0.468,-0.072 0.432,-0.108 0.396,0.072 0.468,-0.072 0.432,0 0.468,-0.072 0.396,-0.036 0.432,0 0.396,-0.036 0.396,-0.072 0.432,0.036 0.396,-0.036 0.396,-0.072 0.396,0.036 0.36,-0.036 0.396,-0.036 0.396,-0.072 0.324,-0.036 0.396,-0.036 0.36,0.036 0.396,-0.036 0.323,-0.036 0.396,-0.072 0.324,0 0.396,-0.144 0.396,-0.072 0.323,-0.036 0.324,-0.036 0.36,-0.036 0.324,-0.036 0.396,-0.144 0.324,-0.036 0.324,-0.036 0.323,0 0.396,-0.18 0.324,0 0.323,-0.144 0.324,-0.036 0.324,-0.108 0.324,-0.036 0.324,-0.144 0.323,0 0.324,-0.144 0.324,-0.036 -0.072,0.036 -0.071,0.036 -0.072,0.108 -0.108,0.036 -0.072,0.144 -0.071,0.036 -0.072,0.108 -0.036,0.036 -0.072,0.144 -0.071,0 -0.145,0.144 -0.072,0.036 -0.035,0.144 -0.072,0 -0.072,0.144 -0.072,0.036 -0.071,0.108 -0.108,0.072 -0.072,0.108 -0.071,0.036 -0.072,0.108 -0.072,0.036 -0.036,0.144 -0.144,0.036 -0.072,0.144 -0.072,0 -0.035,0.144 -0.072,0.036 -0.072,0.108 -0.072,0.036 -0.144,0.144 -0.046,0.078 z"
         i:knockout="Off"
         id="path23"
         inkscape:connector-curvature="0" />
      <path
         d="m 79.687,101.7 -0.071,-0.072 -0.108,-0.143 -0.072,-0.072 -0.144,-0.145 -0.108,-0.072 -0.144,-0.035 -0.108,-0.145 -0.144,-0.072 -0.145,-0.035 -0.107,-0.037 -0.145,-0.072 -0.107,-0.143 -0.217,-0.037 -0.107,-0.035 -0.216,0 -0.108,-0.072 -0.216,-0.037 -0.18,0 -0.108,0.037 -0.216,0 -0.181,-0.037 -0.216,-0.035 -0.18,0 -0.18,0.072 -0.288,0 -0.181,-0.037 -0.18,0.072 -0.252,0 -0.216,0.109 -0.252,0 -0.181,0.07 -0.287,0 -0.253,0.109 -0.252,0 -0.252,0.107 -0.252,0 -0.323,0.107 -0.252,0 -0.36,0.145 -0.252,0 -0.324,0.145 -0.324,0 -0.324,0.145 -0.323,0.143 -0.324,0 -0.324,0.145 -0.324,0.145 -0.323,0.107 -0.324,0.035 -0.396,0.145 -0.288,0.145 -0.36,0.215 -0.36,0.145 -0.324,0.145 -0.324,0.252 -0.324,0.107 -0.396,0.252 -0.324,0.252 -0.324,0.217 -0.324,0.252 -0.324,0.217 -0.324,0.215 -0.36,0.359 -0.324,0.324 -0.324,0.324 -0.324,0.324 -0.324,0.359 -0.324,0.324 -0.396,0.361 -0.324,0.432 -0.324,0.324 -0.324,0.432 -0.396,0.467 -0.324,0.434 -0.324,0.432 -0.396,0.467 -0.324,0.434 -0.324,0.467 -0.324,0.504 -0.324,0.469 -0.396,0.539 -0.324,0.434 -0.324,0.539 -0.324,0.541 -0.324,0.539 -0.252,0.541 -0.36,0.539 -0.324,0.539 -0.252,0.506 -0.252,0.611 -0.324,0.539 -0.288,0.613 -0.252,0.539 -0.252,0.613 -0.216,0.574 -0.252,0.506 -0.18,0.611 -0.288,0.611 -0.18,0.576 -0.216,0.721 -0.18,0.576 -0.216,0.684 -0.18,0.611 -0.216,0.684 -0.18,0.686 -0.216,0.719 -0.108,0.648 -0.216,0.721 -0.144,0.646 -0.18,0.721 -0.144,0.648 -0.108,0.791 -0.144,0.648 -0.144,0.684 -0.108,0.756 -0.144,0.686 -0.072,0.719 -0.144,0.684 -0.072,0.758 -0.108,0.646 -0.072,0.756 -0.072,0.648 -0.072,0.756 0,0.613 -0.072,0.756 0,0.611 -0.072,0.721 0,1.978 0.036,0.686 0,1.332 0.072,0.576 0.036,0.684 0.072,0.611 0,0.721 0.108,0.539 0.072,0.721 0.072,0.684 0.108,0.541 0.072,0.719 0.108,0.648 0.144,0.576 0.036,0.684 0.144,0.648 0.18,0.539 0.144,0.686 0.108,0.539 0.18,0.648 0.144,0.648 0.18,0.539 0.18,0.648 0.18,0.504 0.216,0.648 0.18,0.646 0.252,0.504 0.18,0.613 0.18,0.539 0.252,0.613 0.252,0.504 0.252,0.611 0.18,0.504 0.252,0.611 0.252,0.613 0.252,0.611 0.252,0.611 0.252,0.576 0.324,0.576 0.252,0.613 0.252,0.611 0.324,0.576 0.288,0.576 0.252,0.611 0.324,0.576 0.324,0.576 0.36,0.539 0.324,0.469 0.396,0.541 0.36,0.432 0.324,0.576 0.432,0.432 0.396,0.324 0.432,0.432 0.396,0.432 0.432,0.324 0.504,0.287 0.432,0.289 0.504,0.18 0.504,0.18 0.504,0.18 0.576,0.145 0.576,0.072 0.576,0.035 0.648,0.037 0.684,-0.037 0.72,-0.107 0.684,0 0.684,-0.107 0.792,-0.145 0.756,-0.145 0.756,-0.143 0.828,-0.182 0.756,-0.215 0.828,-0.289 0.828,-0.252 0.828,-0.287 0.828,-0.287 0.828,-0.361 0.828,-0.252 0.828,-0.396 0.827,-0.359 0.828,-0.396 0.864,-0.467 0.828,-0.361 0.756,-0.432 0.828,-0.504 0.756,-0.432 0.72,-0.504 0.756,-0.469 0.721,-0.504 0.684,-0.504 0.648,-0.504 0.647,-0.576 0.648,-0.504 0.576,-0.539 0.647,-0.684 0.576,-0.576 0.576,-0.648 0.576,-0.648 0.575,-0.684 0.576,-0.756 0.576,-0.648 0.54,-0.721 0.576,-0.756 0.54,-0.719 0.504,-0.828 0.504,-0.828 0.54,-0.721 0.504,-0.828 0.468,-0.828 0.54,-0.828 0.433,-0.863 0.468,-0.828 0.468,-0.863 0.396,-0.793 0.468,-0.9 0.396,-0.756 0.396,-0.863 0.396,-0.863 0.396,-0.865 0.324,-0.756 0.396,-0.863 0.324,-0.828 0.324,-0.828 0.288,-0.828 0.323,-0.828 0.252,-0.791 0.217,-0.793 0.288,-0.791 0.18,-0.9 0.288,-0.9 0.216,-0.863 0.144,-0.865 0.181,-0.863 0.144,-0.863 0.145,-0.865 0.144,-0.936 0.145,-0.863 0.107,-0.828 0.145,-0.938 0.071,-0.828 0.072,-0.898 0.072,-0.828 0.107,-0.938 0.072,-0.826 0,-0.9 0.072,-0.793 0.036,-0.791 0,-0.793 0.036,-0.828 0,-1.584 0.035,-0.791 0,-0.793 0.036,-0.684 -0.071,-0.684 0.035,-0.684 -0.071,-0.686 0.036,-0.684 -0.072,-0.684 -0.036,-0.648 -0.108,-0.648 -0.071,-0.646 -0.036,-0.576 -0.145,-0.648 -0.107,-0.539 -0.036,-0.686 -0.145,-0.539 -0.18,-0.611 -0.108,-0.541 -0.107,-0.539 -0.108,-0.541 -0.18,-0.611 -0.216,-0.432 -0.108,-0.541 -0.18,-0.504 -0.18,-0.539 -0.181,-0.506 -0.18,-0.432 -0.18,-0.504 -0.217,-0.432 -0.18,-0.396 -0.252,-0.504 -0.18,-0.432 -0.181,-0.396 -0.252,-0.395 -0.18,-0.434 -0.252,-0.287 -0.18,-0.432 -0.252,-0.289 -0.252,-0.396 -0.252,-0.288 -0.253,-0.288 -0.252,-0.288 -0.252,-0.288 -0.252,-0.288 -0.323,-0.288 -0.252,-0.18 -0.253,-0.324 -0.323,-0.144 -0.288,-0.288 -0.324,-0.144 -0.252,-0.216 -0.324,-0.18 -0.324,-0.144 -0.323,-0.18 -0.324,-0.18 -0.324,-0.144 -0.324,-0.18 -0.288,-0.072 -0.323,-0.18 -0.324,-0.072 -0.324,-0.144 -0.324,-0.072 -0.323,-0.072 -0.324,-0.072 -0.324,-0.18 -0.324,-0.072 -0.288,-0.072 -0.323,0.036 -0.324,-0.072 -0.324,-0.072 -0.324,-0.072 -0.324,0.036 -0.252,-0.108 -0.323,0.036 -0.324,-0.072 -0.324,0.036 -0.324,0.036 -0.323,0 -0.253,0.036 -0.323,0 -0.324,0.036 -0.324,0.036 -0.324,0.036 -0.323,0.036 -0.324,0.108 -0.324,0.036 -0.252,0.108 -0.324,0.108 -0.324,0.036 -0.323,0.144 -0.324,0.108 -0.324,0.144 -0.324,0.144 -0.323,0.108 -0.324,0.144 -0.324,0.216 -0.324,0.144 -0.324,0.108 -0.323,0.252 -0.324,0.108 -0.324,0.252 -0.072,0.108 0,0.216 -0.071,0.108 0,0.216 -0.072,0.108 0,0.324 -0.072,0.108 0,0.324 -0.072,0.108 0,0.396 -0.071,0.144 0,0.612 -0.072,0.108 0,0.933 -0.072,0.217 0,0.792 -0.036,0.107 0,1.294 0.072,0.072 0,0.613 -0.036,0.215 0,0.289 0.072,0.07 0,0.828 0.072,0.182 0,0.072 0.18,-0.182 0.18,-0.143 0.217,-0.217 0.18,-0.145 0.216,-0.18 0.18,-0.18 0.145,-0.18 0.18,-0.072 0.145,-0.145 0.18,-0.18 0.144,-0.145 0.108,-0.07 0.144,-0.145 0.145,-0.145 0.107,-0.072 0.145,-0.145 0.144,-0.035 0.108,-0.18 0.072,0 0.144,-0.072 0.036,-0.107 0.144,-0.072 0.072,-0.037 0.072,0 0.036,-0.035 0.072,-0.107 0.071,-0.037 0.072,-0.035 0.072,-0.037 0.036,0 0,0.072 0.071,0 0.072,-0.035 0,0.107 -0.072,0 0,0.107 -0.071,0.145 -0.072,0.107 0,0.109 -0.036,0.035 -0.072,0.107 -0.071,0.145 -0.072,0.107 -0.072,0.145 -0.072,0.107 -0.107,0.182 -0.072,0.107 -0.072,0.145 -0.071,0.107 -0.108,0.145 -0.072,0.143 -0.071,0.109 -0.072,0.143 -0.108,0.072 -0.072,0.109 -0.071,0.143 -0.072,0.109 -0.072,0.143 -0.071,0.109 -0.036,0.035 -0.072,0.107 -0.072,0.145 -0.071,0.035 -0.072,0.109 0,0.107 -0.072,0.035 -0.036,0.109 0,0.107 -0.072,0.145 -0.071,0 0,0.107 -0.072,0.145 -0.072,0.107 -0.071,0.145 -0.036,0.107 -0.072,0.145 -0.072,0 0,0.107 -0.072,0.037 -0.071,0.107 -0.072,0.035 -0.036,0.145 -0.072,0 -0.071,0.035 -0.072,0.145 -0.072,0 -0.036,0.037 -0.071,0.035 -0.072,0.035 -0.145,0.037 -0.035,-0.072 -0.145,0.035 -0.072,0.037 -0.107,-0.037 -0.145,0.037 -0.107,-0.037 -0.216,-0.035 -0.108,-0.035 -0.144,-0.037 -0.181,-0.035 -0.144,-0.037 -0.181,-0.035 -0.216,-0.037 -0.107,-0.035 -0.217,0 -0.107,-0.072 -0.18,-0.107 -0.217,-0.037 -0.107,-0.035 -0.216,-0.035 -0.108,-0.145 -0.144,-0.037 -0.181,-0.035 -0.144,-0.037 -0.108,-0.07 -0.144,-0.037 -0.108,-0.145 -0.072,-0.07 -0.144,0.035 -0.036,-0.072 -0.072,-0.072 -0.071,-0.072 0,-0.107 -0.072,0.037 0,-0.109 -0.072,0.037 0.036,-0.109 0,-0.214 0.036,0 0,-0.107 0.072,-0.037 0.071,-0.035 0.072,-0.109 0.072,-0.035 0.072,-0.035 0.035,0 0.145,-0.072 0.072,-0.109 0.071,-0.035 0.108,-0.037 0.072,-0.035 0.107,-0.072 0.145,-0.035 0.144,-0.072 0.108,-0.037 0.144,-0.035 0.108,-0.072 0.216,0.037 0.108,-0.072 0.144,-0.037 0,0.002 0,-0.109 -0.072,-0.18 -0.036,-0.072 0,-0.107 -0.071,-0.072 -0.072,-0.072 0,-0.107 -0.072,-0.18 -0.036,-0.072 0,-0.072 -0.071,-0.107 -0.072,-0.072 -0.072,-0.072 0,-0.18 -0.036,-0.072 -0.071,-0.072 0,-0.107 -0.072,-0.072 -0.072,-0.18 0,-0.109 -0.036,-0.07 -0.071,-0.072 0,-0.109 -0.072,-0.07 -0.036,-0.182 0,-0.107 -0.072,-0.072 -0.071,-0.072 -0.072,-0.072 0,-0.107 -0.036,-0.18 -0.134,-0.15 z"
         i:knockout="Off"
         id="path25"
         inkscape:connector-curvature="0"
         style="fill:#ff0000" />
      <path
         d="m 81.271,102.88 0,-0.826 0.036,-0.182 0,-2.052 -0.036,-0.144 0,-1.728 -0.071,-0.18 0,-0.396 0.035,-0.216 0,-0.288 -0.071,-0.18 0,-1.008 -0.036,-0.288 0,-0.504 -0.072,-0.252 0,-0.936 -0.036,-0.252 0,-0.612 -0.072,-0.18 0,-0.612 -0.035,-0.288 0,-0.576 -0.072,-0.288 0,-0.504 -0.036,-0.288 0,-0.504 -0.072,-0.288 0,-0.504 -0.036,-0.18 0,-0.396 -0.071,-0.18 0,-0.396 -0.036,-0.18 0,-0.18 -0.072,-0.18 0,-0.216 -0.072,-0.18 0,-0.072 -0.035,-0.18 0,-0.108 -0.072,-0.18 0,-0.216 -0.072,-0.072 0,-0.288 -0.072,-0.072 0,-0.216 -0.036,-0.072 0,-0.216 -0.071,-0.072 0,-0.396 -0.072,-0.072 0,-0.324 0.072,-0.108 0,-0.216 0.071,-0.108 0.072,-0.144 0.072,0 0,-0.108 0.072,-0.036 0.071,-0.036 0.036,0 0,-0.108 0.072,-0.036 0.072,-0.036 0.071,0 0.072,-0.036 0.036,-0.036 0.072,0 0.071,-0.036 0.072,0.072 0.072,-0.036 0.036,0 0.072,-0.036 0.071,-0.036 0.072,0 0.072,0.072 0.036,-0.036 0.071,-0.036 0.072,0.072 0.072,0 0.072,-0.036 0.035,0.072 0.072,-0.036 0.072,0 0.072,0.072 0.071,-0.036 0.036,-0.036 0.072,0.072 0.072,0 0.107,0.036 0.072,-0.036 0.072,0.108 0.071,-0.036 0.072,0.072 0.036,-0.036 0.072,0.072 0.071,0 0.072,0.072 0.072,0.072 0.036,-0.036 0.071,0.072 0.072,0.072 0.072,0 0.072,0.072 0.036,0.072 0.071,0.072 0,0.108 0.072,0.072 0.072,0.072 0,0.18 0.036,0.108 0,1.296 -0.072,0.108 0,0.324 -0.072,0.108 0,0.216 -0.072,0.216 0,0.108 -0.071,0.216 0,0.108 -0.072,0.252 0,0.18 -0.072,0.216 0,0.108 -0.072,0.216 0,0.216 -0.071,0.216 0,0.432 -0.072,0.216 0,0.18 -0.072,0.252 0,0.396 -0.071,0.216 0,0.504 -0.072,0.252 0,0.504 -0.072,0.216 0,0.288 -0.072,0.324 0,0.504 -0.071,0.252 0,0.288 -0.072,0.324 0,0.504 -0.072,0.324 0,0.54 -0.072,0.324 0,0.504 -0.071,0.324 0,0.792 -0.036,0.288 -0.036,0.252 -0.036,0.288 0,2.413 0.036,0.18 0,1.44 0.072,0.145 -0.036,0.324 0,0.395 0.072,0.289 0,0.397 0.035,0.18 0,0.504 0.072,0.18 0,0.18 0.072,0.18 0,0.217 0.036,0.252 0,0.215 0.071,0.182 -0.071,-0.072 -0.072,-0.072 0,-0.107 -0.036,-0.072 -0.072,-0.072 0,-0.109 -0.071,-0.07 0,-0.109 -0.036,-0.072 -0.072,-0.07 0,-0.109 -0.072,-0.072 0,-0.107 -0.071,-0.072 -0.036,-0.072 0,-0.107 -0.072,-0.072 -0.072,-0.072 -0.071,-0.072 0,-0.107 -0.036,-0.072 -0.072,-0.072 0,-0.107 -0.072,-0.072 0,-0.107 -0.071,-0.072 -0.036,-0.072 0,-0.072 -0.072,-0.107 -0.072,-0.072 0,-0.1 z"
         i:knockout="Off"
         id="path27"
         inkscape:connector-curvature="0"
         style="fill:#c6902c" />
      <path
         d="m 78.967,95.757 -0.036,-0.396 -0.072,-0.252 -0.071,-0.396 -0.036,-0.36 -0.072,-0.396 -0.144,-0.252 -0.036,-0.36 -0.145,-0.36 -0.036,-0.288 -0.144,-0.36 -0.108,-0.252 -0.144,-0.36 -0.108,-0.324 -0.144,-0.252 -0.18,-0.252 -0.145,-0.36 -0.18,-0.216 -0.181,-0.324 -0.144,-0.252 -0.18,-0.324 -0.181,-0.216 -0.216,-0.252 -0.252,-0.288 -0.18,-0.216 -0.18,-0.252 -0.253,-0.18 -0.287,-0.324 -0.253,-0.18 -0.18,-0.252 -0.324,-0.18 -0.252,-0.18 -0.252,-0.216 -0.252,-0.288 -0.324,-0.18 -0.323,-0.18 -0.324,-0.18 -0.324,-0.288 -0.324,-0.18 -0.323,-0.18 -0.324,-0.252 -0.396,-0.18 -0.359,-0.144 -0.324,-0.18 -0.396,-0.252 -0.396,-0.144 -0.396,-0.18 -0.36,-0.144 -0.468,-0.108 -0.396,-0.18 -0.36,-0.144 -0.468,-0.144 -0.396,-0.144 -0.432,-0.144 -0.468,0 -0.396,-0.18 -0.432,0 -0.468,-0.036 -0.468,-0.144 -0.396,-0.036 -0.432,-0.036 -0.468,0.072 -0.432,-0.036 -0.468,-0.036 -0.468,0.072 -0.432,0.072 -0.468,0.072 -0.468,0.072 -0.432,0.072 -0.468,0.072 -0.468,0.108 -0.432,0.072 -0.54,0.18 -0.432,0.072 -0.468,0.18 -0.504,0.108 -0.468,0.18 -0.54,0.18 -0.432,0.18 -0.54,0.18 -0.432,0.18 -0.54,0.324 -0.504,0.18 -0.468,0.18 -0.54,0.324 -0.504,0.18 -0.54,0.288 -0.504,0.324 -0.54,0.288 -0.504,0.324 -0.54,0.288 -0.504,0.324 -0.576,0.396 -0.54,0.324 -0.504,0.288 -0.612,0.432 -0.504,0.432 0.396,-0.072 0.432,-0.072 0.468,-0.072 0.396,-0.036 0.432,-0.072 0.468,-0.072 0.396,-0.036 0.468,-0.072 0.36,-0.072 0.468,0.036 0.468,-0.072 0.396,-0.036 0.432,-0.072 0.396,0.036 0.468,-0.072 0.36,0.072 0.468,-0.072 0.468,0 0.396,-0.036 0.432,0.036 0.396,-0.036 0.468,0 0.36,0.072 0.468,-0.072 0.468,0.036 0.396,0.036 0.432,0.036 0.396,-0.036 0.468,0 0.36,0.072 0.468,0.036 0.468,0 0.36,0.072 0.468,0.036 0.468,0.036 0.432,0.108 0.468,0.036 0.468,0.036 0.432,0.108 0.468,0.036 0.432,0.108 0.468,0.036 0.432,0.144 0.468,0.036 0.468,0.108 0.432,0.036 0.468,0.108 0.432,0.144 0.468,0.036 0.432,0.108 0.396,0.144 0.468,0.036 0.432,0.144 0.396,0.144 0.396,0.036 0.432,0.144 0.396,0.144 0.396,0.072 0.396,0.144 0.323,0.072 0.36,0.144 0.324,0.072 0.324,0.072 0.323,0.18 0.324,0.072 0.324,0.072 0.324,0.18 0.252,0.108 0.252,0.108 0.324,0.072 0.288,0.18 0.252,0.108 0.252,0.108 0.252,0.108 0.18,0.108 0.288,0.108 0.18,0.144 0.252,0.072 0.181,0.252 0.216,0.108 0.18,0.144 0.18,0.108 0.217,0.144 0.18,0.108 0.18,0.144 0.145,0.144 0.18,0.108 0.144,0.144 0.108,0.18 0.145,0.144 0.107,0.144 0.145,0.144 0.107,0.144 0.145,0.072 0.144,0.144 0.035,0.18 z"
         i:knockout="Off"
         id="path29"
         inkscape:connector-curvature="0"
         style="fill:#00c200" />
      <path
         d="m 78.211,96.261 -0.216,-0.108 -0.108,-0.072 -0.216,-0.108 -0.18,-0.144 -0.145,-0.144 -0.18,-0.108 -0.181,-0.144 -0.18,-0.108 -0.216,-0.144 -0.18,-0.108 -0.217,-0.144 -0.18,-0.108 -0.18,-0.144 -0.252,0 -0.216,-0.108 -0.181,-0.144 -0.252,-0.072 -0.216,-0.144 -0.18,-0.108 -0.252,-0.108 -0.252,-0.108 -0.217,-0.144 -0.252,-0.072 -0.252,-0.108 -0.252,-0.108 -0.252,-0.108 -0.252,-0.072 -0.288,-0.108 -0.252,-0.108 -0.252,-0.108 -0.252,-0.108 -0.252,-0.072 -0.324,-0.108 -0.252,-0.072 -0.252,-0.108 -0.324,-0.072 -0.287,-0.108 -0.324,-0.072 -0.252,-0.108 -0.324,-0.072 -0.324,-0.072 -0.252,-0.108 -0.324,-0.072 -0.324,-0.072 -0.324,-0.072 -0.324,-0.072 -0.324,-0.108 -0.324,-0.072 -0.324,-0.072 -0.324,-0.072 -0.36,-0.036 -0.324,-0.108 -0.324,-0.072 -0.396,-0.036 -0.324,-0.072 -0.396,-0.072 -0.324,-0.072 -0.396,-0.036 -0.36,-0.072 -0.396,-0.036 -0.396,-0.072 -0.396,-0.036 -0.396,-0.036 -0.36,-0.072 -0.396,-0.036 -0.396,-0.072 -0.468,0.072 -0.36,-0.036 -0.396,-0.072 -0.468,0 -0.396,-0.072 -0.432,-0.036 -0.468,0.072 -0.396,-0.036 -0.432,-0.036 -0.468,-0.036 -0.468,0.072 -0.432,-0.036 -0.468,0 -0.468,-0.036 -0.432,0.072 -0.468,-0.036 -0.504,0 -0.468,0.072 -0.432,-0.036 -0.54,0 -0.468,0.072 -0.504,0 -0.468,-0.036 -0.504,0.108 -1.044,0 -0.504,0.072 -1.044,0 -0.54,0.108 0.324,0.18 0.324,0.288 0.252,0.216 0.324,0.288 0.324,0.18 0.324,0.288 0.324,0.18 0.288,0.216 0.324,0.252 0.324,0.216 0.324,0.18 0.252,0.18 0.324,0.18 0.324,0.18 0.324,0.216 0.252,0.18 0.324,0.18 0.324,0.18 0.324,0.072 0.252,0.216 0.324,0.18 0.324,0.072 0.252,0.216 0.324,0.18 0.324,0.072 0.324,0.18 0.252,0.108 0.324,0.18 0.324,0.072 0.324,0.108 0.252,0.18 0.324,0.108 0.324,0.072 0.324,0.072 0.288,0.108 0.324,0.072 0.252,0.108 0.324,0.072 0.252,0.108 0.324,-0.036 0.252,0.108 0.324,0.072 0.252,0 0.252,0.108 0.324,-0.036 0.288,0.108 0.324,-0.036 0.252,0 0.324,0.072 0.252,0 0.324,0.108 0.252,0 0.324,-0.036 0.252,0 0.324,0.072 0.324,-0.036 0.324,-0.036 0.324,0.072 0.324,0 0.324,-0.036 0.324,-0.036 0.324,0.072 0.324,0 0.396,0.036 0.324,-0.036 0.396,-0.036 0.396,0.036 0.324,0 0.36,-0.072 0.396,0.072 0.324,-0.036 0.396,-0.072 0.396,0.072 0.36,-0.072 0.396,-0.036 0.396,0.036 0.396,-0.036 0.396,-0.072 0.359,-0.036 0.396,0.036 0.396,-0.036 0.469,-0.108 0.359,-0.036 0.396,0.036 0.468,-0.072 0.36,-0.036 0.468,-0.072 0.396,-0.072 0.433,-0.072 0.468,0.036 0.396,-0.072 0.433,-0.072 0.468,-0.072 0.432,-0.108 0.469,-0.072 0.47,-0.072 z"
         i:knockout="Off"
         id="path31"
         inkscape:connector-curvature="0"
         style="fill:#00c200" />
    </g>
  </g>
  <metadata
     id="metadata33">
    <rdf:RDF>
      <cc:Work>
        <dc:format>image/svg+xml</dc:format>
        <dc:type
           rdf:resource="http://purl.org/dc/dcmitype/StillImage" />
        <cc:license
           rdf:resource="http://creativecommons.org/publicdomain/zero/1.0/" />
        <dc:publisher>
          <cc:Agent
             rdf:about="http://openclipart.org/">
            <dc:title>Openclipart</dc:title>
          </cc:Agent>
        </dc:publisher>
        <dc:title>Fast Food, Drinks, Juice, Apple</dc:title>
        <dc:date>2007-11-26T20:55:09</dc:date>
        <dc:description>This Clip Art is part of a fast food menu set. Search for &quot;fastfood&quot; to find all.</dc:description>
        <dc:source>https://openclipart.org/detail/9145/fast-food-drinks-juice-apple-by-gerald_g</dc:source>
        <dc:creator>
          <cc:Agent>
            <dc:title>Gerald_G</dc:title>
          </cc:Agent>
        </dc:creator>
        <dc:subject>
          <rdf:Bag>
            <rdf:li>apple</rdf:li>
            <rdf:li>colouring book</rdf:li>
            <rdf:li>dinner</rdf:li>
            <rdf:li>drink</rdf:li>
            <rdf:li>fastfood</rdf:li>
            <rdf:li>food</rdf:li>
            <rdf:li>juice</rdf:li>
            <rdf:li>lunch</rdf:li>
            <rdf:li>menu</rdf:li>
          </rdf:Bag>
        </dc:subject>
      </cc:Work>
      <cc:License
         rdf:about="http://creativecommons.org/publicdomain/zero/1.0/">
        <cc:permits
           rdf:resource="http://creativecommons.org/ns#Reproduction" />
        <cc:permits
           rdf:resource="http://creativecommons.org/ns#Distribution" />
        <cc:permits
           rdf:resource="http://creativecommons.org/ns#DerivativeWorks" />
      </cc:License>
    </rdf:RDF>
  </metadata>
</svg>
