<?xml version="1.0" encoding="UTF-8" standalone="no"?>
<!-- Created with Inkscape (http://www.inkscape.org/) -->

<svg
   xmlns:dc="http://purl.org/dc/elements/1.1/"
   xmlns:cc="http://creativecommons.org/ns#"
   xmlns:rdf="http://www.w3.org/1999/02/22-rdf-syntax-ns#"
   xmlns:svg="http://www.w3.org/2000/svg"
   xmlns="http://www.w3.org/2000/svg"
   xmlns:sodipodi="http://sodipodi.sourceforge.net/DTD/sodipodi-0.dtd"
   xmlns:inkscape="http://www.inkscape.org/namespaces/inkscape"
   width="128"
   height="128"
   viewBox="0 0 128 128"
   id="svg2"
   version="1.1"
   inkscape:version="0.92.1 r15371"
   sodipodi:docname="octagon2.svg">
  <defs
     id="defs4" />
  <sodipodi:namedview
     id="base"
     pagecolor="#ffffff"
     bordercolor="#666666"
     borderopacity="1.0"
     inkscape:pageopacity="0.0"
     inkscape:pageshadow="2"
     inkscape:zoom="1.4"
     inkscape:cx="53.325"
     inkscape:cy="21.003641"
     inkscape:document-units="px"
     inkscape:current-layer="g1040"
     showgrid="false"
     inkscape:window-width="938"
     inkscape:window-height="1051"
     inkscape:window-x="942"
     inkscape:window-y="0"
     inkscape:window-maximized="0"
     fit-margin-top="0"
     fit-margin-left="0"
     fit-margin-right="0"
     fit-margin-bottom="0"
     units="px"
     inkscape:snap-global="false" />
  <metadata
     id="metadata7">
    <rdf:RDF>
      <cc:Work
         rdf:about="">
        <dc:format>image/svg+xml</dc:format>
        <dc:type
           rdf:resource="http://purl.org/dc/dcmitype/StillImage" />
        <dc:title></dc:title>
      </cc:Work>
    </rdf:RDF>
  </metadata>
  <g
     inkscape:label="Layer 1"
     inkscape:groupmode="layer"
     id="layer1"
     transform="translate(151.87173,-673.45606)">
    <g
       id="g1040"
       transform="matrix(0.23504156,0,0,0.23504156,-147.87173,677.43021)">
      <polygon
         id="polygon1024-5"
         points="510.44,360.32 510.44,150.44 360.11,0.108 150.44,0.108 0.108,150.44 0.108,360.32 150.44,510.66 360.11,510.66 "
         style="fill:#cacaca;fill-opacity:1;stroke:none;stroke-width:0.21600001"
         transform="matrix(1.0421075,0,0,1.0421075,-10.748951,-10.753583)" />
      <polygon
         id="polygon1024"
         points="150.44,0.108 0.108,150.44 0.108,360.32 150.44,510.66 360.11,510.66 510.44,360.32 510.44,150.44 360.11,0.108 "
         style="fill:#f0f0f0;stroke:none;stroke-width:0.21600001;fill-opacity:1" />
      <polygon
         id="polygon1026"
         points="159.73,487.98 350.82,487.98 487.76,350.82 487.76,159.73 350.82,22.788 159.73,22.788 22.788,159.73 22.788,350.82 "
         style="fill:#ed171f" />
      <polygon
         id="polygon1028"
         points="185.65,207.11 150.95,207.11 150.95,187.31 239.29,187.31 239.29,207.11 205.38,207.11 205.38,323.46 185.65,323.46 "
         style="fill:#f0f0f0;fill-opacity:1" />
      <path
         id="path1030"
         d="M 378.9,323.46 V 187.31 h 44.136 c 20.808,0 37.656,16.848 37.656,37.368 0,20.736 -16.848,37.584 -37.368,37.584 h -24.696 v 61.2 h -19.73 z"
         inkscape:connector-curvature="0"
         style="fill:#f0f0f0;fill-opacity:1" />
      <path
         id="path1032"
         d="m 255.13,280.04 c 0,24.192 19.728,43.92 44.208,43.92 24.12,0 43.92,-19.728 43.92,-43.92 v -49.248 c 0,-24.408 -19.8,-43.992 -43.92,-43.992 -24.48,0 -43.992,19.584 -44.208,43.704 v 49.54 z"
         inkscape:connector-curvature="0"
         style="fill:#f0f0f0;fill-opacity:1" />
      <path
         id="path1034"
         d="m 81.9,235.62 c 0.936,0.792 1.944,1.512 3.168,1.728 l 34.632,14.904 c 7.056,3.888 12.456,10.224 14.904,18.072 0.72,3.672 1.224,7.344 1.224,10.944 0,23.472 -19.08,42.696 -42.696,42.696 -20.016,0 -37.368,-13.896 -41.76,-33.408 L 70.38,284.94 c 1.728,11.016 11.52,19.296 22.752,19.296 12.672,0 22.896,-10.224 22.896,-22.968 0,-1.944 -0.216,-3.888 -0.72,-5.616 -0.504,-1.944 -1.728,-3.6 -3.384,-4.824 -0.504,-0.504 -1.224,-0.792 -1.728,-1.008 L 77.508,255.924 c -2.736,-1.224 -5.184,-2.448 -7.632,-4.176 -0.432,-0.504 -0.936,-0.936 -1.44,-1.44 -24.624,-22.464 -8.784,-63.504 24.696,-63.504 14.832,0 28.512,9.072 33.912,23.184 l -18.072,8.064 c -2.232,-6.84 -8.784,-11.448 -15.84,-11.448 -9.288,0 -16.848,7.56 -16.848,16.848 0.002,4.63 1.946,9.02 5.618,12.19 z"
         inkscape:connector-curvature="0"
         style="fill:#f0f0f0;fill-opacity:1" />
      <path
         id="path1036"
         d="m 323.24,280.04 v -49.248 c 0,-13.464 -10.728,-24.192 -23.904,-24.192 -13.464,0 -24.192,10.728 -24.192,24.192 v 49.248 c 0,13.248 10.728,24.192 24.192,24.192 13.18,0.01 23.9,-10.94 23.9,-24.19 z"
         inkscape:connector-curvature="0"
         style="fill:#ed171f" />
      <path
         id="path1038"
         d="m 423.32,242.24 c 9.72,0 17.568,-7.848 17.568,-17.568 0,-9.504 -7.848,-17.568 -17.352,-17.568 h -24.912 v 35.136 h 24.69 z"
         inkscape:connector-curvature="0"
         style="fill:#ed171f" />
    </g>
  </g>
</svg>
