<?xml version="1.0" encoding="UTF-8" standalone="no"?>
<!-- Created with Inkscape (http://www.inkscape.org/) -->

<svg
   xmlns:dc="http://purl.org/dc/elements/1.1/"
   xmlns:cc="http://creativecommons.org/ns#"
   xmlns:rdf="http://www.w3.org/1999/02/22-rdf-syntax-ns#"
   xmlns:svg="http://www.w3.org/2000/svg"
   xmlns="http://www.w3.org/2000/svg"
   xmlns:sodipodi="http://sodipodi.sourceforge.net/DTD/sodipodi-0.dtd"
   xmlns:inkscape="http://www.inkscape.org/namespaces/inkscape"
   width="48.315189mm"
   height="45.950478mm"
   viewBox="0 0 171.19555 162.81665"
   id="svg5518"
   version="1.1"
   inkscape:version="0.91 r13725"
   sodipodi:docname="pentagon03.svg">
  <title
     id="title5654">Pentagon Var03</title>
  <defs
     id="defs5520" />
  <sodipodi:namedview
     id="base"
     pagecolor="#ffffff"
     bordercolor="#666666"
     borderopacity="1.0"
     inkscape:pageopacity="0.0"
     inkscape:pageshadow="2"
     inkscape:zoom="1"
     inkscape:cx="235.43403"
     inkscape:cy="55.69404"
     inkscape:document-units="px"
     inkscape:current-layer="layer1"
     showgrid="false"
     fit-margin-top="0"
     fit-margin-left="0"
     fit-margin-right="0"
     fit-margin-bottom="0"
     inkscape:window-width="1366"
     inkscape:window-height="712"
     inkscape:window-x="0"
     inkscape:window-y="0"
     inkscape:window-maximized="1" />
  <metadata
     id="metadata5523">
    <rdf:RDF>
      <cc:Work
         rdf:about="">
        <dc:format>image/svg+xml</dc:format>
        <dc:type
           rdf:resource="http://purl.org/dc/dcmitype/StillImage" />
        <dc:title>Pentagon Var03</dc:title>
        <dc:date>2016-01-26</dc:date>
        <dc:creator>
          <cc:Agent>
            <dc:title>Algot Runeman</dc:title>
          </cc:Agent>
        </dc:creator>
        <dc:rights>
          <cc:Agent>
            <dc:title>Algot Runeman</dc:title>
          </cc:Agent>
        </dc:rights>
        <dc:publisher>
          <cc:Agent>
            <dc:title>runeman.org</dc:title>
          </cc:Agent>
        </dc:publisher>
        <dc:identifier>pentagon03.svg</dc:identifier>
        <cc:license
           rdf:resource="http://creativecommons.org/publicdomain/zero/1.0/" />
      </cc:Work>
      <cc:License
         rdf:about="http://creativecommons.org/publicdomain/zero/1.0/">
        <cc:permits
           rdf:resource="http://creativecommons.org/ns#Reproduction" />
        <cc:permits
           rdf:resource="http://creativecommons.org/ns#Distribution" />
        <cc:permits
           rdf:resource="http://creativecommons.org/ns#DerivativeWorks" />
      </cc:License>
    </rdf:RDF>
  </metadata>
  <g
     inkscape:label="Layer 1"
     inkscape:groupmode="layer"
     id="layer1"
     transform="translate(-308.68794,-425.23959)">
    <g
       transform="translate(127.42286,24.512749)"
       id="g8421">
      <path
         inkscape:transform-center-x="1.0663355e-05"
         inkscape:transform-center-y="-8.5944908"
         d="m 266.86286,400.72684 85.59777,62.19043 -32.69544,100.62623 -105.80467,-10e-6 -32.69544,-100.62622 z"
         inkscape:randomized="0"
         inkscape:rounded="0"
         inkscape:flatsided="true"
         sodipodi:arg2="-0.9424778"
         sodipodi:arg1="-1.5707963"
         sodipodi:r2="72.813828"
         sodipodi:r1="90.002831"
         sodipodi:cy="490.72968"
         sodipodi:cx="266.86285"
         sodipodi:sides="5"
         id="path6943"
         style="opacity:1;fill:#ffaaaa;fill-opacity:1;stroke:none;stroke-width:2;stroke-linecap:square;stroke-miterlimit:4;stroke-dasharray:none;stroke-opacity:1"
         sodipodi:type="star" />
      <g
         style="fill:#ff8080"
         transform="matrix(0.99893808,-0.04607272,0.04607272,0.99893808,-386.92561,46.682904)"
         id="g6874">
        <g
           style="fill:#ff8080"
           id="g6629"
           transform="matrix(0.93092238,0,0,0.93092238,41.050855,31.295299)">
          <path
             sodipodi:nodetypes="ssccccccs"
             inkscape:connector-curvature="0"
             id="path6569"
             d="m 602.40357,542.44589 c 5.11822,2.47975 10.90517,4.21171 16.90099,5.39347 24.53074,4.83498 52.55063,0.46526 52.60449,0.45685 -26.45933,-5.62119 -50.80631,-11.66632 -71.67156,-29.36994 -5.19193,-1.5632 -12.76756,0.34427 -14.21381,3.29314 -0.59883,1.25252 -0.55828,2.80724 0.12052,4.62356 0.43813,0.95347 0.89191,1.85085 1.36224,2.68496 1.40576,2.28078 3.5825,4.82878 6.4591,7.56074 2.50206,2.08696 5.34694,3.85959 8.43803,5.35722 z"
             style="opacity:1;fill:#ff8080;fill-opacity:1;stroke:none;stroke-width:2;stroke-linecap:square;stroke-miterlimit:4;stroke-dasharray:none;stroke-opacity:1" />
          <path
             style="opacity:1;fill:#ff8080;fill-opacity:1;stroke:none;stroke-width:2;stroke-linecap:square;stroke-miterlimit:4;stroke-dasharray:none;stroke-opacity:1"
             d="m 587.32884,545.14356 c 2.47506,1.40499 5.31567,2.44054 8.283,3.19715 12.14028,3.09555 26.39727,1.52572 26.42468,1.52269 -14.03873,-3.45967 -25.07893,-7.26415 -34.86941,-16.91181 -2.54821,-0.93382 -6.43144,-0.13467 -7.27466,1.35194 -0.35036,0.63181 -0.39129,1.43521 -0.12167,2.38926 0.18264,0.50284 0.37537,0.97708 0.57892,1.4191 0.61673,1.21154 1.61046,2.57987 2.94876,4.06027 1.17544,1.13834 2.53562,2.12282 4.03038,2.9714 z"
             id="path6571"
             inkscape:connector-curvature="0"
             sodipodi:nodetypes="ssccccccs" />
          <path
             style="opacity:1;fill:#ff8080;fill-opacity:1;stroke:none;stroke-width:2;stroke-linecap:square;stroke-miterlimit:4;stroke-dasharray:none;stroke-opacity:1"
             d="m 690.00938,528.11712 c 3.94,-4.10142 7.37545,-9.06995 10.3522,-14.40713 12.17874,-21.83601 16.68151,-49.83483 16.69016,-49.88866 -13.52245,23.42728 -26.79534,44.71458 -50.08019,59.08789 -3.0911,4.45478 -3.61799,12.24905 -1.26037,14.53578 1.00619,0.95656 2.49732,1.39843 4.43452,1.31413 1.0422,-0.12204 2.03587,-0.27631 2.9745,-0.46586 2.60355,-0.63216 5.6995,-1.91499 9.18668,-3.80658 2.75798,-1.73469 5.32297,-3.89257 7.7025,-6.36957 z"
             id="path6575"
             inkscape:connector-curvature="0"
             sodipodi:nodetypes="ssccccccs" />
          <path
             sodipodi:nodetypes="ssccccccs"
             inkscape:connector-curvature="0"
             id="path6577"
             d="m 687.91666,543.28767 c 2.10107,-1.91976 3.96372,-4.30134 5.60027,-6.88963 6.6956,-10.58951 9.60824,-24.63382 9.61384,-24.66082 -7.62854,12.28253 -14.65843,21.60672 -26.85933,27.93673 -1.67557,2.13493 -2.1155,6.07505 -0.96222,7.33638 0.49262,0.52846 1.24405,0.81566 2.23472,0.85404 0.53466,-0.0184 1.04525,-0.0551 1.52853,-0.11205 1.34284,-0.21216 2.95128,-0.73442 4.77277,-1.54974 1.44586,-0.76615 2.80247,-1.75553 4.07142,-2.91491 z"
             style="opacity:1;fill:#ff8080;fill-opacity:1;stroke:none;stroke-width:2;stroke-linecap:square;stroke-miterlimit:4;stroke-dasharray:none;stroke-opacity:1" />
          <path
             sodipodi:nodetypes="ssccccccs"
             inkscape:connector-curvature="0"
             id="path6581"
             d="m 703.45361,440.37124 c -2.68316,-5.01459 -6.34689,-9.81725 -10.50299,-14.29758 -17.00385,-18.33038 -42.24088,-31.26488 -42.2894,-31.28974 18.10199,20.10005 34.24588,39.30145 40.7203,65.88827 3.28153,4.3164 10.53152,7.22607 13.43487,5.69047 1.22068,-0.66134 2.10171,-1.94295 2.62016,-3.81139 0.20598,-1.02889 0.36633,-2.02162 0.4761,-2.97287 0.20333,-2.67147 -0.0601,-6.01231 -0.78143,-9.91335 -0.79753,-3.15905 -2.05715,-6.26532 -3.67761,-9.29381 z"
             style="opacity:1;fill:#ff8080;fill-opacity:1;stroke:none;stroke-width:2;stroke-linecap:square;stroke-miterlimit:4;stroke-dasharray:none;stroke-opacity:1" />
          <path
             style="opacity:1;fill:#ff8080;fill-opacity:1;stroke:none;stroke-width:2;stroke-linecap:square;stroke-miterlimit:4;stroke-dasharray:none;stroke-opacity:1"
             d="m 717.23497,447.04948 c -1.17653,-2.59148 -2.86596,-5.09892 -4.82185,-7.45519 -8.00217,-9.64023 -20.45906,-16.75025 -20.483,-16.76391 9.32403,11.05069 16.01952,20.61784 18.26943,34.17767 1.51266,2.25327 5.12399,3.88925 6.67997,3.18219 0.65483,-0.30521 1.16017,-0.93112 1.50282,-1.86144 0.14779,-0.51415 0.27062,-1.0111 0.36577,-1.48835 0.21317,-1.34267 0.21351,-3.03377 9.6e-4,-5.01807 -0.28186,-1.61184 -0.80359,-3.20779 -1.5141,-4.7729 z"
             id="path6583"
             inkscape:connector-curvature="0"
             sodipodi:nodetypes="ssccccccs" />
          <path
             style="opacity:1;fill:#ff8080;fill-opacity:1;stroke:none;stroke-width:2;stroke-linecap:square;stroke-miterlimit:4;stroke-dasharray:none;stroke-opacity:1"
             d="m 624.15678,400.47003 c -5.59829,1.00225 -11.29804,3.00255 -16.8434,5.57073 -22.6877,10.50723 -42.78781,30.51209 -42.82645,30.55055 24.7101,-11.00476 47.96046,-20.42495 75.24673,-18.3667 5.11919,-1.78709 10.12682,-7.7831 9.56356,-11.01887 -0.25176,-1.3653 -1.19838,-2.59926 -2.81516,-3.6697 -0.9149,-0.51385 -1.80947,-0.97312 -2.68025,-1.37147 -2.4779,-1.01891 -5.7366,-1.80083 -9.66963,-2.32022 -3.25089,-0.21771 -6.59436,0.0204 -9.9754,0.62568 z"
             id="path6587"
             inkscape:connector-curvature="0"
             sodipodi:nodetypes="ssccccccs" />
          <path
             sodipodi:nodetypes="ssccccccs"
             inkscape:connector-curvature="0"
             id="path6589"
             d="m 634.76685,389.42686 c -2.8282,0.31814 -5.73498,1.15004 -8.58034,2.28208 -11.64121,4.63152 -22.25263,14.2816 -22.27301,14.30015 13.39111,-5.45283 24.55903,-8.8642 38.15045,-6.81378 2.61043,-0.74232 5.28229,-3.67136 5.09067,-5.36968 -0.0879,-0.71708 -0.52704,-1.39112 -1.30594,-2.00447 -0.44332,-0.29944 -0.87799,-0.56984 -1.30247,-0.8078 -1.21108,-0.61765 -2.81932,-1.14055 -4.77218,-1.55159 -1.62005,-0.23002 -3.29911,-0.227 -5.00718,-0.0349 z"
             style="opacity:1;fill:#ff8080;fill-opacity:1;stroke:none;stroke-width:2;stroke-linecap:square;stroke-miterlimit:4;stroke-dasharray:none;stroke-opacity:1" />
          <path
             sodipodi:nodetypes="ssccccccs"
             inkscape:connector-curvature="0"
             id="path6593"
             d="m 561.70443,463.55562 c -0.77677,5.634 -0.63569,11.67292 0.0932,17.74048 2.98208,24.8242 15.79655,50.12239 15.82119,50.17101 -2.83031,-26.90137 -4.60469,-51.92476 5.78474,-77.23951 -0.1177,-5.42088 -4.27281,-12.03629 -7.52426,-12.50051 -1.37628,-0.18246 -2.84236,0.33652 -4.36003,1.54339 -0.77141,0.71132 -1.48465,1.4202 -2.13259,2.12525 -1.73475,2.04176 -3.4854,4.89934 -5.19474,8.47939 -1.21162,3.02449 -2.01837,6.2779 -2.4875,9.6805 z"
             style="opacity:1;fill:#ff8080;fill-opacity:1;stroke:none;stroke-width:2;stroke-linecap:square;stroke-miterlimit:4;stroke-dasharray:none;stroke-opacity:1" />
          <path
             style="opacity:1;fill:#ff8080;fill-opacity:1;stroke:none;stroke-width:2;stroke-linecap:square;stroke-miterlimit:4;stroke-dasharray:none;stroke-opacity:1"
             d="m 554.48044,450.05232 c -0.57139,2.7881 -0.67845,5.80968 -0.48108,8.86559 0.80751,12.50266 6.70617,25.57676 6.71751,25.60189 -1.04786,-14.42072 -0.8412,-26.09621 5.30885,-38.38881 0.10068,-2.71206 -1.85935,-6.15827 -3.53377,-6.50085 -0.70915,-0.13797 -1.48589,0.0714 -2.30992,0.62262 -0.42178,0.32908 -0.81326,0.65893 -1.17074,0.9891 -0.96167,0.96094 -1.95595,2.32887 -2.95034,4.05914 -0.71938,1.46968 -1.23537,3.06749 -1.58051,4.75132 z"
             id="path6595"
             inkscape:connector-curvature="0"
             sodipodi:nodetypes="ssccccccs" />
        </g>
        <g
           style="fill:#ff8080"
           id="g6658"
           transform="matrix(0.48891236,-0.48891237,0.48891237,0.48891236,176.51827,635.87519)">
          <g
             style="fill:#ff8080"
             inkscape:transform-center-y="-197.98991"
             inkscape:transform-center-x="-35.355339"
             transform="matrix(-0.24968107,-0.12074229,0.12074229,-0.24968107,644.00172,572.7553)"
             id="g6660">
            <path
               style="opacity:1;fill:#ff8080;fill-opacity:1;stroke:none;stroke-width:2;stroke-linecap:square;stroke-miterlimit:4;stroke-dasharray:none;stroke-opacity:1"
               d="m 463.39648,613.88867 c -18.98118,-0.014 -38.8851,3.1905 -58.61718,8.35156 -80.72993,21.11551 -158.56912,74.95702 -158.71875,75.06055 87.66694,-21.55544 169.60307,-38.76796 258.01757,-15.89258 17.87096,-2.84699 37.86111,-19.58535 37.92188,-30.54687 -0.0207,-4.63343 -2.40145,-9.24577 -7.08008,-13.7168 -2.70177,-2.2282 -5.36905,-4.26512 -7.99414,-6.08789 -7.53766,-4.81028 -17.78007,-9.30322 -30.39258,-13.33203 -10.54996,-2.63501 -21.67324,-3.82747 -33.13672,-3.83594 z"
               id="path6662"
               inkscape:connector-curvature="0"
               sodipodi:nodetypes="ssccccccs" />
            <path
               sodipodi:nodetypes="ssccccccs"
               inkscape:connector-curvature="0"
               id="path6664"
               d="m 504.77023,583.87999 c -9.47799,-0.62521 -19.51748,0.39076 -29.53246,2.4289 -40.97433,8.33869 -81.5298,33.77053 -81.60775,33.81943 47.20745,-10.00309 85.90655,-14.61335 129.34079,0.14857 9.01315,-0.89673 19.51949,-8.94013 19.89304,-14.63194 0.13468,-2.40741 -0.90966,-4.8808 -3.10599,-7.35555 -1.27938,-1.24542 -2.54749,-2.39031 -3.8013,-3.42265 -3.6134,-2.74411 -8.58732,-5.41149 -14.75933,-7.91497 -5.18571,-1.71233 -10.70289,-2.69402 -16.427,-3.07179 z"
               style="opacity:1;fill:#ff8080;fill-opacity:1;stroke:none;stroke-width:2;stroke-linecap:square;stroke-miterlimit:4;stroke-dasharray:none;stroke-opacity:1" />
          </g>
          <g
             style="fill:#ff8080"
             id="g6666"
             transform="matrix(-0.19198844,0.20014938,-0.20014938,-0.19198844,895.34907,375.37531)"
             inkscape:transform-center-x="181.23126"
             inkscape:transform-center-y="-102.9639">
            <path
               sodipodi:nodetypes="ssccccccs"
               inkscape:connector-curvature="0"
               id="path6668"
               d="m 463.39648,613.88867 c -18.98118,-0.014 -38.8851,3.1905 -58.61718,8.35156 -80.72993,21.11551 -158.56912,74.95702 -158.71875,75.06055 87.66694,-21.55544 169.60307,-38.76796 258.01757,-15.89258 17.87096,-2.84699 37.86111,-19.58535 37.92188,-30.54687 -0.0207,-4.63343 -2.40145,-9.24577 -7.08008,-13.7168 -2.70177,-2.2282 -5.36905,-4.26512 -7.99414,-6.08789 -7.53766,-4.81028 -17.78007,-9.30322 -30.39258,-13.33203 -10.54996,-2.63501 -21.67324,-3.82747 -33.13672,-3.83594 z"
               style="opacity:1;fill:#ff8080;fill-opacity:1;stroke:none;stroke-width:2;stroke-linecap:square;stroke-miterlimit:4;stroke-dasharray:none;stroke-opacity:1" />
            <path
               style="opacity:1;fill:#ff8080;fill-opacity:1;stroke:none;stroke-width:2;stroke-linecap:square;stroke-miterlimit:4;stroke-dasharray:none;stroke-opacity:1"
               d="m 504.77023,583.87999 c -9.47799,-0.62521 -19.51748,0.39076 -29.53246,2.4289 -40.97433,8.33869 -81.5298,33.77053 -81.60775,33.81943 47.20745,-10.00309 85.90655,-14.61335 129.34079,0.14857 9.01315,-0.89673 19.51949,-8.94013 19.89304,-14.63194 0.13468,-2.40741 -0.90966,-4.8808 -3.10599,-7.35555 -1.27938,-1.24542 -2.54749,-2.39031 -3.8013,-3.42265 -3.6134,-2.74411 -8.58732,-5.41149 -14.75933,-7.91497 -5.18571,-1.71233 -10.70289,-2.69402 -16.427,-3.07179 z"
               id="path6670"
               inkscape:connector-curvature="0"
               sodipodi:nodetypes="ssccccccs" />
          </g>
          <g
             style="fill:#ff8080"
             inkscape:transform-center-y="147.55344"
             inkscape:transform-center-x="161.66433"
             transform="matrix(0.13102569,0.24444142,-0.24444142,0.13102569,785.30016,75.336005)"
             id="g6672">
            <path
               style="opacity:1;fill:#ff8080;fill-opacity:1;stroke:none;stroke-width:2;stroke-linecap:square;stroke-miterlimit:4;stroke-dasharray:none;stroke-opacity:1"
               d="m 463.39648,613.88867 c -18.98118,-0.014 -38.8851,3.1905 -58.61718,8.35156 -80.72993,21.11551 -158.56912,74.95702 -158.71875,75.06055 87.66694,-21.55544 169.60307,-38.76796 258.01757,-15.89258 17.87096,-2.84699 37.86111,-19.58535 37.92188,-30.54687 -0.0207,-4.63343 -2.40145,-9.24577 -7.08008,-13.7168 -2.70177,-2.2282 -5.36905,-4.26512 -7.99414,-6.08789 -7.53766,-4.81028 -17.78007,-9.30322 -30.39258,-13.33203 -10.54996,-2.63501 -21.67324,-3.82747 -33.13672,-3.83594 z"
               id="path6674"
               inkscape:connector-curvature="0"
               sodipodi:nodetypes="ssccccccs" />
            <path
               sodipodi:nodetypes="ssccccccs"
               inkscape:connector-curvature="0"
               id="path6676"
               d="m 504.77023,583.87999 c -9.47799,-0.62521 -19.51748,0.39076 -29.53246,2.4289 -40.97433,8.33869 -81.5298,33.77053 -81.60775,33.81943 47.20745,-10.00309 85.90655,-14.61335 129.34079,0.14857 9.01315,-0.89673 19.51949,-8.94013 19.89304,-14.63194 0.13468,-2.40741 -0.90966,-4.8808 -3.10599,-7.35555 -1.27938,-1.24542 -2.54749,-2.39031 -3.8013,-3.42265 -3.6134,-2.74411 -8.58732,-5.41149 -14.75933,-7.91497 -5.18571,-1.71233 -10.70289,-2.69402 -16.427,-3.07179 z"
               style="opacity:1;fill:#ff8080;fill-opacity:1;stroke:none;stroke-width:2;stroke-linecap:square;stroke-miterlimit:4;stroke-dasharray:none;stroke-opacity:1" />
          </g>
          <g
             style="fill:#ff8080"
             id="g6678"
             transform="matrix(0.27296677,-0.04907628,0.04907628,0.27296677,465.93883,87.281488)"
             inkscape:transform-center-x="-98.227605"
             inkscape:transform-center-y="207.10151">
            <path
               sodipodi:nodetypes="ssccccccs"
               inkscape:connector-curvature="0"
               id="path6680"
               d="m 463.39648,613.88867 c -18.98118,-0.014 -38.8851,3.1905 -58.61718,8.35156 -80.72993,21.11551 -158.56912,74.95702 -158.71875,75.06055 87.66694,-21.55544 169.60307,-38.76796 258.01757,-15.89258 17.87096,-2.84699 37.86111,-19.58535 37.92188,-30.54687 -0.0207,-4.63343 -2.40145,-9.24577 -7.08008,-13.7168 -2.70177,-2.2282 -5.36905,-4.26512 -7.99414,-6.08789 -7.53766,-4.81028 -17.78007,-9.30322 -30.39258,-13.33203 -10.54996,-2.63501 -21.67324,-3.82747 -33.13672,-3.83594 z"
               style="opacity:1;fill:#ff8080;fill-opacity:1;stroke:none;stroke-width:2;stroke-linecap:square;stroke-miterlimit:4;stroke-dasharray:none;stroke-opacity:1" />
            <path
               style="opacity:1;fill:#ff8080;fill-opacity:1;stroke:none;stroke-width:2;stroke-linecap:square;stroke-miterlimit:4;stroke-dasharray:none;stroke-opacity:1"
               d="m 504.77023,583.87999 c -9.47799,-0.62521 -19.51748,0.39076 -29.53246,2.4289 -40.97433,8.33869 -81.5298,33.77053 -81.60775,33.81943 47.20745,-10.00309 85.90655,-14.61335 129.34079,0.14857 9.01315,-0.89673 19.51949,-8.94013 19.89304,-14.63194 0.13468,-2.40741 -0.90966,-4.8808 -3.10599,-7.35555 -1.27938,-1.24542 -2.54749,-2.39031 -3.8013,-3.42265 -3.6134,-2.74411 -8.58732,-5.41149 -14.75933,-7.91497 -5.18571,-1.71233 -10.70289,-2.69402 -16.427,-3.07179 z"
               id="path6682"
               inkscape:connector-curvature="0"
               sodipodi:nodetypes="ssccccccs" />
          </g>
          <g
             style="fill:#ff8080"
             inkscape:transform-center-y="-35.163843"
             inkscape:transform-center-x="-225.91222"
             transform="matrix(0.03767705,-0.27477223,0.27477223,0.03767705,378.61159,394.70351)"
             id="g6684">
            <path
               style="opacity:1;fill:#ff8080;fill-opacity:1;stroke:none;stroke-width:2;stroke-linecap:square;stroke-miterlimit:4;stroke-dasharray:none;stroke-opacity:1"
               d="m 463.39648,613.88867 c -18.98118,-0.014 -38.8851,3.1905 -58.61718,8.35156 -80.72993,21.11551 -158.56912,74.95702 -158.71875,75.06055 87.66694,-21.55544 169.60307,-38.76796 258.01757,-15.89258 17.87096,-2.84699 37.86111,-19.58535 37.92188,-30.54687 -0.0207,-4.63343 -2.40145,-9.24577 -7.08008,-13.7168 -2.70177,-2.2282 -5.36905,-4.26512 -7.99414,-6.08789 -7.53766,-4.81028 -17.78007,-9.30322 -30.39258,-13.33203 -10.54996,-2.63501 -21.67324,-3.82747 -33.13672,-3.83594 z"
               id="path6686"
               inkscape:connector-curvature="0"
               sodipodi:nodetypes="ssccccccs" />
            <path
               sodipodi:nodetypes="ssccccccs"
               inkscape:connector-curvature="0"
               id="path6688"
               d="m 504.77023,583.87999 c -9.47799,-0.62521 -19.51748,0.39076 -29.53246,2.4289 -40.97433,8.33869 -81.5298,33.77053 -81.60775,33.81943 47.20745,-10.00309 85.90655,-14.61335 129.34079,0.14857 9.01315,-0.89673 19.51949,-8.94013 19.89304,-14.63194 0.13468,-2.40741 -0.90966,-4.8808 -3.10599,-7.35555 -1.27938,-1.24542 -2.54749,-2.39031 -3.8013,-3.42265 -3.6134,-2.74411 -8.58732,-5.41149 -14.75933,-7.91497 -5.18571,-1.71233 -10.70289,-2.69402 -16.427,-3.07179 z"
               style="opacity:1;fill:#ff8080;fill-opacity:1;stroke:none;stroke-width:2;stroke-linecap:square;stroke-miterlimit:4;stroke-dasharray:none;stroke-opacity:1" />
          </g>
        </g>
        <g
           style="fill:#ff8080"
           transform="matrix(0.4340926,-0.11631476,0.11631476,0.4340926,322.97993,416.56437)"
           id="g6690">
          <g
             style="fill:#ff8080"
             id="g6692"
             transform="matrix(-0.24968107,-0.12074229,0.12074229,-0.24968107,644.00172,572.7553)"
             inkscape:transform-center-x="-35.355339"
             inkscape:transform-center-y="-197.98991">
            <path
               sodipodi:nodetypes="ssccccccs"
               inkscape:connector-curvature="0"
               id="path6694"
               d="m 463.39648,613.88867 c -18.98118,-0.014 -38.8851,3.1905 -58.61718,8.35156 -80.72993,21.11551 -158.56912,74.95702 -158.71875,75.06055 87.66694,-21.55544 169.60307,-38.76796 258.01757,-15.89258 17.87096,-2.84699 37.86111,-19.58535 37.92188,-30.54687 -0.0207,-4.63343 -2.40145,-9.24577 -7.08008,-13.7168 -2.70177,-2.2282 -5.36905,-4.26512 -7.99414,-6.08789 -7.53766,-4.81028 -17.78007,-9.30322 -30.39258,-13.33203 -10.54996,-2.63501 -21.67324,-3.82747 -33.13672,-3.83594 z"
               style="opacity:1;fill:#ff8080;fill-opacity:1;stroke:none;stroke-width:2;stroke-linecap:square;stroke-miterlimit:4;stroke-dasharray:none;stroke-opacity:1" />
            <path
               style="opacity:1;fill:#ff8080;fill-opacity:1;stroke:none;stroke-width:2;stroke-linecap:square;stroke-miterlimit:4;stroke-dasharray:none;stroke-opacity:1"
               d="m 504.77023,583.87999 c -9.47799,-0.62521 -19.51748,0.39076 -29.53246,2.4289 -40.97433,8.33869 -81.5298,33.77053 -81.60775,33.81943 47.20745,-10.00309 85.90655,-14.61335 129.34079,0.14857 9.01315,-0.89673 19.51949,-8.94013 19.89304,-14.63194 0.13468,-2.40741 -0.90966,-4.8808 -3.10599,-7.35555 -1.27938,-1.24542 -2.54749,-2.39031 -3.8013,-3.42265 -3.6134,-2.74411 -8.58732,-5.41149 -14.75933,-7.91497 -5.18571,-1.71233 -10.70289,-2.69402 -16.427,-3.07179 z"
               id="path6696"
               inkscape:connector-curvature="0"
               sodipodi:nodetypes="ssccccccs" />
          </g>
          <g
             style="fill:#ff8080"
             inkscape:transform-center-y="-102.9639"
             inkscape:transform-center-x="181.23126"
             transform="matrix(-0.19198844,0.20014938,-0.20014938,-0.19198844,895.34907,375.37531)"
             id="g6698">
            <path
               style="opacity:1;fill:#ff8080;fill-opacity:1;stroke:none;stroke-width:2;stroke-linecap:square;stroke-miterlimit:4;stroke-dasharray:none;stroke-opacity:1"
               d="m 463.39648,613.88867 c -18.98118,-0.014 -38.8851,3.1905 -58.61718,8.35156 -80.72993,21.11551 -158.56912,74.95702 -158.71875,75.06055 87.66694,-21.55544 169.60307,-38.76796 258.01757,-15.89258 17.87096,-2.84699 37.86111,-19.58535 37.92188,-30.54687 -0.0207,-4.63343 -2.40145,-9.24577 -7.08008,-13.7168 -2.70177,-2.2282 -5.36905,-4.26512 -7.99414,-6.08789 -7.53766,-4.81028 -17.78007,-9.30322 -30.39258,-13.33203 -10.54996,-2.63501 -21.67324,-3.82747 -33.13672,-3.83594 z"
               id="path6700"
               inkscape:connector-curvature="0"
               sodipodi:nodetypes="ssccccccs" />
            <path
               sodipodi:nodetypes="ssccccccs"
               inkscape:connector-curvature="0"
               id="path6702"
               d="m 504.77023,583.87999 c -9.47799,-0.62521 -19.51748,0.39076 -29.53246,2.4289 -40.97433,8.33869 -81.5298,33.77053 -81.60775,33.81943 47.20745,-10.00309 85.90655,-14.61335 129.34079,0.14857 9.01315,-0.89673 19.51949,-8.94013 19.89304,-14.63194 0.13468,-2.40741 -0.90966,-4.8808 -3.10599,-7.35555 -1.27938,-1.24542 -2.54749,-2.39031 -3.8013,-3.42265 -3.6134,-2.74411 -8.58732,-5.41149 -14.75933,-7.91497 -5.18571,-1.71233 -10.70289,-2.69402 -16.427,-3.07179 z"
               style="opacity:1;fill:#ff8080;fill-opacity:1;stroke:none;stroke-width:2;stroke-linecap:square;stroke-miterlimit:4;stroke-dasharray:none;stroke-opacity:1" />
          </g>
          <g
             style="fill:#ff8080"
             id="g6704"
             transform="matrix(0.13102569,0.24444142,-0.24444142,0.13102569,785.30016,75.336005)"
             inkscape:transform-center-x="161.66433"
             inkscape:transform-center-y="147.55344">
            <path
               sodipodi:nodetypes="ssccccccs"
               inkscape:connector-curvature="0"
               id="path6706"
               d="m 463.39648,613.88867 c -18.98118,-0.014 -38.8851,3.1905 -58.61718,8.35156 -80.72993,21.11551 -158.56912,74.95702 -158.71875,75.06055 87.66694,-21.55544 169.60307,-38.76796 258.01757,-15.89258 17.87096,-2.84699 37.86111,-19.58535 37.92188,-30.54687 -0.0207,-4.63343 -2.40145,-9.24577 -7.08008,-13.7168 -2.70177,-2.2282 -5.36905,-4.26512 -7.99414,-6.08789 -7.53766,-4.81028 -17.78007,-9.30322 -30.39258,-13.33203 -10.54996,-2.63501 -21.67324,-3.82747 -33.13672,-3.83594 z"
               style="opacity:1;fill:#ff8080;fill-opacity:1;stroke:none;stroke-width:2;stroke-linecap:square;stroke-miterlimit:4;stroke-dasharray:none;stroke-opacity:1" />
            <path
               style="opacity:1;fill:#ff8080;fill-opacity:1;stroke:none;stroke-width:2;stroke-linecap:square;stroke-miterlimit:4;stroke-dasharray:none;stroke-opacity:1"
               d="m 504.77023,583.87999 c -9.47799,-0.62521 -19.51748,0.39076 -29.53246,2.4289 -40.97433,8.33869 -81.5298,33.77053 -81.60775,33.81943 47.20745,-10.00309 85.90655,-14.61335 129.34079,0.14857 9.01315,-0.89673 19.51949,-8.94013 19.89304,-14.63194 0.13468,-2.40741 -0.90966,-4.8808 -3.10599,-7.35555 -1.27938,-1.24542 -2.54749,-2.39031 -3.8013,-3.42265 -3.6134,-2.74411 -8.58732,-5.41149 -14.75933,-7.91497 -5.18571,-1.71233 -10.70289,-2.69402 -16.427,-3.07179 z"
               id="path6708"
               inkscape:connector-curvature="0"
               sodipodi:nodetypes="ssccccccs" />
          </g>
          <g
             style="fill:#ff8080"
             inkscape:transform-center-y="207.10151"
             inkscape:transform-center-x="-98.227605"
             transform="matrix(0.27296677,-0.04907628,0.04907628,0.27296677,465.93883,87.281488)"
             id="g6710">
            <path
               style="opacity:1;fill:#ff8080;fill-opacity:1;stroke:none;stroke-width:2;stroke-linecap:square;stroke-miterlimit:4;stroke-dasharray:none;stroke-opacity:1"
               d="m 463.39648,613.88867 c -18.98118,-0.014 -38.8851,3.1905 -58.61718,8.35156 -80.72993,21.11551 -158.56912,74.95702 -158.71875,75.06055 87.66694,-21.55544 169.60307,-38.76796 258.01757,-15.89258 17.87096,-2.84699 37.86111,-19.58535 37.92188,-30.54687 -0.0207,-4.63343 -2.40145,-9.24577 -7.08008,-13.7168 -2.70177,-2.2282 -5.36905,-4.26512 -7.99414,-6.08789 -7.53766,-4.81028 -17.78007,-9.30322 -30.39258,-13.33203 -10.54996,-2.63501 -21.67324,-3.82747 -33.13672,-3.83594 z"
               id="path6712"
               inkscape:connector-curvature="0"
               sodipodi:nodetypes="ssccccccs" />
            <path
               sodipodi:nodetypes="ssccccccs"
               inkscape:connector-curvature="0"
               id="path6714"
               d="m 504.77023,583.87999 c -9.47799,-0.62521 -19.51748,0.39076 -29.53246,2.4289 -40.97433,8.33869 -81.5298,33.77053 -81.60775,33.81943 47.20745,-10.00309 85.90655,-14.61335 129.34079,0.14857 9.01315,-0.89673 19.51949,-8.94013 19.89304,-14.63194 0.13468,-2.40741 -0.90966,-4.8808 -3.10599,-7.35555 -1.27938,-1.24542 -2.54749,-2.39031 -3.8013,-3.42265 -3.6134,-2.74411 -8.58732,-5.41149 -14.75933,-7.91497 -5.18571,-1.71233 -10.70289,-2.69402 -16.427,-3.07179 z"
               style="opacity:1;fill:#ff8080;fill-opacity:1;stroke:none;stroke-width:2;stroke-linecap:square;stroke-miterlimit:4;stroke-dasharray:none;stroke-opacity:1" />
          </g>
          <g
             style="fill:#ff8080"
             id="g6716"
             transform="matrix(0.03767705,-0.27477223,0.27477223,0.03767705,378.61159,394.70351)"
             inkscape:transform-center-x="-225.91222"
             inkscape:transform-center-y="-35.163843">
            <path
               sodipodi:nodetypes="ssccccccs"
               inkscape:connector-curvature="0"
               id="path6718"
               d="m 463.39648,613.88867 c -18.98118,-0.014 -38.8851,3.1905 -58.61718,8.35156 -80.72993,21.11551 -158.56912,74.95702 -158.71875,75.06055 87.66694,-21.55544 169.60307,-38.76796 258.01757,-15.89258 17.87096,-2.84699 37.86111,-19.58535 37.92188,-30.54687 -0.0207,-4.63343 -2.40145,-9.24577 -7.08008,-13.7168 -2.70177,-2.2282 -5.36905,-4.26512 -7.99414,-6.08789 -7.53766,-4.81028 -17.78007,-9.30322 -30.39258,-13.33203 -10.54996,-2.63501 -21.67324,-3.82747 -33.13672,-3.83594 z"
               style="opacity:1;fill:#ff8080;fill-opacity:1;stroke:none;stroke-width:2;stroke-linecap:square;stroke-miterlimit:4;stroke-dasharray:none;stroke-opacity:1" />
            <path
               style="opacity:1;fill:#ff8080;fill-opacity:1;stroke:none;stroke-width:2;stroke-linecap:square;stroke-miterlimit:4;stroke-dasharray:none;stroke-opacity:1"
               d="m 504.77023,583.87999 c -9.47799,-0.62521 -19.51748,0.39076 -29.53246,2.4289 -40.97433,8.33869 -81.5298,33.77053 -81.60775,33.81943 47.20745,-10.00309 85.90655,-14.61335 129.34079,0.14857 9.01315,-0.89673 19.51949,-8.94013 19.89304,-14.63194 0.13468,-2.40741 -0.90966,-4.8808 -3.10599,-7.35555 -1.27938,-1.24542 -2.54749,-2.39031 -3.8013,-3.42265 -3.6134,-2.74411 -8.58732,-5.41149 -14.75933,-7.91497 -5.18571,-1.71233 -10.70289,-2.69402 -16.427,-3.07179 z"
               id="path6720"
               inkscape:connector-curvature="0"
               sodipodi:nodetypes="ssccccccs" />
          </g>
        </g>
        <g
           style="fill:#ff8080"
           id="g6722"
           transform="matrix(0.14640202,-0.25357576,0.25357576,0.14640202,463.28397,590.61322)">
          <g
             style="fill:#ff8080"
             inkscape:transform-center-y="-197.98991"
             inkscape:transform-center-x="-35.355339"
             transform="matrix(-0.24968107,-0.12074229,0.12074229,-0.24968107,644.00172,572.7553)"
             id="g6724">
            <path
               style="opacity:1;fill:#ff8080;fill-opacity:1;stroke:none;stroke-width:2;stroke-linecap:square;stroke-miterlimit:4;stroke-dasharray:none;stroke-opacity:1"
               d="m 463.39648,613.88867 c -18.98118,-0.014 -38.8851,3.1905 -58.61718,8.35156 -80.72993,21.11551 -158.56912,74.95702 -158.71875,75.06055 87.66694,-21.55544 169.60307,-38.76796 258.01757,-15.89258 17.87096,-2.84699 37.86111,-19.58535 37.92188,-30.54687 -0.0207,-4.63343 -2.40145,-9.24577 -7.08008,-13.7168 -2.70177,-2.2282 -5.36905,-4.26512 -7.99414,-6.08789 -7.53766,-4.81028 -17.78007,-9.30322 -30.39258,-13.33203 -10.54996,-2.63501 -21.67324,-3.82747 -33.13672,-3.83594 z"
               id="path6726"
               inkscape:connector-curvature="0"
               sodipodi:nodetypes="ssccccccs" />
            <path
               sodipodi:nodetypes="ssccccccs"
               inkscape:connector-curvature="0"
               id="path6728"
               d="m 504.77023,583.87999 c -9.47799,-0.62521 -19.51748,0.39076 -29.53246,2.4289 -40.97433,8.33869 -81.5298,33.77053 -81.60775,33.81943 47.20745,-10.00309 85.90655,-14.61335 129.34079,0.14857 9.01315,-0.89673 19.51949,-8.94013 19.89304,-14.63194 0.13468,-2.40741 -0.90966,-4.8808 -3.10599,-7.35555 -1.27938,-1.24542 -2.54749,-2.39031 -3.8013,-3.42265 -3.6134,-2.74411 -8.58732,-5.41149 -14.75933,-7.91497 -5.18571,-1.71233 -10.70289,-2.69402 -16.427,-3.07179 z"
               style="opacity:1;fill:#ff8080;fill-opacity:1;stroke:none;stroke-width:2;stroke-linecap:square;stroke-miterlimit:4;stroke-dasharray:none;stroke-opacity:1" />
          </g>
          <g
             style="fill:#ff8080"
             id="g6730"
             transform="matrix(-0.19198844,0.20014938,-0.20014938,-0.19198844,895.34907,375.37531)"
             inkscape:transform-center-x="181.23126"
             inkscape:transform-center-y="-102.9639">
            <path
               sodipodi:nodetypes="ssccccccs"
               inkscape:connector-curvature="0"
               id="path6732"
               d="m 463.39648,613.88867 c -18.98118,-0.014 -38.8851,3.1905 -58.61718,8.35156 -80.72993,21.11551 -158.56912,74.95702 -158.71875,75.06055 87.66694,-21.55544 169.60307,-38.76796 258.01757,-15.89258 17.87096,-2.84699 37.86111,-19.58535 37.92188,-30.54687 -0.0207,-4.63343 -2.40145,-9.24577 -7.08008,-13.7168 -2.70177,-2.2282 -5.36905,-4.26512 -7.99414,-6.08789 -7.53766,-4.81028 -17.78007,-9.30322 -30.39258,-13.33203 -10.54996,-2.63501 -21.67324,-3.82747 -33.13672,-3.83594 z"
               style="opacity:1;fill:#ff8080;fill-opacity:1;stroke:none;stroke-width:2;stroke-linecap:square;stroke-miterlimit:4;stroke-dasharray:none;stroke-opacity:1" />
            <path
               style="opacity:1;fill:#ff8080;fill-opacity:1;stroke:none;stroke-width:2;stroke-linecap:square;stroke-miterlimit:4;stroke-dasharray:none;stroke-opacity:1"
               d="m 504.77023,583.87999 c -9.47799,-0.62521 -19.51748,0.39076 -29.53246,2.4289 -40.97433,8.33869 -81.5298,33.77053 -81.60775,33.81943 47.20745,-10.00309 85.90655,-14.61335 129.34079,0.14857 9.01315,-0.89673 19.51949,-8.94013 19.89304,-14.63194 0.13468,-2.40741 -0.90966,-4.8808 -3.10599,-7.35555 -1.27938,-1.24542 -2.54749,-2.39031 -3.8013,-3.42265 -3.6134,-2.74411 -8.58732,-5.41149 -14.75933,-7.91497 -5.18571,-1.71233 -10.70289,-2.69402 -16.427,-3.07179 z"
               id="path6734"
               inkscape:connector-curvature="0"
               sodipodi:nodetypes="ssccccccs" />
          </g>
          <g
             style="fill:#ff8080"
             inkscape:transform-center-y="147.55344"
             inkscape:transform-center-x="161.66433"
             transform="matrix(0.13102569,0.24444142,-0.24444142,0.13102569,785.30016,75.336005)"
             id="g6736">
            <path
               style="opacity:1;fill:#ff8080;fill-opacity:1;stroke:none;stroke-width:2;stroke-linecap:square;stroke-miterlimit:4;stroke-dasharray:none;stroke-opacity:1"
               d="m 463.39648,613.88867 c -18.98118,-0.014 -38.8851,3.1905 -58.61718,8.35156 -80.72993,21.11551 -158.56912,74.95702 -158.71875,75.06055 87.66694,-21.55544 169.60307,-38.76796 258.01757,-15.89258 17.87096,-2.84699 37.86111,-19.58535 37.92188,-30.54687 -0.0207,-4.63343 -2.40145,-9.24577 -7.08008,-13.7168 -2.70177,-2.2282 -5.36905,-4.26512 -7.99414,-6.08789 -7.53766,-4.81028 -17.78007,-9.30322 -30.39258,-13.33203 -10.54996,-2.63501 -21.67324,-3.82747 -33.13672,-3.83594 z"
               id="path6738"
               inkscape:connector-curvature="0"
               sodipodi:nodetypes="ssccccccs" />
            <path
               sodipodi:nodetypes="ssccccccs"
               inkscape:connector-curvature="0"
               id="path6740"
               d="m 504.77023,583.87999 c -9.47799,-0.62521 -19.51748,0.39076 -29.53246,2.4289 -40.97433,8.33869 -81.5298,33.77053 -81.60775,33.81943 47.20745,-10.00309 85.90655,-14.61335 129.34079,0.14857 9.01315,-0.89673 19.51949,-8.94013 19.89304,-14.63194 0.13468,-2.40741 -0.90966,-4.8808 -3.10599,-7.35555 -1.27938,-1.24542 -2.54749,-2.39031 -3.8013,-3.42265 -3.6134,-2.74411 -8.58732,-5.41149 -14.75933,-7.91497 -5.18571,-1.71233 -10.70289,-2.69402 -16.427,-3.07179 z"
               style="opacity:1;fill:#ff8080;fill-opacity:1;stroke:none;stroke-width:2;stroke-linecap:square;stroke-miterlimit:4;stroke-dasharray:none;stroke-opacity:1" />
          </g>
          <g
             style="fill:#ff8080"
             id="g6742"
             transform="matrix(0.27296677,-0.04907628,0.04907628,0.27296677,465.93883,87.281488)"
             inkscape:transform-center-x="-98.227605"
             inkscape:transform-center-y="207.10151">
            <path
               sodipodi:nodetypes="ssccccccs"
               inkscape:connector-curvature="0"
               id="path6744"
               d="m 463.39648,613.88867 c -18.98118,-0.014 -38.8851,3.1905 -58.61718,8.35156 -80.72993,21.11551 -158.56912,74.95702 -158.71875,75.06055 87.66694,-21.55544 169.60307,-38.76796 258.01757,-15.89258 17.87096,-2.84699 37.86111,-19.58535 37.92188,-30.54687 -0.0207,-4.63343 -2.40145,-9.24577 -7.08008,-13.7168 -2.70177,-2.2282 -5.36905,-4.26512 -7.99414,-6.08789 -7.53766,-4.81028 -17.78007,-9.30322 -30.39258,-13.33203 -10.54996,-2.63501 -21.67324,-3.82747 -33.13672,-3.83594 z"
               style="opacity:1;fill:#ff8080;fill-opacity:1;stroke:none;stroke-width:2;stroke-linecap:square;stroke-miterlimit:4;stroke-dasharray:none;stroke-opacity:1" />
            <path
               style="opacity:1;fill:#ff8080;fill-opacity:1;stroke:none;stroke-width:2;stroke-linecap:square;stroke-miterlimit:4;stroke-dasharray:none;stroke-opacity:1"
               d="m 504.77023,583.87999 c -9.47799,-0.62521 -19.51748,0.39076 -29.53246,2.4289 -40.97433,8.33869 -81.5298,33.77053 -81.60775,33.81943 47.20745,-10.00309 85.90655,-14.61335 129.34079,0.14857 9.01315,-0.89673 19.51949,-8.94013 19.89304,-14.63194 0.13468,-2.40741 -0.90966,-4.8808 -3.10599,-7.35555 -1.27938,-1.24542 -2.54749,-2.39031 -3.8013,-3.42265 -3.6134,-2.74411 -8.58732,-5.41149 -14.75933,-7.91497 -5.18571,-1.71233 -10.70289,-2.69402 -16.427,-3.07179 z"
               id="path6746"
               inkscape:connector-curvature="0"
               sodipodi:nodetypes="ssccccccs" />
          </g>
          <g
             style="fill:#ff8080"
             inkscape:transform-center-y="-35.163843"
             inkscape:transform-center-x="-225.91222"
             transform="matrix(0.03767705,-0.27477223,0.27477223,0.03767705,378.61159,394.70351)"
             id="g6748">
            <path
               style="opacity:1;fill:#ff8080;fill-opacity:1;stroke:none;stroke-width:2;stroke-linecap:square;stroke-miterlimit:4;stroke-dasharray:none;stroke-opacity:1"
               d="m 463.39648,613.88867 c -18.98118,-0.014 -38.8851,3.1905 -58.61718,8.35156 -80.72993,21.11551 -158.56912,74.95702 -158.71875,75.06055 87.66694,-21.55544 169.60307,-38.76796 258.01757,-15.89258 17.87096,-2.84699 37.86111,-19.58535 37.92188,-30.54687 -0.0207,-4.63343 -2.40145,-9.24577 -7.08008,-13.7168 -2.70177,-2.2282 -5.36905,-4.26512 -7.99414,-6.08789 -7.53766,-4.81028 -17.78007,-9.30322 -30.39258,-13.33203 -10.54996,-2.63501 -21.67324,-3.82747 -33.13672,-3.83594 z"
               id="path6750"
               inkscape:connector-curvature="0"
               sodipodi:nodetypes="ssccccccs" />
            <path
               sodipodi:nodetypes="ssccccccs"
               inkscape:connector-curvature="0"
               id="path6752"
               d="m 504.77023,583.87999 c -9.47799,-0.62521 -19.51748,0.39076 -29.53246,2.4289 -40.97433,8.33869 -81.5298,33.77053 -81.60775,33.81943 47.20745,-10.00309 85.90655,-14.61335 129.34079,0.14857 9.01315,-0.89673 19.51949,-8.94013 19.89304,-14.63194 0.13468,-2.40741 -0.90966,-4.8808 -3.10599,-7.35555 -1.27938,-1.24542 -2.54749,-2.39031 -3.8013,-3.42265 -3.6134,-2.74411 -8.58732,-5.41149 -14.75933,-7.91497 -5.18571,-1.71233 -10.70289,-2.69402 -16.427,-3.07179 z"
               style="opacity:1;fill:#ff8080;fill-opacity:1;stroke:none;stroke-width:2;stroke-linecap:square;stroke-miterlimit:4;stroke-dasharray:none;stroke-opacity:1" />
          </g>
        </g>
      </g>
    </g>
  </g>
</svg>
