<?xml version="1.0" encoding="UTF-8" standalone="no"?>
<!-- Created with Inkscape (http://www.inkscape.org/) -->
<svg xmlns:rdf="http://www.w3.org/1999/02/22-rdf-syntax-ns#" xmlns="http://www.w3.org/2000/svg" xmlns:cc="http://web.resource.org/cc/" xmlns:dc="http://purl.org/dc/elements/1.1/" xmlns:svg="http://www.w3.org/2000/svg" xmlns:inkscape="http://www.inkscape.org/namespaces/inkscape" xmlns:sodipodi="http://sodipodi.sourceforge.net/DTD/sodipodi-0.dtd" xmlns:ns1="http://sozi.baierouge.fr" xmlns:xlink="http://www.w3.org/1999/xlink" id="svg2" viewBox="0 0 720 720" version="1.1" inkscape:version="0.91 r13725">
  <g id="g3481" transform="translate(-39.353 -5.5411)">
    <path id="path3068" style="fill:#0000ff" d="m399.35 66.375-315 228.86 120.32 370.3l389.36-7e-13 120.32-370.3-315-228.86z"/>
    <g id="g3175" transform="matrix(.95615 0 0 .95615 -626.05 87.687)">
      <path id="path2885" style="fill:#ff0000" d="m1073 322.27-166.87 229.68h33.374l133.5-229.68z"/>
      <path id="path2889" style="fill:#ffffff" d="m1073 322.27-133.5 229.68h33.374l100.12-229.68z"/>
      <path id="path2891" style="fill:#ff0000" d="m1073 322.27-100.12 229.68h33.374l66.748-229.68z"/>
      <path id="path2893" style="fill:#ffffff" d="m1073 322.27-66.748 229.68h33.374l33.374-229.68z"/>
      <path id="path2897" style="fill:#ff0000" d="m1073 322.27-33.374 229.68h33.374l-1e-12 -229.68z"/>
      <path id="path2899" style="fill:#ffffff" d="m1073 322.27 166.87 229.68h-33.374l-133.5-229.68z"/>
      <path id="path2901" style="fill:#ff0000" d="m1073 322.27 133.5 229.68h-33.374l-100.12-229.68z"/>
      <path id="path2903" style="fill:#ffffff" d="m1073 322.27 100.12 229.68h-33.374l-66.748-229.68z"/>
      <path id="path2905" style="fill:#ff0000" d="m1073 322.27 66.748 229.68h-33.374l-33.374-229.68z"/>
      <path id="path2907" style="fill:#ffffff" d="m1073 322.27 33.374 229.68h-33.374v-229.68z"/>
      <path id="path2923" style="fill:#ff0000" d="m1073 322.27 166.87 229.68 10.313-31.74-177.18-197.94z"/>
      <path id="path2925" style="fill:#ffffff" d="m1073 322.27 177.18 197.94 10.313-31.74-187.5-166.19z"/>
      <path id="path2927" style="fill:#ff0000" d="m1073 322.27 187.5 166.19 10.313-31.74-197.81-134.45z"/>
      <path id="path2929" style="fill:#ffffff" d="m1073 322.27 197.81 134.45 10.313-31.74-208.12-102.71z"/>
      <path id="path2931" style="fill:#ff0000" d="m1073 322.27 208.12 102.71 10.313-31.74-218.43-70.974z"/>
      <path id="path2933" style="fill:#ffffff" d="m1073 322.27 270-87.728-10.313 31.74-259.69 55.988z"/>
      <path id="path2935" style="fill:#ff0000" d="m1073 322.27 259.69-55.988-10.313 31.74-249.37 24.248z"/>
      <path id="path2937" style="fill:#ffffff" d="m1073 322.27 249.37-24.248-10.313 31.74-239.06-7.4929z"/>
      <path id="path2939" style="fill:#ff0000" d="m1073 322.27 239.06 7.4929-10.313 31.74-228.75-39.233z"/>
      <path id="path2941" style="fill:#ffffff" d="m1073 322.27 228.75 39.233-10.313 31.74-218.43-70.974z"/>
      <path id="path2945" style="fill:#ff0000" d="m1073 322.27 270-87.728-27-19.617-243 107.34z"/>
      <path id="path2947" style="fill:#ffffff" d="m1073 322.27 243-107.34-27-19.617-216 126.96z"/>
      <path id="path2949" style="fill:#ff0000" d="m1073 322.27 216-126.96-27-19.617-189 146.58z"/>
      <path id="path2951" style="fill:#ffffff" d="m1073 322.27 189-146.58-27-19.617-162 166.19z"/>
      <path id="path2953" style="fill:#ff0000" d="m1073 322.27 162-166.2-27-19.62-135 185.82z"/>
      <path id="path2955" style="fill:#ffffff" d="m1073 322.27v-283.89l27 19.617-27 264.28z"/>
      <path id="path2957" style="fill:#ff0000" d="m1073 322.27 27-264.28 27 19.617-54 244.66z"/>
      <path id="path2959" style="fill:#ffffff" d="m1073 322.27 54-244.66 27 19.617-81 225.04z"/>
      <path id="path2961" style="fill:#ff0000" d="m1073 322.27 81-225.04 27 19.617-108 205.43z"/>
      <path id="path2963" style="fill:#ffffff" d="m1073 322.27 108-205.43 27 19.617-135 185.81z"/>
      <path id="path2967" style="fill:#ff0000" d="m1073 322.27v-283.89l-27 19.617 27 264.28z"/>
      <path id="path2969" style="fill:#ffffff" d="m1073 322.27-27-264.28-27 19.617 54 244.66z"/>
      <path id="path2971" style="fill:#ff0000" d="m1073 322.27-54-244.66-27.02 19.611 81.02 225.05z"/>
      <path id="path2973" style="fill:#ffffff" d="m1073 322.27-81.02-225.05-27 19.62 108.02 205.43z"/>
      <path id="path2975" style="fill:#ff0000" d="m1073 322.27-108.02-205.43-27 19.61 135.02 185.82z"/>
      <path id="path2977" style="fill:#ffffff" d="m1073 322.27-270.02-87.73 27-19.62 243.02 107.35z"/>
      <path id="path2979" style="fill:#ff0000" d="m1073 322.27-243.02-107.35 27-19.62 216.02 126.97z"/>
      <path id="path2981" style="fill:#ffffff" d="m1073 322.27-216.02-126.97 27-19.61 189.02 146.58z"/>
      <path id="path2983" style="fill:#ff0000" d="m1073 322.27-189.02-146.58 27-19.62 162.02 166.2z"/>
      <path id="path2985" style="fill:#ffffff" d="m1073 322.27-162.02-166.2 27-19.62 135.02 185.82z"/>
      <path id="path2989" style="fill:#ff0000" d="m1073 322.27-270-87.728 10.313 31.74 259.69 55.988z"/>
      <path id="path2991" style="fill:#ffffff" d="m1073 322.27-259.69-55.988 10.313 31.74 249.37 24.248z"/>
      <path id="path2993" style="fill:#ff0000" d="m1073 322.27-249.37-24.248 10.313 31.74 239.06-7.4929z"/>
      <path id="path2996" style="fill:#ffffff" d="m1073 322.27-239.06 7.4929 10.313 31.74 228.75-39.233z"/>
      <path id="path2999" style="fill:#ff0000" d="m1073 322.27-228.75 39.233 10.313 31.74 218.43-70.974z"/>
      <path id="path3001" style="fill:#ffffff" d="m1073 322.27-166.88 229.67-10.32-31.74 177.2-197.93z"/>
      <path id="path3003" style="fill:#ff0000" d="m1073 322.27-177.2 197.93-10.31-31.74 187.51-166.19z"/>
      <path id="path3005" style="fill:#ffffff" d="m1073 322.27-187.51 166.19-10.31-31.74 197.82-134.45z"/>
      <path id="path3007" style="fill:#ff0000" d="m1073 322.27-197.82 134.45-10.32-31.74 208.14-102.71z"/>
      <path id="path3009" style="fill:#ffffff" d="m1073 322.27-208.14 102.71-10.31-31.74 218.45-70.97z"/>
    </g>
    <g id="g3429" transform="matrix(1.0565 0 0 1.0565 -36.118 -69.494)">
      <path id="path3242" style="fill:#ffffff" d="m421.44 169.6-9.2705-28.532-9.2705 28.532 24.271-17.634h-30l24.271 17.634z"/>
      <path id="path3246" style="fill:#ffffff" d="m448.44 189.22-9.2705-28.532-9.2705 28.532 24.271-17.634h-30l24.271 17.634z"/>
      <path id="path3248" style="fill:#ffffff" d="m475.44 208.84-9.2705-28.532-9.2705 28.532 24.271-17.634h-30l24.271 17.634z"/>
      <path id="path3250" style="fill:#ffffff" d="m502.44 228.45-9.2705-28.532-9.2705 28.532 24.271-17.634h-30l24.271 17.634z"/>
      <path id="path3252" style="fill:#ffffff" d="m529.44 248.07-9.2705-28.532-9.2705 28.532 24.271-17.634h-30l24.271 17.634z"/>
      <path id="path3254" style="fill:#ffffff" d="m556.44 267.69-9.2705-28.532-9.2705 28.532 24.271-17.634h-30l24.271 17.634z"/>
      <path id="path3256" style="fill:#ffffff" d="m583.44 287.3-9.2705-28.532-9.2705 28.532 24.271-17.634h-30l24.271 17.634z"/>
      <path id="path3258" style="fill:#ffffff" d="m610.44 306.92-9.2705-28.532-9.2705 28.532 24.271-17.634h-30l24.271 17.634z"/>
      <path id="path3260" style="fill:#ffffff" d="m637.44 326.54-9.2705-28.532-9.2705 28.532 24.271-17.634h-30l24.271 17.634z"/>
      <path id="path3262" style="fill:#ffffff" d="m664.44 346.15-9.2705-28.532-9.2705 28.532 24.271-17.634h-30l24.271 17.634z"/>
      <path id="path3293" style="fill:#ffffff" d="m157.16 348.14-30 1e-13 24.271 17.634-9.2705-28.532-9.2705 28.532 24.271-17.634z"/>
      <path id="path3295" style="fill:#ffffff" d="m184.16 328.52-30 2e-13 24.271 17.634-9.2705-28.532-9.2705 28.532 24.271-17.634z"/>
      <path id="path3297" style="fill:#ffffff" d="m211.16 308.9-30 6e-14 24.271 17.634-9.2705-28.532-9.2705 28.532 24.271-17.634z"/>
      <path id="path3299" style="fill:#ffffff" d="m238.16 289.29-30 2e-13 24.271 17.634-9.2705-28.532-9.2705 28.532 24.271-17.634z"/>
      <path id="path3301" style="fill:#ffffff" d="m265.16 269.67h-30l24.271 17.634-9.2705-28.532-9.2705 28.532 24.271-17.634z"/>
      <path id="path3303" style="fill:#ffffff" d="m292.16 250.05-30-1e-13 24.271 17.634-9.2705-28.532-9.2705 28.532 24.271-17.634z"/>
      <path id="path3305" style="fill:#ffffff" d="m319.16 230.44-30-9e-14 24.271 17.634-9.2705-28.532-9.2705 28.532 24.271-17.634z"/>
      <path id="path3307" style="fill:#ffffff" d="m346.16 210.82-30 4e-13 24.271 17.634-9.2705-28.532-9.2705 28.532 24.271-17.634z"/>
      <path id="path3309" style="fill:#ffffff" d="m373.16 191.2-30 6e-13 24.271 17.634-9.2705-28.532-9.2705 28.532 24.271-17.634z"/>
      <path id="path3311" style="fill:#ffffff" d="m400.16 171.59-30 5e-13 24.271 17.634-9.2705-28.532-9.2705 28.532 24.271-17.634z"/>
      <path id="path3315" style="fill:#ffffff" d="m245.3 654.64-9.2705 28.532 24.271-17.634h-30l24.271 17.634-9.2705-28.532z"/>
      <path id="path3317" style="fill:#ffffff" d="m234.98 622.9-9.2705 28.532 24.271-17.634h-30l24.271 17.634-9.2705-28.532z"/>
      <path id="path3319" style="fill:#ffffff" d="m224.67 591.16-9.2705 28.532 24.271-17.634-30-1e-13 24.271 17.634-9.2705-28.532z"/>
      <path id="path3321" style="fill:#ffffff" d="m214.36 559.42-9.2705 28.532 24.271-17.634-30-6e-13 24.271 17.634-9.2705-28.532z"/>
      <path id="path3323" style="fill:#ffffff" d="m204.04 527.68-9.2705 28.532 24.271-17.634h-30l24.271 17.634-9.2705-28.532z"/>
      <path id="path3325" style="fill:#ffffff" d="m193.73 495.94-9.2705 28.532 24.271-17.634-30-3e-13 24.271 17.634-9.2705-28.532z"/>
      <path id="path3327" style="fill:#ffffff" d="m183.42 464.2-9.2705 28.532 24.271-17.634-30-2e-13 24.271 17.634-9.2705-28.532z"/>
      <path id="path3329" style="fill:#ffffff" d="m173.1 432.46-9.2705 28.532 24.271-17.634-30 1e-13 24.271 17.634-9.2705-28.532z"/>
      <path id="path3331" style="fill:#ffffff" d="m162.79 400.72-9.2705 28.532 24.271-17.634-30 2e-13 24.271 17.634-9.2705-28.532z"/>
      <path id="path3333" style="fill:#ffffff" d="m152.48 368.98-9.2705 28.532 24.271-17.634-30 1e-13 24.271 17.634-9.2705-28.532z"/>
      <path id="path3337" style="fill:#ffffff" d="m564.03 665.54 24.271 17.634-9.2705-28.532-9.2705 28.532 24.271-17.634-30 1e-13z"/>
      <path id="path3339" style="fill:#ffffff" d="m530.66 665.54 24.271 17.634-9.2705-28.532-9.2705 28.532 24.271-17.634h-30z"/>
      <path id="path3341" style="fill:#ffffff" d="m497.29 665.54 24.271 17.634-9.2705-28.532-9.2705 28.532 24.271-17.634h-30z"/>
      <path id="path3343" style="fill:#ffffff" d="m463.91 665.54 24.271 17.634-9.2705-28.532-9.2705 28.532 24.271-17.634h-30z"/>
      <path id="path3345" style="fill:#ffffff" d="m430.54 665.54 24.271 17.634-9.2705-28.532-9.2705 28.532 24.271-17.634h-30z"/>
      <path id="path3347" style="fill:#ffffff" d="m397.16 665.54 24.271 17.634-9.2705-28.532-9.2705 28.532 24.271-17.634h-30z"/>
      <path id="path3349" style="fill:#ffffff" d="m363.79 665.54 24.271 17.634-9.2705-28.532-9.2705 28.532 24.271-17.634h-30z"/>
      <path id="path3351" style="fill:#ffffff" d="m330.42 665.54 24.271 17.634-9.2705-28.532-9.2705 28.532 24.271-17.634-30 8e-13z"/>
      <path id="path3353" style="fill:#ffffff" d="m297.04 665.54 24.271 17.634-9.2705-28.532-9.2705 28.532 24.271-17.634-30 3e-13z"/>
      <path id="path3355" style="fill:#ffffff" d="m263.67 665.54 24.271 17.634-9.2705-28.532-9.2705 28.532 24.271-17.634-30 3e-13z"/>
      <path id="path3359" style="fill:#ffffff" d="m672.89 365.77 24.271-17.634h-30l24.271 17.634-9.2705-28.532-9.2705 28.532z"/>
      <path id="path3361" style="fill:#ffffff" d="m662.58 397.51 24.271-17.634h-30l24.271 17.634-9.2705-28.532-9.2705 28.532z"/>
      <path id="path3363" style="fill:#ffffff" d="m652.27 429.25 24.271-17.634h-30l24.271 17.634-9.2705-28.532-9.2705 28.532z"/>
      <path id="path3365" style="fill:#ffffff" d="m641.95 460.99 24.271-17.634h-30l24.271 17.634-9.2705-28.532-9.2705 28.532z"/>
      <path id="path3367" style="fill:#ffffff" d="m631.64 492.73 24.271-17.634h-30l24.271 17.634-9.2705-28.532-9.2705 28.532z"/>
      <path id="path3369" style="fill:#ffffff" d="m621.33 524.47 24.271-17.634-30-4e-13 24.271 17.634-9.2705-28.532-9.2705 28.532z"/>
      <path id="path3371" style="fill:#ffffff" d="m611.02 556.21 24.271-17.634-30-7e-13 24.271 17.634-9.2705-28.532-9.2705 28.532z"/>
      <path id="path3373" style="fill:#ffffff" d="m600.7 587.95 24.271-17.634-30 1e-13 24.271 17.634-9.2705-28.532-9.2705 28.532z"/>
      <path id="path3375" style="fill:#ffffff" d="m590.39 619.69 24.271-17.634-30 5e-13 24.271 17.634-9.2705-28.532-9.2705 28.532z"/>
      <path id="path3377" style="fill:#ffffff" d="m580.08 651.43 24.271-17.634-30 3e-13 24.271 17.634-9.2705-28.532-9.2705 28.532z"/>
    </g>
  </g>
  <metadata>
    <rdf:RDF>
      <cc:Work>
        <dc:format>image/svg+xml</dc:format>
        <dc:type rdf:resource="http://purl.org/dc/dcmitype/StillImage"/>
        <cc:license rdf:resource="http://creativecommons.org/licenses/publicdomain/"/>
        <dc:publisher>
          <cc:Agent rdf:about="http://openclipart.org/">
            <dc:title>Openclipart</dc:title>
          </cc:Agent>
        </dc:publisher>
        <dc:title>amerigon</dc:title>
        <dc:date>2011-07-05T03:33:50</dc:date>
        <dc:description>I thought I could improve the american flag.</dc:description>
        <dc:source>https://openclipart.org/detail/148315/amerigon-by-10binary</dc:source>
        <dc:creator>
          <cc:Agent>
            <dc:title>10binary</dc:title>
          </cc:Agent>
        </dc:creator>
        <dc:subject>
          <rdf:Bag>
            <rdf:li>american</rdf:li>
            <rdf:li>amerigon</rdf:li>
            <rdf:li>blue</rdf:li>
            <rdf:li>flag</rdf:li>
            <rdf:li>pentagon</rdf:li>
            <rdf:li>red</rdf:li>
            <rdf:li>white</rdf:li>
          </rdf:Bag>
        </dc:subject>
      </cc:Work>
      <cc:License rdf:about="http://creativecommons.org/licenses/publicdomain/">
        <cc:permits rdf:resource="http://creativecommons.org/ns#Reproduction"/>
        <cc:permits rdf:resource="http://creativecommons.org/ns#Distribution"/>
        <cc:permits rdf:resource="http://creativecommons.org/ns#DerivativeWorks"/>
      </cc:License>
    </rdf:RDF>
  </metadata>
</svg>
