<?xml version="1.0" encoding="UTF-8" standalone="no"?>
<svg
   xmlns:dc="http://purl.org/dc/elements/1.1/"
   xmlns:cc="http://creativecommons.org/ns#"
   xmlns:rdf="http://www.w3.org/1999/02/22-rdf-syntax-ns#"
   xmlns:svg="http://www.w3.org/2000/svg"
   xmlns="http://www.w3.org/2000/svg"
   xmlns:sodipodi="http://sodipodi.sourceforge.net/DTD/sodipodi-0.dtd"
   xmlns:inkscape="http://www.inkscape.org/namespaces/inkscape"
   version="1.1"
   id="Layer_1"
   x="0px"
   y="0px"
   viewBox="0 0 1600 1599.9999"
   enable-background="new 0 0 1599.9999 1600"
   xml:space="preserve"
   inkscape:version="0.91 r13725"
   sodipodi:docname="rainbowsquare.svg"
   width="1600"
   height="1599.9999"><metadata
     id="metadata23"><rdf:RDF><cc:Work
         rdf:about=""><dc:format>image/svg+xml</dc:format><dc:type
           rdf:resource="http://purl.org/dc/dcmitype/StillImage" /><dc:title></dc:title></cc:Work></rdf:RDF></metadata><defs
     id="defs21" /><sodipodi:namedview
     pagecolor="#ffffff"
     bordercolor="#666666"
     borderopacity="1"
     objecttolerance="10"
     gridtolerance="10"
     guidetolerance="10"
     inkscape:pageopacity="0"
     inkscape:pageshadow="2"
     inkscape:window-width="1366"
     inkscape:window-height="704"
     id="namedview19"
     showgrid="false"
     fit-margin-top="0"
     fit-margin-left="0"
     fit-margin-right="0"
     fit-margin-bottom="0"
     showborder="true"
     inkscape:zoom="0.30193697"
     inkscape:cx="799.99994"
     inkscape:cy="755.35444"
     inkscape:window-x="0"
     inkscape:window-y="27"
     inkscape:window-maximized="1"
     inkscape:current-layer="Layer_1" /><g
     id="g3"><path
       d="m 0,0 0,1599.9999 1600,0 L 1600,0 0,0 Z m 19.5899,1580.41 0,-1560.8201 1560.8202,0 0,1560.8201 -1560.8202,0 z"
       id="path5"
       inkscape:connector-curvature="0"
       style="fill:#d10e1c" /><path
       d="m 18.6104,18.6104 0,1562.7791 1562.7792,0 0,-1562.7791 -1562.7792,0 z m 19.5899,1543.1893 0,-1523.5993 1523.5995,0 0,1523.5994 -1523.5995,0 z"
       id="path7"
       inkscape:connector-curvature="0"
       style="fill:#ff5a00" /><path
       d="m 38.2003,38.2004 0,1523.5994 1523.5995,0 0,-1523.5994 -1523.5995,0 z m 19.59,1504.0092 0,-1484.4193 1484.4194,0 0,1484.4193 -1484.4194,0 z"
       id="path9"
       inkscape:connector-curvature="0"
       style="fill:#fde000" /><path
       d="m 57.7903,57.7903 0,1484.4193 1484.4194,0 0,-1484.4193 -1484.4194,0 z m 19.5899,1464.8295 0,-1445.2396 1445.2396,0 0,1445.2395 -1445.2396,0 z"
       id="path11"
       inkscape:connector-curvature="0"
       style="fill:#019a4a" /><path
       d="m 77.3802,77.3802 0,1445.2395 1445.2396,0 0,-1445.2395 -1445.2396,0 z m 19.5899,1425.6497 0,-1406.0598 1406.0599,0 0,1406.0598 -1406.0599,0 z"
       id="path13"
       inkscape:connector-curvature="0"
       style="fill:#1d3ddd" /><path
       d="m 96.9701,96.9701 0,1406.0598 1406.0599,0 0,-1406.0598 -1406.0599,0 z m 19.59,1386.4697 0,-1366.8797 1366.8799,0 0,1366.8798 -1366.8799,0 z"
       id="path15"
       inkscape:connector-curvature="0"
       style="fill:#4914a0" /><path
       d="m 116.5601,116.5601 0,1366.8798 1366.8799,0 0,-1366.8798 -1366.8799,0 z m 19.59,1347.2899 0,-1327.7 1327.7001,0 0,1327.7 -1327.7001,0 z"
       id="path17"
       inkscape:connector-curvature="0"
       style="fill:#9913e6" /></g></svg>