<svg xmlns:dc="http://purl.org/dc/elements/1.1/" xmlns:cc="http://creativecommons.org/ns#" xmlns:rdf="http://www.w3.org/1999/02/22-rdf-syntax-ns#" xmlns="http://www.w3.org/2000/svg" id="svg831" version="1.1" viewBox="0 0 256 256" height="256" width="256"><metadata id="metadata828"><rdf:RDF><cc:Work><dc:format>image/svg+xml</dc:format><dc:type rdf:resource="http://purl.org/dc/dcmitype/StillImage"/><dc:title/><dc:date>2022</dc:date><dc:creator><cc:Agent><dc:title>Timothée Giet</dc:title></cc:Agent></dc:creator><cc:license rdf:resource="http://creativecommons.org/licenses/by-sa/4.0/"/></cc:Work><cc:License rdf:about="http://creativecommons.org/licenses/by-sa/4.0/"><cc:permits rdf:resource="http://creativecommons.org/ns#Reproduction"/><cc:permits rdf:resource="http://creativecommons.org/ns#Distribution"/><cc:requires rdf:resource="http://creativecommons.org/ns#Notice"/><cc:requires rdf:resource="http://creativecommons.org/ns#Attribution"/><cc:permits rdf:resource="http://creativecommons.org/ns#DerivativeWorks"/><cc:requires rdf:resource="http://creativecommons.org/ns#ShareAlike"/></cc:License></rdf:RDF></metadata><g transform="translate(0 -229.267)" id="layer1"><path id="path1383" d="M128 293.267a120 120 0 0 0-120 120h48.018A71.982 71.982 0 0 1 128 341.284a71.982 71.982 0 0 1 71.982 71.983H248a120 120 0 0 0-120-120z" style="opacity:1;fill:#f11818;fill-opacity:1;stroke:none;stroke-width:2;stroke-linecap:round;stroke-linejoin:round;stroke-miterlimit:4;stroke-dasharray:none;stroke-dashoffset:0;stroke-opacity:1"/><path id="path1385" d="M128 301.185A112.081 112.081 0 0 0 15.918 413.267h40.1A71.982 71.982 0 0 1 128 341.284a71.982 71.982 0 0 1 71.982 71.983h40.1A112.081 112.081 0 0 0 128 301.185z" style="opacity:1;fill:#f19c18;fill-opacity:1;stroke:none;stroke-width:1.99999988;stroke-linecap:round;stroke-linejoin:round;stroke-miterlimit:4;stroke-dasharray:none;stroke-dashoffset:0;stroke-opacity:1"/><path id="path1387" d="M128 309.608A103.657 103.657 0 0 0 24.342 413.267h31.676A71.982 71.982 0 0 1 128 341.284a71.982 71.982 0 0 1 71.982 71.983h31.676A103.657 103.657 0 0 0 128 309.608z" style="opacity:1;fill:#e7f118;fill-opacity:1;stroke:none;stroke-width:2;stroke-linecap:round;stroke-linejoin:round;stroke-miterlimit:4;stroke-dasharray:none;stroke-dashoffset:0;stroke-opacity:1"/><path id="path1389" d="M128 317.023a96.244 96.244 0 0 0-96.244 96.244h24.262A71.982 71.982 0 0 1 128 341.284a71.982 71.982 0 0 1 71.982 71.983h24.262A96.244 96.244 0 0 0 128 317.023z" style="opacity:1;fill:#19f118;fill-opacity:1;stroke:none;stroke-width:2;stroke-linecap:round;stroke-linejoin:round;stroke-miterlimit:4;stroke-dasharray:none;stroke-dashoffset:0;stroke-opacity:1"/><path id="path1391" d="M128 324.942a88.325 88.325 0 0 0-88.324 88.325h16.342A71.982 71.982 0 0 1 128 341.284a71.982 71.982 0 0 1 71.982 71.983h16.342A88.325 88.325 0 0 0 128 324.942z" style="opacity:1;fill:#18bbf1;fill-opacity:1;stroke:none;stroke-width:2;stroke-linecap:round;stroke-linejoin:round;stroke-miterlimit:4;stroke-dasharray:none;stroke-dashoffset:0;stroke-opacity:1"/><path id="path1393" d="M128 333.366a79.901 79.901 0 0 0-79.9 79.9h7.918A71.982 71.982 0 0 1 128 341.285a71.982 71.982 0 0 1 71.982 71.983h7.918a79.901 79.901 0 0 0-79.9-79.9z" style="opacity:1;fill:#7018f1;fill-opacity:1;stroke:none;stroke-width:2;stroke-linecap:round;stroke-linejoin:round;stroke-miterlimit:4;stroke-dasharray:none;stroke-dashoffset:0;stroke-opacity:1"/></g></svg>