<?xml version="1.0" encoding="UTF-8" standalone="no"?>
<!-- Created with Inkscape (http://www.inkscape.org/) -->

<svg
     xmlns:dc="http://purl.org/dc/elements/1.1/"
     xmlns:cc="http://creativecommons.org/ns#"
     xmlns:rdf="http://www.w3.org/1999/02/22-rdf-syntax-ns#"
     xmlns:svg="http://www.w3.org/2000/svg"
     xmlns="http://www.w3.org/2000/svg"
     xmlns:sodipodi="http://sodipodi.sourceforge.net/DTD/sodipodi-0.dtd"
     xmlns:inkscape="http://www.inkscape.org/namespaces/inkscape"
     width="765"
     height="990"
     id="svg3850"
     version="1.1"
     inkscape:version="0.48.5 r10040"
     sodipodi:docname="New document 4">
    <defs
         id="defs3852" />
    <sodipodi:namedview
         id="base"
         pagecolor="#ffffff"
         bordercolor="#666666"
         borderopacity="1.0"
         inkscape:pageopacity="0.0"
         inkscape:pageshadow="2"
         inkscape:zoom="0.87979798"
         inkscape:cx="317.7124"
         inkscape:cy="387.24114"
         inkscape:document-units="px"
         inkscape:current-layer="layer1"
         showgrid="false"
         showguides="true"
         inkscape:guide-bbox="true"
         inkscape:window-width="1600"
         inkscape:window-height="1116"
         inkscape:window-x="-4"
         inkscape:window-y="-3"
         inkscape:window-maximized="1">
        <sodipodi:guide
             orientation="0,1"
             position="-43.191734,495.56831"
             id="guide4387" />
        <sodipodi:guide
             orientation="1,0"
             position="383.04248,734.25947"
             id="guide4389" />
        <sodipodi:guide
             orientation="-0.70710678,0.70710678"
             position="429.64409,543.30654"
             id="guide4391" />
        <sodipodi:guide
             orientation="0.70710678,0.70710678"
             position="416.00459,461.46958"
             id="guide4393" />
    </sodipodi:namedview>
    <metadata
         id="metadata3855">
        <rdf:RDF>
            <cc:Work
                 rdf:about="">
                <dc:format>image/svg+xml</dc:format>
                <dc:type
                     rdf:resource="http://purl.org/dc/dcmitype/StillImage" />
                <dc:title></dc:title>
            </cc:Work>
        </rdf:RDF>
    </metadata>
    <g
         inkscape:label="Layer 1"
         inkscape:groupmode="layer"
         id="layer1"
         transform="translate(0,-62.362183)">
        <g
             id="g4457"
             transform="translate(0,-1.85e-5)">
            <g
                 transform="translate(-1.5e-6,2.9999999e-6)"
                 id="g4417">
                <path
                     style="color:black;fill:#3101ff;fill-opacity:1;stroke:black;stroke-width:2;stroke-miterlimit:4;stroke-opacity:1;marker:none;visibility:visible;display:inline;overflow:visible;enable-background:accumulate"
                     d="m 58.499993,233.36219 l 648.000017,2.13157 C 383.04178,232.79442 353.72463,523.63942 383.04178,556.79387 c -29.5252,-32.68423 -324.182122,0 -324.541787,324.5683 z"
                     id="rect4366"
                     inkscape:connector-curvature="0"
                     sodipodi:nodetypes="ccccc" />
                <path
                     sodipodi:nodetypes="ccccc"
                     inkscape:connector-curvature="0"
                     id="path4395"
                     d="M 83.500001,258.36218 L 681.5,260.32928 C 382.99997,257.83822 355.94496,526.24148 382.99997,556.83772 c -27.24701,-30.1623 -299.168055,0 -299.499969,299.52446 z"
                     style="color:black;fill:#7901ff;fill-opacity:1;stroke:black;stroke-width:2;stroke-miterlimit:4;stroke-opacity:1;marker:none;visibility:visible;display:inline;overflow:visible;enable-background:accumulate" />
                <path
                     style="color:black;fill:#0179ff;fill-opacity:1;stroke:black;stroke-width:2;stroke-miterlimit:4;stroke-opacity:1;marker:none;visibility:visible;display:inline;overflow:visible;enable-background:accumulate"
                     d="m 108.5,283.36218 l 548,1.80263 C 382.95817,282.88203 358.16528,528.84355 382.95817,556.88157 c -24.96884,-27.64037 -274.15401,0 -274.45817,274.48061 z"
                     id="path4397"
                     inkscape:connector-curvature="0"
                     sodipodi:nodetypes="ccccc" />
                <path
                     sodipodi:nodetypes="ccccc"
                     inkscape:connector-curvature="0"
                     id="path4399"
                     d="m 133.5,308.36218 l 498,1.63816 C 382.91636,307.92584 360.3856,531.44561 382.91636,556.92542 c -22.69066,-25.11844 -249.13995,0 -249.41636,249.43676 z"
                     style="color:black;fill:#01ffd2;fill-opacity:1;stroke:black;stroke-width:2;stroke-miterlimit:4;stroke-opacity:1;marker:none;visibility:visible;display:inline;overflow:visible;enable-background:accumulate" />
                <path
                     style="color:black;fill:#01ff5b;fill-opacity:1;stroke:black;stroke-width:2;stroke-miterlimit:4;stroke-opacity:1;marker:none;visibility:visible;display:inline;overflow:visible;enable-background:accumulate"
                     d="m 158.5,333.36218 l 448,1.47368 C 382.87455,332.96965 362.60592,534.04767 382.87455,556.96927 c -20.41248,-22.59651 -224.12589,0 -224.37455,224.39291 z"
                     id="path4401"
                     inkscape:connector-curvature="0"
                     sodipodi:nodetypes="ccccc" />
                <path
                     sodipodi:nodetypes="ccccc"
                     inkscape:connector-curvature="0"
                     id="path4403"
                     d="m 183.5,358.36218 l 398,1.30921 C 382.83275,358.01346 364.82624,536.64974 382.83275,557.01312 c -18.1343,-20.07458 -199.11184,0 -199.33275,199.34906 z"
                     style="color:black;fill:#fff001;fill-opacity:1;stroke:black;stroke-width:2;stroke-miterlimit:4;stroke-opacity:1;marker:none;visibility:visible;display:inline;overflow:visible;enable-background:accumulate" />
                <path
                     style="color:black;fill:#ff7901;fill-opacity:1;stroke:black;stroke-width:2;stroke-miterlimit:4;stroke-opacity:1;marker:none;visibility:visible;display:inline;overflow:visible;enable-background:accumulate"
                     d="m 208.5,383.36218 l 348,1.14474 C 382.79095,383.05727 367.04656,539.25181 382.79095,557.05697 c -15.85612,-17.55265 -174.09779,0 -174.29095,174.30521 z"
                     id="path4405"
                     inkscape:connector-curvature="0"
                     sodipodi:nodetypes="ccccc" />
                <path
                     sodipodi:nodetypes="ccccc"
                     inkscape:connector-curvature="0"
                     id="path4407"
                     d="m 233.5,408.36218 l 298,0.98026 C 382.74915,408.10108 369.26688,541.85387 382.74915,557.10082 c -13.57794,-15.03072 -149.08374,0 -149.24915,149.26136 z"
                     style="color:black;fill:#ff0101;fill-opacity:1;stroke:black;stroke-width:2;stroke-miterlimit:4;stroke-opacity:1;marker:none;visibility:visible;display:inline;overflow:visible;enable-background:accumulate" />
                <path
                     style="color:black;fill:#7901ff;fill-opacity:1;stroke:black;stroke-width:2;stroke-miterlimit:4;stroke-opacity:1;marker:none;visibility:visible;display:inline;overflow:visible;enable-background:accumulate"
                     d="m 258.5,433.36218 l 248,0.81578 C 382.70735,433.14489 371.4872,544.45593 382.70735,557.14467 c -11.29976,-12.50879 -124.06969,0 -124.20735,124.21751 z"
                     id="path4409"
                     inkscape:connector-curvature="0"
                     sodipodi:nodetypes="ccccc" />
                <path
                     sodipodi:nodetypes="ccccc"
                     inkscape:connector-curvature="0"
                     id="path4411"
                     d="m 283.5,458.36218 l 198,0.65131 C 382.66555,458.1887 373.70752,547.058 382.66555,557.18853 c -9.02159,-9.98686 -99.05564,0 -99.16555,99.17365 z"
                     style="color:black;fill:#0101ff;fill-opacity:1;stroke:black;stroke-width:2;stroke-miterlimit:4;stroke-opacity:1;marker:none;visibility:visible;display:inline;overflow:visible;enable-background:accumulate" />
                <path
                     style="color:black;fill:#01ffd2;fill-opacity:1;stroke:black;stroke-width:1.99999988;stroke-miterlimit:4;stroke-opacity:1;marker:none;visibility:visible;display:inline;overflow:visible;enable-background:accumulate"
                     d="m 308.5,483.36218 l 148,0.48683 c -73.87625,-0.61651 -80.57216,65.81105 -73.87625,73.38337 c -6.74342,-7.46493 -74.04159,0 -74.12375,74.1298 z"
                     id="path4413"
                     inkscape:connector-curvature="0"
                     sodipodi:nodetypes="ccccc" />
                <path
                     sodipodi:nodetypes="ccccc"
                     inkscape:connector-curvature="0"
                     id="path4415"
                     d="m 333.5,508.36219 l 98,0.32236 c -48.91806,-0.40823 -53.35184,43.57758 -48.91806,48.59169 c -4.46524,-4.943 -49.02754,0 -49.08194,49.08594 z"
                     style="color:black;fill:#01ff5b;fill-opacity:1;stroke:black;stroke-width:1.99999988;stroke-miterlimit:4;stroke-opacity:1;marker:none;visibility:visible;display:inline;overflow:visible;enable-background:accumulate" />
            </g>
            <g
                 transform="matrix(-1,0,0,-1,765,1114.7244)"
                 id="g4431">
                <path
                     sodipodi:nodetypes="ccccc"
                     inkscape:connector-curvature="0"
                     id="path4433"
                     d="m 58.499993,233.36219 l 648.000017,2.13157 C 383.04178,232.79442 353.72463,523.63942 383.04178,556.79387 c -29.5252,-32.68423 -324.182122,0 -324.541787,324.5683 z"
                     style="color:black;fill:#3101ff;fill-opacity:1;stroke:black;stroke-width:2;stroke-miterlimit:4;stroke-opacity:1;marker:none;visibility:visible;display:inline;overflow:visible;enable-background:accumulate" />
                <path
                     style="color:black;fill:#7901ff;fill-opacity:1;stroke:black;stroke-width:2;stroke-miterlimit:4;stroke-opacity:1;marker:none;visibility:visible;display:inline;overflow:visible;enable-background:accumulate"
                     d="M 83.500001,258.36218 L 681.5,260.32928 C 382.99997,257.83822 355.94496,526.24148 382.99997,556.83772 c -27.24701,-30.1623 -299.168055,0 -299.499969,299.52446 z"
                     id="path4435"
                     inkscape:connector-curvature="0"
                     sodipodi:nodetypes="ccccc" />
                <path
                     sodipodi:nodetypes="ccccc"
                     inkscape:connector-curvature="0"
                     id="path4437"
                     d="m 108.5,283.36218 l 548,1.80263 C 382.95817,282.88203 358.16528,528.84355 382.95817,556.88157 c -24.96884,-27.64037 -274.15401,0 -274.45817,274.48061 z"
                     style="color:black;fill:#0179ff;fill-opacity:1;stroke:black;stroke-width:2;stroke-miterlimit:4;stroke-opacity:1;marker:none;visibility:visible;display:inline;overflow:visible;enable-background:accumulate" />
                <path
                     style="color:black;fill:#01ffd2;fill-opacity:1;stroke:black;stroke-width:2;stroke-miterlimit:4;stroke-opacity:1;marker:none;visibility:visible;display:inline;overflow:visible;enable-background:accumulate"
                     d="m 133.5,308.36218 l 498,1.63816 C 382.91636,307.92584 360.3856,531.44561 382.91636,556.92542 c -22.69066,-25.11844 -249.13995,0 -249.41636,249.43676 z"
                     id="path4439"
                     inkscape:connector-curvature="0"
                     sodipodi:nodetypes="ccccc" />
                <path
                     sodipodi:nodetypes="ccccc"
                     inkscape:connector-curvature="0"
                     id="path4441"
                     d="m 158.5,333.36218 l 448,1.47368 C 382.87455,332.96965 362.60592,534.04767 382.87455,556.96927 c -20.41248,-22.59651 -224.12589,0 -224.37455,224.39291 z"
                     style="color:black;fill:#01ff5b;fill-opacity:1;stroke:black;stroke-width:2;stroke-miterlimit:4;stroke-opacity:1;marker:none;visibility:visible;display:inline;overflow:visible;enable-background:accumulate" />
                <path
                     style="color:black;fill:#fff001;fill-opacity:1;stroke:black;stroke-width:2;stroke-miterlimit:4;stroke-opacity:1;marker:none;visibility:visible;display:inline;overflow:visible;enable-background:accumulate"
                     d="m 183.5,358.36218 l 398,1.30921 C 382.83275,358.01346 364.82624,536.64974 382.83275,557.01312 c -18.1343,-20.07458 -199.11184,0 -199.33275,199.34906 z"
                     id="path4443"
                     inkscape:connector-curvature="0"
                     sodipodi:nodetypes="ccccc" />
                <path
                     sodipodi:nodetypes="ccccc"
                     inkscape:connector-curvature="0"
                     id="path4445"
                     d="m 208.5,383.36218 l 348,1.14474 C 382.79095,383.05727 367.04656,539.25181 382.79095,557.05697 c -15.85612,-17.55265 -174.09779,0 -174.29095,174.30521 z"
                     style="color:black;fill:#ff7901;fill-opacity:1;stroke:black;stroke-width:2;stroke-miterlimit:4;stroke-opacity:1;marker:none;visibility:visible;display:inline;overflow:visible;enable-background:accumulate" />
                <path
                     style="color:black;fill:#ff0101;fill-opacity:1;stroke:black;stroke-width:2;stroke-miterlimit:4;stroke-opacity:1;marker:none;visibility:visible;display:inline;overflow:visible;enable-background:accumulate"
                     d="m 233.5,408.36218 l 298,0.98026 C 382.74915,408.10108 369.26688,541.85387 382.74915,557.10082 c -13.57794,-15.03072 -149.08374,0 -149.24915,149.26136 z"
                     id="path4447"
                     inkscape:connector-curvature="0"
                     sodipodi:nodetypes="ccccc" />
                <path
                     sodipodi:nodetypes="ccccc"
                     inkscape:connector-curvature="0"
                     id="path4449"
                     d="m 258.5,433.36218 l 248,0.81578 C 382.70735,433.14489 371.4872,544.45593 382.70735,557.14467 c -11.29976,-12.50879 -124.06969,0 -124.20735,124.21751 z"
                     style="color:black;fill:#7901ff;fill-opacity:1;stroke:black;stroke-width:2;stroke-miterlimit:4;stroke-opacity:1;marker:none;visibility:visible;display:inline;overflow:visible;enable-background:accumulate" />
                <path
                     style="color:black;fill:#0101ff;fill-opacity:1;stroke:black;stroke-width:2;stroke-miterlimit:4;stroke-opacity:1;marker:none;visibility:visible;display:inline;overflow:visible;enable-background:accumulate"
                     d="m 283.5,458.36218 l 198,0.65131 C 382.66555,458.1887 373.70752,547.058 382.66555,557.18853 c -9.02159,-9.98686 -99.05564,0 -99.16555,99.17365 z"
                     id="path4451"
                     inkscape:connector-curvature="0"
                     sodipodi:nodetypes="ccccc" />
                <path
                     sodipodi:nodetypes="ccccc"
                     inkscape:connector-curvature="0"
                     id="path4453"
                     d="m 308.5,483.36218 l 148,0.48683 c -73.87625,-0.61651 -80.57216,65.81105 -73.87625,73.38337 c -6.74342,-7.46493 -74.04159,0 -74.12375,74.1298 z"
                     style="color:black;fill:#01ffd2;fill-opacity:1;stroke:black;stroke-width:1.99999988;stroke-miterlimit:4;stroke-opacity:1;marker:none;visibility:visible;display:inline;overflow:visible;enable-background:accumulate" />
                <path
                     style="color:black;fill:#01ff5b;fill-opacity:1;stroke:black;stroke-width:1.99999988;stroke-miterlimit:4;stroke-opacity:1;marker:none;visibility:visible;display:inline;overflow:visible;enable-background:accumulate"
                     d="m 333.5,508.36219 l 98,0.32236 c -48.91806,-0.40823 -53.35184,43.57758 -48.91806,48.59169 c -4.46524,-4.943 -49.02754,0 -49.08194,49.08594 z"
                     id="path4455"
                     inkscape:connector-curvature="0"
                     sodipodi:nodetypes="ccccc" />
            </g>
        </g>
        <g
             transform="matrix(0,1,-1,0,939.8622,174.86218)"
             id="g4630"
             style="opacity:0.5">
            <g
                 id="g4632"
                 transform="translate(-1.5e-6,2.9999999e-6)">
                <path
                     sodipodi:nodetypes="ccccc"
                     inkscape:connector-curvature="0"
                     id="path4634"
                     d="m 58.499993,233.36219 l 648.000017,2.13157 C 383.04178,232.79442 353.72463,523.63942 383.04178,556.79387 c -29.5252,-32.68423 -324.182122,0 -324.541787,324.5683 z"
                     style="color:black;fill:#3101ff;fill-opacity:1;stroke:black;stroke-width:2;stroke-miterlimit:4;stroke-opacity:1;marker:none;visibility:visible;display:inline;overflow:visible;enable-background:accumulate" />
                <path
                     style="color:black;fill:#7901ff;fill-opacity:1;stroke:black;stroke-width:2;stroke-miterlimit:4;stroke-opacity:1;marker:none;visibility:visible;display:inline;overflow:visible;enable-background:accumulate"
                     d="M 83.500001,258.36218 L 681.5,260.32928 C 382.99997,257.83822 355.94496,526.24148 382.99997,556.83772 c -27.24701,-30.1623 -299.168055,0 -299.499969,299.52446 z"
                     id="path4636"
                     inkscape:connector-curvature="0"
                     sodipodi:nodetypes="ccccc" />
                <path
                     sodipodi:nodetypes="ccccc"
                     inkscape:connector-curvature="0"
                     id="path4638"
                     d="m 108.5,283.36218 l 548,1.80263 C 382.95817,282.88203 358.16528,528.84355 382.95817,556.88157 c -24.96884,-27.64037 -274.15401,0 -274.45817,274.48061 z"
                     style="color:black;fill:#0179ff;fill-opacity:1;stroke:black;stroke-width:2;stroke-miterlimit:4;stroke-opacity:1;marker:none;visibility:visible;display:inline;overflow:visible;enable-background:accumulate" />
                <path
                     style="color:black;fill:#01ffd2;fill-opacity:1;stroke:black;stroke-width:2;stroke-miterlimit:4;stroke-opacity:1;marker:none;visibility:visible;display:inline;overflow:visible;enable-background:accumulate"
                     d="m 133.5,308.36218 l 498,1.63816 C 382.91636,307.92584 360.3856,531.44561 382.91636,556.92542 c -22.69066,-25.11844 -249.13995,0 -249.41636,249.43676 z"
                     id="path4640"
                     inkscape:connector-curvature="0"
                     sodipodi:nodetypes="ccccc" />
                <path
                     sodipodi:nodetypes="ccccc"
                     inkscape:connector-curvature="0"
                     id="path4642"
                     d="m 158.5,333.36218 l 448,1.47368 C 382.87455,332.96965 362.60592,534.04767 382.87455,556.96927 c -20.41248,-22.59651 -224.12589,0 -224.37455,224.39291 z"
                     style="color:black;fill:#01ff5b;fill-opacity:1;stroke:black;stroke-width:2;stroke-miterlimit:4;stroke-opacity:1;marker:none;visibility:visible;display:inline;overflow:visible;enable-background:accumulate" />
                <path
                     style="color:black;fill:#fff001;fill-opacity:1;stroke:black;stroke-width:2;stroke-miterlimit:4;stroke-opacity:1;marker:none;visibility:visible;display:inline;overflow:visible;enable-background:accumulate"
                     d="m 183.5,358.36218 l 398,1.30921 C 382.83275,358.01346 364.82624,536.64974 382.83275,557.01312 c -18.1343,-20.07458 -199.11184,0 -199.33275,199.34906 z"
                     id="path4644"
                     inkscape:connector-curvature="0"
                     sodipodi:nodetypes="ccccc" />
                <path
                     sodipodi:nodetypes="ccccc"
                     inkscape:connector-curvature="0"
                     id="path4646"
                     d="m 208.5,383.36218 l 348,1.14474 C 382.79095,383.05727 367.04656,539.25181 382.79095,557.05697 c -15.85612,-17.55265 -174.09779,0 -174.29095,174.30521 z"
                     style="color:black;fill:#ff7901;fill-opacity:1;stroke:black;stroke-width:2;stroke-miterlimit:4;stroke-opacity:1;marker:none;visibility:visible;display:inline;overflow:visible;enable-background:accumulate" />
                <path
                     style="color:black;fill:#ff0101;fill-opacity:1;stroke:black;stroke-width:2;stroke-miterlimit:4;stroke-opacity:1;marker:none;visibility:visible;display:inline;overflow:visible;enable-background:accumulate"
                     d="m 233.5,408.36218 l 298,0.98026 C 382.74915,408.10108 369.26688,541.85387 382.74915,557.10082 c -13.57794,-15.03072 -149.08374,0 -149.24915,149.26136 z"
                     id="path4648"
                     inkscape:connector-curvature="0"
                     sodipodi:nodetypes="ccccc" />
                <path
                     sodipodi:nodetypes="ccccc"
                     inkscape:connector-curvature="0"
                     id="path4650"
                     d="m 258.5,433.36218 l 248,0.81578 C 382.70735,433.14489 371.4872,544.45593 382.70735,557.14467 c -11.29976,-12.50879 -124.06969,0 -124.20735,124.21751 z"
                     style="color:black;fill:#7901ff;fill-opacity:1;stroke:black;stroke-width:2;stroke-miterlimit:4;stroke-opacity:1;marker:none;visibility:visible;display:inline;overflow:visible;enable-background:accumulate" />
                <path
                     style="color:black;fill:#0101ff;fill-opacity:1;stroke:black;stroke-width:2;stroke-miterlimit:4;stroke-opacity:1;marker:none;visibility:visible;display:inline;overflow:visible;enable-background:accumulate"
                     d="m 283.5,458.36218 l 198,0.65131 C 382.66555,458.1887 373.70752,547.058 382.66555,557.18853 c -9.02159,-9.98686 -99.05564,0 -99.16555,99.17365 z"
                     id="path4652"
                     inkscape:connector-curvature="0"
                     sodipodi:nodetypes="ccccc" />
                <path
                     sodipodi:nodetypes="ccccc"
                     inkscape:connector-curvature="0"
                     id="path4654"
                     d="m 308.5,483.36218 l 148,0.48683 c -73.87625,-0.61651 -80.57216,65.81105 -73.87625,73.38337 c -6.74342,-7.46493 -74.04159,0 -74.12375,74.1298 z"
                     style="color:black;fill:#01ffd2;fill-opacity:1;stroke:black;stroke-width:1.99999988000000006;stroke-miterlimit:4;stroke-opacity:1;marker:none;visibility:visible;display:inline;overflow:visible;enable-background:accumulate" />
                <path
                     style="color:black;fill:#01ff5b;fill-opacity:1;stroke:black;stroke-width:1.99999988000000006;stroke-miterlimit:4;stroke-opacity:1;marker:none;visibility:visible;display:inline;overflow:visible;enable-background:accumulate"
                     d="m 333.5,508.36219 l 98,0.32236 c -48.91806,-0.40823 -53.35184,43.57758 -48.91806,48.59169 c -4.46524,-4.943 -49.02754,0 -49.08194,49.08594 z"
                     id="path4656"
                     inkscape:connector-curvature="0"
                     sodipodi:nodetypes="ccccc" />
            </g>
            <g
                 id="g4658"
                 transform="matrix(-1,0,0,-1,765,1114.7244)">
                <path
                     style="color:black;fill:#3101ff;fill-opacity:1;stroke:black;stroke-width:2;stroke-miterlimit:4;stroke-opacity:1;marker:none;visibility:visible;display:inline;overflow:visible;enable-background:accumulate"
                     d="m 58.499993,233.36219 l 648.000017,2.13157 C 383.04178,232.79442 353.72463,523.63942 383.04178,556.79387 c -29.5252,-32.68423 -324.182122,0 -324.541787,324.5683 z"
                     id="path4660"
                     inkscape:connector-curvature="0"
                     sodipodi:nodetypes="ccccc" />
                <path
                     sodipodi:nodetypes="ccccc"
                     inkscape:connector-curvature="0"
                     id="path4662"
                     d="M 83.500001,258.36218 L 681.5,260.32928 C 382.99997,257.83822 355.94496,526.24148 382.99997,556.83772 c -27.24701,-30.1623 -299.168055,0 -299.499969,299.52446 z"
                     style="color:black;fill:#7901ff;fill-opacity:1;stroke:black;stroke-width:2;stroke-miterlimit:4;stroke-opacity:1;marker:none;visibility:visible;display:inline;overflow:visible;enable-background:accumulate" />
                <path
                     style="color:black;fill:#0179ff;fill-opacity:1;stroke:black;stroke-width:2;stroke-miterlimit:4;stroke-opacity:1;marker:none;visibility:visible;display:inline;overflow:visible;enable-background:accumulate"
                     d="m 108.5,283.36218 l 548,1.80263 C 382.95817,282.88203 358.16528,528.84355 382.95817,556.88157 c -24.96884,-27.64037 -274.15401,0 -274.45817,274.48061 z"
                     id="path4664"
                     inkscape:connector-curvature="0"
                     sodipodi:nodetypes="ccccc" />
                <path
                     sodipodi:nodetypes="ccccc"
                     inkscape:connector-curvature="0"
                     id="path4666"
                     d="m 133.5,308.36218 l 498,1.63816 C 382.91636,307.92584 360.3856,531.44561 382.91636,556.92542 c -22.69066,-25.11844 -249.13995,0 -249.41636,249.43676 z"
                     style="color:black;fill:#01ffd2;fill-opacity:1;stroke:black;stroke-width:2;stroke-miterlimit:4;stroke-opacity:1;marker:none;visibility:visible;display:inline;overflow:visible;enable-background:accumulate" />
                <path
                     style="color:black;fill:#01ff5b;fill-opacity:1;stroke:black;stroke-width:2;stroke-miterlimit:4;stroke-opacity:1;marker:none;visibility:visible;display:inline;overflow:visible;enable-background:accumulate"
                     d="m 158.5,333.36218 l 448,1.47368 C 382.87455,332.96965 362.60592,534.04767 382.87455,556.96927 c -20.41248,-22.59651 -224.12589,0 -224.37455,224.39291 z"
                     id="path4668"
                     inkscape:connector-curvature="0"
                     sodipodi:nodetypes="ccccc" />
                <path
                     sodipodi:nodetypes="ccccc"
                     inkscape:connector-curvature="0"
                     id="path4670"
                     d="m 183.5,358.36218 l 398,1.30921 C 382.83275,358.01346 364.82624,536.64974 382.83275,557.01312 c -18.1343,-20.07458 -199.11184,0 -199.33275,199.34906 z"
                     style="color:black;fill:#fff001;fill-opacity:1;stroke:black;stroke-width:2;stroke-miterlimit:4;stroke-opacity:1;marker:none;visibility:visible;display:inline;overflow:visible;enable-background:accumulate" />
                <path
                     style="color:black;fill:#ff7901;fill-opacity:1;stroke:black;stroke-width:2;stroke-miterlimit:4;stroke-opacity:1;marker:none;visibility:visible;display:inline;overflow:visible;enable-background:accumulate"
                     d="m 208.5,383.36218 l 348,1.14474 C 382.79095,383.05727 367.04656,539.25181 382.79095,557.05697 c -15.85612,-17.55265 -174.09779,0 -174.29095,174.30521 z"
                     id="path4672"
                     inkscape:connector-curvature="0"
                     sodipodi:nodetypes="ccccc" />
                <path
                     sodipodi:nodetypes="ccccc"
                     inkscape:connector-curvature="0"
                     id="path4674"
                     d="m 233.5,408.36218 l 298,0.98026 C 382.74915,408.10108 369.26688,541.85387 382.74915,557.10082 c -13.57794,-15.03072 -149.08374,0 -149.24915,149.26136 z"
                     style="color:black;fill:#ff0101;fill-opacity:1;stroke:black;stroke-width:2;stroke-miterlimit:4;stroke-opacity:1;marker:none;visibility:visible;display:inline;overflow:visible;enable-background:accumulate" />
                <path
                     style="color:black;fill:#7901ff;fill-opacity:1;stroke:black;stroke-width:2;stroke-miterlimit:4;stroke-opacity:1;marker:none;visibility:visible;display:inline;overflow:visible;enable-background:accumulate"
                     d="m 258.5,433.36218 l 248,0.81578 C 382.70735,433.14489 371.4872,544.45593 382.70735,557.14467 c -11.29976,-12.50879 -124.06969,0 -124.20735,124.21751 z"
                     id="path4676"
                     inkscape:connector-curvature="0"
                     sodipodi:nodetypes="ccccc" />
                <path
                     sodipodi:nodetypes="ccccc"
                     inkscape:connector-curvature="0"
                     id="path4678"
                     d="m 283.5,458.36218 l 198,0.65131 C 382.66555,458.1887 373.70752,547.058 382.66555,557.18853 c -9.02159,-9.98686 -99.05564,0 -99.16555,99.17365 z"
                     style="color:black;fill:#0101ff;fill-opacity:1;stroke:black;stroke-width:2;stroke-miterlimit:4;stroke-opacity:1;marker:none;visibility:visible;display:inline;overflow:visible;enable-background:accumulate" />
                <path
                     style="color:black;fill:#01ffd2;fill-opacity:1;stroke:black;stroke-width:1.99999988000000006;stroke-miterlimit:4;stroke-opacity:1;marker:none;visibility:visible;display:inline;overflow:visible;enable-background:accumulate"
                     d="m 308.5,483.36218 l 148,0.48683 c -73.87625,-0.61651 -80.57216,65.81105 -73.87625,73.38337 c -6.74342,-7.46493 -74.04159,0 -74.12375,74.1298 z"
                     id="path4680"
                     inkscape:connector-curvature="0"
                     sodipodi:nodetypes="ccccc" />
                <path
                     sodipodi:nodetypes="ccccc"
                     inkscape:connector-curvature="0"
                     id="path4682"
                     d="m 333.5,508.36219 l 98,0.32236 c -48.91806,-0.40823 -53.35184,43.57758 -48.91806,48.59169 c -4.46524,-4.943 -49.02754,0 -49.08194,49.08594 z"
                     style="color:black;fill:#01ff5b;fill-opacity:1;stroke:black;stroke-width:1.99999988000000006;stroke-miterlimit:4;stroke-opacity:1;marker:none;visibility:visible;display:inline;overflow:visible;enable-background:accumulate" />
            </g>
        </g>
    </g>
</svg>
