<?xml version="1.0" encoding="UTF-8" standalone="no"?>
<!-- Created with Inkscape (http://www.inkscape.org/) -->

<svg
   xmlns:dc="http://purl.org/dc/elements/1.1/"
   xmlns:cc="http://creativecommons.org/ns#"
   xmlns:rdf="http://www.w3.org/1999/02/22-rdf-syntax-ns#"
   xmlns:svg="http://www.w3.org/2000/svg"
   xmlns="http://www.w3.org/2000/svg"
   xmlns:sodipodi="http://sodipodi.sourceforge.net/DTD/sodipodi-0.dtd"
   xmlns:inkscape="http://www.inkscape.org/namespaces/inkscape"
   id="svg3723"
   sodipodi:docname="sunrays.svg"
   viewBox="0 0 1948 1948"
   version="1.1"
   inkscape:version="0.92.1 r15371">
  <defs
     id="defs8" />
  <sodipodi:namedview
     id="base"
     bordercolor="#666666"
     inkscape:pageshadow="2"
     inkscape:window-y="0"
     pagecolor="#ffffff"
     inkscape:window-height="1051"
     inkscape:window-maximized="1"
     inkscape:zoom="0.31233655"
     inkscape:window-x="0"
     showgrid="false"
     borderopacity="1.0"
     inkscape:current-layer="layer1"
     inkscape:cx="719.21436"
     inkscape:cy="696.80655"
     inkscape:window-width="1884"
     inkscape:pageopacity="0.0"
     inkscape:document-units="px" />
  <g
     id="layer1"
     inkscape:label="Ebene 1"
     inkscape:groupmode="layer"
     transform="translate(592.11 594.6)">
    <path
       id="path2845"
       style="fill-rule:evenodd;fill:#e24646;fill-opacity:1"
       d="m376.73-576.22c-40.261 0.1996-79.935 2.8833-118.88 7.9062l120.06 894.12-1.1874-902.03zm7.4687 0 1.1563 900.97 115.31-893.66c-38.172-4.7352-77.04-7.2066-116.47-7.3125zm123.88 8.2812-115.47 894.78 232.38-871.84c-38.094-9.9814-77.116-17.686-116.91-22.938zm-257.62 0.625c-38.957 5.3341-77.151 13.002-114.47 22.875l234.38 870.16-119.91-893.03zm381.75 24.219-232.06 870.62 342.66-833.31c-35.83-14.602-72.752-27.079-110.59-37.312zm-503.41 0.59375c-38.629 10.544-76.263 23.436-112.78 38.531l347.44 832.72-234.66-871.25zm620.91 39.562-343.03 834.31 449.94-781.69c-34.359-19.666-70.046-37.264-106.91-52.625zm-740.59 1.8125c-36.037 15.23-70.959 32.6-104.57 51.95l451.62 779.84-347.06-831.78zm853.97 54.562-449.44 780.78 546.47-716c-30.93-23.482-63.321-45.136-97.031-64.781zm-964.94 1.1562c-34.379 20.145-67.406 42.363-98.875 66.5l551.03 714.31-452.16-780.81zm1067.9 68.156-547.22 716.97 636.84-638.5c-28.204-27.952-58.138-54.175-89.625-78.469zm-1172.7 2.9062c-30.725 23.948-59.936 49.739-87.5 77.188l637.75 636.09-550.25-713.28zm1267.6 80.812-636.06 637.75 713.13-550.16c-23.913-30.752-49.646-59.999-77.062-87.594zm-1360.4 1.6562c-27.921 28.239-54.085 58.199-78.344 89.719l717 547.25-638.66-636.97zm1442 91.844-713.84 550.69 780.19-451.81c-20.094-34.375-42.261-67.403-66.344-98.875zm-1524.9 3.8125c-23.453 30.967-45.076 63.411-64.688 97.156l780.69 449.34-716-546.5zm1595 101.54-779.37 451.31 831.17-346.78c-15.2-36.026-32.5-70.913-51.8-104.53zm-1663.4 2.0938c-19.613 34.362-37.158 70.049-52.469 106.91l834.03 342.94-781.56-449.85zm1718 109.31-832.29 347.29 870.79-234.57c-10.5-38.603-23.4-76.213-38.5-112.72zm-1773.3 4.5c-14.56 35.841-26.997 72.744-37.188 110.59l870.31 232-833.12-342.59zm1813.7 115.47-869.31 234.12 892.06-119.75c-5.2969-38.916-12.924-77.092-22.75-114.38zm-1852.8 2.3438c-9.9379 38.099-17.605 77.114-22.812 116.91l893.78 115.25-870.97-232.16zm1876.5 119.41-893.48 119.97 901.28-1.15c-0.1712-40.238-2.792-79.891-7.7813-118.81zm-1900.3 4.9062c-4.6897 38.144-7.1507 76.979-7.2188 116.38l900.34-1.1562-893.12-115.22zm1908.1 121.34-899.97 1.1875 892.59 115.19c4.7542-38.141 7.2427-76.978 7.375-116.38zm-1013.9 1.3125-901.38 1.1875c0.23805 40.229 2.9461 79.873 8 118.78l893.38-119.97zm111.88 7.1562 870.72 232.09c9.9921-38.062 17.668-77.055 22.938-116.81l-893.6-115.28zm-111.84 0.375-892.41 119.84c5.363 38.91 13.077 77.072 22.969 114.34l869.44-234.19zm2.875 6.9376-870.38 234.44c10.56 38.567 23.465 76.165 38.562 112.62l831.81-347.06zm108.28 0.2187 832.16 342.19c14.594-35.78 27.107-72.649 37.344-110.44l-869.5-231.75zm-4.125 6.4063 780.84 449.47c19.65-34.32 37.239-69.964 52.594-106.78l-833.41-342.69zm-102.28 0.6874-830.84 346.66c15.229 35.977 32.626 70.805 51.969 104.38l778.88-451.03zm4.75 5.875-779.88 451.59c20.139 34.332 42.347 67.292 66.469 98.719l713.41-550.31zm94.812 0.4688 715.13 545.81c23.46-30.901 45.088-63.262 64.719-96.938l-779.84-448.88zm-5.4374 5.2188 637.69 636.03c27.906-28.168 54.086-58.058 78.344-89.5l-715.97-546.56zm-85.688 0.8437-712.53 549.69c23.931 30.683 49.701 59.878 77.125 87.406l635.43-637.12zm5.9375 4.625-636.06 637.75c28.201 27.872 58.123 53.998 89.594 78.219l546.48-715.99zm75.25 0.5937 549.44 712.25c30.71-23.896 59.941-49.609 87.5-77l-636.97-635.3zm-6.5938 3.6563 451.41 779.47c34.337-20.093 67.312-42.238 98.75-66.312l-550.15-713.14zm-63.281 1-545.88 715.25c30.924 23.419 63.305 45.006 97 64.594l448.88-779.84zm6.9375 2.9063-449.34 780.66c34.315 19.592 69.978 37.137 106.78 52.438l342.56-833.09zm50.563 1 346.34 830.12c35.972-15.183 70.805-32.519 104.38-51.813l-450.71-778.34zm-7.4063 1.625 234.28 869.78c38.55-10.517 76.145-23.356 112.59-38.406l-346.88-831.37zm-36.688 1.3124-342.12 832.03c35.791 14.551 72.642 26.994 110.44 37.188l231.69-869.22zm7.5 0.8438-231.97 870.28c38.051 9.9431 77.009 17.588 116.75 22.813l115.23-893.05zm14.75 0.6562 1.1562 900.62c40.196-0.2095 79.808-2.8885 118.69-7.9062l-119.84-892.7zm7.5312 0.25 119.69 891.5c38.888-5.326 77.026-12.994 114.28-22.844l-233.95-868.75zm-15 1.0626-115.09 892.06c38.113 4.7088 76.917 7.1869 116.28 7.2813l-1.1876-899.34z" />
  </g>
  <metadata
     id="metadata5">
    <rdf:RDF>
      <cc:Work>
        <dc:format>image/svg+xml</dc:format>
        <dc:type
           rdf:resource="http://purl.org/dc/dcmitype/StillImage" />
        <cc:license
           rdf:resource="http://creativecommons.org/licenses/publicdomain/" />
        <dc:publisher>
          <cc:Agent
             rdf:about="http://openclipart.org/">
            <dc:title>Openclipart</dc:title>
          </cc:Agent>
        </dc:publisher>
        <dc:title>abstract sun 5 (48 rays)</dc:title>
        <dc:date>2011-08-24T09:58:25</dc:date>
        <dc:description />
        <dc:source>https://openclipart.org/detail/157897/abstract-sun-5-48-rays-by-worker</dc:source>
        <dc:creator>
          <cc:Agent>
            <dc:title>worker</dc:title>
          </cc:Agent>
        </dc:creator>
        <dc:subject>
          <rdf:Bag>
            <rdf:li>abstract</rdf:li>
            <rdf:li>ray</rdf:li>
            <rdf:li>rays</rdf:li>
            <rdf:li>sun</rdf:li>
            <rdf:li>sunray</rdf:li>
            <rdf:li>sunshine</rdf:li>
          </rdf:Bag>
        </dc:subject>
      </cc:Work>
      <cc:License
         rdf:about="http://creativecommons.org/licenses/publicdomain/">
        <cc:permits
           rdf:resource="http://creativecommons.org/ns#Reproduction" />
        <cc:permits
           rdf:resource="http://creativecommons.org/ns#Distribution" />
        <cc:permits
           rdf:resource="http://creativecommons.org/ns#DerivativeWorks" />
      </cc:License>
    </rdf:RDF>
  </metadata>
</svg>
