<svg xmlns:dc="http://purl.org/dc/elements/1.1/" xmlns:cc="http://creativecommons.org/ns#" xmlns:rdf="http://www.w3.org/1999/02/22-rdf-syntax-ns#" xmlns="http://www.w3.org/2000/svg" height="128" width="128" version="1.1" viewBox="0 0 128 128" id="svg10293"><g transform="translate(-364.11 -273.761)" id="layer1"><g style="fill:#4e392e;fill-opacity:1" transform="matrix(2.1043 0 0 -2.06673 621.292 394.851)" id="g5933"><path id="path816-3-3" d="M-74.695 48.188c0 3.55-7.66 6.426-17.108 6.426-9.449 0-17.108-2.877-17.108-6.426V7.059c0-3.55 7.66-6.426 17.108-6.426s17.108 2.877 17.108 6.426v41.129z" style="opacity:1;fill:#6f5a4d;fill-opacity:1;stroke:#6f5a4d;stroke-width:.95903224;stroke-linecap:round;stroke-linejoin:round;stroke-miterlimit:4;stroke-dasharray:none;stroke-dashoffset:0;stroke-opacity:1"/><path id="path816-3" d="M-74.695 48.566c0 3.34-7.66 6.048-17.108 6.048-9.449 0-17.108-2.707-17.108-6.048V9.858c0-3.34 7.66-6.048 17.108-6.048s17.108 2.707 17.108 6.048v38.708z" style="opacity:1;fill:#b18e7c;fill-opacity:1;stroke:#6f5a4d;stroke-width:.95903218;stroke-linecap:round;stroke-linejoin:round;stroke-miterlimit:4;stroke-dasharray:none;stroke-dashoffset:0;stroke-opacity:1"/><ellipse transform="matrix(0 1 1 0 0 0)" ry="17.107758" rx="6.0481939" cy="-91.803154" cx="48.566189" id="path816" style="opacity:1;fill:#947564;fill-opacity:1;stroke:#6f5a4d;stroke-width:.95903218;stroke-linecap:round;stroke-linejoin:round;stroke-miterlimit:4;stroke-dasharray:none;stroke-dashoffset:0;stroke-opacity:1"/></g></g><metadata id="metadata16"><rdf:RDF><cc:Work><dc:format>image/svg+xml</dc:format><dc:type rdf:resource="http://purl.org/dc/dcmitype/StillImage"/><cc:license rdf:resource="http://creativecommons.org/licenses/by-sa/4.0/"/><dc:publisher><cc:Agent rdf:about="http://openclipart.org/"><dc:title/></cc:Agent></dc:publisher><dc:title/><dc:date>2022</dc:date><dc:description/><dc:source/><dc:creator><cc:Agent><dc:title>Timothée Giet</dc:title></cc:Agent></dc:creator><dc:subject><rdf:Bag/></dc:subject></cc:Work><cc:License rdf:about="http://creativecommons.org/licenses/by-sa/4.0/"><cc:permits rdf:resource="http://creativecommons.org/ns#Reproduction"/><cc:permits rdf:resource="http://creativecommons.org/ns#Distribution"/><cc:requires rdf:resource="http://creativecommons.org/ns#Notice"/><cc:requires rdf:resource="http://creativecommons.org/ns#Attribution"/><cc:permits rdf:resource="http://creativecommons.org/ns#DerivativeWorks"/><cc:requires rdf:resource="http://creativecommons.org/ns#ShareAlike"/></cc:License></rdf:RDF></metadata></svg>