<?xml version="1.0" encoding="UTF-8" standalone="no"?>
<!-- Generator: Adobe Illustrator 13.0.2, SVG Export Plug-In . SVG Version: 6.00 Build 14948)  -->

<svg
   xmlns:dc="http://purl.org/dc/elements/1.1/"
   xmlns:cc="http://creativecommons.org/ns#"
   xmlns:rdf="http://www.w3.org/1999/02/22-rdf-syntax-ns#"
   xmlns:svg="http://www.w3.org/2000/svg"
   xmlns="http://www.w3.org/2000/svg"
   xmlns:xlink="http://www.w3.org/1999/xlink"
   xmlns:sodipodi="http://sodipodi.sourceforge.net/DTD/sodipodi-0.dtd"
   xmlns:inkscape="http://www.inkscape.org/namespaces/inkscape"
   id="Layer_1"
   sodipodi:docname="warning1.svg"
   xml:space="preserve"
   viewBox="0 0 113.85832 114.58954"
   sodipodi:version="0.32"
   version="1.1"
   inkscape:output_extension="org.inkscape.output.svg.inkscape"
   y="0px"
   x="0px"
   inkscape:version="0.92.1 r15371"
   width="113.85832"
   height="114.58954"><defs
     id="defs9" /><sodipodi:namedview
     id="base"
     bordercolor="#666666"
     inkscape:window-x="0"
     inkscape:window-y="0"
     guidetolerance="10.0"
     pagecolor="#ffffff"
     gridtolerance="10.0"
     inkscape:zoom="4.2051658"
     objecttolerance="10.0"
     showgrid="false"
     borderopacity="1.0"
     inkscape:current-layer="g3437"
     inkscape:cx="21.329256"
     inkscape:cy="52.909425"
     inkscape:pageshadow="2"
     inkscape:window-width="1884"
     inkscape:pageopacity="0.0"
     inkscape:window-height="1051"
     fit-margin-top="0"
     fit-margin-left="0"
     fit-margin-right="0"
     fit-margin-bottom="0"
     inkscape:window-maximized="1" /><g
     id="g3437"
     transform="translate(-479.25352,-325.77221)"><path
       id="path3424"
       style="fill:#f0e539;fill-opacity:1"
       xlink:href="#path3422"
       d="m 590.44785,326.94725 c -1.55008,-1.10288 -3.50949,-1.45986 -5.3348,-0.94104 l -101.32231,28.6248 c -2.12541,0.60488 -3.80264,2.3034 -4.34643,4.46474 -0.54657,2.16421 0.0984,4.48356 1.71409,6.04946 l 75.42986,73.43098 c 1.60873,1.57306 3.94455,2.15552 6.09402,1.55173 2.14664,-0.60375 3.79883,-2.32386 4.34643,-4.46474 L 592.92187,333.6081 c 0.63799,-2.51902 -0.36645,-5.17157 -2.47981,-6.67068 z"
       inkscape:connector-curvature="0" /><path
       id="path3432"
       style="fill:#303a49;fill-opacity:1"
       d="m 589.74962,328.90959 c -0.83792,-0.59878 -1.88806,-0.76346 -2.83502,-0.49386 l -102.03558,28.76082 c -1.12168,0.31994 -2.02904,1.24812 -2.31158,2.37191 -0.28863,1.14437 0.0286,2.3849 0.88083,3.21545 l 75.91249,73.98171 c 0.85079,0.82915 2.09909,1.11574 3.23707,0.79771 1.11753,-0.31282 2.02203,-1.24378 2.31158,-2.37191 l 26.12308,-102.74253 c 0.32942,-1.32664 -0.1481,-2.71361 -1.28994,-3.51921 z m -7.01218,7.91157 -23.08479,88.16266 -64.49841,-62.85793 87.58177,-25.30612 z"
       inkscape:connector-curvature="0" /></g><metadata
     id="metadata7"><rdf:RDF><cc:Work><dc:format>image/svg+xml</dc:format><dc:type
           rdf:resource="http://purl.org/dc/dcmitype/StillImage" /><cc:license
           rdf:resource="http://creativecommons.org/publicdomain/zero/1.0/" /><dc:publisher><cc:Agent
             rdf:about="http://openclipart.org/"><dc:title>Openclipart</dc:title></cc:Agent></dc:publisher><dc:title /><dc:date>2006-09-11T08:59:16</dc:date><dc:description /><dc:source>https://openclipart.org/detail/14420/signs-hazard-warning-by-h0us3s-14420</dc:source><dc:creator><cc:Agent><dc:title>h0us3s</dc:title></cc:Agent></dc:creator><dc:subject><rdf:Bag><rdf:li>hazard</rdf:li><rdf:li>sign</rdf:li><rdf:li>warning</rdf:li></rdf:Bag></dc:subject></cc:Work><cc:License
         rdf:about="http://creativecommons.org/publicdomain/zero/1.0/"><cc:permits
           rdf:resource="http://creativecommons.org/ns#Reproduction" /><cc:permits
           rdf:resource="http://creativecommons.org/ns#Distribution" /><cc:permits
           rdf:resource="http://creativecommons.org/ns#DerivativeWorks" /></cc:License></rdf:RDF></metadata></svg>