<svg xmlns:dc="http://purl.org/dc/elements/1.1/" xmlns:cc="http://creativecommons.org/ns#" xmlns:rdf="http://www.w3.org/1999/02/22-rdf-syntax-ns#" xmlns="http://www.w3.org/2000/svg" height="128" width="128" version="1.0" viewBox="0 0 128 128" id="svg2"><g transform="translate(-164.52 -36.06)" id="layer1"><g style="stroke-width:1.1109798" transform="matrix(1.68183 0 0 2.13613 -75.472 -1046.553)" id="g1886"><ellipse ry="28.088238" rx="35.67535" cy="536.77216" cx="180.75063" style="fill:#2f6f1c;fill-opacity:1;stroke:none;stroke-width:.13468689;stroke-opacity:.99338002" id="path2769-3"/><ellipse ry="26.931782" rx="34.20652" cy="536.57892" cx="180.96497" style="fill:#328518;fill-opacity:1;stroke:none;stroke-width:.12914152;stroke-opacity:.99338002" id="path2769"/><path id="path5462" d="M180.583 509.2c42.076 19.281 9.952 52.307.789 54.016 33.769-1.725 49.62-46.56-.79-54.016zm.789 54.016c-.352.018-.704.038-1.06.046.304.048.662.028 1.06-.046zm-1.06.046c13.027-5.334 25.667-37.709.361-53.83-17.124 13.683-13.54 51.673-.36 53.83zm.361-53.83c-50.48 10.95-28.766 56.106.273 54.062-16.525-.902-36.016-36.254-.273-54.062z" style="opacity:.38028002;fill:#c3f25b;fill-opacity:1;fill-rule:evenodd;stroke-width:.17094307"/></g></g><metadata id="metadata21"><rdf:RDF><cc:Work><dc:format>image/svg+xml</dc:format><dc:type rdf:resource="http://purl.org/dc/dcmitype/StillImage"/><cc:license rdf:resource="http://creativecommons.org/publicdomain/zero/1.0/"/><dc:publisher><cc:Agent rdf:about="http://openclipart.org/"><dc:title>Openclipart</dc:title></cc:Agent></dc:publisher><dc:title/><dc:date>2006-12-30T15:14:49</dc:date><dc:description/><dc:source>https://openclipart.org/detail/2524/watermelon-by-machovka</dc:source><dc:creator><cc:Agent><dc:title>Machovka</dc:title></cc:Agent></dc:creator><dc:subject><rdf:Bag><rdf:li>food</rdf:li><rdf:li>fruit</rdf:li><rdf:li>green</rdf:li><rdf:li>plant</rdf:li><rdf:li>watermelon</rdf:li></rdf:Bag></dc:subject></cc:Work><cc:License rdf:about="http://creativecommons.org/publicdomain/zero/1.0/"><cc:permits rdf:resource="http://creativecommons.org/ns#Reproduction"/><cc:permits rdf:resource="http://creativecommons.org/ns#Distribution"/><cc:permits rdf:resource="http://creativecommons.org/ns#DerivativeWorks"/></cc:License></rdf:RDF></metadata></svg>